<?xml version="1.0" encoding="UTF-8" standalone="no"?>
<!DOCTYPE svg PUBLIC "-//W3C//DTD SVG 1.1//EN"
 "http://www.w3.org/Graphics/SVG/1.1/DTD/svg11.dtd">
<!-- Generated by graphviz version 2.36.0 (20140111.2315)
 -->
<!-- Title: src/calibration/converters/CATCH_TDC.h Pages: 1 -->
<svg width="1984pt" height="186pt"
 viewBox="0.00 0.00 1984.00 186.00" xmlns="http://www.w3.org/2000/svg" xmlns:xlink="http://www.w3.org/1999/xlink">
<g id="graph0" class="graph" transform="scale(1 1) rotate(0) translate(4 182)">
<title>src/calibration/converters/CATCH_TDC.h</title>
<polygon fill="white" stroke="none" points="-4,4 -4,-182 1980,-182 1980,4 -4,4"/>
<!-- Node52 -->
<g id="node1" class="node"><title>Node52</title>
<polygon fill="#bfbfbf" stroke="black" points="957,-147 957,-177 1083,-177 1083,-147 957,-147"/>
<text text-anchor="start" x="965" y="-165" font-family="Helvetica,sans-Serif" font-size="10.00">src/calibration/converters</text>
<text text-anchor="middle" x="1020" y="-154" font-family="Helvetica,sans-Serif" font-size="10.00">/CATCH_TDC.h</text>
</g>
<!-- Node53 -->
<g id="node2" class="node"><title>Node53</title>
<g id="a_node2"><a xlink:href="analysis_2physics_2calibration_2_c_b___source_calib_8h.html" target="_top" xlink:title="src/analysis/physics\l/calibration/CB_SourceCalib.h">
<polygon fill="white" stroke="black" points="2,-74 2,-104 150,-104 150,-74 2,-74"/>
<text text-anchor="start" x="10" y="-92" font-family="Helvetica,sans-Serif" font-size="10.00">src/analysis/physics</text>
<text text-anchor="middle" x="76" y="-81" font-family="Helvetica,sans-Serif" font-size="10.00">/calibration/CB_SourceCalib.h</text>
</a>
</g>
</g>
<!-- Node52&#45;&gt;Node53 -->
<g id="edge1" class="edge"><title>Node52&#45;&gt;Node53</title>
<path fill="none" stroke="midnightblue" d="M946.552,-161.022C797.319,-160.107 448.274,-153.072 159,-110 148.884,-108.494 138.192,-106.347 127.968,-104.013"/>
<polygon fill="midnightblue" stroke="midnightblue" points="946.929,-164.524 956.948,-161.078 946.967,-157.524 946.929,-164.524"/>
</g>
<!-- Node55 -->
<g id="node4" class="node"><title>Node55</title>
<g id="a_node4"><a xlink:href="analysis_2physics_2calibration_2_c_b___time_walk_8cc.html" target="_top" xlink:title="src/analysis/physics\l/calibration/CB_TimeWalk.cc">
<polygon fill="white" stroke="black" points="168,-74 168,-104 312,-104 312,-74 168,-74"/>
<text text-anchor="start" x="176" y="-92" font-family="Helvetica,sans-Serif" font-size="10.00">src/analysis/physics</text>
<text text-anchor="middle" x="240" y="-81" font-family="Helvetica,sans-Serif" font-size="10.00">/calibration/CB_TimeWalk.cc</text>
</a>
</g>
</g>
<!-- Node52&#45;&gt;Node55 -->
<g id="edge3" class="edge"><title>Node52&#45;&gt;Node55</title>
<path fill="none" stroke="midnightblue" d="M946.876,-159.729C819.145,-156.605 547.401,-145.945 321,-110 311.272,-108.456 300.997,-106.32 291.152,-104.017"/>
<polygon fill="midnightblue" stroke="midnightblue" points="946.853,-163.229 956.933,-159.966 947.018,-156.231 946.853,-163.229"/>
</g>
<!-- Node56 -->
<g id="node5" class="node"><title>Node56</title>
<g id="a_node5"><a xlink:href="checkcb_8h.html" target="_top" xlink:title="src/analysis/physics\l/scratch/lheijken/checkcb.h">
<polygon fill="white" stroke="black" points="330,-74 330,-104 466,-104 466,-74 330,-74"/>
<text text-anchor="start" x="338" y="-92" font-family="Helvetica,sans-Serif" font-size="10.00">src/analysis/physics</text>
<text text-anchor="middle" x="398" y="-81" font-family="Helvetica,sans-Serif" font-size="10.00">/scratch/lheijken/checkcb.h</text>
</a>
</g>
</g>
<!-- Node52&#45;&gt;Node56 -->
<g id="edge4" class="edge"><title>Node52&#45;&gt;Node56</title>
<path fill="none" stroke="midnightblue" d="M946.578,-157.792C841.605,-152.374 642.868,-139.029 476,-110 466.91,-108.419 457.322,-106.323 448.098,-104.084"/>
<polygon fill="midnightblue" stroke="midnightblue" points="946.584,-161.296 956.748,-158.307 946.938,-154.305 946.584,-161.296"/>
</g>
<!-- Node58 -->
<g id="node7" class="node"><title>Node58</title>
<g id="a_node7"><a xlink:href="_setup__2007___base_8cc.html" target="_top" xlink:title="src/expconfig/setups\l/Setup_2007_Base.cc">
<polygon fill="white" stroke="black" points="484.5,-74 484.5,-104 597.5,-104 597.5,-74 484.5,-74"/>
<text text-anchor="start" x="492.5" y="-92" font-family="Helvetica,sans-Serif" font-size="10.00">src/expconfig/setups</text>
<text text-anchor="middle" x="541" y="-81" font-family="Helvetica,sans-Serif" font-size="10.00">/Setup_2007_Base.cc</text>
</a>
</g>
</g>
<!-- Node52&#45;&gt;Node58 -->
<g id="edge6" class="edge"><title>Node52&#45;&gt;Node58</title>
<path fill="none" stroke="midnightblue" d="M946.73,-155.767C863.676,-148.956 724.551,-134.877 607,-110 599.386,-108.389 591.384,-106.306 583.681,-104.096"/>
<polygon fill="midnightblue" stroke="midnightblue" points="946.575,-159.266 956.824,-156.582 947.138,-152.289 946.575,-159.266"/>
</g>
<!-- Node59 -->
<g id="node8" class="node"><title>Node59</title>
<g id="a_node8"><a xlink:href="_setup__2010__03___base_8cc.html" target="_top" xlink:title="src/expconfig/setups\l/Setup_2010_03_Base.cc">
<polygon fill="white" stroke="black" points="616,-74 616,-104 744,-104 744,-74 616,-74"/>
<text text-anchor="start" x="624" y="-92" font-family="Helvetica,sans-Serif" font-size="10.00">src/expconfig/setups</text>
<text text-anchor="middle" x="680" y="-81" font-family="Helvetica,sans-Serif" font-size="10.00">/Setup_2010_03_Base.cc</text>
</a>
</g>
</g>
<!-- Node52&#45;&gt;Node59 -->
<g id="edge7" class="edge"><title>Node52&#45;&gt;Node59</title>
<path fill="none" stroke="midnightblue" d="M946.719,-148.605C892.889,-139.112 818.104,-125.111 753,-110 745.32,-108.217 737.23,-106.172 729.344,-104.084"/>
<polygon fill="midnightblue" stroke="midnightblue" points="946.404,-152.103 956.858,-150.384 947.613,-145.208 946.404,-152.103"/>
</g>
<!-- Node60 -->
<g id="node9" class="node"><title>Node60</title>
<g id="a_node9"><a xlink:href="_setup__2014___e_p_t_8cc.html" target="_top" xlink:title="src/expconfig/setups\l/Setup_2014_EPT.cc">
<polygon fill="white" stroke="black" points="762,-74 762,-104 872,-104 872,-74 762,-74"/>
<text text-anchor="start" x="770" y="-92" font-family="Helvetica,sans-Serif" font-size="10.00">src/expconfig/setups</text>
<text text-anchor="middle" x="817" y="-81" font-family="Helvetica,sans-Serif" font-size="10.00">/Setup_2014_EPT.cc</text>
</a>
</g>
</g>
<!-- Node52&#45;&gt;Node60 -->
<g id="edge8" class="edge"><title>Node52&#45;&gt;Node60</title>
<path fill="none" stroke="midnightblue" d="M970.414,-143.657C935.687,-131.511 889.867,-115.485 857.37,-104.12"/>
<polygon fill="midnightblue" stroke="midnightblue" points="969.299,-146.975 979.894,-146.973 971.61,-140.367 969.299,-146.975"/>
</g>
<!-- Node61 -->
<g id="node10" class="node"><title>Node61</title>
<g id="a_node10"><a xlink:href="_setup__2015__01___pion_8cc.html" target="_top" xlink:title="src/expconfig/setups\l/Setup_2015_01_Pion.cc">
<polygon fill="white" stroke="black" points="890.5,-74 890.5,-104 1015.5,-104 1015.5,-74 890.5,-74"/>
<text text-anchor="start" x="898.5" y="-92" font-family="Helvetica,sans-Serif" font-size="10.00">src/expconfig/setups</text>
<text text-anchor="middle" x="953" y="-81" font-family="Helvetica,sans-Serif" font-size="10.00">/Setup_2015_01_Pion.cc</text>
</a>
</g>
</g>
<!-- Node52&#45;&gt;Node61 -->
<g id="edge9" class="edge"><title>Node52&#45;&gt;Node61</title>
<path fill="none" stroke="midnightblue" d="M999.762,-139.554C989.055,-128.207 976.192,-114.577 966.67,-104.486"/>
<polygon fill="midnightblue" stroke="midnightblue" points="997.354,-142.102 1006.76,-146.973 1002.45,-137.298 997.354,-142.102"/>
</g>
<!-- Node62 -->
<g id="node11" class="node"><title>Node62</title>
<g id="a_node11"><a xlink:href="_setup__2017__03_8cc.html" target="_top" xlink:title="src/expconfig/setups\l/Setup_2017_03.cc">
<polygon fill="white" stroke="black" points="1033.5,-74 1033.5,-104 1140.5,-104 1140.5,-74 1033.5,-74"/>
<text text-anchor="start" x="1041.5" y="-92" font-family="Helvetica,sans-Serif" font-size="10.00">src/expconfig/setups</text>
<text text-anchor="middle" x="1087" y="-81" font-family="Helvetica,sans-Serif" font-size="10.00">/Setup_2017_03.cc</text>
</a>
</g>
</g>
<!-- Node52&#45;&gt;Node62 -->
<g id="edge10" class="edge"><title>Node52&#45;&gt;Node62</title>
<path fill="none" stroke="midnightblue" d="M1040.24,-139.554C1050.95,-128.207 1063.81,-114.577 1073.33,-104.486"/>
<polygon fill="midnightblue" stroke="midnightblue" points="1037.55,-137.298 1033.24,-146.973 1042.65,-142.102 1037.55,-137.298"/>
</g>
<!-- Node63 -->
<g id="node12" class="node"><title>Node63</title>
<g id="a_node12"><a xlink:href="_setup__2017__05_8cc.html" target="_top" xlink:title="src/expconfig/setups\l/Setup_2017_05.cc">
<polygon fill="white" stroke="black" points="1158.5,-74 1158.5,-104 1265.5,-104 1265.5,-74 1158.5,-74"/>
<text text-anchor="start" x="1166.5" y="-92" font-family="Helvetica,sans-Serif" font-size="10.00">src/expconfig/setups</text>
<text text-anchor="middle" x="1212" y="-81" font-family="Helvetica,sans-Serif" font-size="10.00">/Setup_2017_05.cc</text>
</a>
</g>
</g>
<!-- Node52&#45;&gt;Node63 -->
<g id="edge11" class="edge"><title>Node52&#45;&gt;Node63</title>
<path fill="none" stroke="midnightblue" d="M1067.32,-143.501C1100.11,-131.374 1143.21,-115.437 1173.82,-104.12"/>
<polygon fill="midnightblue" stroke="midnightblue" points="1066.1,-140.222 1057.93,-146.973 1068.53,-146.787 1066.1,-140.222"/>
</g>
<!-- Node64 -->
<g id="node13" class="node"><title>Node64</title>
<g id="a_node13"><a xlink:href="_setup__2017_plus___new_tagger___base_8cc.html" target="_top" xlink:title="src/expconfig/setups\l/Setup_2017Plus_NewTagger\l_Base.cc">
<polygon fill="white" stroke="black" points="1284,-68.5 1284,-109.5 1430,-109.5 1430,-68.5 1284,-68.5"/>
<text text-anchor="start" x="1292" y="-97.5" font-family="Helvetica,sans-Serif" font-size="10.00">src/expconfig/setups</text>
<text text-anchor="start" x="1292" y="-86.5" font-family="Helvetica,sans-Serif" font-size="10.00">/Setup_2017Plus_NewTagger</text>
<text text-anchor="middle" x="1357" y="-75.5" font-family="Helvetica,sans-Serif" font-size="10.00">_Base.cc</text>
</a>
</g>
</g>
<!-- Node52&#45;&gt;Node64 -->
<g id="edge12" class="edge"><title>Node52&#45;&gt;Node64</title>
<path fill="none" stroke="midnightblue" d="M1092.95,-147.122C1143.8,-137.259 1213.16,-123.432 1274,-110 1277.18,-109.297 1280.43,-108.567 1283.71,-107.82"/>
<polygon fill="midnightblue" stroke="midnightblue" points="1092.18,-143.705 1083.03,-149.04 1093.51,-150.577 1092.18,-143.705"/>
</g>
<!-- Node65 -->
<g id="node14" class="node"><title>Node65</title>
<g id="a_node14"><a xlink:href="_setup__2018__11_8cc.html" target="_top" xlink:title="src/expconfig/setups\l/Setup_2018_11.cc">
<polygon fill="white" stroke="black" points="1448.5,-74 1448.5,-104 1555.5,-104 1555.5,-74 1448.5,-74"/>
<text text-anchor="start" x="1456.5" y="-92" font-family="Helvetica,sans-Serif" font-size="10.00">src/expconfig/setups</text>
<text text-anchor="middle" x="1502" y="-81" font-family="Helvetica,sans-Serif" font-size="10.00">/Setup_2018_11.cc</text>
</a>
</g>
</g>
<!-- Node52&#45;&gt;Node65 -->
<g id="edge13" class="edge"><title>Node52&#45;&gt;Node65</title>
<path fill="none" stroke="midnightblue" d="M1093.31,-156.232C1177.49,-149.801 1319.4,-136.026 1439,-110 1446.4,-108.39 1454.17,-106.28 1461.63,-104.036"/>
<polygon fill="midnightblue" stroke="midnightblue" points="1092.79,-152.761 1083.08,-156.999 1093.31,-159.742 1092.79,-152.761"/>
</g>
<!-- Node66 -->
<g id="node15" class="node"><title>Node66</title>
<g id="a_node15"><a xlink:href="_setup__2019__01_8cc.html" target="_top" xlink:title="src/expconfig/setups\l/Setup_2019_01.cc">
<polygon fill="white" stroke="black" points="1573.5,-74 1573.5,-104 1680.5,-104 1680.5,-74 1573.5,-74"/>
<text text-anchor="start" x="1581.5" y="-92" font-family="Helvetica,sans-Serif" font-size="10.00">src/expconfig/setups</text>
<text text-anchor="middle" x="1627" y="-81" font-family="Helvetica,sans-Serif" font-size="10.00">/Setup_2019_01.cc</text>
</a>
</g>
</g>
<!-- Node52&#45;&gt;Node66 -->
<g id="edge14" class="edge"><title>Node52&#45;&gt;Node66</title>
<path fill="none" stroke="midnightblue" d="M1093.24,-159.096C1198.39,-155.245 1397.79,-143.768 1564,-110 1571.65,-108.446 1579.68,-106.307 1587.35,-104.003"/>
<polygon fill="midnightblue" stroke="midnightblue" points="1092.92,-155.605 1083.05,-159.456 1093.17,-162.6 1092.92,-155.605"/>
</g>
<!-- Node67 -->
<g id="node16" class="node"><title>Node67</title>
<g id="a_node16"><a xlink:href="_setup___c_b_source_calib_8cc.html" target="_top" xlink:title="src/expconfig/setups\l/Setup_CBSourceCalib.cc">
<polygon fill="white" stroke="black" points="1698.5,-74 1698.5,-104 1829.5,-104 1829.5,-74 1698.5,-74"/>
<text text-anchor="start" x="1706.5" y="-92" font-family="Helvetica,sans-Serif" font-size="10.00">src/expconfig/setups</text>
<text text-anchor="middle" x="1764" y="-81" font-family="Helvetica,sans-Serif" font-size="10.00">/Setup_CBSourceCalib.cc</text>
</a>
</g>
</g>
<!-- Node52&#45;&gt;Node67 -->
<g id="edge15" class="edge"><title>Node52&#45;&gt;Node67</title>
<path fill="none" stroke="midnightblue" d="M1093.3,-159.824C1216.96,-156.859 1474.54,-146.447 1689,-110 1698.03,-108.465 1707.56,-106.334 1716.68,-104.032"/>
<polygon fill="midnightblue" stroke="midnightblue" points="1093.11,-156.328 1083.19,-160.057 1093.27,-163.326 1093.11,-156.328"/>
</g>
<!-- Node68 -->
<g id="node17" class="node"><title>Node68</title>
<g id="a_node17"><a xlink:href="expconfig__helpers_8cc.html" target="_top" xlink:title="test/expconfig_helpers.cc">
<polygon fill="white" stroke="black" points="1848,-79.5 1848,-98.5 1976,-98.5 1976,-79.5 1848,-79.5"/>
<text text-anchor="middle" x="1912" y="-86.5" font-family="Helvetica,sans-Serif" font-size="10.00">test/expconfig_helpers.cc</text>
</a>
</g>
</g>
<!-- Node52&#45;&gt;Node68 -->
<g id="edge16" class="edge"><title>Node52&#45;&gt;Node68</title>
<path fill="none" stroke="midnightblue" d="M1093.11,-161.362C1236.82,-160.992 1565.84,-154.792 1838,-110 1854.02,-107.363 1871.58,-102.698 1885.57,-98.5354"/>
<polygon fill="midnightblue" stroke="midnightblue" points="1093.08,-157.862 1083.08,-161.379 1093.09,-164.862 1093.08,-157.862"/>
</g>
<!-- Node54 -->
<g id="node3" class="node"><title>Node54</title>
<g id="a_node3"><a xlink:href="analysis_2physics_2calibration_2_c_b___source_calib_8cc.html" target="_top" xlink:title="src/analysis/physics\l/calibration/CB_SourceCalib.cc">
<polygon fill="white" stroke="black" points="-0.5,-1 -0.5,-31 152.5,-31 152.5,-1 -0.5,-1"/>
<text text-anchor="start" x="7.5" y="-19" font-family="Helvetica,sans-Serif" font-size="10.00">src/analysis/physics</text>
<text text-anchor="middle" x="76" y="-8" font-family="Helvetica,sans-Serif" font-size="10.00">/calibration/CB_SourceCalib.cc</text>
</a>
</g>
</g>
<!-- Node53&#45;&gt;Node54 -->
<g id="edge2" class="edge"><title>Node53&#45;&gt;Node54</title>
<path fill="none" stroke="midnightblue" d="M76,-63.8976C76,-53.1314 76,-40.8005 76,-31.4856"/>
<polygon fill="midnightblue" stroke="midnightblue" points="72.5001,-63.9727 76,-73.9727 79.5001,-63.9727 72.5001,-63.9727"/>
</g>
<!-- Node57 -->
<g id="node6" class="node"><title>Node57</title>
<g id="a_node6"><a xlink:href="checkcb_8cc.html" target="_top" xlink:title="src/analysis/physics\l/scratch/lheijken/checkcb.cc">
<polygon fill="white" stroke="black" points="327.5,-1 327.5,-31 468.5,-31 468.5,-1 327.5,-1"/>
<text text-anchor="start" x="335.5" y="-19" font-family="Helvetica,sans-Serif" font-size="10.00">src/analysis/physics</text>
<text text-anchor="middle" x="398" y="-8" font-family="Helvetica,sans-Serif" font-size="10.00">/scratch/lheijken/checkcb.cc</text>
</a>
</g>
</g>
<!-- Node56&#45;&gt;Node57 -->
<g id="edge5" class="edge"><title>Node56&#45;&gt;Node57</title>
<path fill="none" stroke="midnightblue" d="M398,-63.8976C398,-53.1314 398,-40.8005 398,-31.4856"/>
<polygon fill="midnightblue" stroke="midnightblue" points="394.5,-63.9727 398,-73.9727 401.5,-63.9727 394.5,-63.9727"/>
</g>
</g>
</svg>
