<?xml version="1.0" encoding="UTF-8" standalone="no"?>
<!DOCTYPE svg PUBLIC "-//W3C//DTD SVG 1.1//EN"
 "http://www.w3.org/Graphics/SVG/1.1/DTD/svg11.dtd">
<!-- Generated by graphviz version 2.36.0 (20140111.2315)
 -->
<!-- Title: src/calibration/modules/CalibType.h Pages: 1 -->
<svg width="2311pt" height="254pt"
 viewBox="0.00 0.00 2311.00 254.00" xmlns="http://www.w3.org/2000/svg" xmlns:xlink="http://www.w3.org/1999/xlink">
<g id="graph0" class="graph" transform="scale(1 1) rotate(0) translate(4 250)">
<title>src/calibration/modules/CalibType.h</title>
<polygon fill="white" stroke="none" points="-4,4 -4,-250 2307,-250 2307,4 -4,4"/>
<!-- Node49 -->
<g id="node1" class="node"><title>Node49</title>
<polygon fill="#bfbfbf" stroke="black" points="1157.5,-215 1157.5,-245 1274.5,-245 1274.5,-215 1157.5,-215"/>
<text text-anchor="start" x="1165.5" y="-233" font-family="Helvetica,sans-Serif" font-size="10.00">src/calibration/modules</text>
<text text-anchor="middle" x="1216" y="-222" font-family="Helvetica,sans-Serif" font-size="10.00">/CalibType.h</text>
</g>
<!-- Node50 -->
<g id="node2" class="node"><title>Node50</title>
<g id="a_node2"><a xlink:href="_calib_type_8cc.html" target="_top" xlink:title="src/calibration/modules\l/CalibType.cc">
<polygon fill="white" stroke="black" points="1022.5,-147 1022.5,-177 1139.5,-177 1139.5,-147 1022.5,-147"/>
<text text-anchor="start" x="1030.5" y="-165" font-family="Helvetica,sans-Serif" font-size="10.00">src/calibration/modules</text>
<text text-anchor="middle" x="1081" y="-154" font-family="Helvetica,sans-Serif" font-size="10.00">/CalibType.cc</text>
</a>
</g>
</g>
<!-- Node49&#45;&gt;Node50 -->
<g id="edge1" class="edge"><title>Node49&#45;&gt;Node50</title>
<path fill="none" stroke="midnightblue" d="M1177.83,-210.339C1156.27,-199.796 1129.74,-186.83 1109.91,-177.135"/>
<polygon fill="midnightblue" stroke="midnightblue" points="1176.52,-213.594 1187.04,-214.841 1179.59,-207.305 1176.52,-213.594"/>
</g>
<!-- Node51 -->
<g id="node3" class="node"><title>Node51</title>
<g id="a_node3"><a xlink:href="_energy_8h.html" target="_top" xlink:title="src/calibration/modules\l/Energy.h">
<polygon fill="white" stroke="black" points="1157.5,-147 1157.5,-177 1274.5,-177 1274.5,-147 1157.5,-147"/>
<text text-anchor="start" x="1165.5" y="-165" font-family="Helvetica,sans-Serif" font-size="10.00">src/calibration/modules</text>
<text text-anchor="middle" x="1216" y="-154" font-family="Helvetica,sans-Serif" font-size="10.00">/Energy.h</text>
</a>
</g>
</g>
<!-- Node49&#45;&gt;Node51 -->
<g id="edge2" class="edge"><title>Node49&#45;&gt;Node51</title>
<path fill="none" stroke="midnightblue" d="M1216,-204.532C1216,-195.361 1216,-185.245 1216,-177.293"/>
<polygon fill="midnightblue" stroke="midnightblue" points="1212.5,-204.679 1216,-214.679 1219.5,-204.679 1212.5,-204.679"/>
</g>
<!-- Node76 -->
<g id="node28" class="node"><title>Node76</title>
<g id="a_node28"><a xlink:href="_energy___g_u_i_8h.html" target="_top" xlink:title="src/calibration/modules\l/Energy_GUI.h">
<polygon fill="white" stroke="black" points="1873.5,-147 1873.5,-177 1990.5,-177 1990.5,-147 1873.5,-147"/>
<text text-anchor="start" x="1881.5" y="-165" font-family="Helvetica,sans-Serif" font-size="10.00">src/calibration/modules</text>
<text text-anchor="middle" x="1932" y="-154" font-family="Helvetica,sans-Serif" font-size="10.00">/Energy_GUI.h</text>
</a>
</g>
</g>
<!-- Node49&#45;&gt;Node76 -->
<g id="edge68" class="edge"><title>Node49&#45;&gt;Node76</title>
<path fill="none" stroke="midnightblue" d="M1284.79,-222.659C1425.09,-209.727 1742.07,-180.508 1873.35,-168.406"/>
<polygon fill="midnightblue" stroke="midnightblue" points="1284.23,-219.196 1274.59,-223.599 1284.87,-226.166 1284.23,-219.196"/>
</g>
<!-- Node52 -->
<g id="node4" class="node"><title>Node52</title>
<g id="a_node4"><a xlink:href="calibration_2modules_2_c_b___energy_8h.html" target="_top" xlink:title="src/calibration/modules\l/CB_Energy.h">
<polygon fill="white" stroke="black" points="819.5,-79 819.5,-109 936.5,-109 936.5,-79 819.5,-79"/>
<text text-anchor="start" x="827.5" y="-97" font-family="Helvetica,sans-Serif" font-size="10.00">src/calibration/modules</text>
<text text-anchor="middle" x="878" y="-86" font-family="Helvetica,sans-Serif" font-size="10.00">/CB_Energy.h</text>
</a>
</g>
</g>
<!-- Node51&#45;&gt;Node52 -->
<g id="edge3" class="edge"><title>Node51&#45;&gt;Node52</title>
<path fill="none" stroke="midnightblue" d="M1147.55,-145.962C1056.91,-128.13 1032.38,-127.216 946,-110 942.917,-109.386 939.76,-108.741 936.573,-108.079"/>
<polygon fill="midnightblue" stroke="midnightblue" points="1146.94,-149.409 1157.43,-147.921 1148.3,-142.543 1146.94,-149.409"/>
</g>
<!-- Node65 -->
<g id="node17" class="node"><title>Node65</title>
<g id="a_node17"><a xlink:href="calibration_2modules_2_c_b___source_calib_8h.html" target="_top" xlink:title="src/calibration/modules\l/CB_SourceCalib.h">
<polygon fill="white" stroke="black" points="141.5,-79 141.5,-109 258.5,-109 258.5,-79 141.5,-79"/>
<text text-anchor="start" x="149.5" y="-97" font-family="Helvetica,sans-Serif" font-size="10.00">src/calibration/modules</text>
<text text-anchor="middle" x="200" y="-86" font-family="Helvetica,sans-Serif" font-size="10.00">/CB_SourceCalib.h</text>
</a>
</g>
</g>
<!-- Node51&#45;&gt;Node65 -->
<g id="edge16" class="edge"><title>Node51&#45;&gt;Node65</title>
<path fill="none" stroke="midnightblue" d="M1147.05,-146.034C805.715,-100.333 406.237,-95.1298 258.566,-94.8352"/>
<polygon fill="midnightblue" stroke="midnightblue" points="1146.75,-149.526 1157.13,-147.398 1147.69,-142.589 1146.75,-149.526"/>
</g>
<!-- Node67 -->
<g id="node19" class="node"><title>Node67</title>
<g id="a_node19"><a xlink:href="_energy_8cc.html" target="_top" xlink:title="src/calibration/modules\l/Energy.cc">
<polygon fill="white" stroke="black" points="954.5,-79 954.5,-109 1071.5,-109 1071.5,-79 954.5,-79"/>
<text text-anchor="start" x="962.5" y="-97" font-family="Helvetica,sans-Serif" font-size="10.00">src/calibration/modules</text>
<text text-anchor="middle" x="1013" y="-86" font-family="Helvetica,sans-Serif" font-size="10.00">/Energy.cc</text>
</a>
</g>
</g>
<!-- Node51&#45;&gt;Node67 -->
<g id="edge19" class="edge"><title>Node51&#45;&gt;Node67</title>
<path fill="none" stroke="midnightblue" d="M1162.88,-143.731C1129.62,-132.916 1087.31,-119.159 1056.13,-109.022"/>
<polygon fill="midnightblue" stroke="midnightblue" points="1161.86,-147.078 1172.45,-146.841 1164.02,-140.421 1161.86,-147.078"/>
</g>
<!-- Node68 -->
<g id="node20" class="node"><title>Node68</title>
<g id="a_node20"><a xlink:href="calibration_2modules_2_p_i_d___energy_8h.html" target="_top" xlink:title="src/calibration/modules\l/PID_Energy.h">
<polygon fill="white" stroke="black" points="1494.5,-79 1494.5,-109 1611.5,-109 1611.5,-79 1494.5,-79"/>
<text text-anchor="start" x="1502.5" y="-97" font-family="Helvetica,sans-Serif" font-size="10.00">src/calibration/modules</text>
<text text-anchor="middle" x="1553" y="-86" font-family="Helvetica,sans-Serif" font-size="10.00">/PID_Energy.h</text>
</a>
</g>
</g>
<!-- Node51&#45;&gt;Node68 -->
<g id="edge20" class="edge"><title>Node51&#45;&gt;Node68</title>
<path fill="none" stroke="midnightblue" d="M1284.49,-148.596C1338.92,-138.598 1416.94,-123.954 1485,-110 1488.08,-109.369 1491.23,-108.711 1494.42,-108.038"/>
<polygon fill="midnightblue" stroke="midnightblue" points="1283.81,-145.162 1274.61,-150.408 1285.07,-152.047 1283.81,-145.162"/>
</g>
<!-- Node70 -->
<g id="node22" class="node"><title>Node70</title>
<g id="a_node22"><a xlink:href="calibration_2modules_2_t_a_p_s___energy_8h.html" target="_top" xlink:title="src/calibration/modules\l/TAPS_Energy.h">
<polygon fill="white" stroke="black" points="1359.5,-79 1359.5,-109 1476.5,-109 1476.5,-79 1359.5,-79"/>
<text text-anchor="start" x="1367.5" y="-97" font-family="Helvetica,sans-Serif" font-size="10.00">src/calibration/modules</text>
<text text-anchor="middle" x="1418" y="-86" font-family="Helvetica,sans-Serif" font-size="10.00">/TAPS_Energy.h</text>
</a>
</g>
</g>
<!-- Node51&#45;&gt;Node70 -->
<g id="edge32" class="edge"><title>Node51&#45;&gt;Node70</title>
<path fill="none" stroke="midnightblue" d="M1268.85,-143.731C1301.95,-132.916 1344.06,-119.159 1375.08,-109.022"/>
<polygon fill="midnightblue" stroke="midnightblue" points="1267.75,-140.409 1259.33,-146.841 1269.93,-147.062 1267.75,-140.409"/>
</g>
<!-- Node72 -->
<g id="node24" class="node"><title>Node72</title>
<g id="a_node24"><a xlink:href="calibration_2modules_2_t_a_p_s___short_energy_8h.html" target="_top" xlink:title="src/calibration/modules\l/TAPS_ShortEnergy.h">
<polygon fill="white" stroke="black" points="1089.5,-79 1089.5,-109 1206.5,-109 1206.5,-79 1089.5,-79"/>
<text text-anchor="start" x="1097.5" y="-97" font-family="Helvetica,sans-Serif" font-size="10.00">src/calibration/modules</text>
<text text-anchor="middle" x="1148" y="-86" font-family="Helvetica,sans-Serif" font-size="10.00">/TAPS_ShortEnergy.h</text>
</a>
</g>
</g>
<!-- Node51&#45;&gt;Node72 -->
<g id="edge44" class="edge"><title>Node51&#45;&gt;Node72</title>
<path fill="none" stroke="midnightblue" d="M1193.83,-139.485C1183.63,-129.585 1171.81,-118.109 1162.73,-109.293"/>
<polygon fill="midnightblue" stroke="midnightblue" points="1191.63,-142.226 1201.25,-146.679 1196.51,-137.203 1191.63,-142.226"/>
</g>
<!-- Node74 -->
<g id="node26" class="node"><title>Node74</title>
<g id="a_node26"><a xlink:href="calibration_2modules_2_t_a_p_s_veto___energy_8h.html" target="_top" xlink:title="src/calibration/modules\l/TAPSVeto_Energy.h">
<polygon fill="white" stroke="black" points="1224.5,-79 1224.5,-109 1341.5,-109 1341.5,-79 1224.5,-79"/>
<text text-anchor="start" x="1232.5" y="-97" font-family="Helvetica,sans-Serif" font-size="10.00">src/calibration/modules</text>
<text text-anchor="middle" x="1283" y="-86" font-family="Helvetica,sans-Serif" font-size="10.00">/TAPSVeto_Energy.h</text>
</a>
</g>
</g>
<!-- Node51&#45;&gt;Node74 -->
<g id="edge56" class="edge"><title>Node51&#45;&gt;Node74</title>
<path fill="none" stroke="midnightblue" d="M1237.84,-139.485C1247.89,-129.585 1259.54,-118.109 1268.49,-109.293"/>
<polygon fill="midnightblue" stroke="midnightblue" points="1235.21,-137.168 1230.54,-146.679 1240.12,-142.155 1235.21,-137.168"/>
</g>
<!-- Node53 -->
<g id="node5" class="node"><title>Node53</title>
<g id="a_node5"><a xlink:href="calibration_2modules_2_c_b___energy_8cc.html" target="_top" xlink:title="src/calibration/modules\l/CB_Energy.cc">
<polygon fill="white" stroke="black" points="283.5,-6 283.5,-36 400.5,-36 400.5,-6 283.5,-6"/>
<text text-anchor="start" x="291.5" y="-24" font-family="Helvetica,sans-Serif" font-size="10.00">src/calibration/modules</text>
<text text-anchor="middle" x="342" y="-13" font-family="Helvetica,sans-Serif" font-size="10.00">/CB_Energy.cc</text>
</a>
</g>
</g>
<!-- Node52&#45;&gt;Node53 -->
<g id="edge4" class="edge"><title>Node52&#45;&gt;Node53</title>
<path fill="none" stroke="midnightblue" d="M809.338,-89.45C717.422,-83.809 549.644,-70.393 409,-42 401.147,-40.4146 392.889,-38.3173 384.958,-36.0774"/>
<polygon fill="midnightblue" stroke="midnightblue" points="809.158,-92.9454 819.35,-90.052 809.578,-85.958 809.158,-92.9454"/>
</g>
<!-- Node54 -->
<g id="node6" class="node"><title>Node54</title>
<g id="a_node6"><a xlink:href="_setup__2007___base_8cc.html" target="_top" xlink:title="src/expconfig/setups\l/Setup_2007_Base.cc">
<polygon fill="white" stroke="black" points="952.5,-6 952.5,-36 1065.5,-36 1065.5,-6 952.5,-6"/>
<text text-anchor="start" x="960.5" y="-24" font-family="Helvetica,sans-Serif" font-size="10.00">src/expconfig/setups</text>
<text text-anchor="middle" x="1009" y="-13" font-family="Helvetica,sans-Serif" font-size="10.00">/Setup_2007_Base.cc</text>
</a>
</g>
</g>
<!-- Node52&#45;&gt;Node54 -->
<g id="edge5" class="edge"><title>Node52&#45;&gt;Node54</title>
<path fill="none" stroke="midnightblue" d="M912.879,-74.0959C934.812,-62.2085 962.656,-47.1176 982.724,-36.2412"/>
<polygon fill="midnightblue" stroke="midnightblue" points="911.005,-71.1305 903.881,-78.9727 914.341,-77.2848 911.005,-71.1305"/>
</g>
<!-- Node55 -->
<g id="node7" class="node"><title>Node55</title>
<g id="a_node7"><a xlink:href="_setup__2010__03___base_8cc.html" target="_top" xlink:title="src/expconfig/setups\l/Setup_2010_03_Base.cc">
<polygon fill="white" stroke="black" points="1084,-6 1084,-36 1212,-36 1212,-6 1084,-6"/>
<text text-anchor="start" x="1092" y="-24" font-family="Helvetica,sans-Serif" font-size="10.00">src/expconfig/setups</text>
<text text-anchor="middle" x="1148" y="-13" font-family="Helvetica,sans-Serif" font-size="10.00">/Setup_2010_03_Base.cc</text>
</a>
</g>
</g>
<!-- Node52&#45;&gt;Node55 -->
<g id="edge6" class="edge"><title>Node52&#45;&gt;Node55</title>
<path fill="none" stroke="midnightblue" d="M942.505,-76.3784C980.752,-66.4822 1030.17,-53.6259 1074,-42 1081.2,-40.0894 1088.8,-38.0577 1096.26,-36.0492"/>
<polygon fill="midnightblue" stroke="midnightblue" points="941.336,-73.0653 932.531,-78.9575 943.089,-79.8424 941.336,-73.0653"/>
</g>
<!-- Node56 -->
<g id="node8" class="node"><title>Node56</title>
<g id="a_node8"><a xlink:href="_setup__2014___e_p_t_8cc.html" target="_top" xlink:title="src/expconfig/setups\l/Setup_2014_EPT.cc">
<polygon fill="white" stroke="black" points="1230,-6 1230,-36 1340,-36 1340,-6 1230,-6"/>
<text text-anchor="start" x="1238" y="-24" font-family="Helvetica,sans-Serif" font-size="10.00">src/expconfig/setups</text>
<text text-anchor="middle" x="1285" y="-13" font-family="Helvetica,sans-Serif" font-size="10.00">/Setup_2014_EPT.cc</text>
</a>
</g>
</g>
<!-- Node52&#45;&gt;Node56 -->
<g id="edge7" class="edge"><title>Node52&#45;&gt;Node56</title>
<path fill="none" stroke="midnightblue" d="M946.693,-77.9962C1069.22,-57.2982 1103.79,-67.7839 1221,-42 1228.39,-40.3744 1236.15,-38.2849 1243.62,-36.0719"/>
<polygon fill="midnightblue" stroke="midnightblue" points="945.8,-74.5984 936.541,-79.7478 946.991,-81.4965 945.8,-74.5984"/>
</g>
<!-- Node57 -->
<g id="node9" class="node"><title>Node57</title>
<g id="a_node9"><a xlink:href="_setup__2015__01___pion_8cc.html" target="_top" xlink:title="src/expconfig/setups\l/Setup_2015_01_Pion.cc">
<polygon fill="white" stroke="black" points="1358.5,-6 1358.5,-36 1483.5,-36 1483.5,-6 1358.5,-6"/>
<text text-anchor="start" x="1366.5" y="-24" font-family="Helvetica,sans-Serif" font-size="10.00">src/expconfig/setups</text>
<text text-anchor="middle" x="1421" y="-13" font-family="Helvetica,sans-Serif" font-size="10.00">/Setup_2015_01_Pion.cc</text>
</a>
</g>
</g>
<!-- Node52&#45;&gt;Node57 -->
<g id="edge8" class="edge"><title>Node52&#45;&gt;Node57</title>
<path fill="none" stroke="midnightblue" d="M946.528,-78.0717C1125.51,-51.4112 1175.28,-73.6158 1349,-42 1357.55,-40.4437 1366.56,-38.3321 1375.2,-36.0624"/>
<polygon fill="midnightblue" stroke="midnightblue" points="945.876,-74.6305 936.516,-79.5935 946.928,-81.551 945.876,-74.6305"/>
</g>
<!-- Node58 -->
<g id="node10" class="node"><title>Node58</title>
<g id="a_node10"><a xlink:href="_setup__2017__03_8cc.html" target="_top" xlink:title="src/expconfig/setups\l/Setup_2017_03.cc">
<polygon fill="white" stroke="black" points="1501.5,-6 1501.5,-36 1608.5,-36 1608.5,-6 1501.5,-6"/>
<text text-anchor="start" x="1509.5" y="-24" font-family="Helvetica,sans-Serif" font-size="10.00">src/expconfig/setups</text>
<text text-anchor="middle" x="1555" y="-13" font-family="Helvetica,sans-Serif" font-size="10.00">/Setup_2017_03.cc</text>
</a>
</g>
</g>
<!-- Node52&#45;&gt;Node58 -->
<g id="edge9" class="edge"><title>Node52&#45;&gt;Node58</title>
<path fill="none" stroke="midnightblue" d="M946.665,-78.0817C1188.61,-44.8794 1256.3,-86.5045 1492,-42 1499.78,-40.5309 1507.94,-38.4008 1515.72,-36.0728"/>
<polygon fill="midnightblue" stroke="midnightblue" points="945.92,-74.6519 936.503,-79.506 946.892,-81.5841 945.92,-74.6519"/>
</g>
<!-- Node59 -->
<g id="node11" class="node"><title>Node59</title>
<g id="a_node11"><a xlink:href="_setup__2017__05_8cc.html" target="_top" xlink:title="src/expconfig/setups\l/Setup_2017_05.cc">
<polygon fill="white" stroke="black" points="1626.5,-6 1626.5,-36 1733.5,-36 1733.5,-6 1626.5,-6"/>
<text text-anchor="start" x="1634.5" y="-24" font-family="Helvetica,sans-Serif" font-size="10.00">src/expconfig/setups</text>
<text text-anchor="middle" x="1680" y="-13" font-family="Helvetica,sans-Serif" font-size="10.00">/Setup_2017_05.cc</text>
</a>
</g>
</g>
<!-- Node52&#45;&gt;Node59 -->
<g id="edge10" class="edge"><title>Node52&#45;&gt;Node59</title>
<path fill="none" stroke="midnightblue" d="M947.06,-78.03C1243.77,-38.986 1326.5,-95.0118 1617,-42 1624.9,-40.558 1633.19,-38.4092 1641.07,-36.0479"/>
<polygon fill="midnightblue" stroke="midnightblue" points="946.312,-74.5988 936.866,-79.3974 947.243,-81.5367 946.312,-74.5988"/>
</g>
<!-- Node60 -->
<g id="node12" class="node"><title>Node60</title>
<g id="a_node12"><a xlink:href="_setup__2017_plus___new_tagger___base_8cc.html" target="_top" xlink:title="src/expconfig/setups\l/Setup_2017Plus_NewTagger\l_Base.cc">
<polygon fill="white" stroke="black" points="1752,-0.5 1752,-41.5 1898,-41.5 1898,-0.5 1752,-0.5"/>
<text text-anchor="start" x="1760" y="-29.5" font-family="Helvetica,sans-Serif" font-size="10.00">src/expconfig/setups</text>
<text text-anchor="start" x="1760" y="-18.5" font-family="Helvetica,sans-Serif" font-size="10.00">/Setup_2017Plus_NewTagger</text>
<text text-anchor="middle" x="1825" y="-7.5" font-family="Helvetica,sans-Serif" font-size="10.00">_Base.cc</text>
</a>
</g>
</g>
<!-- Node52&#45;&gt;Node60 -->
<g id="edge11" class="edge"><title>Node52&#45;&gt;Node60</title>
<path fill="none" stroke="midnightblue" d="M946.82,-78.0673C1298.87,-32.7907 1394.62,-91.2461 1742,-42 1745.23,-41.5423 1748.52,-41.0156 1751.83,-40.435"/>
<polygon fill="midnightblue" stroke="midnightblue" points="946.325,-74.6021 936.862,-79.3667 947.231,-81.5432 946.325,-74.6021"/>
</g>
<!-- Node61 -->
<g id="node13" class="node"><title>Node61</title>
<g id="a_node13"><a xlink:href="_setup__2018__11_8cc.html" target="_top" xlink:title="src/expconfig/setups\l/Setup_2018_11.cc">
<polygon fill="white" stroke="black" points="555.5,-6 555.5,-36 662.5,-36 662.5,-6 555.5,-6"/>
<text text-anchor="start" x="563.5" y="-24" font-family="Helvetica,sans-Serif" font-size="10.00">src/expconfig/setups</text>
<text text-anchor="middle" x="609" y="-13" font-family="Helvetica,sans-Serif" font-size="10.00">/Setup_2018_11.cc</text>
</a>
</g>
</g>
<!-- Node52&#45;&gt;Node61 -->
<g id="edge12" class="edge"><title>Node52&#45;&gt;Node61</title>
<path fill="none" stroke="midnightblue" d="M809.504,-77.4046C769.029,-67.871 716.883,-55.0353 671,-42 664.581,-40.1764 657.828,-38.1311 651.235,-36.063"/>
<polygon fill="midnightblue" stroke="midnightblue" points="808.733,-80.8186 819.268,-79.6937 810.331,-74.0034 808.733,-80.8186"/>
</g>
<!-- Node62 -->
<g id="node14" class="node"><title>Node62</title>
<g id="a_node14"><a xlink:href="_setup__2019__01_8cc.html" target="_top" xlink:title="src/expconfig/setups\l/Setup_2019_01.cc">
<polygon fill="white" stroke="black" points="680.5,-6 680.5,-36 787.5,-36 787.5,-6 680.5,-6"/>
<text text-anchor="start" x="688.5" y="-24" font-family="Helvetica,sans-Serif" font-size="10.00">src/expconfig/setups</text>
<text text-anchor="middle" x="734" y="-13" font-family="Helvetica,sans-Serif" font-size="10.00">/Setup_2019_01.cc</text>
</a>
</g>
</g>
<!-- Node52&#45;&gt;Node62 -->
<g id="edge13" class="edge"><title>Node52&#45;&gt;Node62</title>
<path fill="none" stroke="midnightblue" d="M840.303,-74.4135C816.097,-62.4783 785.14,-47.2147 762.884,-36.2412"/>
<polygon fill="midnightblue" stroke="midnightblue" points="839.033,-77.6896 849.55,-78.9727 842.129,-71.4112 839.033,-77.6896"/>
</g>
<!-- Node63 -->
<g id="node15" class="node"><title>Node63</title>
<g id="a_node15"><a xlink:href="_setup___c_b_source_calib_8cc.html" target="_top" xlink:title="src/expconfig/setups\l/Setup_CBSourceCalib.cc">
<polygon fill="white" stroke="black" points="134.5,-6 134.5,-36 265.5,-36 265.5,-6 134.5,-6"/>
<text text-anchor="start" x="142.5" y="-24" font-family="Helvetica,sans-Serif" font-size="10.00">src/expconfig/setups</text>
<text text-anchor="middle" x="200" y="-13" font-family="Helvetica,sans-Serif" font-size="10.00">/Setup_CBSourceCalib.cc</text>
</a>
</g>
</g>
<!-- Node52&#45;&gt;Node63 -->
<g id="edge14" class="edge"><title>Node52&#45;&gt;Node63</title>
<path fill="none" stroke="midnightblue" d="M809.036,-91.2028C696.326,-87.3672 465.966,-75.7632 274,-42 265.218,-40.4555 255.965,-38.3495 247.087,-36.0817"/>
<polygon fill="midnightblue" stroke="midnightblue" points="809.133,-94.7079 819.243,-91.5398 809.364,-87.7117 809.133,-94.7079"/>
</g>
<!-- Node64 -->
<g id="node16" class="node"><title>Node64</title>
<g id="a_node16"><a xlink:href="expconfig__helpers_8cc.html" target="_top" xlink:title="test/expconfig_helpers.cc">
<polygon fill="white" stroke="black" points="806,-11.5 806,-30.5 934,-30.5 934,-11.5 806,-11.5"/>
<text text-anchor="middle" x="870" y="-18.5" font-family="Helvetica,sans-Serif" font-size="10.00">test/expconfig_helpers.cc</text>
</a>
</g>
</g>
<!-- Node52&#45;&gt;Node64 -->
<g id="edge15" class="edge"><title>Node52&#45;&gt;Node64</title>
<path fill="none" stroke="midnightblue" d="M875.299,-69.0259C873.806,-55.7769 872.042,-40.1252 870.973,-30.6372"/>
<polygon fill="midnightblue" stroke="midnightblue" points="871.822,-69.4275 876.419,-78.9727 878.778,-68.6436 871.822,-69.4275"/>
</g>
<!-- Node65&#45;&gt;Node63 -->
<g id="edge18" class="edge"><title>Node65&#45;&gt;Node63</title>
<path fill="none" stroke="midnightblue" d="M200,-68.8976C200,-58.1314 200,-45.8005 200,-36.4856"/>
<polygon fill="midnightblue" stroke="midnightblue" points="196.5,-68.9727 200,-78.9727 203.5,-68.9727 196.5,-68.9727"/>
</g>
<!-- Node66 -->
<g id="node18" class="node"><title>Node66</title>
<g id="a_node18"><a xlink:href="calibration_2modules_2_c_b___source_calib_8cc.html" target="_top" xlink:title="src/calibration/modules\l/CB_SourceCalib.cc">
<polygon fill="white" stroke="black" points="-0.5,-6 -0.5,-36 116.5,-36 116.5,-6 -0.5,-6"/>
<text text-anchor="start" x="7.5" y="-24" font-family="Helvetica,sans-Serif" font-size="10.00">src/calibration/modules</text>
<text text-anchor="middle" x="58" y="-13" font-family="Helvetica,sans-Serif" font-size="10.00">/CB_SourceCalib.cc</text>
</a>
</g>
</g>
<!-- Node65&#45;&gt;Node66 -->
<g id="edge17" class="edge"><title>Node65&#45;&gt;Node66</title>
<path fill="none" stroke="midnightblue" d="M162.827,-74.4135C138.957,-62.4783 108.429,-47.2147 86.4824,-36.2412"/>
<polygon fill="midnightblue" stroke="midnightblue" points="161.436,-77.631 171.945,-78.9727 164.566,-71.37 161.436,-77.631"/>
</g>
<!-- Node68&#45;&gt;Node54 -->
<g id="edge22" class="edge"><title>Node68&#45;&gt;Node54</title>
<path fill="none" stroke="midnightblue" d="M1484.58,-78.0913C1302.41,-51.1517 1251.44,-76.0995 1075,-42 1067.01,-40.4551 1058.6,-38.3199 1050.57,-36.0168"/>
<polygon fill="midnightblue" stroke="midnightblue" points="1484.07,-81.5547 1494.49,-79.5879 1485.12,-74.6332 1484.07,-81.5547"/>
</g>
<!-- Node68&#45;&gt;Node55 -->
<g id="edge23" class="edge"><title>Node68&#45;&gt;Node55</title>
<path fill="none" stroke="midnightblue" d="M1484.32,-77.9872C1366.64,-57.6675 1333.85,-65.0488 1221,-42 1212.76,-40.3171 1204.08,-38.2256 1195.69,-36.0351"/>
<polygon fill="midnightblue" stroke="midnightblue" points="1484,-81.4837 1494.46,-79.7679 1485.21,-74.5894 1484,-81.4837"/>
</g>
<!-- Node68&#45;&gt;Node56 -->
<g id="edge24" class="edge"><title>Node68&#45;&gt;Node56</title>
<path fill="none" stroke="midnightblue" d="M1484.37,-76.7062C1444.93,-67.1047 1394.53,-54.434 1350,-42 1343.4,-40.1581 1336.46,-38.1243 1329.67,-36.0799"/>
<polygon fill="midnightblue" stroke="midnightblue" points="1483.61,-80.1229 1494.16,-79.0791 1485.26,-73.3202 1483.61,-80.1229"/>
</g>
<!-- Node68&#45;&gt;Node57 -->
<g id="edge25" class="edge"><title>Node68&#45;&gt;Node57</title>
<path fill="none" stroke="midnightblue" d="M1517.85,-74.0959C1495.75,-62.2085 1467.7,-47.1176 1447.48,-36.2412"/>
<polygon fill="midnightblue" stroke="midnightblue" points="1516.46,-77.318 1526.92,-78.9727 1519.77,-71.1532 1516.46,-77.318"/>
</g>
<!-- Node68&#45;&gt;Node58 -->
<g id="edge26" class="edge"><title>Node68&#45;&gt;Node58</title>
<path fill="none" stroke="midnightblue" d="M1553.68,-68.8976C1553.98,-58.1314 1554.33,-45.8005 1554.59,-36.4856"/>
<polygon fill="midnightblue" stroke="midnightblue" points="1550.18,-68.8781 1553.4,-78.9727 1557.18,-69.0752 1550.18,-68.8781"/>
</g>
<!-- Node68&#45;&gt;Node59 -->
<g id="edge27" class="edge"><title>Node68&#45;&gt;Node59</title>
<path fill="none" stroke="midnightblue" d="M1587.1,-73.9365C1608.32,-62.0739 1635.16,-47.069 1654.53,-36.2412"/>
<polygon fill="midnightblue" stroke="midnightblue" points="1585.11,-71.0379 1578.09,-78.9727 1588.53,-77.1479 1585.11,-71.0379"/>
</g>
<!-- Node68&#45;&gt;Node60 -->
<g id="edge28" class="edge"><title>Node68&#45;&gt;Node60</title>
<path fill="none" stroke="midnightblue" d="M1616.49,-76.4266C1656.97,-65.8596 1709.57,-52.1308 1751.81,-41.1055"/>
<polygon fill="midnightblue" stroke="midnightblue" points="1615.53,-73.0604 1606.74,-78.9727 1617.3,-79.8335 1615.53,-73.0604"/>
</g>
<!-- Node68&#45;&gt;Node61 -->
<g id="edge29" class="edge"><title>Node68&#45;&gt;Node61</title>
<path fill="none" stroke="midnightblue" d="M1483.96,-78.0438C1124.1,-32.2064 1024.1,-105.567 671,-42 663.097,-40.5772 654.809,-38.4053 646.957,-36.0091"/>
<polygon fill="midnightblue" stroke="midnightblue" points="1483.77,-81.5485 1494.14,-79.363 1484.67,-74.6066 1483.77,-81.5485"/>
</g>
<!-- Node68&#45;&gt;Node62 -->
<g id="edge30" class="edge"><title>Node68&#45;&gt;Node62</title>
<path fill="none" stroke="midnightblue" d="M1484.14,-78.0578C1179.76,-38.1551 1095.02,-96.1809 797,-42 789.097,-40.5632 780.805,-38.4168 772.929,-36.0562"/>
<polygon fill="midnightblue" stroke="midnightblue" points="1483.76,-81.5378 1494.13,-79.3926 1484.69,-74.5995 1483.76,-81.5378"/>
</g>
<!-- Node68&#45;&gt;Node64 -->
<g id="edge31" class="edge"><title>Node68&#45;&gt;Node64</title>
<path fill="none" stroke="midnightblue" d="M1484.42,-78.0905C1244.64,-44.965 1178.45,-81.0877 944,-42 927.985,-39.3299 910.428,-34.6625 896.436,-30.5079"/>
<polygon fill="midnightblue" stroke="midnightblue" points="1484.11,-81.5802 1494.5,-79.5083 1485.08,-74.6485 1484.11,-81.5802"/>
</g>
<!-- Node69 -->
<g id="node21" class="node"><title>Node69</title>
<g id="a_node21"><a xlink:href="calibration_2modules_2_p_i_d___energy_8cc.html" target="_top" xlink:title="src/calibration/modules\l/PID_Energy.cc">
<polygon fill="white" stroke="black" points="2186.5,-6 2186.5,-36 2303.5,-36 2303.5,-6 2186.5,-6"/>
<text text-anchor="start" x="2194.5" y="-24" font-family="Helvetica,sans-Serif" font-size="10.00">src/calibration/modules</text>
<text text-anchor="middle" x="2245" y="-13" font-family="Helvetica,sans-Serif" font-size="10.00">/PID_Energy.cc</text>
</a>
</g>
</g>
<!-- Node68&#45;&gt;Node69 -->
<g id="edge21" class="edge"><title>Node68&#45;&gt;Node69</title>
<path fill="none" stroke="midnightblue" d="M1621.79,-89.1586C1761.07,-81.0883 2072.09,-61.5019 2177,-42 2185.23,-40.4706 2193.88,-38.3426 2202.16,-36.0419"/>
<polygon fill="midnightblue" stroke="midnightblue" points="1621.44,-85.6726 1611.66,-89.7427 1621.85,-92.661 1621.44,-85.6726"/>
</g>
<!-- Node70&#45;&gt;Node54 -->
<g id="edge34" class="edge"><title>Node70&#45;&gt;Node54</title>
<path fill="none" stroke="midnightblue" d="M1349.31,-77.9952C1226.78,-57.2714 1192.32,-67.2767 1075,-42 1067.39,-40.3609 1059.39,-38.2648 1051.69,-36.0495"/>
<polygon fill="midnightblue" stroke="midnightblue" points="1349.01,-81.4954 1359.46,-79.7478 1350.2,-74.5975 1349.01,-81.4954"/>
</g>
<!-- Node70&#45;&gt;Node55 -->
<g id="edge35" class="edge"><title>Node70&#45;&gt;Node55</title>
<path fill="none" stroke="midnightblue" d="M1352.74,-76.3499C1314.34,-66.4942 1264.87,-53.6883 1221,-42 1213.89,-40.1056 1206.4,-38.083 1199.03,-36.0789"/>
<polygon fill="midnightblue" stroke="midnightblue" points="1352.19,-79.8243 1362.75,-78.9184 1353.93,-73.0437 1352.19,-79.8243"/>
</g>
<!-- Node70&#45;&gt;Node56 -->
<g id="edge36" class="edge"><title>Node70&#45;&gt;Node56</title>
<path fill="none" stroke="midnightblue" d="M1382.89,-74.2549C1360.57,-62.3433 1332.14,-47.1661 1311.68,-36.2412"/>
<polygon fill="midnightblue" stroke="midnightblue" points="1381.25,-77.3509 1391.72,-78.9727 1384.55,-71.1757 1381.25,-77.3509"/>
</g>
<!-- Node70&#45;&gt;Node57 -->
<g id="edge37" class="edge"><title>Node70&#45;&gt;Node57</title>
<path fill="none" stroke="midnightblue" d="M1419.02,-68.8976C1419.47,-58.1314 1419.99,-45.8005 1420.39,-36.4856"/>
<polygon fill="midnightblue" stroke="midnightblue" points="1415.52,-68.8338 1418.59,-78.9727 1422.51,-69.1294 1415.52,-68.8338"/>
</g>
<!-- Node70&#45;&gt;Node58 -->
<g id="edge38" class="edge"><title>Node70&#45;&gt;Node58</title>
<path fill="none" stroke="midnightblue" d="M1454.17,-74.2549C1477.15,-62.3433 1506.44,-47.1661 1527.52,-36.2412"/>
<polygon fill="midnightblue" stroke="midnightblue" points="1452.33,-71.2639 1445.07,-78.9727 1455.56,-77.4788 1452.33,-71.2639"/>
</g>
<!-- Node70&#45;&gt;Node59 -->
<g id="edge39" class="edge"><title>Node70&#45;&gt;Node59</title>
<path fill="none" stroke="midnightblue" d="M1486.63,-76.4269C1525.1,-66.8824 1573.88,-54.3583 1617,-42 1623.4,-40.1662 1630.13,-38.1367 1636.72,-36.0943"/>
<polygon fill="midnightblue" stroke="midnightblue" points="1485.44,-73.115 1476.58,-78.9121 1487.12,-79.9106 1485.44,-73.115"/>
</g>
<!-- Node70&#45;&gt;Node60 -->
<g id="edge40" class="edge"><title>Node70&#45;&gt;Node60</title>
<path fill="none" stroke="midnightblue" d="M1486.39,-78.0264C1600.78,-57.9105 1632.22,-62.8956 1742,-42 1745.2,-41.3903 1748.47,-40.7377 1751.76,-40.054"/>
<polygon fill="midnightblue" stroke="midnightblue" points="1485.78,-74.5812 1476.55,-79.7835 1487.01,-81.4723 1485.78,-74.5812"/>
</g>
<!-- Node70&#45;&gt;Node61 -->
<g id="edge41" class="edge"><title>Node70&#45;&gt;Node61</title>
<path fill="none" stroke="midnightblue" d="M1348.82,-78.0155C1048.67,-38.6372 964.845,-96.2319 671,-42 663.214,-40.5631 655.051,-38.4166 647.298,-36.0561"/>
<polygon fill="midnightblue" stroke="midnightblue" points="1348.76,-81.538 1359.13,-79.3951 1349.69,-74.5999 1348.76,-81.538"/>
</g>
<!-- Node70&#45;&gt;Node62 -->
<g id="edge42" class="edge"><title>Node70&#45;&gt;Node62</title>
<path fill="none" stroke="midnightblue" d="M1349.57,-78.1154C1104.35,-44.5229 1035.85,-86.9956 797,-42 789.219,-40.5341 781.055,-38.4055 773.281,-36.0779"/>
<polygon fill="midnightblue" stroke="midnightblue" points="1349.11,-81.5844 1359.5,-79.5029 1350.08,-74.6518 1349.11,-81.5844"/>
</g>
<!-- Node70&#45;&gt;Node64 -->
<g id="edge43" class="edge"><title>Node70&#45;&gt;Node64</title>
<path fill="none" stroke="midnightblue" d="M1349.4,-78.0614C1169.16,-51.2567 1119.13,-73.1807 944,-42 928.277,-39.2006 911.035,-34.6311 897.152,-30.5661"/>
<polygon fill="midnightblue" stroke="midnightblue" points="1349.07,-81.5515 1359.48,-79.5911 1350.12,-74.6306 1349.07,-81.5515"/>
</g>
<!-- Node71 -->
<g id="node23" class="node"><title>Node71</title>
<g id="a_node23"><a xlink:href="calibration_2modules_2_t_a_p_s___energy_8cc.html" target="_top" xlink:title="src/calibration/modules\l/TAPS_Energy.cc">
<polygon fill="white" stroke="black" points="2051.5,-6 2051.5,-36 2168.5,-36 2168.5,-6 2051.5,-6"/>
<text text-anchor="start" x="2059.5" y="-24" font-family="Helvetica,sans-Serif" font-size="10.00">src/calibration/modules</text>
<text text-anchor="middle" x="2110" y="-13" font-family="Helvetica,sans-Serif" font-size="10.00">/TAPS_Energy.cc</text>
</a>
</g>
</g>
<!-- Node70&#45;&gt;Node71 -->
<g id="edge33" class="edge"><title>Node70&#45;&gt;Node71</title>
<path fill="none" stroke="midnightblue" d="M1486.48,-78.1073C1732.97,-44.3201 1801.38,-84.6311 2042,-42 2050.36,-40.5187 2059.15,-38.383 2067.54,-36.0532"/>
<polygon fill="midnightblue" stroke="midnightblue" points="1485.92,-74.651 1476.5,-79.5016 1486.89,-81.5836 1485.92,-74.651"/>
</g>
<!-- Node72&#45;&gt;Node54 -->
<g id="edge46" class="edge"><title>Node72&#45;&gt;Node54</title>
<path fill="none" stroke="midnightblue" d="M1111.61,-74.4135C1088.25,-62.4783 1058.36,-47.2147 1036.88,-36.2412"/>
<polygon fill="midnightblue" stroke="midnightblue" points="1110.04,-77.5407 1120.54,-78.9727 1113.22,-71.3068 1110.04,-77.5407"/>
</g>
<!-- Node72&#45;&gt;Node55 -->
<g id="edge47" class="edge"><title>Node72&#45;&gt;Node55</title>
<path fill="none" stroke="midnightblue" d="M1148,-68.8976C1148,-58.1314 1148,-45.8005 1148,-36.4856"/>
<polygon fill="midnightblue" stroke="midnightblue" points="1144.5,-68.9727 1148,-78.9727 1151.5,-68.9727 1144.5,-68.9727"/>
</g>
<!-- Node72&#45;&gt;Node56 -->
<g id="edge48" class="edge"><title>Node72&#45;&gt;Node56</title>
<path fill="none" stroke="midnightblue" d="M1184.17,-74.2549C1207.15,-62.3433 1236.44,-47.1661 1257.52,-36.2412"/>
<polygon fill="midnightblue" stroke="midnightblue" points="1182.33,-71.2639 1175.07,-78.9727 1185.56,-77.4788 1182.33,-71.2639"/>
</g>
<!-- Node72&#45;&gt;Node57 -->
<g id="edge49" class="edge"><title>Node72&#45;&gt;Node57</title>
<path fill="none" stroke="midnightblue" d="M1214.55,-76.5135C1253.74,-66.7041 1304.25,-53.8898 1349,-42 1356.15,-40.101 1363.68,-38.0561 1371.07,-36.0244"/>
<polygon fill="midnightblue" stroke="midnightblue" points="1213.69,-73.12 1204.84,-78.9403 1215.39,-79.9112 1213.69,-73.12"/>
</g>
<!-- Node72&#45;&gt;Node58 -->
<g id="edge50" class="edge"><title>Node72&#45;&gt;Node58</title>
<path fill="none" stroke="midnightblue" d="M1216.73,-77.9917C1339.67,-57.2703 1374.42,-68.114 1492,-42 1499.28,-40.3828 1506.93,-38.2974 1514.28,-36.0859"/>
<polygon fill="midnightblue" stroke="midnightblue" points="1215.8,-74.5995 1206.54,-79.746 1216.99,-81.4979 1215.8,-74.5995"/>
</g>
<!-- Node72&#45;&gt;Node59 -->
<g id="edge51" class="edge"><title>Node72&#45;&gt;Node59</title>
<path fill="none" stroke="midnightblue" d="M1216.48,-78.0813C1394.64,-51.6131 1444.74,-76.6433 1617,-42 1624.65,-40.4615 1632.68,-38.3291 1640.35,-36.027"/>
<polygon fill="midnightblue" stroke="midnightblue" points="1215.88,-74.6329 1206.52,-79.5952 1216.93,-81.5535 1215.88,-74.6329"/>
</g>
<!-- Node72&#45;&gt;Node60 -->
<g id="edge52" class="edge"><title>Node72&#45;&gt;Node60</title>
<path fill="none" stroke="midnightblue" d="M1216.65,-78.0755C1449.74,-45.588 1513.67,-77.0682 1742,-42 1745.22,-41.505 1748.51,-40.9473 1751.81,-40.3415"/>
<polygon fill="midnightblue" stroke="midnightblue" points="1215.91,-74.6454 1206.5,-79.5154 1216.9,-81.576 1215.91,-74.6454"/>
</g>
<!-- Node72&#45;&gt;Node61 -->
<g id="edge53" class="edge"><title>Node72&#45;&gt;Node61</title>
<path fill="none" stroke="midnightblue" d="M1079.33,-78.0559C897.795,-51.277 846.615,-77.5839 671,-42 663.462,-40.4727 655.555,-38.3456 648.005,-36.0452"/>
<polygon fill="midnightblue" stroke="midnightblue" points="1079.07,-81.5568 1089.49,-79.5887 1080.12,-74.6352 1079.07,-81.5568"/>
</g>
<!-- Node72&#45;&gt;Node62 -->
<g id="edge54" class="edge"><title>Node72&#45;&gt;Node62</title>
<path fill="none" stroke="midnightblue" d="M1079.42,-78.0199C953.278,-56.9545 917.675,-68.6007 797,-42 789.604,-40.3696 781.834,-38.2506 774.374,-36.0032"/>
<polygon fill="midnightblue" stroke="midnightblue" points="1079.01,-81.5021 1089.46,-79.7341 1080.19,-74.6018 1079.01,-81.5021"/>
</g>
<!-- Node72&#45;&gt;Node64 -->
<g id="edge55" class="edge"><title>Node72&#45;&gt;Node64</title>
<path fill="none" stroke="midnightblue" d="M1080.48,-76.4605C1040.7,-66.633 989.436,-53.8184 944,-42 929.961,-38.3484 914.462,-34.1805 901.291,-30.5981"/>
<polygon fill="midnightblue" stroke="midnightblue" points="1079.78,-79.8942 1090.33,-78.8922 1081.46,-73.0981 1079.78,-79.8942"/>
</g>
<!-- Node73 -->
<g id="node25" class="node"><title>Node73</title>
<g id="a_node25"><a xlink:href="calibration_2modules_2_t_a_p_s___short_energy_8cc.html" target="_top" xlink:title="src/calibration/modules\l/TAPS_ShortEnergy.cc">
<polygon fill="white" stroke="black" points="418.5,-6 418.5,-36 537.5,-36 537.5,-6 418.5,-6"/>
<text text-anchor="start" x="426.5" y="-24" font-family="Helvetica,sans-Serif" font-size="10.00">src/calibration/modules</text>
<text text-anchor="middle" x="478" y="-13" font-family="Helvetica,sans-Serif" font-size="10.00">/TAPS_ShortEnergy.cc</text>
</a>
</g>
</g>
<!-- Node72&#45;&gt;Node73 -->
<g id="edge45" class="edge"><title>Node72&#45;&gt;Node73</title>
<path fill="none" stroke="midnightblue" d="M1079.55,-78.1083C842.738,-45.351 776.967,-83.2379 546,-42 537.641,-40.5076 528.849,-38.3668 520.463,-36.0354"/>
<polygon fill="midnightblue" stroke="midnightblue" points="1079.11,-81.5802 1089.5,-79.5116 1080.08,-74.6489 1079.11,-81.5802"/>
</g>
<!-- Node74&#45;&gt;Node54 -->
<g id="edge58" class="edge"><title>Node74&#45;&gt;Node54</title>
<path fill="none" stroke="midnightblue" d="M1214.25,-77.1255C1173.61,-67.4963 1121.21,-54.658 1075,-42 1068.3,-40.1655 1061.25,-38.1357 1054.35,-36.0932"/>
<polygon fill="midnightblue" stroke="midnightblue" points="1213.52,-80.5485 1224.06,-79.44 1215.13,-73.7358 1213.52,-80.5485"/>
</g>
<!-- Node74&#45;&gt;Node55 -->
<g id="edge59" class="edge"><title>Node74&#45;&gt;Node55</title>
<path fill="none" stroke="midnightblue" d="M1247.36,-74.2549C1224.71,-62.3433 1195.85,-47.1661 1175.08,-36.2412"/>
<polygon fill="midnightblue" stroke="midnightblue" points="1245.85,-77.4156 1256.33,-78.9727 1249.11,-71.2202 1245.85,-77.4156"/>
</g>
<!-- Node74&#45;&gt;Node56 -->
<g id="edge60" class="edge"><title>Node74&#45;&gt;Node56</title>
<path fill="none" stroke="midnightblue" d="M1283.68,-68.8976C1283.98,-58.1314 1284.33,-45.8005 1284.59,-36.4856"/>
<polygon fill="midnightblue" stroke="midnightblue" points="1280.18,-68.8781 1283.4,-78.9727 1287.18,-69.0752 1280.18,-68.8781"/>
</g>
<!-- Node74&#45;&gt;Node57 -->
<g id="edge61" class="edge"><title>Node74&#45;&gt;Node57</title>
<path fill="none" stroke="midnightblue" d="M1319.43,-74.2549C1342.59,-62.3433 1372.09,-47.1661 1393.32,-36.2412"/>
<polygon fill="midnightblue" stroke="midnightblue" points="1317.56,-71.2854 1310.26,-78.9727 1320.76,-77.5099 1317.56,-71.2854"/>
</g>
<!-- Node74&#45;&gt;Node58 -->
<g id="edge62" class="edge"><title>Node74&#45;&gt;Node58</title>
<path fill="none" stroke="midnightblue" d="M1351.7,-77.4773C1392.63,-67.923 1445.49,-55.0416 1492,-42 1498.52,-40.1721 1505.38,-38.1245 1512.08,-36.0554"/>
<polygon fill="midnightblue" stroke="midnightblue" points="1350.78,-74.0979 1341.84,-79.771 1352.37,-80.9162 1350.78,-74.0979"/>
</g>
<!-- Node74&#45;&gt;Node59 -->
<g id="edge63" class="edge"><title>Node74&#45;&gt;Node59</title>
<path fill="none" stroke="midnightblue" d="M1351.75,-77.9817C1470.28,-57.7075 1503.78,-67.4315 1617,-42 1624.28,-40.3652 1631.92,-38.2713 1639.28,-36.0567"/>
<polygon fill="midnightblue" stroke="midnightblue" points="1350.79,-74.5952 1341.54,-79.7641 1352,-81.4908 1350.79,-74.5952"/>
</g>
<!-- Node74&#45;&gt;Node60 -->
<g id="edge64" class="edge"><title>Node74&#45;&gt;Node60</title>
<path fill="none" stroke="midnightblue" d="M1351.51,-78.0688C1525.2,-51.8535 1573.03,-69.986 1742,-42 1745.22,-41.4672 1748.49,-40.8782 1751.8,-40.2467"/>
<polygon fill="midnightblue" stroke="midnightblue" points="1350.87,-74.6253 1341.52,-79.6038 1351.93,-81.5441 1350.87,-74.6253"/>
</g>
<!-- Node74&#45;&gt;Node61 -->
<g id="edge65" class="edge"><title>Node74&#45;&gt;Node61</title>
<path fill="none" stroke="midnightblue" d="M1214.37,-78.0867C973.278,-44.9841 905.735,-86.9157 671,-42 663.335,-40.5334 655.298,-38.4044 647.646,-36.0767"/>
<polygon fill="midnightblue" stroke="midnightblue" points="1214.11,-81.584 1224.5,-79.5069 1215.08,-74.6519 1214.11,-81.584"/>
</g>
<!-- Node74&#45;&gt;Node62 -->
<g id="edge66" class="edge"><title>Node74&#45;&gt;Node62</title>
<path fill="none" stroke="midnightblue" d="M1214.4,-78.0674C1028.84,-50.8408 976.657,-77.793 797,-42 789.347,-40.4753 781.315,-38.3495 773.644,-36.0495"/>
<polygon fill="midnightblue" stroke="midnightblue" points="1214.08,-81.5586 1224.49,-79.5816 1215.12,-74.6362 1214.08,-81.5586"/>
</g>
<!-- Node74&#45;&gt;Node64 -->
<g id="edge67" class="edge"><title>Node74&#45;&gt;Node64</title>
<path fill="none" stroke="midnightblue" d="M1214.44,-78.0119C1093.59,-57.3467 1059.99,-65.2723 944,-42 928.734,-38.9369 911.965,-34.4961 898.256,-30.5767"/>
<polygon fill="midnightblue" stroke="midnightblue" points="1214.01,-81.4882 1224.46,-79.7549 1215.21,-74.5919 1214.01,-81.4882"/>
</g>
<!-- Node75 -->
<g id="node27" class="node"><title>Node75</title>
<g id="a_node27"><a xlink:href="calibration_2modules_2_t_a_p_s_veto___energy_8cc.html" target="_top" xlink:title="src/calibration/modules\l/TAPSVeto_Energy.cc">
<polygon fill="white" stroke="black" points="1916.5,-6 1916.5,-36 2033.5,-36 2033.5,-6 1916.5,-6"/>
<text text-anchor="start" x="1924.5" y="-24" font-family="Helvetica,sans-Serif" font-size="10.00">src/calibration/modules</text>
<text text-anchor="middle" x="1975" y="-13" font-family="Helvetica,sans-Serif" font-size="10.00">/TAPSVeto_Energy.cc</text>
</a>
</g>
</g>
<!-- Node74&#45;&gt;Node75 -->
<g id="edge57" class="edge"><title>Node74&#45;&gt;Node75</title>
<path fill="none" stroke="midnightblue" d="M1351.48,-78.1073C1597.97,-44.3201 1666.38,-84.6311 1907,-42 1915.36,-40.5187 1924.15,-38.383 1932.54,-36.0532"/>
<polygon fill="midnightblue" stroke="midnightblue" points="1350.92,-74.651 1341.5,-79.5016 1351.89,-81.5836 1350.92,-74.651"/>
</g>
<!-- Node76&#45;&gt;Node69 -->
<g id="edge70" class="edge"><title>Node76&#45;&gt;Node69</title>
<path fill="none" stroke="midnightblue" d="M1973,-142.791C2036.2,-114.727 2156.06,-61.4982 2213.18,-36.1303"/>
<polygon fill="midnightblue" stroke="midnightblue" points="1971.45,-139.65 1963.73,-146.907 1974.29,-146.047 1971.45,-139.65"/>
</g>
<!-- Node76&#45;&gt;Node71 -->
<g id="edge71" class="edge"><title>Node76&#45;&gt;Node71</title>
<path fill="none" stroke="midnightblue" d="M1958.26,-140.491C1994.87,-111.905 2060.29,-60.821 2091.91,-36.1303"/>
<polygon fill="midnightblue" stroke="midnightblue" points="1955.77,-137.994 1950.05,-146.907 1960.08,-143.511 1955.77,-137.994"/>
</g>
<!-- Node76&#45;&gt;Node72 -->
<g id="edge72" class="edge"><title>Node76&#45;&gt;Node72</title>
<path fill="none" stroke="midnightblue" d="M1863.16,-159.435C1735.13,-155.787 1451.95,-144.24 1216,-110 1212.89,-109.549 1209.71,-109.034 1206.51,-108.474"/>
<polygon fill="midnightblue" stroke="midnightblue" points="1863.12,-162.936 1873.22,-159.715 1863.32,-155.938 1863.12,-162.936"/>
</g>
<!-- Node76&#45;&gt;Node75 -->
<g id="edge73" class="edge"><title>Node76&#45;&gt;Node75</title>
<path fill="none" stroke="midnightblue" d="M1943.87,-137.317C1947.79,-128.846 1951.94,-119.134 1955,-110 1963.52,-84.5991 1969.58,-53.8682 1972.67,-36.2612"/>
<polygon fill="midnightblue" stroke="midnightblue" points="1940.6,-136.051 1939.44,-146.582 1946.91,-139.071 1940.6,-136.051"/>
</g>
<!-- Node77 -->
<g id="node29" class="node"><title>Node77</title>
<g id="a_node29"><a xlink:href="_energy___g_u_i_8cc.html" target="_top" xlink:title="src/calibration/modules\l/Energy_GUI.cc">
<polygon fill="white" stroke="black" points="1829.5,-79 1829.5,-109 1946.5,-109 1946.5,-79 1829.5,-79"/>
<text text-anchor="start" x="1837.5" y="-97" font-family="Helvetica,sans-Serif" font-size="10.00">src/calibration/modules</text>
<text text-anchor="middle" x="1888" y="-86" font-family="Helvetica,sans-Serif" font-size="10.00">/Energy_GUI.cc</text>
</a>
</g>
</g>
<!-- Node76&#45;&gt;Node77 -->
<g id="edge69" class="edge"><title>Node76&#45;&gt;Node77</title>
<path fill="none" stroke="midnightblue" d="M1916.88,-138.314C1910.46,-128.689 1903.18,-117.763 1897.53,-109.293"/>
<polygon fill="midnightblue" stroke="midnightblue" points="1913.99,-140.3 1922.45,-146.679 1919.82,-136.417 1913.99,-140.3"/>
</g>
</g>
</svg>
