<?xml version="1.0" encoding="UTF-8" standalone="no"?>
<!DOCTYPE svg PUBLIC "-//W3C//DTD SVG 1.1//EN"
 "http://www.w3.org/Graphics/SVG/1.1/DTD/svg11.dtd">
<!-- Generated by graphviz version 2.36.0 (20140111.2315)
 -->
<!-- Title: src/expconfig/detectors/Cherenkov.h Pages: 1 -->
<svg width="1154pt" height="196pt"
 viewBox="0.00 0.00 1154.00 196.00" xmlns="http://www.w3.org/2000/svg" xmlns:xlink="http://www.w3.org/1999/xlink">
<g id="graph0" class="graph" transform="scale(1 1) rotate(0) translate(4 192)">
<title>src/expconfig/detectors/Cherenkov.h</title>
<polygon fill="white" stroke="none" points="-4,4 -4,-192 1150,-192 1150,4 -4,4"/>
<!-- Node56 -->
<g id="node1" class="node"><title>Node56</title>
<polygon fill="#bfbfbf" stroke="black" points="533.5,-157 533.5,-187 652.5,-187 652.5,-157 533.5,-157"/>
<text text-anchor="start" x="541.5" y="-175" font-family="Helvetica,sans-Serif" font-size="10.00">src/expconfig/detectors</text>
<text text-anchor="middle" x="593" y="-164" font-family="Helvetica,sans-Serif" font-size="10.00">/Cherenkov.h</text>
</g>
<!-- Node57 -->
<g id="node2" class="node"><title>Node57</title>
<g id="a_node2"><a xlink:href="_setup__2017__03_8h.html" target="_top" xlink:title="src/expconfig/setups\l/Setup_2017_03.h">
<polygon fill="white" stroke="black" points="66.5,-84 66.5,-114 173.5,-114 173.5,-84 66.5,-84"/>
<text text-anchor="start" x="74.5" y="-102" font-family="Helvetica,sans-Serif" font-size="10.00">src/expconfig/setups</text>
<text text-anchor="middle" x="120" y="-91" font-family="Helvetica,sans-Serif" font-size="10.00">/Setup_2017_03.h</text>
</a>
</g>
</g>
<!-- Node56&#45;&gt;Node57 -->
<g id="edge1" class="edge"><title>Node56&#45;&gt;Node57</title>
<path fill="none" stroke="midnightblue" d="M523.263,-160.736C453.948,-150.51 344.607,-134.311 250,-120 224.938,-116.209 197.169,-111.945 173.752,-108.332"/>
<polygon fill="midnightblue" stroke="midnightblue" points="522.789,-164.204 533.193,-162.201 523.811,-157.279 522.789,-164.204"/>
</g>
<!-- Node59 -->
<g id="node4" class="node"><title>Node59</title>
<g id="a_node4"><a xlink:href="_setup__2017__05_8h.html" target="_top" xlink:title="src/expconfig/setups\l/Setup_2017_05.h">
<polygon fill="white" stroke="black" points="259.5,-84 259.5,-114 366.5,-114 366.5,-84 259.5,-84"/>
<text text-anchor="start" x="267.5" y="-102" font-family="Helvetica,sans-Serif" font-size="10.00">src/expconfig/setups</text>
<text text-anchor="middle" x="313" y="-91" font-family="Helvetica,sans-Serif" font-size="10.00">/Setup_2017_05.h</text>
</a>
</g>
</g>
<!-- Node56&#45;&gt;Node59 -->
<g id="edge3" class="edge"><title>Node56&#45;&gt;Node59</title>
<path fill="none" stroke="midnightblue" d="M527.827,-154.474C478.898,-142.067 412.701,-125.281 366.777,-113.636"/>
<polygon fill="midnightblue" stroke="midnightblue" points="527.127,-157.907 537.681,-156.973 528.848,-151.122 527.127,-157.907"/>
</g>
<!-- Node61 -->
<g id="node6" class="node"><title>Node61</title>
<g id="a_node6"><a xlink:href="_setup__2017_plus___new_tagger___base_8h.html" target="_top" xlink:title="src/expconfig/setups\l/Setup_2017Plus_NewTagger\l_Base.h">
<polygon fill="white" stroke="black" points="520,-78.5 520,-119.5 666,-119.5 666,-78.5 520,-78.5"/>
<text text-anchor="start" x="528" y="-107.5" font-family="Helvetica,sans-Serif" font-size="10.00">src/expconfig/setups</text>
<text text-anchor="start" x="528" y="-96.5" font-family="Helvetica,sans-Serif" font-size="10.00">/Setup_2017Plus_NewTagger</text>
<text text-anchor="middle" x="593" y="-85.5" font-family="Helvetica,sans-Serif" font-size="10.00">_Base.h</text>
</a>
</g>
</g>
<!-- Node56&#45;&gt;Node61 -->
<g id="edge5" class="edge"><title>Node56&#45;&gt;Node61</title>
<path fill="none" stroke="midnightblue" d="M593,-146.853C593,-137.987 593,-128.065 593,-119.642"/>
<polygon fill="midnightblue" stroke="midnightblue" points="589.5,-146.973 593,-156.973 596.5,-146.973 589.5,-146.973"/>
</g>
<!-- Node67 -->
<g id="node12" class="node"><title>Node67</title>
<g id="a_node12"><a xlink:href="_setup__2018__11_8h.html" target="_top" xlink:title="src/expconfig/setups\l/Setup_2018_11.h">
<polygon fill="white" stroke="black" points="741.5,-84 741.5,-114 848.5,-114 848.5,-84 741.5,-84"/>
<text text-anchor="start" x="749.5" y="-102" font-family="Helvetica,sans-Serif" font-size="10.00">src/expconfig/setups</text>
<text text-anchor="middle" x="795" y="-91" font-family="Helvetica,sans-Serif" font-size="10.00">/Setup_2018_11.h</text>
</a>
</g>
</g>
<!-- Node56&#45;&gt;Node67 -->
<g id="edge11" class="edge"><title>Node56&#45;&gt;Node67</title>
<path fill="none" stroke="midnightblue" d="M642.786,-153.501C677.287,-141.374 722.63,-125.437 754.829,-114.12"/>
<polygon fill="midnightblue" stroke="midnightblue" points="641.182,-150.355 632.909,-156.973 643.504,-156.959 641.182,-150.355"/>
</g>
<!-- Node69 -->
<g id="node14" class="node"><title>Node69</title>
<g id="a_node14"><a xlink:href="_setup__2019__01_8h.html" target="_top" xlink:title="src/expconfig/setups\l/Setup_2019_01.h">
<polygon fill="white" stroke="black" points="981.5,-84 981.5,-114 1088.5,-114 1088.5,-84 981.5,-84"/>
<text text-anchor="start" x="989.5" y="-102" font-family="Helvetica,sans-Serif" font-size="10.00">src/expconfig/setups</text>
<text text-anchor="middle" x="1035" y="-91" font-family="Helvetica,sans-Serif" font-size="10.00">/Setup_2019_01.h</text>
</a>
</g>
</g>
<!-- Node56&#45;&gt;Node69 -->
<g id="edge13" class="edge"><title>Node56&#45;&gt;Node69</title>
<path fill="none" stroke="midnightblue" d="M662.53,-159.831C750.784,-145.655 901.148,-121.501 981.172,-108.647"/>
<polygon fill="midnightblue" stroke="midnightblue" points="661.928,-156.383 652.61,-161.425 663.039,-163.294 661.928,-156.383"/>
</g>
<!-- Node58 -->
<g id="node3" class="node"><title>Node58</title>
<g id="a_node3"><a xlink:href="_setup__2017__03_8cc.html" target="_top" xlink:title="src/expconfig/setups\l/Setup_2017_03.cc">
<polygon fill="white" stroke="black" points="-0.5,-6 -0.5,-36 106.5,-36 106.5,-6 -0.5,-6"/>
<text text-anchor="start" x="7.5" y="-24" font-family="Helvetica,sans-Serif" font-size="10.00">src/expconfig/setups</text>
<text text-anchor="middle" x="53" y="-13" font-family="Helvetica,sans-Serif" font-size="10.00">/Setup_2017_03.cc</text>
</a>
</g>
</g>
<!-- Node57&#45;&gt;Node58 -->
<g id="edge2" class="edge"><title>Node57&#45;&gt;Node58</title>
<path fill="none" stroke="midnightblue" d="M100.756,-76.1707C89.4373,-63.3319 75.4499,-47.4656 65.5457,-36.2309"/>
<polygon fill="midnightblue" stroke="midnightblue" points="98.1594,-78.5182 107.398,-83.705 103.41,-73.8892 98.1594,-78.5182"/>
</g>
<!-- Node60 -->
<g id="node5" class="node"><title>Node60</title>
<g id="a_node5"><a xlink:href="_setup__2017__05_8cc.html" target="_top" xlink:title="src/expconfig/setups\l/Setup_2017_05.cc">
<polygon fill="white" stroke="black" points="124.5,-6 124.5,-36 231.5,-36 231.5,-6 124.5,-6"/>
<text text-anchor="start" x="132.5" y="-24" font-family="Helvetica,sans-Serif" font-size="10.00">src/expconfig/setups</text>
<text text-anchor="middle" x="178" y="-13" font-family="Helvetica,sans-Serif" font-size="10.00">/Setup_2017_05.cc</text>
</a>
</g>
</g>
<!-- Node59&#45;&gt;Node60 -->
<g id="edge4" class="edge"><title>Node59&#45;&gt;Node60</title>
<path fill="none" stroke="midnightblue" d="M278.933,-78.8214C255.283,-65.5075 224.308,-48.0698 202.942,-36.0413"/>
<polygon fill="midnightblue" stroke="midnightblue" points="277.493,-82.0273 287.924,-83.8831 280.927,-75.9275 277.493,-82.0273"/>
</g>
<!-- Node62 -->
<g id="node7" class="node"><title>Node62</title>
<g id="a_node7"><a xlink:href="_setup__2017__12_8cc.html" target="_top" xlink:title="src/expconfig/setups\l/Setup_2017_12.cc">
<polygon fill="white" stroke="black" points="249.5,-6 249.5,-36 356.5,-36 356.5,-6 249.5,-6"/>
<text text-anchor="start" x="257.5" y="-24" font-family="Helvetica,sans-Serif" font-size="10.00">src/expconfig/setups</text>
<text text-anchor="middle" x="303" y="-13" font-family="Helvetica,sans-Serif" font-size="10.00">/Setup_2017_12.cc</text>
</a>
</g>
</g>
<!-- Node61&#45;&gt;Node62 -->
<g id="edge6" class="edge"><title>Node61&#45;&gt;Node62</title>
<path fill="none" stroke="midnightblue" d="M509.96,-78.8943C466.838,-68.6247 413.392,-55.3529 366,-42 359.483,-40.1639 352.624,-38.1118 345.926,-36.0408"/>
<polygon fill="midnightblue" stroke="midnightblue" points="509.304,-82.3356 519.842,-81.2381 510.919,-75.5246 509.304,-82.3356"/>
</g>
<!-- Node63 -->
<g id="node8" class="node"><title>Node63</title>
<g id="a_node8"><a xlink:href="_setup__2017_plus___new_tagger___base_8cc.html" target="_top" xlink:title="src/expconfig/setups\l/Setup_2017Plus_NewTagger\l_Base.cc">
<polygon fill="white" stroke="black" points="375,-0.5 375,-41.5 521,-41.5 521,-0.5 375,-0.5"/>
<text text-anchor="start" x="383" y="-29.5" font-family="Helvetica,sans-Serif" font-size="10.00">src/expconfig/setups</text>
<text text-anchor="start" x="383" y="-18.5" font-family="Helvetica,sans-Serif" font-size="10.00">/Setup_2017Plus_NewTagger</text>
<text text-anchor="middle" x="448" y="-7.5" font-family="Helvetica,sans-Serif" font-size="10.00">_Base.cc</text>
</a>
</g>
</g>
<!-- Node61&#45;&gt;Node63 -->
<g id="edge7" class="edge"><title>Node61&#45;&gt;Node63</title>
<path fill="none" stroke="midnightblue" d="M546.767,-73.7675C526.891,-63.3498 503.97,-51.3358 485.215,-41.5056"/>
<polygon fill="midnightblue" stroke="midnightblue" points="545.177,-76.8857 555.659,-78.4281 548.427,-70.6857 545.177,-76.8857"/>
</g>
<!-- Node64 -->
<g id="node9" class="node"><title>Node64</title>
<g id="a_node9"><a xlink:href="_setup__2018__03_8cc.html" target="_top" xlink:title="src/expconfig/setups\l/Setup_2018_03.cc">
<polygon fill="white" stroke="black" points="539.5,-6 539.5,-36 646.5,-36 646.5,-6 539.5,-6"/>
<text text-anchor="start" x="547.5" y="-24" font-family="Helvetica,sans-Serif" font-size="10.00">src/expconfig/setups</text>
<text text-anchor="middle" x="593" y="-13" font-family="Helvetica,sans-Serif" font-size="10.00">/Setup_2018_03.cc</text>
</a>
</g>
</g>
<!-- Node61&#45;&gt;Node64 -->
<g id="edge8" class="edge"><title>Node61&#45;&gt;Node64</title>
<path fill="none" stroke="midnightblue" d="M593,-68.2829C593,-57.2536 593,-45.2457 593,-36.2254"/>
<polygon fill="midnightblue" stroke="midnightblue" points="589.5,-68.4281 593,-78.4281 596.5,-68.4281 589.5,-68.4281"/>
</g>
<!-- Node65 -->
<g id="node10" class="node"><title>Node65</title>
<g id="a_node10"><a xlink:href="_setup__2018__05_8cc.html" target="_top" xlink:title="src/expconfig/setups\l/Setup_2018_05.cc">
<polygon fill="white" stroke="black" points="664.5,-6 664.5,-36 771.5,-36 771.5,-6 664.5,-6"/>
<text text-anchor="start" x="672.5" y="-24" font-family="Helvetica,sans-Serif" font-size="10.00">src/expconfig/setups</text>
<text text-anchor="middle" x="718" y="-13" font-family="Helvetica,sans-Serif" font-size="10.00">/Setup_2018_05.cc</text>
</a>
</g>
</g>
<!-- Node61&#45;&gt;Node65 -->
<g id="edge9" class="edge"><title>Node61&#45;&gt;Node65</title>
<path fill="none" stroke="midnightblue" d="M633.871,-73.1502C654.003,-60.9103 677.549,-46.5941 694.603,-36.2254"/>
<polygon fill="midnightblue" stroke="midnightblue" points="631.917,-70.2423 625.191,-78.4281 635.554,-76.2236 631.917,-70.2423"/>
</g>
<!-- Node66 -->
<g id="node11" class="node"><title>Node66</title>
<g id="a_node11"><a xlink:href="_setup__2018__09_8cc.html" target="_top" xlink:title="src/expconfig/setups\l/Setup_2018_09.cc">
<polygon fill="white" stroke="black" points="789.5,-6 789.5,-36 896.5,-36 896.5,-6 789.5,-6"/>
<text text-anchor="start" x="797.5" y="-24" font-family="Helvetica,sans-Serif" font-size="10.00">src/expconfig/setups</text>
<text text-anchor="middle" x="843" y="-13" font-family="Helvetica,sans-Serif" font-size="10.00">/Setup_2018_09.cc</text>
</a>
</g>
</g>
<!-- Node61&#45;&gt;Node66 -->
<g id="edge10" class="edge"><title>Node61&#45;&gt;Node66</title>
<path fill="none" stroke="midnightblue" d="M669.145,-75.5057C703.112,-65.3919 743.599,-53.2276 780,-42 786.141,-40.1059 792.61,-38.0835 798.969,-36.0795"/>
<polygon fill="midnightblue" stroke="midnightblue" points="667.874,-72.2321 659.287,-78.438 669.869,-78.9416 667.874,-72.2321"/>
</g>
<!-- Node68 -->
<g id="node13" class="node"><title>Node68</title>
<g id="a_node13"><a xlink:href="_setup__2018__11_8cc.html" target="_top" xlink:title="src/expconfig/setups\l/Setup_2018_11.cc">
<polygon fill="white" stroke="black" points="914.5,-6 914.5,-36 1021.5,-36 1021.5,-6 914.5,-6"/>
<text text-anchor="start" x="922.5" y="-24" font-family="Helvetica,sans-Serif" font-size="10.00">src/expconfig/setups</text>
<text text-anchor="middle" x="968" y="-13" font-family="Helvetica,sans-Serif" font-size="10.00">/Setup_2018_11.cc</text>
</a>
</g>
</g>
<!-- Node67&#45;&gt;Node68 -->
<g id="edge12" class="edge"><title>Node67&#45;&gt;Node68</title>
<path fill="none" stroke="midnightblue" d="M836.659,-79.6989C867.201,-66.2817 908.051,-48.3359 936.038,-36.0413"/>
<polygon fill="midnightblue" stroke="midnightblue" points="834.882,-76.6565 827.135,-83.8831 837.698,-83.0654 834.882,-76.6565"/>
</g>
<!-- Node70 -->
<g id="node15" class="node"><title>Node70</title>
<g id="a_node15"><a xlink:href="_setup__2019__01_8cc.html" target="_top" xlink:title="src/expconfig/setups\l/Setup_2019_01.cc">
<polygon fill="white" stroke="black" points="1039.5,-6 1039.5,-36 1146.5,-36 1146.5,-6 1039.5,-6"/>
<text text-anchor="start" x="1047.5" y="-24" font-family="Helvetica,sans-Serif" font-size="10.00">src/expconfig/setups</text>
<text text-anchor="middle" x="1093" y="-13" font-family="Helvetica,sans-Serif" font-size="10.00">/Setup_2019_01.cc</text>
</a>
</g>
</g>
<!-- Node69&#45;&gt;Node70 -->
<g id="edge14" class="edge"><title>Node69&#45;&gt;Node70</title>
<path fill="none" stroke="midnightblue" d="M1052.22,-75.4408C1061.91,-62.7348 1073.73,-47.2536 1082.14,-36.2309"/>
<polygon fill="midnightblue" stroke="midnightblue" points="1049.19,-73.6321 1045.91,-83.705 1054.76,-77.8788 1049.19,-73.6321"/>
</g>
</g>
</svg>
