<?xml version="1.0" encoding="UTF-8" standalone="no"?>
<!DOCTYPE svg PUBLIC "-//W3C//DTD SVG 1.1//EN"
 "http://www.w3.org/Graphics/SVG/1.1/DTD/svg11.dtd">
<!-- Generated by graphviz version 2.36.0 (20140111.2315)
 -->
<!-- Title: src/calibration/modules/ClusterCorrection.h Pages: 1 -->
<svg width="1043pt" height="118pt"
 viewBox="0.00 0.00 1043.00 118.00" xmlns="http://www.w3.org/2000/svg" xmlns:xlink="http://www.w3.org/1999/xlink">
<g id="graph0" class="graph" transform="scale(1 1) rotate(0) translate(4 114)">
<title>src/calibration/modules/ClusterCorrection.h</title>
<polygon fill="white" stroke="none" points="-4,4 -4,-114 1039,-114 1039,4 -4,4"/>
<!-- Node49 -->
<g id="node1" class="node"><title>Node49</title>
<polygon fill="#bfbfbf" stroke="black" points="445.5,-79 445.5,-109 562.5,-109 562.5,-79 445.5,-79"/>
<text text-anchor="start" x="453.5" y="-97" font-family="Helvetica,sans-Serif" font-size="10.00">src/calibration/modules</text>
<text text-anchor="middle" x="504" y="-86" font-family="Helvetica,sans-Serif" font-size="10.00">/ClusterCorrection.h</text>
</g>
<!-- Node50 -->
<g id="node2" class="node"><title>Node50</title>
<g id="a_node2"><a xlink:href="_cluster_correction_8cc.html" target="_top" xlink:title="src/calibration/modules\l/ClusterCorrection.cc">
<polygon fill="white" stroke="black" points="-0.5,-6 -0.5,-36 116.5,-36 116.5,-6 -0.5,-6"/>
<text text-anchor="start" x="7.5" y="-24" font-family="Helvetica,sans-Serif" font-size="10.00">src/calibration/modules</text>
<text text-anchor="middle" x="58" y="-13" font-family="Helvetica,sans-Serif" font-size="10.00">/ClusterCorrection.cc</text>
</a>
</g>
</g>
<!-- Node49&#45;&gt;Node50 -->
<g id="edge1" class="edge"><title>Node49&#45;&gt;Node50</title>
<path fill="none" stroke="midnightblue" d="M435.428,-87.0274C359.084,-79.6255 232.308,-65.0878 125,-42 117.286,-40.3403 109.17,-38.2341 101.353,-36.015"/>
<polygon fill="midnightblue" stroke="midnightblue" points="435.112,-90.513 445.4,-87.9813 435.779,-83.5448 435.112,-90.513"/>
</g>
<!-- Node51 -->
<g id="node3" class="node"><title>Node51</title>
<g id="a_node3"><a xlink:href="_setup_8cc.html" target="_top" xlink:title="src/expconfig/setups\l/Setup.cc">
<polygon fill="white" stroke="black" points="134.5,-6 134.5,-36 241.5,-36 241.5,-6 134.5,-6"/>
<text text-anchor="start" x="142.5" y="-24" font-family="Helvetica,sans-Serif" font-size="10.00">src/expconfig/setups</text>
<text text-anchor="middle" x="188" y="-13" font-family="Helvetica,sans-Serif" font-size="10.00">/Setup.cc</text>
</a>
</g>
</g>
<!-- Node49&#45;&gt;Node51 -->
<g id="edge2" class="edge"><title>Node49&#45;&gt;Node51</title>
<path fill="none" stroke="midnightblue" d="M435.356,-81.245C384.204,-71.9827 312.815,-57.992 251,-42 244.223,-40.2468 237.099,-38.1935 230.177,-36.0827"/>
<polygon fill="midnightblue" stroke="midnightblue" points="434.846,-84.7094 445.307,-83.0336 436.084,-77.8197 434.846,-84.7094"/>
</g>
<!-- Node52 -->
<g id="node4" class="node"><title>Node52</title>
<g id="a_node4"><a xlink:href="_setup__2014___e_p_t_8cc.html" target="_top" xlink:title="src/expconfig/setups\l/Setup_2014_EPT.cc">
<polygon fill="white" stroke="black" points="260,-6 260,-36 370,-36 370,-6 260,-6"/>
<text text-anchor="start" x="268" y="-24" font-family="Helvetica,sans-Serif" font-size="10.00">src/expconfig/setups</text>
<text text-anchor="middle" x="315" y="-13" font-family="Helvetica,sans-Serif" font-size="10.00">/Setup_2014_EPT.cc</text>
</a>
</g>
</g>
<!-- Node49&#45;&gt;Node52 -->
<g id="edge3" class="edge"><title>Node49&#45;&gt;Node52</title>
<path fill="none" stroke="midnightblue" d="M457.002,-75.3447C424.773,-63.2376 382.583,-47.3883 352.586,-36.1195"/>
<polygon fill="midnightblue" stroke="midnightblue" points="456.068,-78.7324 466.66,-78.9727 458.529,-72.1795 456.068,-78.7324"/>
</g>
<!-- Node53 -->
<g id="node5" class="node"><title>Node53</title>
<g id="a_node5"><a xlink:href="_setup__2017__03_8cc.html" target="_top" xlink:title="src/expconfig/setups\l/Setup_2017_03.cc">
<polygon fill="white" stroke="black" points="388.5,-6 388.5,-36 495.5,-36 495.5,-6 388.5,-6"/>
<text text-anchor="start" x="396.5" y="-24" font-family="Helvetica,sans-Serif" font-size="10.00">src/expconfig/setups</text>
<text text-anchor="middle" x="442" y="-13" font-family="Helvetica,sans-Serif" font-size="10.00">/Setup_2017_03.cc</text>
</a>
</g>
</g>
<!-- Node49&#45;&gt;Node53 -->
<g id="edge4" class="edge"><title>Node49&#45;&gt;Node53</title>
<path fill="none" stroke="midnightblue" d="M484.986,-71.226C475.136,-59.9457 463.377,-46.4798 454.649,-36.4856"/>
<polygon fill="midnightblue" stroke="midnightblue" points="482.537,-73.7425 491.751,-78.9727 487.81,-69.1382 482.537,-73.7425"/>
</g>
<!-- Node54 -->
<g id="node6" class="node"><title>Node54</title>
<g id="a_node6"><a xlink:href="_setup__2017__05_8cc.html" target="_top" xlink:title="src/expconfig/setups\l/Setup_2017_05.cc">
<polygon fill="white" stroke="black" points="513.5,-6 513.5,-36 620.5,-36 620.5,-6 513.5,-6"/>
<text text-anchor="start" x="521.5" y="-24" font-family="Helvetica,sans-Serif" font-size="10.00">src/expconfig/setups</text>
<text text-anchor="middle" x="567" y="-13" font-family="Helvetica,sans-Serif" font-size="10.00">/Setup_2017_05.cc</text>
</a>
</g>
</g>
<!-- Node49&#45;&gt;Node54 -->
<g id="edge5" class="edge"><title>Node49&#45;&gt;Node54</title>
<path fill="none" stroke="midnightblue" d="M523.321,-71.226C533.33,-59.9457 545.279,-46.4798 554.147,-36.4856"/>
<polygon fill="midnightblue" stroke="midnightblue" points="520.466,-69.1698 516.447,-78.9727 525.702,-73.8158 520.466,-69.1698"/>
</g>
<!-- Node55 -->
<g id="node7" class="node"><title>Node55</title>
<g id="a_node7"><a xlink:href="_setup__2017_plus___new_tagger___base_8cc.html" target="_top" xlink:title="src/expconfig/setups\l/Setup_2017Plus_NewTagger\l_Base.cc">
<polygon fill="white" stroke="black" points="639,-0.5 639,-41.5 785,-41.5 785,-0.5 639,-0.5"/>
<text text-anchor="start" x="647" y="-29.5" font-family="Helvetica,sans-Serif" font-size="10.00">src/expconfig/setups</text>
<text text-anchor="start" x="647" y="-18.5" font-family="Helvetica,sans-Serif" font-size="10.00">/Setup_2017Plus_NewTagger</text>
<text text-anchor="middle" x="712" y="-7.5" font-family="Helvetica,sans-Serif" font-size="10.00">_Base.cc</text>
</a>
</g>
</g>
<!-- Node49&#45;&gt;Node55 -->
<g id="edge6" class="edge"><title>Node49&#45;&gt;Node55</title>
<path fill="none" stroke="midnightblue" d="M554.616,-75.7223C584.902,-65.3846 623.473,-52.2183 654.851,-41.5075"/>
<polygon fill="midnightblue" stroke="midnightblue" points="553.427,-72.4298 545.094,-78.9727 555.689,-79.0545 553.427,-72.4298"/>
</g>
<!-- Node56 -->
<g id="node8" class="node"><title>Node56</title>
<g id="a_node8"><a xlink:href="_setup__2018__11_8cc.html" target="_top" xlink:title="src/expconfig/setups\l/Setup_2018_11.cc">
<polygon fill="white" stroke="black" points="803.5,-6 803.5,-36 910.5,-36 910.5,-6 803.5,-6"/>
<text text-anchor="start" x="811.5" y="-24" font-family="Helvetica,sans-Serif" font-size="10.00">src/expconfig/setups</text>
<text text-anchor="middle" x="857" y="-13" font-family="Helvetica,sans-Serif" font-size="10.00">/Setup_2018_11.cc</text>
</a>
</g>
</g>
<!-- Node49&#45;&gt;Node56 -->
<g id="edge7" class="edge"><title>Node49&#45;&gt;Node56</title>
<path fill="none" stroke="midnightblue" d="M572.489,-83.5896C631.594,-74.8433 719.028,-60.4056 794,-42 801.021,-40.2763 808.402,-38.1898 815.54,-36.0234"/>
<polygon fill="midnightblue" stroke="midnightblue" points="571.91,-80.137 562.523,-85.0501 572.925,-87.063 571.91,-80.137"/>
</g>
<!-- Node57 -->
<g id="node9" class="node"><title>Node57</title>
<g id="a_node9"><a xlink:href="_setup__2019__01_8cc.html" target="_top" xlink:title="src/expconfig/setups\l/Setup_2019_01.cc">
<polygon fill="white" stroke="black" points="928.5,-6 928.5,-36 1035.5,-36 1035.5,-6 928.5,-6"/>
<text text-anchor="start" x="936.5" y="-24" font-family="Helvetica,sans-Serif" font-size="10.00">src/expconfig/setups</text>
<text text-anchor="middle" x="982" y="-13" font-family="Helvetica,sans-Serif" font-size="10.00">/Setup_2019_01.cc</text>
</a>
</g>
</g>
<!-- Node49&#45;&gt;Node57 -->
<g id="edge8" class="edge"><title>Node49&#45;&gt;Node57</title>
<path fill="none" stroke="midnightblue" d="M572.695,-88.4707C655.539,-82.1125 798.665,-68.2578 919,-42 926.4,-40.3854 934.171,-38.2739 941.631,-36.0292"/>
<polygon fill="midnightblue" stroke="midnightblue" points="572.358,-84.9861 562.65,-89.2275 572.884,-91.9663 572.358,-84.9861"/>
</g>
</g>
</svg>
