<?xml version="1.0" encoding="UTF-8" standalone="no"?>
<!DOCTYPE svg PUBLIC "-//W3C//DTD SVG 1.1//EN"
 "http://www.w3.org/Graphics/SVG/1.1/DTD/svg11.dtd">
<!-- Generated by graphviz version 2.36.0 (20140111.2315)
 -->
<!-- Title: src/calibration/modules/Energy.h Pages: 1 -->
<svg width="2311pt" height="186pt"
 viewBox="0.00 0.00 2311.00 186.00" xmlns="http://www.w3.org/2000/svg" xmlns:xlink="http://www.w3.org/1999/xlink">
<g id="graph0" class="graph" transform="scale(1 1) rotate(0) translate(4 182)">
<title>src/calibration/modules/Energy.h</title>
<polygon fill="white" stroke="none" points="-4,4 -4,-182 2307,-182 2307,4 -4,4"/>
<!-- Node50 -->
<g id="node1" class="node"><title>Node50</title>
<polygon fill="#bfbfbf" stroke="black" points="1148.5,-147 1148.5,-177 1265.5,-177 1265.5,-147 1148.5,-147"/>
<text text-anchor="start" x="1156.5" y="-165" font-family="Helvetica,sans-Serif" font-size="10.00">src/calibration/modules</text>
<text text-anchor="middle" x="1207" y="-154" font-family="Helvetica,sans-Serif" font-size="10.00">/Energy.h</text>
</g>
<!-- Node51 -->
<g id="node2" class="node"><title>Node51</title>
<g id="a_node2"><a xlink:href="calibration_2modules_2_c_b___energy_8h.html" target="_top" xlink:title="src/calibration/modules\l/CB_Energy.h">
<polygon fill="white" stroke="black" points="1283.5,-79 1283.5,-109 1400.5,-109 1400.5,-79 1283.5,-79"/>
<text text-anchor="start" x="1291.5" y="-97" font-family="Helvetica,sans-Serif" font-size="10.00">src/calibration/modules</text>
<text text-anchor="middle" x="1342" y="-86" font-family="Helvetica,sans-Serif" font-size="10.00">/CB_Energy.h</text>
</a>
</g>
</g>
<!-- Node50&#45;&gt;Node51 -->
<g id="edge1" class="edge"><title>Node50&#45;&gt;Node51</title>
<path fill="none" stroke="midnightblue" d="M1245.17,-142.339C1266.73,-131.796 1293.26,-118.83 1313.09,-109.135"/>
<polygon fill="midnightblue" stroke="midnightblue" points="1243.41,-139.305 1235.96,-146.841 1246.48,-145.594 1243.41,-139.305"/>
</g>
<!-- Node64 -->
<g id="node15" class="node"><title>Node64</title>
<g id="a_node15"><a xlink:href="calibration_2modules_2_c_b___source_calib_8h.html" target="_top" xlink:title="src/calibration/modules\l/CB_SourceCalib.h">
<polygon fill="white" stroke="black" points="1762.5,-79 1762.5,-109 1879.5,-109 1879.5,-79 1762.5,-79"/>
<text text-anchor="start" x="1770.5" y="-97" font-family="Helvetica,sans-Serif" font-size="10.00">src/calibration/modules</text>
<text text-anchor="middle" x="1821" y="-86" font-family="Helvetica,sans-Serif" font-size="10.00">/CB_SourceCalib.h</text>
</a>
</g>
</g>
<!-- Node50&#45;&gt;Node64 -->
<g id="edge14" class="edge"><title>Node50&#45;&gt;Node64</title>
<path fill="none" stroke="midnightblue" d="M1275.89,-153.594C1397.53,-140.52 1648.22,-113.572 1762.24,-101.316"/>
<polygon fill="midnightblue" stroke="midnightblue" points="1275.16,-150.153 1265.59,-154.702 1275.91,-157.113 1275.16,-150.153"/>
</g>
<!-- Node66 -->
<g id="node17" class="node"><title>Node66</title>
<g id="a_node17"><a xlink:href="_energy_8cc.html" target="_top" xlink:title="src/calibration/modules\l/Energy.cc">
<polygon fill="white" stroke="black" points="1897.5,-79 1897.5,-109 2014.5,-109 2014.5,-79 1897.5,-79"/>
<text text-anchor="start" x="1905.5" y="-97" font-family="Helvetica,sans-Serif" font-size="10.00">src/calibration/modules</text>
<text text-anchor="middle" x="1956" y="-86" font-family="Helvetica,sans-Serif" font-size="10.00">/Energy.cc</text>
</a>
</g>
</g>
<!-- Node50&#45;&gt;Node66 -->
<g id="edge17" class="edge"><title>Node50&#45;&gt;Node66</title>
<path fill="none" stroke="midnightblue" d="M1275.66,-159.088C1398.89,-154.94 1665.52,-142.699 1888,-110 1891.11,-109.543 1894.29,-109.024 1897.49,-108.46"/>
<polygon fill="midnightblue" stroke="midnightblue" points="1275.49,-155.592 1265.61,-159.419 1275.72,-162.588 1275.49,-155.592"/>
</g>
<!-- Node67 -->
<g id="node18" class="node"><title>Node67</title>
<g id="a_node18"><a xlink:href="calibration_2modules_2_p_i_d___energy_8h.html" target="_top" xlink:title="src/calibration/modules\l/PID_Energy.h">
<polygon fill="white" stroke="black" points="1148.5,-79 1148.5,-109 1265.5,-109 1265.5,-79 1148.5,-79"/>
<text text-anchor="start" x="1156.5" y="-97" font-family="Helvetica,sans-Serif" font-size="10.00">src/calibration/modules</text>
<text text-anchor="middle" x="1207" y="-86" font-family="Helvetica,sans-Serif" font-size="10.00">/PID_Energy.h</text>
</a>
</g>
</g>
<!-- Node50&#45;&gt;Node67 -->
<g id="edge18" class="edge"><title>Node50&#45;&gt;Node67</title>
<path fill="none" stroke="midnightblue" d="M1207,-136.532C1207,-127.361 1207,-117.245 1207,-109.293"/>
<polygon fill="midnightblue" stroke="midnightblue" points="1203.5,-136.679 1207,-146.679 1210.5,-136.679 1203.5,-136.679"/>
</g>
<!-- Node69 -->
<g id="node20" class="node"><title>Node69</title>
<g id="a_node20"><a xlink:href="calibration_2modules_2_t_a_p_s___energy_8h.html" target="_top" xlink:title="src/calibration/modules\l/TAPS_Energy.h">
<polygon fill="white" stroke="black" points="743.5,-79 743.5,-109 860.5,-109 860.5,-79 743.5,-79"/>
<text text-anchor="start" x="751.5" y="-97" font-family="Helvetica,sans-Serif" font-size="10.00">src/calibration/modules</text>
<text text-anchor="middle" x="802" y="-86" font-family="Helvetica,sans-Serif" font-size="10.00">/TAPS_Energy.h</text>
</a>
</g>
</g>
<!-- Node50&#45;&gt;Node69 -->
<g id="edge30" class="edge"><title>Node50&#45;&gt;Node69</title>
<path fill="none" stroke="midnightblue" d="M1138.25,-152.073C1069.79,-142.843 961.797,-127.366 869,-110 866.305,-109.496 863.554,-108.961 860.778,-108.405"/>
<polygon fill="midnightblue" stroke="midnightblue" points="1138.1,-155.584 1148.47,-153.444 1139.03,-148.646 1138.1,-155.584"/>
</g>
<!-- Node71 -->
<g id="node22" class="node"><title>Node71</title>
<g id="a_node22"><a xlink:href="calibration_2modules_2_t_a_p_s___short_energy_8h.html" target="_top" xlink:title="src/calibration/modules\l/TAPS_ShortEnergy.h">
<polygon fill="white" stroke="black" points="878.5,-79 878.5,-109 995.5,-109 995.5,-79 878.5,-79"/>
<text text-anchor="start" x="886.5" y="-97" font-family="Helvetica,sans-Serif" font-size="10.00">src/calibration/modules</text>
<text text-anchor="middle" x="937" y="-86" font-family="Helvetica,sans-Serif" font-size="10.00">/TAPS_ShortEnergy.h</text>
</a>
</g>
</g>
<!-- Node50&#45;&gt;Node71 -->
<g id="edge42" class="edge"><title>Node50&#45;&gt;Node71</title>
<path fill="none" stroke="midnightblue" d="M1139.52,-144.505C1094.87,-133.591 1036.96,-119.434 994.502,-109.056"/>
<polygon fill="midnightblue" stroke="midnightblue" points="1138.86,-147.948 1149.41,-146.922 1140.53,-141.148 1138.86,-147.948"/>
</g>
<!-- Node73 -->
<g id="node24" class="node"><title>Node73</title>
<g id="a_node24"><a xlink:href="calibration_2modules_2_t_a_p_s_veto___energy_8h.html" target="_top" xlink:title="src/calibration/modules\l/TAPSVeto_Energy.h">
<polygon fill="white" stroke="black" points="1013.5,-79 1013.5,-109 1130.5,-109 1130.5,-79 1013.5,-79"/>
<text text-anchor="start" x="1021.5" y="-97" font-family="Helvetica,sans-Serif" font-size="10.00">src/calibration/modules</text>
<text text-anchor="middle" x="1072" y="-86" font-family="Helvetica,sans-Serif" font-size="10.00">/TAPSVeto_Energy.h</text>
</a>
</g>
</g>
<!-- Node50&#45;&gt;Node73 -->
<g id="edge54" class="edge"><title>Node50&#45;&gt;Node73</title>
<path fill="none" stroke="midnightblue" d="M1168.83,-142.339C1147.27,-131.796 1120.74,-118.83 1100.91,-109.135"/>
<polygon fill="midnightblue" stroke="midnightblue" points="1167.52,-145.594 1178.04,-146.841 1170.59,-139.305 1167.52,-145.594"/>
</g>
<!-- Node52 -->
<g id="node3" class="node"><title>Node52</title>
<g id="a_node3"><a xlink:href="calibration_2modules_2_c_b___energy_8cc.html" target="_top" xlink:title="src/calibration/modules\l/CB_Energy.cc">
<polygon fill="white" stroke="black" points="1902.5,-6 1902.5,-36 2019.5,-36 2019.5,-6 1902.5,-6"/>
<text text-anchor="start" x="1910.5" y="-24" font-family="Helvetica,sans-Serif" font-size="10.00">src/calibration/modules</text>
<text text-anchor="middle" x="1961" y="-13" font-family="Helvetica,sans-Serif" font-size="10.00">/CB_Energy.cc</text>
</a>
</g>
</g>
<!-- Node51&#45;&gt;Node52 -->
<g id="edge2" class="edge"><title>Node51&#45;&gt;Node52</title>
<path fill="none" stroke="midnightblue" d="M1410.98,-90.9007C1515.91,-86.7459 1721.56,-74.8248 1893,-42 1901.1,-40.4496 1909.61,-38.3408 1917.78,-36.0721"/>
<polygon fill="midnightblue" stroke="midnightblue" points="1410.69,-87.4089 1400.83,-91.2904 1410.96,-94.4038 1410.69,-87.4089"/>
</g>
<!-- Node53 -->
<g id="node4" class="node"><title>Node53</title>
<g id="a_node4"><a xlink:href="_setup__2007___base_8cc.html" target="_top" xlink:title="src/expconfig/setups\l/Setup_2007_Base.cc">
<polygon fill="white" stroke="black" points="1218.5,-6 1218.5,-36 1331.5,-36 1331.5,-6 1218.5,-6"/>
<text text-anchor="start" x="1226.5" y="-24" font-family="Helvetica,sans-Serif" font-size="10.00">src/expconfig/setups</text>
<text text-anchor="middle" x="1275" y="-13" font-family="Helvetica,sans-Serif" font-size="10.00">/Setup_2007_Base.cc</text>
</a>
</g>
</g>
<!-- Node51&#45;&gt;Node53 -->
<g id="edge3" class="edge"><title>Node51&#45;&gt;Node53</title>
<path fill="none" stroke="midnightblue" d="M1321.76,-71.5539C1311.05,-60.2075 1298.19,-46.5768 1288.67,-36.4856"/>
<polygon fill="midnightblue" stroke="midnightblue" points="1319.35,-74.1018 1328.76,-78.9727 1324.45,-69.2975 1319.35,-74.1018"/>
</g>
<!-- Node54 -->
<g id="node5" class="node"><title>Node54</title>
<g id="a_node5"><a xlink:href="_setup__2010__03___base_8cc.html" target="_top" xlink:title="src/expconfig/setups\l/Setup_2010_03_Base.cc">
<polygon fill="white" stroke="black" points="1350,-6 1350,-36 1478,-36 1478,-6 1350,-6"/>
<text text-anchor="start" x="1358" y="-24" font-family="Helvetica,sans-Serif" font-size="10.00">src/expconfig/setups</text>
<text text-anchor="middle" x="1414" y="-13" font-family="Helvetica,sans-Serif" font-size="10.00">/Setup_2010_03_Base.cc</text>
</a>
</g>
</g>
<!-- Node51&#45;&gt;Node54 -->
<g id="edge4" class="edge"><title>Node51&#45;&gt;Node54</title>
<path fill="none" stroke="midnightblue" d="M1363.42,-71.8806C1374.99,-60.4699 1388.98,-46.6738 1399.31,-36.4856"/>
<polygon fill="midnightblue" stroke="midnightblue" points="1360.89,-69.4591 1356.22,-78.9727 1365.8,-74.4433 1360.89,-69.4591"/>
</g>
<!-- Node55 -->
<g id="node6" class="node"><title>Node55</title>
<g id="a_node6"><a xlink:href="_setup__2014___e_p_t_8cc.html" target="_top" xlink:title="src/expconfig/setups\l/Setup_2014_EPT.cc">
<polygon fill="white" stroke="black" points="1496,-6 1496,-36 1606,-36 1606,-6 1496,-6"/>
<text text-anchor="start" x="1504" y="-24" font-family="Helvetica,sans-Serif" font-size="10.00">src/expconfig/setups</text>
<text text-anchor="middle" x="1551" y="-13" font-family="Helvetica,sans-Serif" font-size="10.00">/Setup_2014_EPT.cc</text>
</a>
</g>
</g>
<!-- Node51&#45;&gt;Node55 -->
<g id="edge5" class="edge"><title>Node51&#45;&gt;Node55</title>
<path fill="none" stroke="midnightblue" d="M1393.05,-75.657C1428.8,-63.5112 1475.98,-47.4854 1509.44,-36.1195"/>
<polygon fill="midnightblue" stroke="midnightblue" points="1391.63,-72.442 1383.29,-78.9727 1393.89,-79.07 1391.63,-72.442"/>
</g>
<!-- Node56 -->
<g id="node7" class="node"><title>Node56</title>
<g id="a_node7"><a xlink:href="_setup__2015__01___pion_8cc.html" target="_top" xlink:title="src/expconfig/setups\l/Setup_2015_01_Pion.cc">
<polygon fill="white" stroke="black" points="1624.5,-6 1624.5,-36 1749.5,-36 1749.5,-6 1624.5,-6"/>
<text text-anchor="start" x="1632.5" y="-24" font-family="Helvetica,sans-Serif" font-size="10.00">src/expconfig/setups</text>
<text text-anchor="middle" x="1687" y="-13" font-family="Helvetica,sans-Serif" font-size="10.00">/Setup_2015_01_Pion.cc</text>
</a>
</g>
</g>
<!-- Node51&#45;&gt;Node56 -->
<g id="edge6" class="edge"><title>Node51&#45;&gt;Node56</title>
<path fill="none" stroke="midnightblue" d="M1410.67,-81.8602C1466.08,-72.4662 1545.91,-58.0179 1615,-42 1622.71,-40.2127 1630.83,-38.1416 1638.73,-36.0234"/>
<polygon fill="midnightblue" stroke="midnightblue" points="1409.9,-78.4415 1400.62,-83.5547 1411.06,-85.3441 1409.9,-78.4415"/>
</g>
<!-- Node57 -->
<g id="node8" class="node"><title>Node57</title>
<g id="a_node8"><a xlink:href="_setup__2017__03_8cc.html" target="_top" xlink:title="src/expconfig/setups\l/Setup_2017_03.cc">
<polygon fill="white" stroke="black" points="271.5,-6 271.5,-36 378.5,-36 378.5,-6 271.5,-6"/>
<text text-anchor="start" x="279.5" y="-24" font-family="Helvetica,sans-Serif" font-size="10.00">src/expconfig/setups</text>
<text text-anchor="middle" x="325" y="-13" font-family="Helvetica,sans-Serif" font-size="10.00">/Setup_2017_03.cc</text>
</a>
</g>
</g>
<!-- Node51&#45;&gt;Node57 -->
<g id="edge7" class="edge"><title>Node51&#45;&gt;Node57</title>
<path fill="none" stroke="midnightblue" d="M1272.94,-78.0453C880.869,-28.7306 772.112,-110.609 387,-42 379.094,-40.5916 370.805,-38.426 362.952,-36.0316"/>
<polygon fill="midnightblue" stroke="midnightblue" points="1272.78,-81.5529 1283.14,-79.3497 1273.67,-74.6094 1272.78,-81.5529"/>
</g>
<!-- Node58 -->
<g id="node9" class="node"><title>Node58</title>
<g id="a_node9"><a xlink:href="_setup__2017__05_8cc.html" target="_top" xlink:title="src/expconfig/setups\l/Setup_2017_05.cc">
<polygon fill="white" stroke="black" points="396.5,-6 396.5,-36 503.5,-36 503.5,-6 396.5,-6"/>
<text text-anchor="start" x="404.5" y="-24" font-family="Helvetica,sans-Serif" font-size="10.00">src/expconfig/setups</text>
<text text-anchor="middle" x="450" y="-13" font-family="Helvetica,sans-Serif" font-size="10.00">/Setup_2017_05.cc</text>
</a>
</g>
</g>
<!-- Node51&#45;&gt;Node58 -->
<g id="edge8" class="edge"><title>Node51&#45;&gt;Node58</title>
<path fill="none" stroke="midnightblue" d="M1273.11,-78.059C936.533,-34.6932 843.036,-101.148 513,-42 505.093,-40.583 496.8,-38.4455 488.923,-36.0876"/>
<polygon fill="midnightblue" stroke="midnightblue" points="1272.77,-81.5442 1283.14,-79.3743 1273.68,-74.6036 1272.77,-81.5442"/>
</g>
<!-- Node59 -->
<g id="node10" class="node"><title>Node59</title>
<g id="a_node10"><a xlink:href="_setup__2017_plus___new_tagger___base_8cc.html" target="_top" xlink:title="src/expconfig/setups\l/Setup_2017Plus_NewTagger\l_Base.cc">
<polygon fill="white" stroke="black" points="522,-0.5 522,-41.5 668,-41.5 668,-0.5 522,-0.5"/>
<text text-anchor="start" x="530" y="-29.5" font-family="Helvetica,sans-Serif" font-size="10.00">src/expconfig/setups</text>
<text text-anchor="start" x="530" y="-18.5" font-family="Helvetica,sans-Serif" font-size="10.00">/Setup_2017Plus_NewTagger</text>
<text text-anchor="middle" x="595" y="-7.5" font-family="Helvetica,sans-Serif" font-size="10.00">_Base.cc</text>
</a>
</g>
</g>
<!-- Node51&#45;&gt;Node59 -->
<g id="edge9" class="edge"><title>Node51&#45;&gt;Node59</title>
<path fill="none" stroke="midnightblue" d="M1272.85,-78.0058C1008.91,-42.2702 936.504,-81.1486 677,-42 674.102,-41.5628 671.157,-41.0719 668.188,-40.5383"/>
<polygon fill="midnightblue" stroke="midnightblue" points="1272.75,-81.5241 1283.13,-79.4217 1273.7,-74.5896 1272.75,-81.5241"/>
</g>
<!-- Node60 -->
<g id="node11" class="node"><title>Node60</title>
<g id="a_node11"><a xlink:href="_setup__2018__11_8cc.html" target="_top" xlink:title="src/expconfig/setups\l/Setup_2018_11.cc">
<polygon fill="white" stroke="black" points="686.5,-6 686.5,-36 793.5,-36 793.5,-6 686.5,-6"/>
<text text-anchor="start" x="694.5" y="-24" font-family="Helvetica,sans-Serif" font-size="10.00">src/expconfig/setups</text>
<text text-anchor="middle" x="740" y="-13" font-family="Helvetica,sans-Serif" font-size="10.00">/Setup_2018_11.cc</text>
</a>
</g>
</g>
<!-- Node51&#45;&gt;Node60 -->
<g id="edge10" class="edge"><title>Node51&#45;&gt;Node60</title>
<path fill="none" stroke="midnightblue" d="M1273.41,-78.0805C1064.04,-48.349 1005.21,-81.9427 802,-42 794.343,-40.4949 786.309,-38.3482 778.658,-36.0151"/>
<polygon fill="midnightblue" stroke="midnightblue" points="1273.09,-81.5715 1283.49,-79.5447 1274.1,-74.6442 1273.09,-81.5715"/>
</g>
<!-- Node61 -->
<g id="node12" class="node"><title>Node61</title>
<g id="a_node12"><a xlink:href="_setup__2019__01_8cc.html" target="_top" xlink:title="src/expconfig/setups\l/Setup_2019_01.cc">
<polygon fill="white" stroke="black" points="946.5,-6 946.5,-36 1053.5,-36 1053.5,-6 946.5,-6"/>
<text text-anchor="start" x="954.5" y="-24" font-family="Helvetica,sans-Serif" font-size="10.00">src/expconfig/setups</text>
<text text-anchor="middle" x="1000" y="-13" font-family="Helvetica,sans-Serif" font-size="10.00">/Setup_2019_01.cc</text>
</a>
</g>
</g>
<!-- Node51&#45;&gt;Node61 -->
<g id="edge11" class="edge"><title>Node51&#45;&gt;Node61</title>
<path fill="none" stroke="midnightblue" d="M1273.44,-77.9667C1178.89,-60.0305 1152.38,-63.7011 1063,-42 1055.97,-40.2942 1048.59,-38.2168 1041.45,-36.0539"/>
<polygon fill="midnightblue" stroke="midnightblue" points="1272.95,-81.4359 1283.43,-79.893 1274.28,-74.5626 1272.95,-81.4359"/>
</g>
<!-- Node62 -->
<g id="node13" class="node"><title>Node62</title>
<g id="a_node13"><a xlink:href="_setup___c_b_source_calib_8cc.html" target="_top" xlink:title="src/expconfig/setups\l/Setup_CBSourceCalib.cc">
<polygon fill="white" stroke="black" points="2037.5,-6 2037.5,-36 2168.5,-36 2168.5,-6 2037.5,-6"/>
<text text-anchor="start" x="2045.5" y="-24" font-family="Helvetica,sans-Serif" font-size="10.00">src/expconfig/setups</text>
<text text-anchor="middle" x="2103" y="-13" font-family="Helvetica,sans-Serif" font-size="10.00">/Setup_CBSourceCalib.cc</text>
</a>
</g>
</g>
<!-- Node51&#45;&gt;Node62 -->
<g id="edge12" class="edge"><title>Node51&#45;&gt;Node62</title>
<path fill="none" stroke="midnightblue" d="M1410.84,-92.1139C1535.01,-89.5788 1804.37,-79.7909 2028,-42 2037.04,-40.4731 2046.56,-38.3463 2055.68,-36.0459"/>
<polygon fill="midnightblue" stroke="midnightblue" points="1410.65,-88.6169 1400.72,-92.311 1410.78,-95.6156 1410.65,-88.6169"/>
</g>
<!-- Node63 -->
<g id="node14" class="node"><title>Node63</title>
<g id="a_node14"><a xlink:href="expconfig__helpers_8cc.html" target="_top" xlink:title="test/expconfig_helpers.cc">
<polygon fill="white" stroke="black" points="1072,-11.5 1072,-30.5 1200,-30.5 1200,-11.5 1072,-11.5"/>
<text text-anchor="middle" x="1136" y="-18.5" font-family="Helvetica,sans-Serif" font-size="10.00">test/expconfig_helpers.cc</text>
</a>
</g>
</g>
<!-- Node51&#45;&gt;Node63 -->
<g id="edge13" class="edge"><title>Node51&#45;&gt;Node63</title>
<path fill="none" stroke="midnightblue" d="M1291.64,-75.6422C1250.12,-61.3336 1193.01,-41.6475 1160.77,-30.5361"/>
<polygon fill="midnightblue" stroke="midnightblue" points="1290.71,-79.0231 1301.3,-78.9727 1292.99,-72.4051 1290.71,-79.0231"/>
</g>
<!-- Node64&#45;&gt;Node62 -->
<g id="edge16" class="edge"><title>Node64&#45;&gt;Node62</title>
<path fill="none" stroke="midnightblue" d="M1889.26,-76.5285C1929.65,-66.6948 1981.8,-53.851 2028,-42 2035.44,-40.0916 2043.29,-38.0415 2050.99,-36.0074"/>
<polygon fill="midnightblue" stroke="midnightblue" points="1888.41,-73.1336 1879.52,-78.8973 1890.06,-79.9355 1888.41,-73.1336"/>
</g>
<!-- Node65 -->
<g id="node16" class="node"><title>Node65</title>
<g id="a_node16"><a xlink:href="calibration_2modules_2_c_b___source_calib_8cc.html" target="_top" xlink:title="src/calibration/modules\l/CB_SourceCalib.cc">
<polygon fill="white" stroke="black" points="2186.5,-6 2186.5,-36 2303.5,-36 2303.5,-6 2186.5,-6"/>
<text text-anchor="start" x="2194.5" y="-24" font-family="Helvetica,sans-Serif" font-size="10.00">src/calibration/modules</text>
<text text-anchor="middle" x="2245" y="-13" font-family="Helvetica,sans-Serif" font-size="10.00">/CB_SourceCalib.cc</text>
</a>
</g>
</g>
<!-- Node64&#45;&gt;Node65 -->
<g id="edge15" class="edge"><title>Node64&#45;&gt;Node65</title>
<path fill="none" stroke="midnightblue" d="M1889.75,-77.9932C2017.94,-56.6778 2053.92,-67.6176 2177,-42 2184.83,-40.3701 2193.07,-38.2786 2201,-36.0649"/>
<polygon fill="midnightblue" stroke="midnightblue" points="1888.81,-74.6019 1879.54,-79.726 1889.98,-81.5033 1888.81,-74.6019"/>
</g>
<!-- Node67&#45;&gt;Node53 -->
<g id="edge20" class="edge"><title>Node67&#45;&gt;Node53</title>
<path fill="none" stroke="midnightblue" d="M1227.54,-71.5539C1238.41,-60.2075 1251.46,-46.5768 1261.13,-36.4856"/>
<polygon fill="midnightblue" stroke="midnightblue" points="1224.82,-69.3298 1220.43,-78.9727 1229.88,-74.1716 1224.82,-69.3298"/>
</g>
<!-- Node67&#45;&gt;Node54 -->
<g id="edge21" class="edge"><title>Node67&#45;&gt;Node54</title>
<path fill="none" stroke="midnightblue" d="M1257.56,-75.657C1292.97,-63.5112 1339.7,-47.4854 1372.83,-36.1195"/>
<polygon fill="midnightblue" stroke="midnightblue" points="1256.22,-72.4175 1247.9,-78.9727 1258.49,-79.0389 1256.22,-72.4175"/>
</g>
<!-- Node67&#45;&gt;Node55 -->
<g id="edge22" class="edge"><title>Node67&#45;&gt;Node55</title>
<path fill="none" stroke="midnightblue" d="M1275.74,-77.7278C1369.97,-59.7988 1396.73,-63.6271 1487,-42 1494.13,-40.2912 1501.63,-38.2123 1508.88,-36.0488"/>
<polygon fill="midnightblue" stroke="midnightblue" points="1274.94,-74.3176 1265.79,-79.6539 1276.27,-81.1901 1274.94,-74.3176"/>
</g>
<!-- Node67&#45;&gt;Node56 -->
<g id="edge23" class="edge"><title>Node67&#45;&gt;Node56</title>
<path fill="none" stroke="midnightblue" d="M1275.82,-77.8199C1426.19,-54.0289 1468.51,-69.8798 1615,-42 1623.41,-40.3992 1632.27,-38.2945 1640.79,-36.052"/>
<polygon fill="midnightblue" stroke="midnightblue" points="1275.07,-74.3956 1265.75,-79.4452 1276.18,-81.306 1275.07,-74.3956"/>
</g>
<!-- Node67&#45;&gt;Node57 -->
<g id="edge24" class="edge"><title>Node67&#45;&gt;Node57</title>
<path fill="none" stroke="midnightblue" d="M1137.73,-78.01C805.433,-35.186 712.827,-101.27 387,-42 379.211,-40.5831 371.046,-38.4457 363.293,-36.0878"/>
<polygon fill="midnightblue" stroke="midnightblue" points="1137.77,-81.5446 1148.14,-79.3764 1138.68,-74.6042 1137.77,-81.5446"/>
</g>
<!-- Node67&#45;&gt;Node58 -->
<g id="edge25" class="edge"><title>Node67&#45;&gt;Node58</title>
<path fill="none" stroke="midnightblue" d="M1138.19,-78.0588C861.134,-41.084 783.846,-91.9635 513,-42 505.1,-40.5428 496.811,-38.3871 488.935,-36.0239"/>
<polygon fill="midnightblue" stroke="midnightblue" points="1137.75,-81.5311 1148.13,-79.4115 1138.7,-74.595 1137.75,-81.5311"/>
</g>
<!-- Node67&#45;&gt;Node59 -->
<g id="edge26" class="edge"><title>Node67&#45;&gt;Node59</title>
<path fill="none" stroke="midnightblue" d="M1138.31,-78.0585C933.471,-48.5913 877.097,-73.9833 677,-42 674.106,-41.5374 671.164,-41.0251 668.198,-40.4735"/>
<polygon fill="midnightblue" stroke="midnightblue" points="1138.09,-81.564 1148.49,-79.5509 1139.1,-74.6379 1138.09,-81.564"/>
</g>
<!-- Node67&#45;&gt;Node60 -->
<g id="edge27" class="edge"><title>Node67&#45;&gt;Node60</title>
<path fill="none" stroke="midnightblue" d="M1138.44,-78.0501C988.526,-54.5558 946.179,-72.6149 802,-42 794.588,-40.426 786.808,-38.306 779.362,-36.0336"/>
<polygon fill="midnightblue" stroke="midnightblue" points="1138.05,-81.5313 1148.47,-79.6587 1139.15,-74.6196 1138.05,-81.5313"/>
</g>
<!-- Node67&#45;&gt;Node61 -->
<g id="edge28" class="edge"><title>Node67&#45;&gt;Node61</title>
<path fill="none" stroke="midnightblue" d="M1156.44,-75.657C1121.03,-63.5112 1074.3,-47.4854 1041.17,-36.1195"/>
<polygon fill="midnightblue" stroke="midnightblue" points="1155.51,-79.0389 1166.1,-78.9727 1157.78,-72.4175 1155.51,-79.0389"/>
</g>
<!-- Node67&#45;&gt;Node63 -->
<g id="edge29" class="edge"><title>Node67&#45;&gt;Node63</title>
<path fill="none" stroke="midnightblue" d="M1185.74,-71.7432C1171.98,-57.976 1154.78,-40.7828 1144.64,-30.6372"/>
<polygon fill="midnightblue" stroke="midnightblue" points="1183.43,-74.3765 1192.97,-78.9727 1188.38,-69.4267 1183.43,-74.3765"/>
</g>
<!-- Node68 -->
<g id="node19" class="node"><title>Node68</title>
<g id="a_node19"><a xlink:href="calibration_2modules_2_p_i_d___energy_8cc.html" target="_top" xlink:title="src/calibration/modules\l/PID_Energy.cc">
<polygon fill="white" stroke="black" points="1767.5,-6 1767.5,-36 1884.5,-36 1884.5,-6 1767.5,-6"/>
<text text-anchor="start" x="1775.5" y="-24" font-family="Helvetica,sans-Serif" font-size="10.00">src/calibration/modules</text>
<text text-anchor="middle" x="1826" y="-13" font-family="Helvetica,sans-Serif" font-size="10.00">/PID_Energy.cc</text>
</a>
</g>
</g>
<!-- Node67&#45;&gt;Node68 -->
<g id="edge19" class="edge"><title>Node67&#45;&gt;Node68</title>
<path fill="none" stroke="midnightblue" d="M1275.69,-77.8888C1489.17,-47.3744 1549,-80.0639 1758,-42 1766.23,-40.5007 1774.89,-38.3868 1783.16,-36.0905"/>
<polygon fill="midnightblue" stroke="midnightblue" points="1275.13,-74.4339 1265.74,-79.3411 1276.14,-81.3606 1275.13,-74.4339"/>
</g>
<!-- Node69&#45;&gt;Node53 -->
<g id="edge32" class="edge"><title>Node69&#45;&gt;Node53</title>
<path fill="none" stroke="midnightblue" d="M870.788,-77.8262C1020.76,-54.1459 1063.27,-71.5202 1209,-42 1216.86,-40.4074 1225.13,-38.2785 1233.05,-36.0031"/>
<polygon fill="midnightblue" stroke="midnightblue" points="870.066,-74.3973 860.752,-79.4462 871.182,-81.3078 870.066,-74.3973"/>
</g>
<!-- Node69&#45;&gt;Node54 -->
<g id="edge33" class="edge"><title>Node69&#45;&gt;Node54</title>
<path fill="none" stroke="midnightblue" d="M870.741,-77.8766C1078.44,-47.925 1136.32,-76.9891 1340,-42 1348.92,-40.4679 1358.32,-38.3385 1367.32,-36.0374"/>
<polygon fill="midnightblue" stroke="midnightblue" points="870.121,-74.4301 860.736,-79.348 871.139,-81.3556 870.121,-74.4301"/>
</g>
<!-- Node69&#45;&gt;Node55 -->
<g id="edge34" class="edge"><title>Node69&#45;&gt;Node55</title>
<path fill="none" stroke="midnightblue" d="M870.917,-77.882C1143.33,-41.0646 1219.64,-90.7988 1487,-42 1495.02,-40.5368 1503.43,-38.3785 1511.43,-36.0145"/>
<polygon fill="midnightblue" stroke="midnightblue" points="870.156,-74.4538 860.727,-79.2869 871.112,-81.3882 870.156,-74.4538"/>
</g>
<!-- Node69&#45;&gt;Node56 -->
<g id="edge35" class="edge"><title>Node69&#45;&gt;Node56</title>
<path fill="none" stroke="midnightblue" d="M871.019,-77.8817C1199.81,-34.8183 1290.64,-94.2069 1615,-42 1623.97,-40.5569 1633.41,-38.4077 1642.41,-36.0463"/>
<polygon fill="midnightblue" stroke="midnightblue" points="870.173,-74.4633 860.723,-79.2533 871.097,-81.402 870.173,-74.4633"/>
</g>
<!-- Node69&#45;&gt;Node57 -->
<g id="edge36" class="edge"><title>Node69&#45;&gt;Node57</title>
<path fill="none" stroke="midnightblue" d="M733.284,-88.566C650.419,-82.301 507.274,-68.5372 387,-42 379.711,-40.3917 372.059,-38.2833 364.716,-36.0396"/>
<polygon fill="midnightblue" stroke="midnightblue" points="733.1,-92.0619 743.332,-89.3112 733.618,-85.0811 733.1,-92.0619"/>
</g>
<!-- Node69&#45;&gt;Node58 -->
<g id="edge37" class="edge"><title>Node69&#45;&gt;Node58</title>
<path fill="none" stroke="midnightblue" d="M733.472,-83.5285C674.575,-74.7657 587.599,-60.3374 513,-42 505.979,-40.2743 498.599,-38.1867 491.461,-36.0198"/>
<polygon fill="midnightblue" stroke="midnightblue" points="733,-86.9968 743.404,-84.9921 734.021,-80.0716 733,-86.9968"/>
</g>
<!-- Node69&#45;&gt;Node59 -->
<g id="edge38" class="edge"><title>Node69&#45;&gt;Node59</title>
<path fill="none" stroke="midnightblue" d="M751.627,-75.7223C721.487,-65.3846 683.101,-52.2183 651.874,-41.5075"/>
<polygon fill="midnightblue" stroke="midnightblue" points="750.509,-79.0389 761.103,-78.9727 752.78,-72.4175 750.509,-79.0389"/>
</g>
<!-- Node69&#45;&gt;Node60 -->
<g id="edge39" class="edge"><title>Node69&#45;&gt;Node60</title>
<path fill="none" stroke="midnightblue" d="M782.986,-71.226C773.136,-59.9457 761.377,-46.4798 752.649,-36.4856"/>
<polygon fill="midnightblue" stroke="midnightblue" points="780.537,-73.7425 789.751,-78.9727 785.81,-69.1382 780.537,-73.7425"/>
</g>
<!-- Node69&#45;&gt;Node61 -->
<g id="edge40" class="edge"><title>Node69&#45;&gt;Node61</title>
<path fill="none" stroke="midnightblue" d="M850.8,-75.501C884.618,-63.3743 929.063,-47.4369 960.624,-36.1195"/>
<polygon fill="midnightblue" stroke="midnightblue" points="849.35,-72.3026 841.118,-78.9727 851.713,-78.8918 849.35,-72.3026"/>
</g>
<!-- Node69&#45;&gt;Node63 -->
<g id="edge41" class="edge"><title>Node69&#45;&gt;Node63</title>
<path fill="none" stroke="midnightblue" d="M870.682,-77.7016C956.181,-60.5064 980,-60.6975 1062,-42 1076.79,-38.6272 1093.08,-34.2923 1106.61,-30.5209"/>
<polygon fill="midnightblue" stroke="midnightblue" points="869.903,-74.2884 860.8,-79.7106 871.297,-81.1481 869.903,-74.2884"/>
</g>
<!-- Node70 -->
<g id="node21" class="node"><title>Node70</title>
<g id="a_node21"><a xlink:href="calibration_2modules_2_t_a_p_s___energy_8cc.html" target="_top" xlink:title="src/calibration/modules\l/TAPS_Energy.cc">
<polygon fill="white" stroke="black" points="-0.5,-6 -0.5,-36 116.5,-36 116.5,-6 -0.5,-6"/>
<text text-anchor="start" x="7.5" y="-24" font-family="Helvetica,sans-Serif" font-size="10.00">src/calibration/modules</text>
<text text-anchor="middle" x="58" y="-13" font-family="Helvetica,sans-Serif" font-size="10.00">/TAPS_Energy.cc</text>
</a>
</g>
</g>
<!-- Node69&#45;&gt;Node70 -->
<g id="edge31" class="edge"><title>Node69&#45;&gt;Node70</title>
<path fill="none" stroke="midnightblue" d="M733.002,-92.6741C609.862,-91.0147 344.557,-82.5515 125,-42 116.883,-40.5008 108.35,-38.3869 100.196,-36.0906"/>
<polygon fill="midnightblue" stroke="midnightblue" points="733.004,-96.1743 743.047,-92.7984 733.091,-89.1748 733.004,-96.1743"/>
</g>
<!-- Node71&#45;&gt;Node53 -->
<g id="edge44" class="edge"><title>Node71&#45;&gt;Node53</title>
<path fill="none" stroke="midnightblue" d="M1005.68,-77.7265C1096.45,-60.1045 1122.09,-62.7192 1209,-42 1216.22,-40.2785 1223.82,-38.2178 1231.18,-36.0831"/>
<polygon fill="midnightblue" stroke="midnightblue" points="1004.93,-74.3075 995.793,-79.6753 1006.28,-81.1753 1004.93,-74.3075"/>
</g>
<!-- Node71&#45;&gt;Node54 -->
<g id="edge45" class="edge"><title>Node71&#45;&gt;Node54</title>
<path fill="none" stroke="midnightblue" d="M1005.68,-77.8387C1153.96,-54.2273 1195.56,-69.0835 1340,-42 1348.63,-40.3813 1357.73,-38.2679 1366.49,-36.0225"/>
<polygon fill="midnightblue" stroke="midnightblue" points="1005.06,-74.3925 995.752,-79.4504 1006.18,-81.302 1005.06,-74.3925"/>
</g>
<!-- Node71&#45;&gt;Node55 -->
<g id="edge46" class="edge"><title>Node71&#45;&gt;Node55</title>
<path fill="none" stroke="midnightblue" d="M1005.67,-77.8926C1218.74,-47.4729 1278.76,-81.7558 1487,-42 1494.89,-40.4938 1503.18,-38.3465 1511.07,-36.0133"/>
<polygon fill="midnightblue" stroke="midnightblue" points="1005.13,-74.4348 995.735,-79.3416 1006.14,-81.3615 1005.13,-74.4348"/>
</g>
<!-- Node71&#45;&gt;Node56 -->
<g id="edge47" class="edge"><title>Node71&#45;&gt;Node56</title>
<path fill="none" stroke="midnightblue" d="M1005.81,-77.8942C1275.2,-41.2832 1349.94,-86.1089 1615,-42 1623.83,-40.5306 1633.13,-38.4003 1642.01,-36.0722"/>
<polygon fill="midnightblue" stroke="midnightblue" points="1005.15,-74.451 995.728,-79.2892 1006.11,-81.3849 1005.15,-74.451"/>
</g>
<!-- Node71&#45;&gt;Node57 -->
<g id="edge48" class="edge"><title>Node71&#45;&gt;Node57</title>
<path fill="none" stroke="midnightblue" d="M868.521,-78.0985C654.651,-47.8703 594.627,-82.641 387,-42 379.341,-40.5009 371.307,-38.357 363.656,-36.0247"/>
<polygon fill="midnightblue" stroke="midnightblue" points="868.095,-81.5731 878.493,-79.5388 869.096,-74.645 868.095,-81.5731"/>
</g>
<!-- Node71&#45;&gt;Node58 -->
<g id="edge49" class="edge"><title>Node71&#45;&gt;Node58</title>
<path fill="none" stroke="midnightblue" d="M868.387,-78.0481C710.154,-53.6845 665.535,-73.5703 513,-42 505.471,-40.4417 497.568,-38.3292 490.002,-36.0592"/>
<polygon fill="midnightblue" stroke="midnightblue" points="868.055,-81.5388 878.477,-79.6375 869.144,-74.6241 868.055,-81.5388"/>
</g>
<!-- Node71&#45;&gt;Node59 -->
<g id="edge50" class="edge"><title>Node71&#45;&gt;Node59</title>
<path fill="none" stroke="midnightblue" d="M868.455,-77.9337C782.255,-60.5978 758.805,-59.632 677,-42 674.135,-41.3825 671.217,-40.7394 668.273,-40.0785"/>
<polygon fill="midnightblue" stroke="midnightblue" points="867.924,-81.3972 878.42,-79.9541 869.315,-74.5368 867.924,-81.3972"/>
</g>
<!-- Node71&#45;&gt;Node60 -->
<g id="edge51" class="edge"><title>Node71&#45;&gt;Node60</title>
<path fill="none" stroke="midnightblue" d="M888.447,-75.501C854.799,-63.3743 810.578,-47.4369 779.177,-36.1195"/>
<polygon fill="midnightblue" stroke="midnightblue" points="887.485,-78.8747 898.079,-78.9727 889.858,-72.2894 887.485,-78.8747"/>
</g>
<!-- Node71&#45;&gt;Node61 -->
<g id="edge52" class="edge"><title>Node71&#45;&gt;Node61</title>
<path fill="none" stroke="midnightblue" d="M956.321,-71.226C966.33,-59.9457 978.279,-46.4798 987.147,-36.4856"/>
<polygon fill="midnightblue" stroke="midnightblue" points="953.466,-69.1698 949.447,-78.9727 958.702,-73.8158 953.466,-69.1698"/>
</g>
<!-- Node71&#45;&gt;Node63 -->
<g id="edge53" class="edge"><title>Node71&#45;&gt;Node63</title>
<path fill="none" stroke="midnightblue" d="M985.905,-75.5516C1025.99,-61.2506 1081,-41.6241 1112.07,-30.5361"/>
<polygon fill="midnightblue" stroke="midnightblue" points="984.558,-72.3158 976.316,-78.9727 986.911,-78.9087 984.558,-72.3158"/>
</g>
<!-- Node72 -->
<g id="node23" class="node"><title>Node72</title>
<g id="a_node23"><a xlink:href="calibration_2modules_2_t_a_p_s___short_energy_8cc.html" target="_top" xlink:title="src/calibration/modules\l/TAPS_ShortEnergy.cc">
<polygon fill="white" stroke="black" points="134.5,-6 134.5,-36 253.5,-36 253.5,-6 134.5,-6"/>
<text text-anchor="start" x="142.5" y="-24" font-family="Helvetica,sans-Serif" font-size="10.00">src/calibration/modules</text>
<text text-anchor="middle" x="194" y="-13" font-family="Helvetica,sans-Serif" font-size="10.00">/TAPS_ShortEnergy.cc</text>
</a>
</g>
</g>
<!-- Node71&#45;&gt;Node72 -->
<g id="edge43" class="edge"><title>Node71&#45;&gt;Node72</title>
<path fill="none" stroke="midnightblue" d="M868.084,-78.0412C599.511,-41.926 524.984,-87.8595 262,-42 253.635,-40.5414 244.84,-38.4161 236.453,-36.0895"/>
<polygon fill="midnightblue" stroke="midnightblue" points="867.748,-81.5278 878.131,-79.4181 868.699,-74.5926 867.748,-81.5278"/>
</g>
<!-- Node73&#45;&gt;Node53 -->
<g id="edge56" class="edge"><title>Node73&#45;&gt;Node53</title>
<path fill="none" stroke="midnightblue" d="M1121.59,-75.657C1156.31,-63.5112 1202.13,-47.4854 1234.63,-36.1195"/>
<polygon fill="midnightblue" stroke="midnightblue" points="1120.39,-72.3674 1112.11,-78.9727 1122.7,-78.9749 1120.39,-72.3674"/>
</g>
<!-- Node73&#45;&gt;Node54 -->
<g id="edge57" class="edge"><title>Node73&#45;&gt;Node54</title>
<path fill="none" stroke="midnightblue" d="M1140.78,-77.6964C1229.7,-60.1803 1254.56,-61.1599 1340,-42 1347.92,-40.2237 1356.27,-38.1584 1364.39,-36.0426"/>
<polygon fill="midnightblue" stroke="midnightblue" points="1139.92,-74.2987 1130.8,-79.6866 1141.29,-81.1635 1139.92,-74.2987"/>
</g>
<!-- Node73&#45;&gt;Node55 -->
<g id="edge58" class="edge"><title>Node73&#45;&gt;Node55</title>
<path fill="none" stroke="midnightblue" d="M1141.01,-77.7962C1294.33,-53.8233 1337.97,-72.6725 1487,-42 1494.64,-40.4277 1502.66,-38.3084 1510.35,-36.0363"/>
<polygon fill="midnightblue" stroke="midnightblue" points="1140.07,-74.4018 1130.75,-79.4382 1141.18,-81.3138 1140.07,-74.4018"/>
</g>
<!-- Node73&#45;&gt;Node56 -->
<g id="edge59" class="edge"><title>Node73&#45;&gt;Node56</title>
<path fill="none" stroke="midnightblue" d="M1140.84,-77.8637C1350.67,-47.7204 1409.28,-77.9948 1615,-42 1623.69,-40.4795 1632.84,-38.3557 1641.6,-36.0563"/>
<polygon fill="midnightblue" stroke="midnightblue" points="1140.12,-74.4318 1130.74,-79.3453 1141.14,-81.3578 1140.12,-74.4318"/>
</g>
<!-- Node73&#45;&gt;Node57 -->
<g id="edge60" class="edge"><title>Node73&#45;&gt;Node57</title>
<path fill="none" stroke="midnightblue" d="M1002.92,-78.0225C730.053,-41.5568 653.697,-91.9543 387,-42 379.218,-40.5424 371.057,-38.3866 363.305,-36.0234"/>
<polygon fill="midnightblue" stroke="midnightblue" points="1002.75,-81.5311 1013.13,-79.4146 1003.7,-74.5953 1002.75,-81.5311"/>
</g>
<!-- Node73&#45;&gt;Node58 -->
<g id="edge61" class="edge"><title>Node73&#45;&gt;Node58</title>
<path fill="none" stroke="midnightblue" d="M1003.34,-78.0746C785.652,-47.4546 724.606,-82.7604 513,-42 505.225,-40.5023 497.064,-38.3591 489.291,-36.027"/>
<polygon fill="midnightblue" stroke="midnightblue" points="1003.1,-81.575 1013.49,-79.5337 1004.09,-74.6463 1003.1,-81.575"/>
</g>
<!-- Node73&#45;&gt;Node59 -->
<g id="edge62" class="edge"><title>Node73&#45;&gt;Node59</title>
<path fill="none" stroke="midnightblue" d="M1003.28,-78.0133C857.942,-54.7896 817.758,-66.8061 677,-42 674.114,-41.4914 671.178,-40.9401 668.218,-40.356"/>
<polygon fill="midnightblue" stroke="midnightblue" points="1003.04,-81.5194 1013.47,-79.6708 1004.16,-74.6103 1003.04,-81.5194"/>
</g>
<!-- Node73&#45;&gt;Node60 -->
<g id="edge63" class="edge"><title>Node73&#45;&gt;Node60</title>
<path fill="none" stroke="midnightblue" d="M1003.55,-77.9766C912.845,-60.409 887.462,-63.2952 802,-42 795.086,-40.2772 787.82,-38.1911 780.794,-36.0249"/>
<polygon fill="midnightblue" stroke="midnightblue" points="1002.94,-81.4242 1013.43,-79.9206 1004.29,-74.5559 1002.94,-81.4242"/>
</g>
<!-- Node73&#45;&gt;Node61 -->
<g id="edge64" class="edge"><title>Node73&#45;&gt;Node61</title>
<path fill="none" stroke="midnightblue" d="M1050.58,-71.8806C1039.01,-60.4699 1025.02,-46.6738 1014.69,-36.4856"/>
<polygon fill="midnightblue" stroke="midnightblue" points="1048.2,-74.4433 1057.78,-78.9727 1053.11,-69.4591 1048.2,-74.4433"/>
</g>
<!-- Node73&#45;&gt;Node63 -->
<g id="edge65" class="edge"><title>Node73&#45;&gt;Node63</title>
<path fill="none" stroke="midnightblue" d="M1091.51,-71.3599C1103.86,-57.6582 1119.15,-40.6888 1128.21,-30.6372"/>
<polygon fill="midnightblue" stroke="midnightblue" points="1088.74,-69.2015 1084.64,-78.9727 1093.94,-73.8883 1088.74,-69.2015"/>
</g>
<!-- Node74 -->
<g id="node25" class="node"><title>Node74</title>
<g id="a_node25"><a xlink:href="calibration_2modules_2_t_a_p_s_veto___energy_8cc.html" target="_top" xlink:title="src/calibration/modules\l/TAPSVeto_Energy.cc">
<polygon fill="white" stroke="black" points="811.5,-6 811.5,-36 928.5,-36 928.5,-6 811.5,-6"/>
<text text-anchor="start" x="819.5" y="-24" font-family="Helvetica,sans-Serif" font-size="10.00">src/calibration/modules</text>
<text text-anchor="middle" x="870" y="-13" font-family="Helvetica,sans-Serif" font-size="10.00">/TAPSVeto_Energy.cc</text>
</a>
</g>
</g>
<!-- Node73&#45;&gt;Node74 -->
<g id="edge55" class="edge"><title>Node73&#45;&gt;Node74</title>
<path fill="none" stroke="midnightblue" d="M1022.21,-75.501C987.713,-63.3743 942.37,-47.4369 910.171,-36.1195"/>
<polygon fill="midnightblue" stroke="midnightblue" points="1021.5,-78.9586 1032.09,-78.9727 1023.82,-72.3547 1021.5,-78.9586"/>
</g>
</g>
</svg>
