<?xml version="1.0" encoding="UTF-8" standalone="no"?>
<!DOCTYPE svg PUBLIC "-//W3C//DTD SVG 1.1//EN"
 "http://www.w3.org/Graphics/SVG/1.1/DTD/svg11.dtd">
<!-- Generated by graphviz version 2.36.0 (20140111.2315)
 -->
<!-- Title: src/calibration/modules/Energy_GUI.h Pages: 1 -->
<svg width="1487pt" height="186pt"
 viewBox="0.00 0.00 1487.00 186.00" xmlns="http://www.w3.org/2000/svg" xmlns:xlink="http://www.w3.org/1999/xlink">
<g id="graph0" class="graph" transform="scale(1 1) rotate(0) translate(4 182)">
<title>src/calibration/modules/Energy_GUI.h</title>
<polygon fill="white" stroke="none" points="-4,4 -4,-182 1483,-182 1483,4 -4,4"/>
<!-- Node50 -->
<g id="node1" class="node"><title>Node50</title>
<polygon fill="#bfbfbf" stroke="black" points="545.5,-147 545.5,-177 662.5,-177 662.5,-147 545.5,-147"/>
<text text-anchor="start" x="553.5" y="-165" font-family="Helvetica,sans-Serif" font-size="10.00">src/calibration/modules</text>
<text text-anchor="middle" x="604" y="-154" font-family="Helvetica,sans-Serif" font-size="10.00">/Energy_GUI.h</text>
</g>
<!-- Node51 -->
<g id="node2" class="node"><title>Node51</title>
<g id="a_node2"><a xlink:href="_energy___g_u_i_8cc.html" target="_top" xlink:title="src/calibration/modules\l/Energy_GUI.cc">
<polygon fill="white" stroke="black" points="275.5,-79 275.5,-109 392.5,-109 392.5,-79 275.5,-79"/>
<text text-anchor="start" x="283.5" y="-97" font-family="Helvetica,sans-Serif" font-size="10.00">src/calibration/modules</text>
<text text-anchor="middle" x="334" y="-86" font-family="Helvetica,sans-Serif" font-size="10.00">/Energy_GUI.cc</text>
</a>
</g>
</g>
<!-- Node50&#45;&gt;Node51 -->
<g id="edge1" class="edge"><title>Node50&#45;&gt;Node51</title>
<path fill="none" stroke="midnightblue" d="M536.52,-144.505C491.872,-133.591 433.956,-119.434 391.502,-109.056"/>
<polygon fill="midnightblue" stroke="midnightblue" points="535.864,-147.948 546.409,-146.922 537.527,-141.148 535.864,-147.948"/>
</g>
<!-- Node52 -->
<g id="node3" class="node"><title>Node52</title>
<g id="a_node3"><a xlink:href="calibration_2modules_2_p_i_d___energy_8cc.html" target="_top" xlink:title="src/calibration/modules\l/PID_Energy.cc">
<polygon fill="white" stroke="black" points="410.5,-79 410.5,-109 527.5,-109 527.5,-79 410.5,-79"/>
<text text-anchor="start" x="418.5" y="-97" font-family="Helvetica,sans-Serif" font-size="10.00">src/calibration/modules</text>
<text text-anchor="middle" x="469" y="-86" font-family="Helvetica,sans-Serif" font-size="10.00">/PID_Energy.cc</text>
</a>
</g>
</g>
<!-- Node50&#45;&gt;Node52 -->
<g id="edge2" class="edge"><title>Node50&#45;&gt;Node52</title>
<path fill="none" stroke="midnightblue" d="M565.829,-142.339C544.265,-131.796 517.744,-118.83 497.913,-109.135"/>
<polygon fill="midnightblue" stroke="midnightblue" points="564.518,-145.594 575.039,-146.841 567.593,-139.305 564.518,-145.594"/>
</g>
<!-- Node53 -->
<g id="node4" class="node"><title>Node53</title>
<g id="a_node4"><a xlink:href="calibration_2modules_2_t_a_p_s___energy_8cc.html" target="_top" xlink:title="src/calibration/modules\l/TAPS_Energy.cc">
<polygon fill="white" stroke="black" points="545.5,-79 545.5,-109 662.5,-109 662.5,-79 545.5,-79"/>
<text text-anchor="start" x="553.5" y="-97" font-family="Helvetica,sans-Serif" font-size="10.00">src/calibration/modules</text>
<text text-anchor="middle" x="604" y="-86" font-family="Helvetica,sans-Serif" font-size="10.00">/TAPS_Energy.cc</text>
</a>
</g>
</g>
<!-- Node50&#45;&gt;Node53 -->
<g id="edge3" class="edge"><title>Node50&#45;&gt;Node53</title>
<path fill="none" stroke="midnightblue" d="M604,-136.532C604,-127.361 604,-117.245 604,-109.293"/>
<polygon fill="midnightblue" stroke="midnightblue" points="600.5,-136.679 604,-146.679 607.5,-136.679 600.5,-136.679"/>
</g>
<!-- Node54 -->
<g id="node5" class="node"><title>Node54</title>
<g id="a_node5"><a xlink:href="calibration_2modules_2_t_a_p_s___short_energy_8h.html" target="_top" xlink:title="src/calibration/modules\l/TAPS_ShortEnergy.h">
<polygon fill="white" stroke="black" points="680.5,-79 680.5,-109 797.5,-109 797.5,-79 680.5,-79"/>
<text text-anchor="start" x="688.5" y="-97" font-family="Helvetica,sans-Serif" font-size="10.00">src/calibration/modules</text>
<text text-anchor="middle" x="739" y="-86" font-family="Helvetica,sans-Serif" font-size="10.00">/TAPS_ShortEnergy.h</text>
</a>
</g>
</g>
<!-- Node50&#45;&gt;Node54 -->
<g id="edge4" class="edge"><title>Node50&#45;&gt;Node54</title>
<path fill="none" stroke="midnightblue" d="M642.171,-142.339C663.735,-131.796 690.256,-118.83 710.087,-109.135"/>
<polygon fill="midnightblue" stroke="midnightblue" points="640.407,-139.305 632.961,-146.841 643.482,-145.594 640.407,-139.305"/>
</g>
<!-- Node66 -->
<g id="node17" class="node"><title>Node66</title>
<g id="a_node17"><a xlink:href="calibration_2modules_2_t_a_p_s_veto___energy_8cc.html" target="_top" xlink:title="src/calibration/modules\l/TAPSVeto_Energy.cc">
<polygon fill="white" stroke="black" points="815.5,-79 815.5,-109 932.5,-109 932.5,-79 815.5,-79"/>
<text text-anchor="start" x="823.5" y="-97" font-family="Helvetica,sans-Serif" font-size="10.00">src/calibration/modules</text>
<text text-anchor="middle" x="874" y="-86" font-family="Helvetica,sans-Serif" font-size="10.00">/TAPSVeto_Energy.cc</text>
</a>
</g>
</g>
<!-- Node50&#45;&gt;Node66 -->
<g id="edge16" class="edge"><title>Node50&#45;&gt;Node66</title>
<path fill="none" stroke="midnightblue" d="M671.48,-144.505C716.128,-133.591 774.044,-119.434 816.498,-109.056"/>
<polygon fill="midnightblue" stroke="midnightblue" points="670.473,-141.148 661.591,-146.922 672.136,-147.948 670.473,-141.148"/>
</g>
<!-- Node55 -->
<g id="node6" class="node"><title>Node55</title>
<g id="a_node6"><a xlink:href="calibration_2modules_2_t_a_p_s___short_energy_8cc.html" target="_top" xlink:title="src/calibration/modules\l/TAPS_ShortEnergy.cc">
<polygon fill="white" stroke="black" points="-0.5,-6 -0.5,-36 118.5,-36 118.5,-6 -0.5,-6"/>
<text text-anchor="start" x="7.5" y="-24" font-family="Helvetica,sans-Serif" font-size="10.00">src/calibration/modules</text>
<text text-anchor="middle" x="59" y="-13" font-family="Helvetica,sans-Serif" font-size="10.00">/TAPS_ShortEnergy.cc</text>
</a>
</g>
</g>
<!-- Node54&#45;&gt;Node55 -->
<g id="edge5" class="edge"><title>Node54&#45;&gt;Node55</title>
<path fill="none" stroke="midnightblue" d="M670.371,-78.085C429.293,-44.9006 362.299,-83.8616 127,-42 118.64,-40.5128 109.847,-38.3743 101.461,-36.0437"/>
<polygon fill="midnightblue" stroke="midnightblue" points="670.108,-81.5823 680.497,-79.5069 671.081,-74.6503 670.108,-81.5823"/>
</g>
<!-- Node56 -->
<g id="node7" class="node"><title>Node56</title>
<g id="a_node7"><a xlink:href="_setup__2007___base_8cc.html" target="_top" xlink:title="src/expconfig/setups\l/Setup_2007_Base.cc">
<polygon fill="white" stroke="black" points="136.5,-6 136.5,-36 249.5,-36 249.5,-6 136.5,-6"/>
<text text-anchor="start" x="144.5" y="-24" font-family="Helvetica,sans-Serif" font-size="10.00">src/expconfig/setups</text>
<text text-anchor="middle" x="193" y="-13" font-family="Helvetica,sans-Serif" font-size="10.00">/Setup_2007_Base.cc</text>
</a>
</g>
</g>
<!-- Node54&#45;&gt;Node56 -->
<g id="edge6" class="edge"><title>Node54&#45;&gt;Node56</title>
<path fill="none" stroke="midnightblue" d="M670.534,-78.085C487.522,-51.0636 436.304,-76.2271 259,-42 251.006,-40.4568 242.602,-38.3223 234.57,-36.0195"/>
<polygon fill="midnightblue" stroke="midnightblue" points="670.075,-81.5554 680.485,-79.5863 671.119,-74.6337 670.075,-81.5554"/>
</g>
<!-- Node57 -->
<g id="node8" class="node"><title>Node57</title>
<g id="a_node8"><a xlink:href="_setup__2010__03___base_8cc.html" target="_top" xlink:title="src/expconfig/setups\l/Setup_2010_03_Base.cc">
<polygon fill="white" stroke="black" points="268,-6 268,-36 396,-36 396,-6 268,-6"/>
<text text-anchor="start" x="276" y="-24" font-family="Helvetica,sans-Serif" font-size="10.00">src/expconfig/setups</text>
<text text-anchor="middle" x="332" y="-13" font-family="Helvetica,sans-Serif" font-size="10.00">/Setup_2010_03_Base.cc</text>
</a>
</g>
</g>
<!-- Node54&#45;&gt;Node57 -->
<g id="edge7" class="edge"><title>Node54&#45;&gt;Node57</title>
<path fill="none" stroke="midnightblue" d="M670.255,-77.9766C551.745,-57.5835 518.703,-65.163 405,-42 396.759,-40.3212 388.076,-38.2318 379.687,-36.0421"/>
<polygon fill="midnightblue" stroke="midnightblue" points="670.002,-81.4855 680.456,-79.7641 671.21,-74.5906 670.002,-81.4855"/>
</g>
<!-- Node58 -->
<g id="node9" class="node"><title>Node58</title>
<g id="a_node9"><a xlink:href="_setup__2014___e_p_t_8cc.html" target="_top" xlink:title="src/expconfig/setups\l/Setup_2014_EPT.cc">
<polygon fill="white" stroke="black" points="414,-6 414,-36 524,-36 524,-6 414,-6"/>
<text text-anchor="start" x="422" y="-24" font-family="Helvetica,sans-Serif" font-size="10.00">src/expconfig/setups</text>
<text text-anchor="middle" x="469" y="-13" font-family="Helvetica,sans-Serif" font-size="10.00">/Setup_2014_EPT.cc</text>
</a>
</g>
</g>
<!-- Node54&#45;&gt;Node58 -->
<g id="edge8" class="edge"><title>Node54&#45;&gt;Node58</title>
<path fill="none" stroke="midnightblue" d="M670.553,-76.9623C630.591,-67.3522 579.278,-54.588 534,-42 527.402,-40.1657 520.458,-38.136 513.662,-36.0936"/>
<polygon fill="midnightblue" stroke="midnightblue" points="669.918,-80.409 680.458,-79.3355 671.549,-73.6017 669.918,-80.409"/>
</g>
<!-- Node59 -->
<g id="node10" class="node"><title>Node59</title>
<g id="a_node10"><a xlink:href="_setup__2015__01___pion_8cc.html" target="_top" xlink:title="src/expconfig/setups\l/Setup_2015_01_Pion.cc">
<polygon fill="white" stroke="black" points="542.5,-6 542.5,-36 667.5,-36 667.5,-6 542.5,-6"/>
<text text-anchor="start" x="550.5" y="-24" font-family="Helvetica,sans-Serif" font-size="10.00">src/expconfig/setups</text>
<text text-anchor="middle" x="605" y="-13" font-family="Helvetica,sans-Serif" font-size="10.00">/Setup_2015_01_Pion.cc</text>
</a>
</g>
</g>
<!-- Node54&#45;&gt;Node59 -->
<g id="edge9" class="edge"><title>Node54&#45;&gt;Node59</title>
<path fill="none" stroke="midnightblue" d="M703.622,-74.2549C681.141,-62.3433 652.497,-47.1661 631.878,-36.2412"/>
<polygon fill="midnightblue" stroke="midnightblue" points="702.051,-77.3834 712.526,-78.9727 705.328,-71.198 702.051,-77.3834"/>
</g>
<!-- Node60 -->
<g id="node11" class="node"><title>Node60</title>
<g id="a_node11"><a xlink:href="_setup__2017__03_8cc.html" target="_top" xlink:title="src/expconfig/setups\l/Setup_2017_03.cc">
<polygon fill="white" stroke="black" points="685.5,-6 685.5,-36 792.5,-36 792.5,-6 685.5,-6"/>
<text text-anchor="start" x="693.5" y="-24" font-family="Helvetica,sans-Serif" font-size="10.00">src/expconfig/setups</text>
<text text-anchor="middle" x="739" y="-13" font-family="Helvetica,sans-Serif" font-size="10.00">/Setup_2017_03.cc</text>
</a>
</g>
</g>
<!-- Node54&#45;&gt;Node60 -->
<g id="edge10" class="edge"><title>Node54&#45;&gt;Node60</title>
<path fill="none" stroke="midnightblue" d="M739,-68.8976C739,-58.1314 739,-45.8005 739,-36.4856"/>
<polygon fill="midnightblue" stroke="midnightblue" points="735.5,-68.9727 739,-78.9727 742.5,-68.9727 735.5,-68.9727"/>
</g>
<!-- Node61 -->
<g id="node12" class="node"><title>Node61</title>
<g id="a_node12"><a xlink:href="_setup__2017__05_8cc.html" target="_top" xlink:title="src/expconfig/setups\l/Setup_2017_05.cc">
<polygon fill="white" stroke="black" points="810.5,-6 810.5,-36 917.5,-36 917.5,-6 810.5,-6"/>
<text text-anchor="start" x="818.5" y="-24" font-family="Helvetica,sans-Serif" font-size="10.00">src/expconfig/setups</text>
<text text-anchor="middle" x="864" y="-13" font-family="Helvetica,sans-Serif" font-size="10.00">/Setup_2017_05.cc</text>
</a>
</g>
</g>
<!-- Node54&#45;&gt;Node61 -->
<g id="edge11" class="edge"><title>Node54&#45;&gt;Node61</title>
<path fill="none" stroke="midnightblue" d="M772.563,-73.9365C793.447,-62.0739 819.864,-47.069 838.927,-36.2412"/>
<polygon fill="midnightblue" stroke="midnightblue" points="770.663,-70.9904 763.696,-78.9727 774.12,-77.0771 770.663,-70.9904"/>
</g>
<!-- Node62 -->
<g id="node13" class="node"><title>Node62</title>
<g id="a_node13"><a xlink:href="_setup__2017_plus___new_tagger___base_8cc.html" target="_top" xlink:title="src/expconfig/setups\l/Setup_2017Plus_NewTagger\l_Base.cc">
<polygon fill="white" stroke="black" points="936,-0.5 936,-41.5 1082,-41.5 1082,-0.5 936,-0.5"/>
<text text-anchor="start" x="944" y="-29.5" font-family="Helvetica,sans-Serif" font-size="10.00">src/expconfig/setups</text>
<text text-anchor="start" x="944" y="-18.5" font-family="Helvetica,sans-Serif" font-size="10.00">/Setup_2017Plus_NewTagger</text>
<text text-anchor="middle" x="1009" y="-7.5" font-family="Helvetica,sans-Serif" font-size="10.00">_Base.cc</text>
</a>
</g>
</g>
<!-- Node54&#45;&gt;Node62 -->
<g id="edge12" class="edge"><title>Node54&#45;&gt;Node62</title>
<path fill="none" stroke="midnightblue" d="M802.242,-76.3696C842.235,-65.853 894.072,-52.2218 935.837,-41.2392"/>
<polygon fill="midnightblue" stroke="midnightblue" points="801.124,-73.0445 792.343,-78.9727 802.905,-79.8144 801.124,-73.0445"/>
</g>
<!-- Node63 -->
<g id="node14" class="node"><title>Node63</title>
<g id="a_node14"><a xlink:href="_setup__2018__11_8cc.html" target="_top" xlink:title="src/expconfig/setups\l/Setup_2018_11.cc">
<polygon fill="white" stroke="black" points="1100.5,-6 1100.5,-36 1207.5,-36 1207.5,-6 1100.5,-6"/>
<text text-anchor="start" x="1108.5" y="-24" font-family="Helvetica,sans-Serif" font-size="10.00">src/expconfig/setups</text>
<text text-anchor="middle" x="1154" y="-13" font-family="Helvetica,sans-Serif" font-size="10.00">/Setup_2018_11.cc</text>
</a>
</g>
</g>
<!-- Node54&#45;&gt;Node63 -->
<g id="edge13" class="edge"><title>Node54&#45;&gt;Node63</title>
<path fill="none" stroke="midnightblue" d="M807.617,-78.015C934.167,-56.9125 969.899,-68.6665 1091,-42 1098.4,-40.3713 1106.17,-38.253 1113.63,-36.0059"/>
<polygon fill="midnightblue" stroke="midnightblue" points="806.808,-74.6023 797.538,-79.7325 807.984,-81.5028 806.808,-74.6023"/>
</g>
<!-- Node64 -->
<g id="node15" class="node"><title>Node64</title>
<g id="a_node15"><a xlink:href="_setup__2019__01_8cc.html" target="_top" xlink:title="src/expconfig/setups\l/Setup_2019_01.cc">
<polygon fill="white" stroke="black" points="1225.5,-6 1225.5,-36 1332.5,-36 1332.5,-6 1225.5,-6"/>
<text text-anchor="start" x="1233.5" y="-24" font-family="Helvetica,sans-Serif" font-size="10.00">src/expconfig/setups</text>
<text text-anchor="middle" x="1279" y="-13" font-family="Helvetica,sans-Serif" font-size="10.00">/Setup_2019_01.cc</text>
</a>
</g>
</g>
<!-- Node54&#45;&gt;Node64 -->
<g id="edge14" class="edge"><title>Node54&#45;&gt;Node64</title>
<path fill="none" stroke="midnightblue" d="M807.669,-78.0555C989.202,-51.2623 1040.3,-77.1759 1216,-42 1223.65,-40.4681 1231.68,-38.3389 1239.35,-36.0378"/>
<polygon fill="midnightblue" stroke="midnightblue" points="806.88,-74.6349 797.515,-79.5887 807.925,-81.5564 806.88,-74.6349"/>
</g>
<!-- Node65 -->
<g id="node16" class="node"><title>Node65</title>
<g id="a_node16"><a xlink:href="expconfig__helpers_8cc.html" target="_top" xlink:title="test/expconfig_helpers.cc">
<polygon fill="white" stroke="black" points="1351,-11.5 1351,-30.5 1479,-30.5 1479,-11.5 1351,-11.5"/>
<text text-anchor="middle" x="1415" y="-18.5" font-family="Helvetica,sans-Serif" font-size="10.00">test/expconfig_helpers.cc</text>
</a>
</g>
</g>
<!-- Node54&#45;&gt;Node65 -->
<g id="edge15" class="edge"><title>Node54&#45;&gt;Node65</title>
<path fill="none" stroke="midnightblue" d="M807.45,-78.1068C1044.25,-45.2812 1109.59,-80.6847 1341,-42 1357.01,-39.323 1374.57,-34.6553 1388.56,-30.5022"/>
<polygon fill="midnightblue" stroke="midnightblue" points="806.916,-74.6475 797.504,-79.5116 807.895,-81.5787 806.916,-74.6475"/>
</g>
</g>
</svg>
