<?xml version="1.0" encoding="UTF-8" standalone="no"?>
<!DOCTYPE svg PUBLIC "-//W3C//DTD SVG 1.1//EN"
 "http://www.w3.org/Graphics/SVG/1.1/DTD/svg11.dtd">
<!-- Generated by graphviz version 2.36.0 (20140111.2315)
 -->
<!-- Title: src/calibration/fitfunctions/FitGaus.h Pages: 1 -->
<svg width="2525pt" height="254pt"
 viewBox="0.00 0.00 2525.00 254.00" xmlns="http://www.w3.org/2000/svg" xmlns:xlink="http://www.w3.org/1999/xlink">
<g id="graph0" class="graph" transform="scale(1 1) rotate(0) translate(4 250)">
<title>src/calibration/fitfunctions/FitGaus.h</title>
<polygon fill="white" stroke="none" points="-4,4 -4,-250 2521,-250 2521,4 -4,4"/>
<!-- Node18 -->
<g id="node1" class="node"><title>Node18</title>
<polygon fill="#bfbfbf" stroke="black" points="1808,-215 1808,-245 1936,-245 1936,-215 1808,-215"/>
<text text-anchor="start" x="1816" y="-233" font-family="Helvetica,sans-Serif" font-size="10.00">src/calibration/fitfunctions</text>
<text text-anchor="middle" x="1872" y="-222" font-family="Helvetica,sans-Serif" font-size="10.00">/FitGaus.h</text>
</g>
<!-- Node19 -->
<g id="node2" class="node"><title>Node19</title>
<g id="a_node2"><a xlink:href="_fit_gaus_8cc.html" target="_top" xlink:title="src/calibration/fitfunctions\l/FitGaus.cc">
<polygon fill="white" stroke="black" points="666,-147 666,-177 794,-177 794,-147 666,-147"/>
<text text-anchor="start" x="674" y="-165" font-family="Helvetica,sans-Serif" font-size="10.00">src/calibration/fitfunctions</text>
<text text-anchor="middle" x="730" y="-154" font-family="Helvetica,sans-Serif" font-size="10.00">/FitGaus.cc</text>
</a>
</g>
</g>
<!-- Node18&#45;&gt;Node19 -->
<g id="edge1" class="edge"><title>Node18&#45;&gt;Node19</title>
<path fill="none" stroke="midnightblue" d="M1797.82,-229.061C1624.13,-228.416 1177.76,-222.189 808,-178 803.482,-177.46 798.832,-176.81 794.16,-176.087"/>
<polygon fill="midnightblue" stroke="midnightblue" points="1797.86,-232.561 1807.87,-229.093 1797.88,-225.561 1797.86,-232.561"/>
</g>
<!-- Node20 -->
<g id="node3" class="node"><title>Node20</title>
<g id="a_node3"><a xlink:href="calibration_2modules_2_time_8h.html" target="_top" xlink:title="src/calibration/modules\l/Time.h">
<polygon fill="white" stroke="black" points="1370.5,-147 1370.5,-177 1487.5,-177 1487.5,-147 1370.5,-147"/>
<text text-anchor="start" x="1378.5" y="-165" font-family="Helvetica,sans-Serif" font-size="10.00">src/calibration/modules</text>
<text text-anchor="middle" x="1429" y="-154" font-family="Helvetica,sans-Serif" font-size="10.00">/Time.h</text>
</a>
</g>
</g>
<!-- Node18&#45;&gt;Node20 -->
<g id="edge2" class="edge"><title>Node18&#45;&gt;Node20</title>
<path fill="none" stroke="midnightblue" d="M1797.49,-217.9C1710.28,-204.906 1567.65,-183.657 1487.83,-171.765"/>
<polygon fill="midnightblue" stroke="midnightblue" points="1797.18,-221.391 1807.58,-219.403 1798.21,-214.468 1797.18,-221.391"/>
</g>
<!-- Node27 -->
<g id="node10" class="node"><title>Node27</title>
<g id="a_node10"><a xlink:href="_setup__2018__11_8cc.html" target="_top" xlink:title="src/expconfig/setups\l/Setup_2018_11.cc">
<polygon fill="white" stroke="black" points="634.5,-6 634.5,-36 741.5,-36 741.5,-6 634.5,-6"/>
<text text-anchor="start" x="642.5" y="-24" font-family="Helvetica,sans-Serif" font-size="10.00">src/expconfig/setups</text>
<text text-anchor="middle" x="688" y="-13" font-family="Helvetica,sans-Serif" font-size="10.00">/Setup_2018_11.cc</text>
</a>
</g>
</g>
<!-- Node18&#45;&gt;Node27 -->
<g id="edge57" class="edge"><title>Node18&#45;&gt;Node27</title>
<path fill="none" stroke="midnightblue" d="M1797.64,-227.778C1616.38,-224.291 1155.69,-212.24 1006,-178 884.91,-150.302 756.922,-69.1864 708.315,-36.198"/>
<polygon fill="midnightblue" stroke="midnightblue" points="1797.81,-231.282 1807.87,-227.971 1797.94,-224.283 1797.81,-231.282"/>
</g>
<!-- Node28 -->
<g id="node11" class="node"><title>Node28</title>
<g id="a_node11"><a xlink:href="_setup__2019__01_8cc.html" target="_top" xlink:title="src/expconfig/setups\l/Setup_2019_01.cc">
<polygon fill="white" stroke="black" points="759.5,-6 759.5,-36 866.5,-36 866.5,-6 759.5,-6"/>
<text text-anchor="start" x="767.5" y="-24" font-family="Helvetica,sans-Serif" font-size="10.00">src/expconfig/setups</text>
<text text-anchor="middle" x="813" y="-13" font-family="Helvetica,sans-Serif" font-size="10.00">/Setup_2019_01.cc</text>
</a>
</g>
</g>
<!-- Node18&#45;&gt;Node28 -->
<g id="edge58" class="edge"><title>Node18&#45;&gt;Node28</title>
<path fill="none" stroke="midnightblue" d="M1797.7,-227.687C1629.34,-224.141 1223.22,-212.211 1091,-178 982.77,-149.996 872.252,-69.0571 830.443,-36.1571"/>
<polygon fill="midnightblue" stroke="midnightblue" points="1797.64,-231.187 1807.71,-227.894 1797.79,-224.188 1797.64,-231.187"/>
</g>
<!-- Node31 -->
<g id="node14" class="node"><title>Node31</title>
<g id="a_node14"><a xlink:href="_setup__2007___base_8cc.html" target="_top" xlink:title="src/expconfig/setups\l/Setup_2007_Base.cc">
<polygon fill="white" stroke="black" points="1031.5,-6 1031.5,-36 1144.5,-36 1144.5,-6 1031.5,-6"/>
<text text-anchor="start" x="1039.5" y="-24" font-family="Helvetica,sans-Serif" font-size="10.00">src/expconfig/setups</text>
<text text-anchor="middle" x="1088" y="-13" font-family="Helvetica,sans-Serif" font-size="10.00">/Setup_2007_Base.cc</text>
</a>
</g>
</g>
<!-- Node18&#45;&gt;Node31 -->
<g id="edge50" class="edge"><title>Node18&#45;&gt;Node31</title>
<path fill="none" stroke="midnightblue" d="M1797.63,-228.458C1649.5,-226.522 1322.92,-217.732 1219,-178 1172.5,-160.222 1161.37,-148.65 1130,-110 1111.44,-87.13 1098.7,-54.6951 1092.45,-36.2629"/>
<polygon fill="midnightblue" stroke="midnightblue" points="1797.94,-231.962 1807.98,-228.585 1798.02,-224.962 1797.94,-231.962"/>
</g>
<!-- Node32 -->
<g id="node15" class="node"><title>Node32</title>
<g id="a_node15"><a xlink:href="_setup__2010__03___base_8cc.html" target="_top" xlink:title="src/expconfig/setups\l/Setup_2010_03_Base.cc">
<polygon fill="white" stroke="black" points="885,-6 885,-36 1013,-36 1013,-6 885,-6"/>
<text text-anchor="start" x="893" y="-24" font-family="Helvetica,sans-Serif" font-size="10.00">src/expconfig/setups</text>
<text text-anchor="middle" x="949" y="-13" font-family="Helvetica,sans-Serif" font-size="10.00">/Setup_2010_03_Base.cc</text>
</a>
</g>
</g>
<!-- Node18&#45;&gt;Node32 -->
<g id="edge51" class="edge"><title>Node18&#45;&gt;Node32</title>
<path fill="none" stroke="midnightblue" d="M1797.72,-228.201C1639.9,-225.773 1276.06,-216.092 1159,-178 1071.76,-149.612 991.445,-68.8953 961.445,-36.1059"/>
<polygon fill="midnightblue" stroke="midnightblue" points="1797.76,-231.702 1807.81,-228.351 1797.87,-224.703 1797.76,-231.702"/>
</g>
<!-- Node33 -->
<g id="node16" class="node"><title>Node33</title>
<g id="a_node16"><a xlink:href="_setup__2014___e_p_t_8cc.html" target="_top" xlink:title="src/expconfig/setups\l/Setup_2014_EPT.cc">
<polygon fill="white" stroke="black" points="2137,-6 2137,-36 2247,-36 2247,-6 2137,-6"/>
<text text-anchor="start" x="2145" y="-24" font-family="Helvetica,sans-Serif" font-size="10.00">src/expconfig/setups</text>
<text text-anchor="middle" x="2192" y="-13" font-family="Helvetica,sans-Serif" font-size="10.00">/Setup_2014_EPT.cc</text>
</a>
</g>
</g>
<!-- Node18&#45;&gt;Node33 -->
<g id="edge52" class="edge"><title>Node18&#45;&gt;Node33</title>
<path fill="none" stroke="midnightblue" d="M1930.51,-211.751C1955.01,-203.313 1983.25,-191.942 2007,-178 2078.37,-136.097 2149.45,-66.3053 2178.42,-36.3616"/>
<polygon fill="midnightblue" stroke="midnightblue" points="1929.34,-208.453 1920.98,-214.955 1931.57,-215.089 1929.34,-208.453"/>
</g>
<!-- Node34 -->
<g id="node17" class="node"><title>Node34</title>
<g id="a_node17"><a xlink:href="_setup__2015__01___pion_8cc.html" target="_top" xlink:title="src/expconfig/setups\l/Setup_2015_01_Pion.cc">
<polygon fill="white" stroke="black" points="1829.5,-6 1829.5,-36 1954.5,-36 1954.5,-6 1829.5,-6"/>
<text text-anchor="start" x="1837.5" y="-24" font-family="Helvetica,sans-Serif" font-size="10.00">src/expconfig/setups</text>
<text text-anchor="middle" x="1892" y="-13" font-family="Helvetica,sans-Serif" font-size="10.00">/Setup_2015_01_Pion.cc</text>
</a>
</g>
</g>
<!-- Node18&#45;&gt;Node34 -->
<g id="edge53" class="edge"><title>Node18&#45;&gt;Node34</title>
<path fill="none" stroke="midnightblue" d="M1926.07,-210.154C1940.25,-202.469 1953.84,-192.002 1962,-178 1984.38,-139.6 1981.25,-118.058 1962,-78 1953.24,-59.7647 1935.32,-45.6088 1919.81,-36.0914"/>
<polygon fill="midnightblue" stroke="midnightblue" points="1924.11,-207.22 1916.72,-214.812 1927.24,-213.486 1924.11,-207.22"/>
</g>
<!-- Node35 -->
<g id="node18" class="node"><title>Node35</title>
<g id="a_node18"><a xlink:href="_setup__2017__03_8cc.html" target="_top" xlink:title="src/expconfig/setups\l/Setup_2017_03.cc">
<polygon fill="white" stroke="black" points="1704.5,-6 1704.5,-36 1811.5,-36 1811.5,-6 1704.5,-6"/>
<text text-anchor="start" x="1712.5" y="-24" font-family="Helvetica,sans-Serif" font-size="10.00">src/expconfig/setups</text>
<text text-anchor="middle" x="1758" y="-13" font-family="Helvetica,sans-Serif" font-size="10.00">/Setup_2017_03.cc</text>
</a>
</g>
</g>
<!-- Node18&#45;&gt;Node35 -->
<g id="edge54" class="edge"><title>Node18&#45;&gt;Node35</title>
<path fill="none" stroke="midnightblue" d="M1882.69,-205.316C1895.24,-173.581 1911.36,-116.77 1886,-78 1876.34,-63.2318 1836.31,-47.1611 1803.56,-36.0391"/>
<polygon fill="midnightblue" stroke="midnightblue" points="1879.4,-204.106 1878.79,-214.684 1885.86,-206.794 1879.4,-204.106"/>
</g>
<!-- Node36 -->
<g id="node19" class="node"><title>Node36</title>
<g id="a_node19"><a xlink:href="_setup__2017__05_8cc.html" target="_top" xlink:title="src/expconfig/setups\l/Setup_2017_05.cc">
<polygon fill="white" stroke="black" points="1579.5,-6 1579.5,-36 1686.5,-36 1686.5,-6 1579.5,-6"/>
<text text-anchor="start" x="1587.5" y="-24" font-family="Helvetica,sans-Serif" font-size="10.00">src/expconfig/setups</text>
<text text-anchor="middle" x="1633" y="-13" font-family="Helvetica,sans-Serif" font-size="10.00">/Setup_2017_05.cc</text>
</a>
</g>
</g>
<!-- Node18&#45;&gt;Node36 -->
<g id="edge55" class="edge"><title>Node18&#45;&gt;Node36</title>
<path fill="none" stroke="midnightblue" d="M1869.23,-204.412C1864.17,-171.093 1850.36,-111.884 1814,-78 1773.88,-40.6215 1748.35,-58.2956 1696,-42 1689.86,-40.0901 1683.4,-38.0588 1677.04,-36.0505"/>
<polygon fill="midnightblue" stroke="midnightblue" points="1865.8,-205.212 1870.63,-214.645 1872.74,-204.263 1865.8,-205.212"/>
</g>
<!-- Node37 -->
<g id="node20" class="node"><title>Node37</title>
<g id="a_node20"><a xlink:href="_setup__2017_plus___new_tagger___base_8cc.html" target="_top" xlink:title="src/expconfig/setups\l/Setup_2017Plus_NewTagger\l_Base.cc">
<polygon fill="white" stroke="black" points="1973,-0.5 1973,-41.5 2119,-41.5 2119,-0.5 1973,-0.5"/>
<text text-anchor="start" x="1981" y="-29.5" font-family="Helvetica,sans-Serif" font-size="10.00">src/expconfig/setups</text>
<text text-anchor="start" x="1981" y="-18.5" font-family="Helvetica,sans-Serif" font-size="10.00">/Setup_2017Plus_NewTagger</text>
<text text-anchor="middle" x="2046" y="-7.5" font-family="Helvetica,sans-Serif" font-size="10.00">_Base.cc</text>
</a>
</g>
</g>
<!-- Node18&#45;&gt;Node37 -->
<g id="edge56" class="edge"><title>Node18&#45;&gt;Node37</title>
<path fill="none" stroke="midnightblue" d="M1931.19,-211.1C1949.32,-203.288 1968.13,-192.511 1982,-178 2019.73,-138.54 2036.45,-73.7795 2042.75,-41.5253"/>
<polygon fill="midnightblue" stroke="midnightblue" points="1929.74,-207.91 1921.79,-214.918 1932.38,-214.394 1929.74,-207.91"/>
</g>
<!-- Node38 -->
<g id="node21" class="node"><title>Node38</title>
<g id="a_node21"><a xlink:href="expconfig__helpers_8cc.html" target="_top" xlink:title="test/expconfig_helpers.cc">
<polygon fill="white" stroke="black" points="1163,-11.5 1163,-30.5 1291,-30.5 1291,-11.5 1163,-11.5"/>
<text text-anchor="middle" x="1227" y="-18.5" font-family="Helvetica,sans-Serif" font-size="10.00">test/expconfig_helpers.cc</text>
</a>
</g>
</g>
<!-- Node18&#45;&gt;Node38 -->
<g id="edge59" class="edge"><title>Node18&#45;&gt;Node38</title>
<path fill="none" stroke="midnightblue" d="M1797.81,-228.891C1632.7,-226.805 1243.9,-211.045 1173,-110 1153.33,-81.9748 1193.07,-46.7827 1214.52,-30.7185"/>
<polygon fill="midnightblue" stroke="midnightblue" points="1797.84,-232.392 1807.88,-229.005 1797.92,-225.392 1797.84,-232.392"/>
</g>
<!-- Node43 -->
<g id="node26" class="node"><title>Node43</title>
<g id="a_node26"><a xlink:href="calibration_2modules_2_p_i_d___energy_8cc.html" target="_top" xlink:title="src/calibration/modules\l/PID_Energy.cc">
<polygon fill="white" stroke="black" points="2128.5,-147 2128.5,-177 2245.5,-177 2245.5,-147 2128.5,-147"/>
<text text-anchor="start" x="2136.5" y="-165" font-family="Helvetica,sans-Serif" font-size="10.00">src/calibration/modules</text>
<text text-anchor="middle" x="2187" y="-154" font-family="Helvetica,sans-Serif" font-size="10.00">/PID_Energy.cc</text>
</a>
</g>
</g>
<!-- Node18&#45;&gt;Node43 -->
<g id="edge47" class="edge"><title>Node18&#45;&gt;Node43</title>
<path fill="none" stroke="midnightblue" d="M1945.92,-213.511C2001.54,-201.857 2076.74,-186.101 2128.28,-175.303"/>
<polygon fill="midnightblue" stroke="midnightblue" points="1945.19,-210.088 1936.12,-215.564 1946.63,-216.939 1945.19,-210.088"/>
</g>
<!-- Node44 -->
<g id="node27" class="node"><title>Node44</title>
<g id="a_node27"><a xlink:href="calibration_2modules_2_p_i_d___phi_angle_8cc.html" target="_top" xlink:title="src/calibration/modules\l/PID_PhiAngle.cc">
<polygon fill="white" stroke="black" points="2263.5,-147 2263.5,-177 2380.5,-177 2380.5,-147 2263.5,-147"/>
<text text-anchor="start" x="2271.5" y="-165" font-family="Helvetica,sans-Serif" font-size="10.00">src/calibration/modules</text>
<text text-anchor="middle" x="2322" y="-154" font-family="Helvetica,sans-Serif" font-size="10.00">/PID_PhiAngle.cc</text>
</a>
</g>
</g>
<!-- Node18&#45;&gt;Node44 -->
<g id="edge48" class="edge"><title>Node18&#45;&gt;Node44</title>
<path fill="none" stroke="midnightblue" d="M1946.23,-220.969C2023.41,-212.18 2147.59,-196.805 2254,-178 2257.1,-177.453 2260.26,-176.862 2263.46,-176.243"/>
<polygon fill="midnightblue" stroke="midnightblue" points="1945.67,-217.511 1936.13,-222.113 1946.46,-224.466 1945.67,-217.511"/>
</g>
<!-- Node45 -->
<g id="node28" class="node"><title>Node45</title>
<g id="a_node28"><a xlink:href="calibration_2modules_2_t_a_p_s___short_energy_8cc.html" target="_top" xlink:title="src/calibration/modules\l/TAPS_ShortEnergy.cc">
<polygon fill="white" stroke="black" points="2398.5,-147 2398.5,-177 2517.5,-177 2517.5,-147 2398.5,-147"/>
<text text-anchor="start" x="2406.5" y="-165" font-family="Helvetica,sans-Serif" font-size="10.00">src/calibration/modules</text>
<text text-anchor="middle" x="2458" y="-154" font-family="Helvetica,sans-Serif" font-size="10.00">/TAPS_ShortEnergy.cc</text>
</a>
</g>
</g>
<!-- Node18&#45;&gt;Node45 -->
<g id="edge49" class="edge"><title>Node18&#45;&gt;Node45</title>
<path fill="none" stroke="midnightblue" d="M1946.46,-224.372C2047.23,-217.491 2232.45,-202.653 2389,-178 2392.03,-177.523 2395.12,-176.997 2398.24,-176.434"/>
<polygon fill="midnightblue" stroke="midnightblue" points="1946.12,-220.887 1936.38,-225.053 1946.59,-227.871 1946.12,-220.887"/>
</g>
<!-- Node21 -->
<g id="node4" class="node"><title>Node21</title>
<g id="a_node4"><a xlink:href="_new_tagger___time_8h.html" target="_top" xlink:title="src/calibration/modules\l/NewTagger_Time.h">
<polygon fill="white" stroke="black" points="434.5,-79 434.5,-109 551.5,-109 551.5,-79 434.5,-79"/>
<text text-anchor="start" x="442.5" y="-97" font-family="Helvetica,sans-Serif" font-size="10.00">src/calibration/modules</text>
<text text-anchor="middle" x="493" y="-86" font-family="Helvetica,sans-Serif" font-size="10.00">/NewTagger_Time.h</text>
</a>
</g>
</g>
<!-- Node20&#45;&gt;Node21 -->
<g id="edge3" class="edge"><title>Node20&#45;&gt;Node21</title>
<path fill="none" stroke="midnightblue" d="M1360.24,-156.152C1183.62,-143.697 716.312,-110.746 551.529,-99.127"/>
<polygon fill="midnightblue" stroke="midnightblue" points="1360.23,-159.659 1370.45,-156.871 1360.72,-152.677 1360.23,-159.659"/>
</g>
<!-- Node20&#45;&gt;Node27 -->
<g id="edge43" class="edge"><title>Node20&#45;&gt;Node27</title>
<path fill="none" stroke="midnightblue" d="M1360.21,-158.52C1265.99,-154.04 1091.96,-141.88 947,-110 903.865,-100.514 786.686,-58.3576 725.829,-36.0128"/>
<polygon fill="midnightblue" stroke="midnightblue" points="1360.31,-162.029 1370.46,-158.992 1360.63,-155.036 1360.31,-162.029"/>
</g>
<!-- Node20&#45;&gt;Node28 -->
<g id="edge44" class="edge"><title>Node20&#45;&gt;Node28</title>
<path fill="none" stroke="midnightblue" d="M1360.45,-156.371C1283.88,-150.143 1156.65,-136.625 1050,-110 973.988,-91.0239 888.753,-55.7268 844.112,-36.0946"/>
<polygon fill="midnightblue" stroke="midnightblue" points="1360.21,-159.863 1370.46,-157.166 1360.77,-152.885 1360.21,-159.863"/>
</g>
<!-- Node29 -->
<g id="node12" class="node"><title>Node29</title>
<g id="a_node12"><a xlink:href="_t_a_p_s___time_8h.html" target="_top" xlink:title="src/calibration/modules\l/TAPS_Time.h">
<polygon fill="white" stroke="black" points="1192.5,-79 1192.5,-109 1309.5,-109 1309.5,-79 1192.5,-79"/>
<text text-anchor="start" x="1200.5" y="-97" font-family="Helvetica,sans-Serif" font-size="10.00">src/calibration/modules</text>
<text text-anchor="middle" x="1251" y="-86" font-family="Helvetica,sans-Serif" font-size="10.00">/TAPS_Time.h</text>
</a>
</g>
</g>
<!-- Node20&#45;&gt;Node29 -->
<g id="edge11" class="edge"><title>Node20&#45;&gt;Node29</title>
<path fill="none" stroke="midnightblue" d="M1381.3,-143.312C1352.31,-132.563 1315.8,-119.029 1288.82,-109.022"/>
<polygon fill="midnightblue" stroke="midnightblue" points="1380.22,-146.646 1390.81,-146.841 1382.66,-140.083 1380.22,-146.646"/>
</g>
<!-- Node20&#45;&gt;Node31 -->
<g id="edge36" class="edge"><title>Node20&#45;&gt;Node31</title>
<path fill="none" stroke="midnightblue" d="M1360.34,-158.433C1306.5,-153.886 1231.2,-141.772 1173,-110 1139.63,-91.7819 1111.37,-56.0169 1097.39,-36.1502"/>
<polygon fill="midnightblue" stroke="midnightblue" points="1360.23,-161.935 1370.47,-159.222 1360.78,-154.956 1360.23,-161.935"/>
</g>
<!-- Node20&#45;&gt;Node32 -->
<g id="edge37" class="edge"><title>Node20&#45;&gt;Node32</title>
<path fill="none" stroke="midnightblue" d="M1360.26,-154.869C1298.79,-148.079 1206.82,-134.67 1130,-110 1070.62,-90.9298 1006.05,-55.6698 972.394,-36.0687"/>
<polygon fill="midnightblue" stroke="midnightblue" points="1359.92,-158.352 1370.24,-155.942 1360.67,-151.392 1359.92,-158.352"/>
</g>
<!-- Node20&#45;&gt;Node33 -->
<g id="edge38" class="edge"><title>Node20&#45;&gt;Node33</title>
<path fill="none" stroke="midnightblue" d="M1497.87,-157.571C1590.5,-152.054 1759.99,-138.762 1902,-110 1994.31,-91.3044 2099.31,-55.7296 2154.13,-36.0206"/>
<polygon fill="midnightblue" stroke="midnightblue" points="1497.57,-154.083 1487.79,-158.16 1497.97,-161.071 1497.57,-154.083"/>
</g>
<!-- Node20&#45;&gt;Node34 -->
<g id="edge39" class="edge"><title>Node20&#45;&gt;Node34</title>
<path fill="none" stroke="midnightblue" d="M1497.73,-157.643C1593.31,-152.008 1760.65,-138.362 1814,-110 1846.45,-92.7499 1871.83,-56.2519 1884.04,-36.1015"/>
<polygon fill="midnightblue" stroke="midnightblue" points="1497.35,-154.158 1487.57,-158.227 1497.76,-161.147 1497.35,-154.158"/>
</g>
<!-- Node20&#45;&gt;Node35 -->
<g id="edge40" class="edge"><title>Node20&#45;&gt;Node35</title>
<path fill="none" stroke="midnightblue" d="M1456.85,-140.82C1469.09,-131.693 1483.49,-120.595 1496,-110 1511.83,-96.5862 1511.64,-87.6737 1530,-78 1596.4,-43.0098 1622.49,-61.3763 1695,-42 1701.65,-40.2226 1708.65,-38.1797 1715.46,-36.0934"/>
<polygon fill="midnightblue" stroke="midnightblue" points="1454.73,-138.034 1448.77,-146.794 1458.89,-143.662 1454.73,-138.034"/>
</g>
<!-- Node20&#45;&gt;Node36 -->
<g id="edge41" class="edge"><title>Node20&#45;&gt;Node36</title>
<path fill="none" stroke="midnightblue" d="M1443.06,-138.225C1455.36,-119.876 1474.72,-94.5038 1497,-78 1512.8,-66.2976 1558.81,-48.4095 1592.96,-36.0127"/>
<polygon fill="midnightblue" stroke="midnightblue" points="1439.97,-136.556 1437.44,-146.846 1445.83,-140.374 1439.97,-136.556"/>
</g>
<!-- Node20&#45;&gt;Node37 -->
<g id="edge42" class="edge"><title>Node20&#45;&gt;Node37</title>
<path fill="none" stroke="midnightblue" d="M1497.86,-158.732C1581.52,-154.579 1726.33,-142.875 1846,-110 1905.99,-93.5197 1971.2,-62.0395 2010.32,-41.5416"/>
<polygon fill="midnightblue" stroke="midnightblue" points="1497.54,-155.243 1487.71,-159.213 1497.87,-162.235 1497.54,-155.243"/>
</g>
<!-- Node20&#45;&gt;Node38 -->
<g id="edge46" class="edge"><title>Node20&#45;&gt;Node38</title>
<path fill="none" stroke="midnightblue" d="M1360.1,-156.247C1295.28,-150.17 1204.99,-137.012 1183,-110 1162.19,-84.4324 1197.77,-47.399 1216.54,-30.72"/>
<polygon fill="midnightblue" stroke="midnightblue" points="1360,-159.751 1370.27,-157.162 1360.62,-152.779 1360,-159.751"/>
</g>
<!-- Node39 -->
<g id="node22" class="node"><title>Node39</title>
<g id="a_node22"><a xlink:href="_t_a_p_s_veto___time_8h.html" target="_top" xlink:title="src/calibration/modules\l/TAPSVeto_Time.h">
<polygon fill="white" stroke="black" points="1327.5,-79 1327.5,-109 1444.5,-109 1444.5,-79 1327.5,-79"/>
<text text-anchor="start" x="1335.5" y="-97" font-family="Helvetica,sans-Serif" font-size="10.00">src/calibration/modules</text>
<text text-anchor="middle" x="1386" y="-86" font-family="Helvetica,sans-Serif" font-size="10.00">/TAPSVeto_Time.h</text>
</a>
</g>
</g>
<!-- Node20&#45;&gt;Node39 -->
<g id="edge23" class="edge"><title>Node20&#45;&gt;Node39</title>
<path fill="none" stroke="midnightblue" d="M1414.03,-138.019C1407.8,-128.467 1400.77,-117.677 1395.31,-109.293"/>
<polygon fill="midnightblue" stroke="midnightblue" points="1411.28,-140.211 1419.67,-146.679 1417.14,-136.39 1411.28,-140.211"/>
</g>
<!-- Node41 -->
<g id="node24" class="node"><title>Node41</title>
<g id="a_node24"><a xlink:href="calibration_2modules_2_time_8cc.html" target="_top" xlink:title="src/calibration/modules\l/Time.cc">
<polygon fill="white" stroke="black" points="1539.5,-79 1539.5,-109 1656.5,-109 1656.5,-79 1539.5,-79"/>
<text text-anchor="start" x="1547.5" y="-97" font-family="Helvetica,sans-Serif" font-size="10.00">src/calibration/modules</text>
<text text-anchor="middle" x="1598" y="-86" font-family="Helvetica,sans-Serif" font-size="10.00">/Time.cc</text>
</a>
</g>
</g>
<!-- Node20&#45;&gt;Node41 -->
<g id="edge35" class="edge"><title>Node20&#45;&gt;Node41</title>
<path fill="none" stroke="midnightblue" d="M1474.65,-143.171C1502.12,-132.445 1536.58,-118.985 1562.1,-109.022"/>
<polygon fill="midnightblue" stroke="midnightblue" points="1473.3,-139.943 1465.25,-146.841 1475.84,-146.464 1473.3,-139.943"/>
</g>
<!-- Node42 -->
<g id="node25" class="node"><title>Node42</title>
<g id="a_node25"><a xlink:href="_setup___c_b_source_calib_8cc.html" target="_top" xlink:title="src/expconfig/setups\l/Setup_CBSourceCalib.cc">
<polygon fill="white" stroke="black" points="1674.5,-79 1674.5,-109 1805.5,-109 1805.5,-79 1674.5,-79"/>
<text text-anchor="start" x="1682.5" y="-97" font-family="Helvetica,sans-Serif" font-size="10.00">src/expconfig/setups</text>
<text text-anchor="middle" x="1740" y="-86" font-family="Helvetica,sans-Serif" font-size="10.00">/Setup_CBSourceCalib.cc</text>
</a>
</g>
</g>
<!-- Node20&#45;&gt;Node42 -->
<g id="edge45" class="edge"><title>Node20&#45;&gt;Node42</title>
<path fill="none" stroke="midnightblue" d="M1497.79,-146.402C1550.43,-135.231 1622.55,-119.925 1674.38,-108.925"/>
<polygon fill="midnightblue" stroke="midnightblue" points="1496.92,-143.009 1487.86,-148.508 1498.37,-149.856 1496.92,-143.009"/>
</g>
<!-- Node22 -->
<g id="node5" class="node"><title>Node22</title>
<g id="a_node5"><a xlink:href="_new_tagger___time_8cc.html" target="_top" xlink:title="src/calibration/modules\l/NewTagger_Time.cc">
<polygon fill="white" stroke="black" points="499.5,-6 499.5,-36 616.5,-36 616.5,-6 499.5,-6"/>
<text text-anchor="start" x="507.5" y="-24" font-family="Helvetica,sans-Serif" font-size="10.00">src/calibration/modules</text>
<text text-anchor="middle" x="558" y="-13" font-family="Helvetica,sans-Serif" font-size="10.00">/NewTagger_Time.cc</text>
</a>
</g>
</g>
<!-- Node21&#45;&gt;Node22 -->
<g id="edge4" class="edge"><title>Node21&#45;&gt;Node22</title>
<path fill="none" stroke="midnightblue" d="M512.634,-71.5539C523.021,-60.2075 535.5,-46.5768 544.739,-36.4856"/>
<polygon fill="midnightblue" stroke="midnightblue" points="510.013,-69.2334 505.842,-78.9727 515.176,-73.9602 510.013,-69.2334"/>
</g>
<!-- Node23 -->
<g id="node6" class="node"><title>Node23</title>
<g id="a_node6"><a xlink:href="_setup__2017__12_8cc.html" target="_top" xlink:title="src/expconfig/setups\l/Setup_2017_12.cc">
<polygon fill="white" stroke="black" points="-0.5,-6 -0.5,-36 106.5,-36 106.5,-6 -0.5,-6"/>
<text text-anchor="start" x="7.5" y="-24" font-family="Helvetica,sans-Serif" font-size="10.00">src/expconfig/setups</text>
<text text-anchor="middle" x="53" y="-13" font-family="Helvetica,sans-Serif" font-size="10.00">/Setup_2017_12.cc</text>
</a>
</g>
</g>
<!-- Node21&#45;&gt;Node23 -->
<g id="edge5" class="edge"><title>Node21&#45;&gt;Node23</title>
<path fill="none" stroke="midnightblue" d="M424.045,-87.4104C347.767,-80.3696 221.548,-66.1707 115,-42 107.831,-40.3736 100.305,-38.2838 93.066,-36.0706"/>
<polygon fill="midnightblue" stroke="midnightblue" points="424.194,-90.9383 434.469,-88.3567 424.827,-83.9669 424.194,-90.9383"/>
</g>
<!-- Node24 -->
<g id="node7" class="node"><title>Node24</title>
<g id="a_node7"><a xlink:href="_setup__2018__03_8cc.html" target="_top" xlink:title="src/expconfig/setups\l/Setup_2018_03.cc">
<polygon fill="white" stroke="black" points="124.5,-6 124.5,-36 231.5,-36 231.5,-6 124.5,-6"/>
<text text-anchor="start" x="132.5" y="-24" font-family="Helvetica,sans-Serif" font-size="10.00">src/expconfig/setups</text>
<text text-anchor="middle" x="178" y="-13" font-family="Helvetica,sans-Serif" font-size="10.00">/Setup_2018_03.cc</text>
</a>
</g>
</g>
<!-- Node21&#45;&gt;Node24 -->
<g id="edge6" class="edge"><title>Node21&#45;&gt;Node24</title>
<path fill="none" stroke="midnightblue" d="M424.334,-81.3296C373.171,-72.1099 301.778,-58.1355 240,-42 233.325,-40.2565 226.31,-38.2084 219.498,-36.0997"/>
<polygon fill="midnightblue" stroke="midnightblue" points="423.828,-84.7946 434.288,-83.1094 425.06,-77.9038 423.828,-84.7946"/>
</g>
<!-- Node25 -->
<g id="node8" class="node"><title>Node25</title>
<g id="a_node8"><a xlink:href="_setup__2018__05_8cc.html" target="_top" xlink:title="src/expconfig/setups\l/Setup_2018_05.cc">
<polygon fill="white" stroke="black" points="249.5,-6 249.5,-36 356.5,-36 356.5,-6 249.5,-6"/>
<text text-anchor="start" x="257.5" y="-24" font-family="Helvetica,sans-Serif" font-size="10.00">src/expconfig/setups</text>
<text text-anchor="middle" x="303" y="-13" font-family="Helvetica,sans-Serif" font-size="10.00">/Setup_2018_05.cc</text>
</a>
</g>
</g>
<!-- Node21&#45;&gt;Node25 -->
<g id="edge7" class="edge"><title>Node21&#45;&gt;Node25</title>
<path fill="none" stroke="midnightblue" d="M445.753,-75.3447C413.354,-63.2376 370.941,-47.3883 340.785,-36.1195"/>
<polygon fill="midnightblue" stroke="midnightblue" points="444.87,-78.7508 455.462,-78.9727 447.32,-72.1936 444.87,-78.7508"/>
</g>
<!-- Node26 -->
<g id="node9" class="node"><title>Node26</title>
<g id="a_node9"><a xlink:href="_setup__2018__09_8cc.html" target="_top" xlink:title="src/expconfig/setups\l/Setup_2018_09.cc">
<polygon fill="white" stroke="black" points="374.5,-6 374.5,-36 481.5,-36 481.5,-6 374.5,-6"/>
<text text-anchor="start" x="382.5" y="-24" font-family="Helvetica,sans-Serif" font-size="10.00">src/expconfig/setups</text>
<text text-anchor="middle" x="428" y="-13" font-family="Helvetica,sans-Serif" font-size="10.00">/Setup_2018_09.cc</text>
</a>
</g>
</g>
<!-- Node21&#45;&gt;Node26 -->
<g id="edge8" class="edge"><title>Node21&#45;&gt;Node26</title>
<path fill="none" stroke="midnightblue" d="M473.366,-71.5539C462.979,-60.2075 450.5,-46.5768 441.261,-36.4856"/>
<polygon fill="midnightblue" stroke="midnightblue" points="470.824,-73.9602 480.158,-78.9727 475.987,-69.2334 470.824,-73.9602"/>
</g>
<!-- Node21&#45;&gt;Node27 -->
<g id="edge9" class="edge"><title>Node21&#45;&gt;Node27</title>
<path fill="none" stroke="midnightblue" d="M541.061,-75.501C574.366,-63.3743 618.138,-47.4369 649.221,-36.1195"/>
<polygon fill="midnightblue" stroke="midnightblue" points="539.725,-72.2625 531.526,-78.9727 542.12,-78.8401 539.725,-72.2625"/>
</g>
<!-- Node21&#45;&gt;Node28 -->
<g id="edge10" class="edge"><title>Node21&#45;&gt;Node28</title>
<path fill="none" stroke="midnightblue" d="M561.715,-81.5138C613.747,-72.298 686.808,-58.2465 750,-42 756.78,-40.257 763.905,-38.2091 770.827,-36.1005"/>
<polygon fill="midnightblue" stroke="midnightblue" points="560.841,-78.1136 551.598,-83.2917 562.053,-85.008 560.841,-78.1136"/>
</g>
<!-- Node29&#45;&gt;Node27 -->
<g id="edge20" class="edge"><title>Node29&#45;&gt;Node27</title>
<path fill="none" stroke="midnightblue" d="M1182.15,-90.5748C1084.93,-86.1167 902.268,-73.937 750,-42 742.584,-40.4445 734.802,-38.3332 727.355,-36.0637"/>
<polygon fill="midnightblue" stroke="midnightblue" points="1182,-94.0715 1192.15,-91.0196 1182.31,-87.0784 1182,-94.0715"/>
</g>
<!-- Node29&#45;&gt;Node28 -->
<g id="edge21" class="edge"><title>Node29&#45;&gt;Node28</title>
<path fill="none" stroke="midnightblue" d="M1181.96,-87.2047C1106.24,-80.018 981.455,-65.7239 876,-42 868.723,-40.3629 861.08,-38.2677 853.725,-36.0527"/>
<polygon fill="midnightblue" stroke="midnightblue" points="1182.03,-90.7264 1192.31,-88.1719 1182.68,-83.7567 1182.03,-90.7264"/>
</g>
<!-- Node30 -->
<g id="node13" class="node"><title>Node30</title>
<g id="a_node13"><a xlink:href="_t_a_p_s___time_8cc.html" target="_top" xlink:title="src/calibration/modules\l/TAPS_Time.cc">
<polygon fill="white" stroke="black" points="1309.5,-6 1309.5,-36 1426.5,-36 1426.5,-6 1309.5,-6"/>
<text text-anchor="start" x="1317.5" y="-24" font-family="Helvetica,sans-Serif" font-size="10.00">src/calibration/modules</text>
<text text-anchor="middle" x="1368" y="-13" font-family="Helvetica,sans-Serif" font-size="10.00">/TAPS_Time.cc</text>
</a>
</g>
</g>
<!-- Node29&#45;&gt;Node30 -->
<g id="edge12" class="edge"><title>Node29&#45;&gt;Node30</title>
<path fill="none" stroke="midnightblue" d="M1282.68,-73.7767C1302.18,-61.9394 1326.77,-47.0204 1344.53,-36.2412"/>
<polygon fill="midnightblue" stroke="midnightblue" points="1280.85,-70.7926 1274.12,-78.9727 1284.48,-76.7769 1280.85,-70.7926"/>
</g>
<!-- Node29&#45;&gt;Node31 -->
<g id="edge13" class="edge"><title>Node29&#45;&gt;Node31</title>
<path fill="none" stroke="midnightblue" d="M1209.38,-74.8732C1181.73,-62.8285 1145.95,-47.2426 1120.42,-36.1195"/>
<polygon fill="midnightblue" stroke="midnightblue" points="1208.23,-78.188 1218.8,-78.9727 1211.03,-71.7704 1208.23,-78.188"/>
</g>
<!-- Node29&#45;&gt;Node32 -->
<g id="edge14" class="edge"><title>Node29&#45;&gt;Node32</title>
<path fill="none" stroke="midnightblue" d="M1182.68,-78.6873C1137.05,-68.9068 1075.77,-55.3452 1022,-42 1014.6,-40.1641 1006.81,-38.1335 999.181,-36.0907"/>
<polygon fill="midnightblue" stroke="midnightblue" points="1181.95,-82.1106 1192.46,-80.7776 1183.41,-75.2652 1181.95,-82.1106"/>
</g>
<!-- Node29&#45;&gt;Node33 -->
<g id="edge15" class="edge"><title>Node29&#45;&gt;Node33</title>
<path fill="none" stroke="midnightblue" d="M1319.82,-77.914C1677.04,-31.8103 1776.36,-103.684 2128,-42 2136.14,-40.572 2144.69,-38.3977 2152.79,-36.0009"/>
<polygon fill="midnightblue" stroke="midnightblue" points="1319.18,-74.4685 1309.72,-79.2405 1320.09,-81.4089 1319.18,-74.4685"/>
</g>
<!-- Node29&#45;&gt;Node34 -->
<g id="edge16" class="edge"><title>Node29&#45;&gt;Node34</title>
<path fill="none" stroke="midnightblue" d="M1319.71,-77.888C1541.11,-46.4752 1602.82,-79.5646 1820,-42 1828.69,-40.4965 1837.85,-38.3806 1846.61,-36.0837"/>
<polygon fill="midnightblue" stroke="midnightblue" points="1319.13,-74.4361 1309.73,-79.3321 1320.13,-81.3639 1319.13,-74.4361"/>
</g>
<!-- Node29&#45;&gt;Node35 -->
<g id="edge17" class="edge"><title>Node29&#45;&gt;Node35</title>
<path fill="none" stroke="midnightblue" d="M1319.82,-77.8385C1486.06,-52.481 1533.3,-74.9967 1695,-42 1702.53,-40.4627 1710.44,-38.3602 1718.01,-36.0936"/>
<polygon fill="midnightblue" stroke="midnightblue" points="1319.09,-74.4111 1309.75,-79.4116 1320.17,-81.3274 1319.09,-74.4111"/>
</g>
<!-- Node29&#45;&gt;Node36 -->
<g id="edge18" class="edge"><title>Node29&#45;&gt;Node36</title>
<path fill="none" stroke="midnightblue" d="M1319.72,-77.7785C1431.07,-58.1403 1462.83,-66.489 1570,-42 1577.27,-40.3384 1584.91,-38.2312 1592.27,-36.0119"/>
<polygon fill="midnightblue" stroke="midnightblue" points="1318.99,-74.3521 1309.77,-79.5684 1320.23,-81.2414 1318.99,-74.3521"/>
</g>
<!-- Node29&#45;&gt;Node37 -->
<g id="edge19" class="edge"><title>Node29&#45;&gt;Node37</title>
<path fill="none" stroke="midnightblue" d="M1319.93,-77.8804C1604.21,-39.5531 1682.27,-83.31 1963,-42 1966.23,-41.5253 1969.51,-40.9844 1972.82,-40.3923"/>
<polygon fill="midnightblue" stroke="midnightblue" points="1319.16,-74.4529 1309.73,-79.2787 1320.11,-81.3881 1319.16,-74.4529"/>
</g>
<!-- Node29&#45;&gt;Node38 -->
<g id="edge22" class="edge"><title>Node29&#45;&gt;Node38</title>
<path fill="none" stroke="midnightblue" d="M1243.03,-69.4188C1238.52,-56.0874 1233.16,-40.2191 1229.92,-30.6372"/>
<polygon fill="midnightblue" stroke="midnightblue" points="1239.74,-70.6201 1246.26,-78.9727 1246.37,-68.3785 1239.74,-70.6201"/>
</g>
<!-- Node39&#45;&gt;Node27 -->
<g id="edge32" class="edge"><title>Node39&#45;&gt;Node27</title>
<path fill="none" stroke="midnightblue" d="M1317.32,-78.0822C1065.68,-43.8623 995.233,-88.5707 750,-42 742.333,-40.544 734.295,-38.42 726.643,-36.0937"/>
<polygon fill="midnightblue" stroke="midnightblue" points="1317.11,-81.5875 1327.5,-79.4964 1318.08,-74.6541 1317.11,-81.5875"/>
</g>
<!-- Node39&#45;&gt;Node28 -->
<g id="edge33" class="edge"><title>Node39&#45;&gt;Node28</title>
<path fill="none" stroke="midnightblue" d="M1317.43,-78.078C1121.27,-49.7264 1066.17,-79.4296 876,-42 868.344,-40.4931 860.31,-38.3756 852.639,-36.0782"/>
<polygon fill="midnightblue" stroke="midnightblue" points="1317.08,-81.5645 1327.49,-79.5641 1318.11,-74.6397 1317.08,-81.5645"/>
</g>
<!-- Node39&#45;&gt;Node31 -->
<g id="edge25" class="edge"><title>Node39&#45;&gt;Node31</title>
<path fill="none" stroke="midnightblue" d="M1317.58,-77.9239C1243.48,-61.8403 1223.25,-60.0626 1154,-42 1147.05,-40.1868 1139.73,-38.1249 1132.6,-36.0305"/>
<polygon fill="midnightblue" stroke="midnightblue" points="1316.88,-81.3525 1327.4,-80.0685 1318.37,-74.5139 1316.88,-81.3525"/>
</g>
<!-- Node39&#45;&gt;Node32 -->
<g id="edge26" class="edge"><title>Node39&#45;&gt;Node32</title>
<path fill="none" stroke="midnightblue" d="M1317.39,-78.0179C1185.58,-56.2583 1148.86,-66.9529 1022,-42 1013.62,-40.3515 1004.79,-38.2508 996.276,-36.0337"/>
<polygon fill="midnightblue" stroke="midnightblue" points="1317.02,-81.5055 1327.46,-79.7135 1318.18,-74.6026 1317.02,-81.5055"/>
</g>
<!-- Node39&#45;&gt;Node33 -->
<g id="edge27" class="edge"><title>Node39&#45;&gt;Node33</title>
<path fill="none" stroke="midnightblue" d="M1454.79,-85.2161C1478.59,-82.6875 1505.45,-80.0166 1530,-78 1795.37,-56.2018 1866.11,-90.0628 2128,-42 2136.01,-40.5291 2144.43,-38.3672 2152.43,-36.0022"/>
<polygon fill="midnightblue" stroke="midnightblue" points="1454.37,-81.7418 1444.8,-86.2888 1455.11,-88.7018 1454.37,-81.7418"/>
</g>
<!-- Node39&#45;&gt;Node34 -->
<g id="edge28" class="edge"><title>Node39&#45;&gt;Node34</title>
<path fill="none" stroke="midnightblue" d="M1454.5,-85.5377C1567.74,-73.1122 1785.04,-48.8666 1820,-42 1828.27,-40.3746 1836.99,-38.2853 1845.39,-36.0723"/>
<polygon fill="midnightblue" stroke="midnightblue" points="1454.09,-82.0608 1444.53,-86.6297 1454.86,-89.0191 1454.09,-82.0608"/>
</g>
<!-- Node39&#45;&gt;Node35 -->
<g id="edge29" class="edge"><title>Node39&#45;&gt;Node35</title>
<path fill="none" stroke="midnightblue" d="M1454.75,-82.833C1531.45,-71.2808 1650.6,-52.6534 1695,-42 1702.03,-40.3132 1709.42,-38.2454 1716.56,-36.0863"/>
<polygon fill="midnightblue" stroke="midnightblue" points="1454.05,-79.3981 1444.68,-84.3449 1455.09,-86.3204 1454.05,-79.3981"/>
</g>
<!-- Node39&#45;&gt;Node36 -->
<g id="edge30" class="edge"><title>Node39&#45;&gt;Node36</title>
<path fill="none" stroke="midnightblue" d="M1448.68,-76.2452C1484.34,-66.5587 1529.77,-53.9556 1570,-42 1576.27,-40.1365 1582.87,-38.1114 1589.35,-36.0889"/>
<polygon fill="midnightblue" stroke="midnightblue" points="1447.63,-72.9032 1438.89,-78.897 1449.46,-79.6595 1447.63,-72.9032"/>
</g>
<!-- Node39&#45;&gt;Node37 -->
<g id="edge31" class="edge"><title>Node39&#45;&gt;Node37</title>
<path fill="none" stroke="midnightblue" d="M1454.82,-85.5361C1478.62,-83.0331 1505.47,-80.2966 1530,-78 1722.27,-59.9954 1772.35,-72.7091 1963,-42 1966.22,-41.4814 1969.5,-40.9043 1972.8,-40.2825"/>
<polygon fill="midnightblue" stroke="midnightblue" points="1454.4,-82.061 1444.82,-86.5925 1455.14,-89.0223 1454.4,-82.061"/>
</g>
<!-- Node39&#45;&gt;Node38 -->
<g id="edge34" class="edge"><title>Node39&#45;&gt;Node38</title>
<path fill="none" stroke="midnightblue" d="M1345.11,-74.742C1313.36,-60.5618 1270.75,-41.5343 1246.34,-30.6372"/>
<polygon fill="midnightblue" stroke="midnightblue" points="1344.03,-78.0911 1354.59,-78.9727 1346.88,-71.6994 1344.03,-78.0911"/>
</g>
<!-- Node40 -->
<g id="node23" class="node"><title>Node40</title>
<g id="a_node23"><a xlink:href="_t_a_p_s_veto___time_8cc.html" target="_top" xlink:title="src/calibration/modules\l/TAPSVeto_Time.cc">
<polygon fill="white" stroke="black" points="1444.5,-6 1444.5,-36 1561.5,-36 1561.5,-6 1444.5,-6"/>
<text text-anchor="start" x="1452.5" y="-24" font-family="Helvetica,sans-Serif" font-size="10.00">src/calibration/modules</text>
<text text-anchor="middle" x="1503" y="-13" font-family="Helvetica,sans-Serif" font-size="10.00">/TAPSVeto_Time.cc</text>
</a>
</g>
</g>
<!-- Node39&#45;&gt;Node40 -->
<g id="edge24" class="edge"><title>Node39&#45;&gt;Node40</title>
<path fill="none" stroke="midnightblue" d="M1417.68,-73.7767C1437.18,-61.9394 1461.77,-47.0204 1479.53,-36.2412"/>
<polygon fill="midnightblue" stroke="midnightblue" points="1415.85,-70.7926 1409.12,-78.9727 1419.48,-76.7769 1415.85,-70.7926"/>
</g>
</g>
</svg>
