<?xml version="1.0" encoding="UTF-8" standalone="no"?>
<!DOCTYPE svg PUBLIC "-//W3C//DTD SVG 1.1//EN"
 "http://www.w3.org/Graphics/SVG/1.1/DTD/svg11.dtd">
<!-- Generated by graphviz version 2.36.0 (20140111.2315)
 -->
<!-- Title: src/calibration/fitfunctions/FitGausPol0.h Pages: 1 -->
<svg width="1767pt" height="118pt"
 viewBox="0.00 0.00 1767.00 118.00" xmlns="http://www.w3.org/2000/svg" xmlns:xlink="http://www.w3.org/1999/xlink">
<g id="graph0" class="graph" transform="scale(1 1) rotate(0) translate(4 114)">
<title>src/calibration/fitfunctions/FitGausPol0.h</title>
<polygon fill="white" stroke="none" points="-4,4 -4,-114 1763,-114 1763,4 -4,4"/>
<!-- Node18 -->
<g id="node1" class="node"><title>Node18</title>
<polygon fill="#bfbfbf" stroke="black" points="821,-79 821,-109 949,-109 949,-79 821,-79"/>
<text text-anchor="start" x="829" y="-97" font-family="Helvetica,sans-Serif" font-size="10.00">src/calibration/fitfunctions</text>
<text text-anchor="middle" x="885" y="-86" font-family="Helvetica,sans-Serif" font-size="10.00">/FitGausPol0.h</text>
</g>
<!-- Node19 -->
<g id="node2" class="node"><title>Node19</title>
<g id="a_node2"><a xlink:href="_fit_gaus_pol0_8cc.html" target="_top" xlink:title="src/calibration/fitfunctions\l/FitGausPol0.cc">
<polygon fill="white" stroke="black" points="0,-6 0,-36 128,-36 128,-6 0,-6"/>
<text text-anchor="start" x="8" y="-24" font-family="Helvetica,sans-Serif" font-size="10.00">src/calibration/fitfunctions</text>
<text text-anchor="middle" x="64" y="-13" font-family="Helvetica,sans-Serif" font-size="10.00">/FitGausPol0.cc</text>
</a>
</g>
</g>
<!-- Node18&#45;&gt;Node19 -->
<g id="edge1" class="edge"><title>Node18&#45;&gt;Node19</title>
<path fill="none" stroke="midnightblue" d="M810.729,-92.8183C675.664,-91.4081 381.213,-83.3538 137,-42 128.06,-40.4862 118.636,-38.3355 109.639,-36.0012"/>
<polygon fill="midnightblue" stroke="midnightblue" points="810.924,-96.3202 820.957,-92.9154 810.99,-89.3205 810.924,-96.3202"/>
</g>
<!-- Node20 -->
<g id="node3" class="node"><title>Node20</title>
<g id="a_node3"><a xlink:href="_t_a_p_s___time_8cc.html" target="_top" xlink:title="src/calibration/modules\l/TAPS_Time.cc">
<polygon fill="white" stroke="black" points="146.5,-6 146.5,-36 263.5,-36 263.5,-6 146.5,-6"/>
<text text-anchor="start" x="154.5" y="-24" font-family="Helvetica,sans-Serif" font-size="10.00">src/calibration/modules</text>
<text text-anchor="middle" x="205" y="-13" font-family="Helvetica,sans-Serif" font-size="10.00">/TAPS_Time.cc</text>
</a>
</g>
</g>
<!-- Node18&#45;&gt;Node20 -->
<g id="edge2" class="edge"><title>Node18&#45;&gt;Node20</title>
<path fill="none" stroke="midnightblue" d="M810.694,-91.7647C694.709,-88.7297 464.014,-78.2409 272,-42 263.889,-40.469 255.359,-38.3403 247.206,-36.0393"/>
<polygon fill="midnightblue" stroke="midnightblue" points="810.794,-95.2682 820.878,-92.0196 810.969,-88.2704 810.794,-95.2682"/>
</g>
<!-- Node21 -->
<g id="node4" class="node"><title>Node21</title>
<g id="a_node4"><a xlink:href="_t_a_p_s_veto___time_8cc.html" target="_top" xlink:title="src/calibration/modules\l/TAPSVeto_Time.cc">
<polygon fill="white" stroke="black" points="281.5,-6 281.5,-36 398.5,-36 398.5,-6 281.5,-6"/>
<text text-anchor="start" x="289.5" y="-24" font-family="Helvetica,sans-Serif" font-size="10.00">src/calibration/modules</text>
<text text-anchor="middle" x="340" y="-13" font-family="Helvetica,sans-Serif" font-size="10.00">/TAPSVeto_Time.cc</text>
</a>
</g>
</g>
<!-- Node18&#45;&gt;Node21 -->
<g id="edge3" class="edge"><title>Node18&#45;&gt;Node21</title>
<path fill="none" stroke="midnightblue" d="M810.606,-89.3057C716.042,-83.6421 548.117,-70.3401 407,-42 399.145,-40.4225 390.887,-38.3291 382.956,-36.0906"/>
<polygon fill="midnightblue" stroke="midnightblue" points="810.458,-92.8029 820.646,-89.8947 810.868,-85.8149 810.458,-92.8029"/>
</g>
<!-- Node22 -->
<g id="node5" class="node"><title>Node22</title>
<g id="a_node5"><a xlink:href="_setup__2007___base_8cc.html" target="_top" xlink:title="src/expconfig/setups\l/Setup_2007_Base.cc">
<polygon fill="white" stroke="black" points="416.5,-6 416.5,-36 529.5,-36 529.5,-6 416.5,-6"/>
<text text-anchor="start" x="424.5" y="-24" font-family="Helvetica,sans-Serif" font-size="10.00">src/expconfig/setups</text>
<text text-anchor="middle" x="473" y="-13" font-family="Helvetica,sans-Serif" font-size="10.00">/Setup_2007_Base.cc</text>
</a>
</g>
</g>
<!-- Node18&#45;&gt;Node22 -->
<g id="edge4" class="edge"><title>Node18&#45;&gt;Node22</title>
<path fill="none" stroke="midnightblue" d="M810.595,-85.257C740.129,-77.166 631.617,-62.7391 539,-42 531.523,-40.3256 523.659,-38.2384 516.069,-36.0495"/>
<polygon fill="midnightblue" stroke="midnightblue" points="810.378,-88.7548 820.709,-86.4047 811.168,-81.7994 810.378,-88.7548"/>
</g>
<!-- Node23 -->
<g id="node6" class="node"><title>Node23</title>
<g id="a_node6"><a xlink:href="_setup__2010__03___base_8cc.html" target="_top" xlink:title="src/expconfig/setups\l/Setup_2010_03_Base.cc">
<polygon fill="white" stroke="black" points="548,-6 548,-36 676,-36 676,-6 548,-6"/>
<text text-anchor="start" x="556" y="-24" font-family="Helvetica,sans-Serif" font-size="10.00">src/expconfig/setups</text>
<text text-anchor="middle" x="612" y="-13" font-family="Helvetica,sans-Serif" font-size="10.00">/Setup_2010_03_Base.cc</text>
</a>
</g>
</g>
<!-- Node18&#45;&gt;Node23 -->
<g id="edge5" class="edge"><title>Node18&#45;&gt;Node23</title>
<path fill="none" stroke="midnightblue" d="M818.726,-76.4137C779.745,-66.5797 729.521,-53.7742 685,-42 677.886,-40.1186 670.391,-38.1032 663.022,-36.1026"/>
<polygon fill="midnightblue" stroke="midnightblue" points="818.343,-79.9265 828.895,-78.976 820.054,-73.1386 818.343,-79.9265"/>
</g>
<!-- Node24 -->
<g id="node7" class="node"><title>Node24</title>
<g id="a_node7"><a xlink:href="_setup__2014___e_p_t_8cc.html" target="_top" xlink:title="src/expconfig/setups\l/Setup_2014_EPT.cc">
<polygon fill="white" stroke="black" points="694,-6 694,-36 804,-36 804,-6 694,-6"/>
<text text-anchor="start" x="702" y="-24" font-family="Helvetica,sans-Serif" font-size="10.00">src/expconfig/setups</text>
<text text-anchor="middle" x="749" y="-13" font-family="Helvetica,sans-Serif" font-size="10.00">/Setup_2014_EPT.cc</text>
</a>
</g>
</g>
<!-- Node18&#45;&gt;Node24 -->
<g id="edge6" class="edge"><title>Node18&#45;&gt;Node24</title>
<path fill="none" stroke="midnightblue" d="M849.094,-74.2549C826.277,-62.3433 797.205,-47.1661 776.279,-36.2412"/>
<polygon fill="midnightblue" stroke="midnightblue" points="847.646,-77.4474 858.131,-78.9727 850.886,-71.2421 847.646,-77.4474"/>
</g>
<!-- Node25 -->
<g id="node8" class="node"><title>Node25</title>
<g id="a_node8"><a xlink:href="_setup__2015__01___pion_8cc.html" target="_top" xlink:title="src/expconfig/setups\l/Setup_2015_01_Pion.cc">
<polygon fill="white" stroke="black" points="822.5,-6 822.5,-36 947.5,-36 947.5,-6 822.5,-6"/>
<text text-anchor="start" x="830.5" y="-24" font-family="Helvetica,sans-Serif" font-size="10.00">src/expconfig/setups</text>
<text text-anchor="middle" x="885" y="-13" font-family="Helvetica,sans-Serif" font-size="10.00">/Setup_2015_01_Pion.cc</text>
</a>
</g>
</g>
<!-- Node18&#45;&gt;Node25 -->
<g id="edge7" class="edge"><title>Node18&#45;&gt;Node25</title>
<path fill="none" stroke="midnightblue" d="M885,-68.8976C885,-58.1314 885,-45.8005 885,-36.4856"/>
<polygon fill="midnightblue" stroke="midnightblue" points="881.5,-68.9727 885,-78.9727 888.5,-68.9727 881.5,-68.9727"/>
</g>
<!-- Node26 -->
<g id="node9" class="node"><title>Node26</title>
<g id="a_node9"><a xlink:href="_setup__2017__03_8cc.html" target="_top" xlink:title="src/expconfig/setups\l/Setup_2017_03.cc">
<polygon fill="white" stroke="black" points="965.5,-6 965.5,-36 1072.5,-36 1072.5,-6 965.5,-6"/>
<text text-anchor="start" x="973.5" y="-24" font-family="Helvetica,sans-Serif" font-size="10.00">src/expconfig/setups</text>
<text text-anchor="middle" x="1019" y="-13" font-family="Helvetica,sans-Serif" font-size="10.00">/Setup_2017_03.cc</text>
</a>
</g>
</g>
<!-- Node18&#45;&gt;Node26 -->
<g id="edge8" class="edge"><title>Node18&#45;&gt;Node26</title>
<path fill="none" stroke="midnightblue" d="M920.378,-74.2549C942.859,-62.3433 971.503,-47.1661 992.122,-36.2412"/>
<polygon fill="midnightblue" stroke="midnightblue" points="918.672,-71.198 911.474,-78.9727 921.949,-77.3834 918.672,-71.198"/>
</g>
<!-- Node27 -->
<g id="node10" class="node"><title>Node27</title>
<g id="a_node10"><a xlink:href="_setup__2017__05_8cc.html" target="_top" xlink:title="src/expconfig/setups\l/Setup_2017_05.cc">
<polygon fill="white" stroke="black" points="1090.5,-6 1090.5,-36 1197.5,-36 1197.5,-6 1090.5,-6"/>
<text text-anchor="start" x="1098.5" y="-24" font-family="Helvetica,sans-Serif" font-size="10.00">src/expconfig/setups</text>
<text text-anchor="middle" x="1144" y="-13" font-family="Helvetica,sans-Serif" font-size="10.00">/Setup_2017_05.cc</text>
</a>
</g>
</g>
<!-- Node18&#45;&gt;Node27 -->
<g id="edge9" class="edge"><title>Node18&#45;&gt;Node27</title>
<path fill="none" stroke="midnightblue" d="M952.168,-76.4566C990.12,-66.8755 1038.36,-54.3065 1081,-42 1087.39,-40.1544 1094.13,-38.1185 1100.71,-36.0732"/>
<polygon fill="midnightblue" stroke="midnightblue" points="951.095,-73.1173 942.251,-78.9512 952.803,-79.9058 951.095,-73.1173"/>
</g>
<!-- Node28 -->
<g id="node11" class="node"><title>Node28</title>
<g id="a_node11"><a xlink:href="_setup__2017_plus___new_tagger___base_8cc.html" target="_top" xlink:title="src/expconfig/setups\l/Setup_2017Plus_NewTagger\l_Base.cc">
<polygon fill="white" stroke="black" points="1216,-0.5 1216,-41.5 1362,-41.5 1362,-0.5 1216,-0.5"/>
<text text-anchor="start" x="1224" y="-29.5" font-family="Helvetica,sans-Serif" font-size="10.00">src/expconfig/setups</text>
<text text-anchor="start" x="1224" y="-18.5" font-family="Helvetica,sans-Serif" font-size="10.00">/Setup_2017Plus_NewTagger</text>
<text text-anchor="middle" x="1289" y="-7.5" font-family="Helvetica,sans-Serif" font-size="10.00">_Base.cc</text>
</a>
</g>
</g>
<!-- Node18&#45;&gt;Node28 -->
<g id="edge10" class="edge"><title>Node18&#45;&gt;Node28</title>
<path fill="none" stroke="midnightblue" d="M959.404,-82.8772C1024.65,-73.5958 1121.96,-58.7747 1206,-42 1209.2,-41.3617 1212.46,-40.6855 1215.75,-39.9824"/>
<polygon fill="midnightblue" stroke="midnightblue" points="958.625,-79.4525 949.214,-84.3187 959.606,-86.3835 958.625,-79.4525"/>
</g>
<!-- Node29 -->
<g id="node12" class="node"><title>Node29</title>
<g id="a_node12"><a xlink:href="_setup__2018__11_8cc.html" target="_top" xlink:title="src/expconfig/setups\l/Setup_2018_11.cc">
<polygon fill="white" stroke="black" points="1380.5,-6 1380.5,-36 1487.5,-36 1487.5,-6 1380.5,-6"/>
<text text-anchor="start" x="1388.5" y="-24" font-family="Helvetica,sans-Serif" font-size="10.00">src/expconfig/setups</text>
<text text-anchor="middle" x="1434" y="-13" font-family="Helvetica,sans-Serif" font-size="10.00">/Setup_2018_11.cc</text>
</a>
</g>
</g>
<!-- Node18&#45;&gt;Node29 -->
<g id="edge11" class="edge"><title>Node18&#45;&gt;Node29</title>
<path fill="none" stroke="midnightblue" d="M959.513,-89.8762C1055.52,-84.7833 1227.17,-72.0508 1371,-42 1378.53,-40.4275 1386.43,-38.3082 1393.99,-36.036"/>
<polygon fill="midnightblue" stroke="midnightblue" points="959.131,-86.3912 949.325,-90.403 959.493,-93.3819 959.131,-86.3912"/>
</g>
<!-- Node30 -->
<g id="node13" class="node"><title>Node30</title>
<g id="a_node13"><a xlink:href="_setup__2019__01_8cc.html" target="_top" xlink:title="src/expconfig/setups\l/Setup_2019_01.cc">
<polygon fill="white" stroke="black" points="1505.5,-6 1505.5,-36 1612.5,-36 1612.5,-6 1505.5,-6"/>
<text text-anchor="start" x="1513.5" y="-24" font-family="Helvetica,sans-Serif" font-size="10.00">src/expconfig/setups</text>
<text text-anchor="middle" x="1559" y="-13" font-family="Helvetica,sans-Serif" font-size="10.00">/Setup_2019_01.cc</text>
</a>
</g>
</g>
<!-- Node18&#45;&gt;Node30 -->
<g id="edge12" class="edge"><title>Node18&#45;&gt;Node30</title>
<path fill="none" stroke="midnightblue" d="M959.603,-92.1363C1075.46,-89.5956 1305.19,-79.7544 1496,-42 1503.65,-40.4854 1511.69,-38.3643 1519.36,-36.0658"/>
<polygon fill="midnightblue" stroke="midnightblue" points="959.353,-88.6406 949.427,-92.3469 959.498,-95.6391 959.353,-88.6406"/>
</g>
<!-- Node31 -->
<g id="node14" class="node"><title>Node31</title>
<g id="a_node14"><a xlink:href="expconfig__helpers_8cc.html" target="_top" xlink:title="test/expconfig_helpers.cc">
<polygon fill="white" stroke="black" points="1631,-11.5 1631,-30.5 1759,-30.5 1759,-11.5 1631,-11.5"/>
<text text-anchor="middle" x="1695" y="-18.5" font-family="Helvetica,sans-Serif" font-size="10.00">test/expconfig_helpers.cc</text>
</a>
</g>
</g>
<!-- Node18&#45;&gt;Node31 -->
<g id="edge13" class="edge"><title>Node18&#45;&gt;Node31</title>
<path fill="none" stroke="midnightblue" d="M959.605,-92.6122C1093.17,-90.8588 1381.56,-82.2569 1621,-42 1636.88,-39.3301 1654.28,-34.716 1668.22,-30.592"/>
<polygon fill="midnightblue" stroke="midnightblue" points="959.442,-89.1138 949.485,-92.7357 959.527,-96.1133 959.442,-89.1138"/>
</g>
</g>
</svg>
