<?xml version="1.0" encoding="UTF-8" standalone="no"?>
<!DOCTYPE svg PUBLIC "-//W3C//DTD SVG 1.1//EN"
 "http://www.w3.org/Graphics/SVG/1.1/DTD/svg11.dtd">
<!-- Generated by graphviz version 2.36.0 (20140111.2315)
 -->
<!-- Title: src/calibration/converters/GeSiCa_SADC.h Pages: 1 -->
<svg width="1825pt" height="186pt"
 viewBox="0.00 0.00 1825.00 186.00" xmlns="http://www.w3.org/2000/svg" xmlns:xlink="http://www.w3.org/1999/xlink">
<g id="graph0" class="graph" transform="scale(1 1) rotate(0) translate(4 182)">
<title>src/calibration/converters/GeSiCa_SADC.h</title>
<polygon fill="white" stroke="none" points="-4,4 -4,-182 1821,-182 1821,4 -4,4"/>
<!-- Node49 -->
<g id="node1" class="node"><title>Node49</title>
<polygon fill="#bfbfbf" stroke="black" points="865,-147 865,-177 991,-177 991,-147 865,-147"/>
<text text-anchor="start" x="873" y="-165" font-family="Helvetica,sans-Serif" font-size="10.00">src/calibration/converters</text>
<text text-anchor="middle" x="928" y="-154" font-family="Helvetica,sans-Serif" font-size="10.00">/GeSiCa_SADC.h</text>
</g>
<!-- Node50 -->
<g id="node2" class="node"><title>Node50</title>
<g id="a_node2"><a xlink:href="analysis_2physics_2calibration_2_c_b___source_calib_8h.html" target="_top" xlink:title="src/analysis/physics\l/calibration/CB_SourceCalib.h">
<polygon fill="white" stroke="black" points="3,-74 3,-104 151,-104 151,-74 3,-74"/>
<text text-anchor="start" x="11" y="-92" font-family="Helvetica,sans-Serif" font-size="10.00">src/analysis/physics</text>
<text text-anchor="middle" x="77" y="-81" font-family="Helvetica,sans-Serif" font-size="10.00">/calibration/CB_SourceCalib.h</text>
</a>
</g>
</g>
<!-- Node49&#45;&gt;Node50 -->
<g id="edge1" class="edge"><title>Node49&#45;&gt;Node50</title>
<path fill="none" stroke="midnightblue" d="M854.456,-160.12C717.474,-157.592 414.266,-147.813 162,-110 151.805,-108.472 141.029,-106.344 130.7,-104.044"/>
<polygon fill="midnightblue" stroke="midnightblue" points="854.76,-163.626 864.82,-160.303 854.884,-156.627 854.76,-163.626"/>
</g>
<!-- Node52 -->
<g id="node4" class="node"><title>Node52</title>
<g id="a_node4"><a xlink:href="checkcb_8h.html" target="_top" xlink:title="src/analysis/physics\l/scratch/lheijken/checkcb.h">
<polygon fill="white" stroke="black" points="171,-74 171,-104 307,-104 307,-74 171,-74"/>
<text text-anchor="start" x="179" y="-92" font-family="Helvetica,sans-Serif" font-size="10.00">src/analysis/physics</text>
<text text-anchor="middle" x="239" y="-81" font-family="Helvetica,sans-Serif" font-size="10.00">/scratch/lheijken/checkcb.h</text>
</a>
</g>
</g>
<!-- Node49&#45;&gt;Node52 -->
<g id="edge3" class="edge"><title>Node49&#45;&gt;Node52</title>
<path fill="none" stroke="midnightblue" d="M854.559,-158.845C739.321,-154.572 509.311,-142.446 317,-110 307.764,-108.442 298.02,-106.329 288.666,-104.059"/>
<polygon fill="midnightblue" stroke="midnightblue" points="854.555,-162.347 864.675,-159.211 854.808,-155.351 854.555,-162.347"/>
</g>
<!-- Node54 -->
<g id="node6" class="node"><title>Node54</title>
<g id="a_node6"><a xlink:href="_setup__2007___base_8cc.html" target="_top" xlink:title="src/expconfig/setups\l/Setup_2007_Base.cc">
<polygon fill="white" stroke="black" points="325.5,-74 325.5,-104 438.5,-104 438.5,-74 325.5,-74"/>
<text text-anchor="start" x="333.5" y="-92" font-family="Helvetica,sans-Serif" font-size="10.00">src/expconfig/setups</text>
<text text-anchor="middle" x="382" y="-81" font-family="Helvetica,sans-Serif" font-size="10.00">/Setup_2007_Base.cc</text>
</a>
</g>
</g>
<!-- Node49&#45;&gt;Node54 -->
<g id="edge5" class="edge"><title>Node49&#45;&gt;Node54</title>
<path fill="none" stroke="midnightblue" d="M854.863,-157.519C760.184,-152.037 590.441,-138.881 448,-110 440.138,-108.406 431.871,-106.276 423.948,-104.001"/>
<polygon fill="midnightblue" stroke="midnightblue" points="854.726,-161.017 864.908,-158.088 855.122,-154.028 854.726,-161.017"/>
</g>
<!-- Node55 -->
<g id="node7" class="node"><title>Node55</title>
<g id="a_node7"><a xlink:href="_setup__2010__03___base_8cc.html" target="_top" xlink:title="src/expconfig/setups\l/Setup_2010_03_Base.cc">
<polygon fill="white" stroke="black" points="457,-74 457,-104 585,-104 585,-74 457,-74"/>
<text text-anchor="start" x="465" y="-92" font-family="Helvetica,sans-Serif" font-size="10.00">src/expconfig/setups</text>
<text text-anchor="middle" x="521" y="-81" font-family="Helvetica,sans-Serif" font-size="10.00">/Setup_2010_03_Base.cc</text>
</a>
</g>
</g>
<!-- Node49&#45;&gt;Node55 -->
<g id="edge6" class="edge"><title>Node49&#45;&gt;Node55</title>
<path fill="none" stroke="midnightblue" d="M854.639,-152.284C786.67,-143.622 682.956,-128.911 594,-110 585.902,-108.279 577.369,-106.193 569.105,-104.027"/>
<polygon fill="midnightblue" stroke="midnightblue" points="854.457,-155.789 864.817,-153.57 855.334,-148.844 854.457,-155.789"/>
</g>
<!-- Node56 -->
<g id="node8" class="node"><title>Node56</title>
<g id="a_node8"><a xlink:href="_setup__2014___e_p_t_8cc.html" target="_top" xlink:title="src/expconfig/setups\l/Setup_2014_EPT.cc">
<polygon fill="white" stroke="black" points="603,-74 603,-104 713,-104 713,-74 603,-74"/>
<text text-anchor="start" x="611" y="-92" font-family="Helvetica,sans-Serif" font-size="10.00">src/expconfig/setups</text>
<text text-anchor="middle" x="658" y="-81" font-family="Helvetica,sans-Serif" font-size="10.00">/Setup_2014_EPT.cc</text>
</a>
</g>
</g>
<!-- Node49&#45;&gt;Node56 -->
<g id="edge7" class="edge"><title>Node49&#45;&gt;Node56</title>
<path fill="none" stroke="midnightblue" d="M857.821,-144.546C818.116,-134.985 767.627,-122.407 723,-110 716.402,-108.166 709.458,-106.136 702.662,-104.094"/>
<polygon fill="midnightblue" stroke="midnightblue" points="857.133,-147.98 867.673,-146.909 858.766,-141.173 857.133,-147.98"/>
</g>
<!-- Node57 -->
<g id="node9" class="node"><title>Node57</title>
<g id="a_node9"><a xlink:href="_setup__2015__01___pion_8cc.html" target="_top" xlink:title="src/expconfig/setups\l/Setup_2015_01_Pion.cc">
<polygon fill="white" stroke="black" points="731.5,-74 731.5,-104 856.5,-104 856.5,-74 731.5,-74"/>
<text text-anchor="start" x="739.5" y="-92" font-family="Helvetica,sans-Serif" font-size="10.00">src/expconfig/setups</text>
<text text-anchor="middle" x="794" y="-81" font-family="Helvetica,sans-Serif" font-size="10.00">/Setup_2015_01_Pion.cc</text>
</a>
</g>
</g>
<!-- Node49&#45;&gt;Node57 -->
<g id="edge8" class="edge"><title>Node49&#45;&gt;Node57</title>
<path fill="none" stroke="midnightblue" d="M892.622,-142.255C870.141,-130.343 841.497,-115.166 820.878,-104.241"/>
<polygon fill="midnightblue" stroke="midnightblue" points="891.051,-145.383 901.526,-146.973 894.328,-139.198 891.051,-145.383"/>
</g>
<!-- Node58 -->
<g id="node10" class="node"><title>Node58</title>
<g id="a_node10"><a xlink:href="_setup__2017__03_8cc.html" target="_top" xlink:title="src/expconfig/setups\l/Setup_2017_03.cc">
<polygon fill="white" stroke="black" points="874.5,-74 874.5,-104 981.5,-104 981.5,-74 874.5,-74"/>
<text text-anchor="start" x="882.5" y="-92" font-family="Helvetica,sans-Serif" font-size="10.00">src/expconfig/setups</text>
<text text-anchor="middle" x="928" y="-81" font-family="Helvetica,sans-Serif" font-size="10.00">/Setup_2017_03.cc</text>
</a>
</g>
</g>
<!-- Node49&#45;&gt;Node58 -->
<g id="edge9" class="edge"><title>Node49&#45;&gt;Node58</title>
<path fill="none" stroke="midnightblue" d="M928,-136.898C928,-126.131 928,-113.801 928,-104.486"/>
<polygon fill="midnightblue" stroke="midnightblue" points="924.5,-136.973 928,-146.973 931.5,-136.973 924.5,-136.973"/>
</g>
<!-- Node59 -->
<g id="node11" class="node"><title>Node59</title>
<g id="a_node11"><a xlink:href="_setup__2017__05_8cc.html" target="_top" xlink:title="src/expconfig/setups\l/Setup_2017_05.cc">
<polygon fill="white" stroke="black" points="999.5,-74 999.5,-104 1106.5,-104 1106.5,-74 999.5,-74"/>
<text text-anchor="start" x="1007.5" y="-92" font-family="Helvetica,sans-Serif" font-size="10.00">src/expconfig/setups</text>
<text text-anchor="middle" x="1053" y="-81" font-family="Helvetica,sans-Serif" font-size="10.00">/Setup_2017_05.cc</text>
</a>
</g>
</g>
<!-- Node49&#45;&gt;Node59 -->
<g id="edge10" class="edge"><title>Node49&#45;&gt;Node59</title>
<path fill="none" stroke="midnightblue" d="M961.563,-141.936C982.447,-130.074 1008.86,-115.069 1027.93,-104.241"/>
<polygon fill="midnightblue" stroke="midnightblue" points="959.663,-138.99 952.696,-146.973 963.12,-145.077 959.663,-138.99"/>
</g>
<!-- Node60 -->
<g id="node12" class="node"><title>Node60</title>
<g id="a_node12"><a xlink:href="_setup__2017_plus___new_tagger___base_8cc.html" target="_top" xlink:title="src/expconfig/setups\l/Setup_2017Plus_NewTagger\l_Base.cc">
<polygon fill="white" stroke="black" points="1125,-68.5 1125,-109.5 1271,-109.5 1271,-68.5 1125,-68.5"/>
<text text-anchor="start" x="1133" y="-97.5" font-family="Helvetica,sans-Serif" font-size="10.00">src/expconfig/setups</text>
<text text-anchor="start" x="1133" y="-86.5" font-family="Helvetica,sans-Serif" font-size="10.00">/Setup_2017Plus_NewTagger</text>
<text text-anchor="middle" x="1198" y="-75.5" font-family="Helvetica,sans-Serif" font-size="10.00">_Base.cc</text>
</a>
</g>
</g>
<!-- Node49&#45;&gt;Node60 -->
<g id="edge11" class="edge"><title>Node49&#45;&gt;Node60</title>
<path fill="none" stroke="midnightblue" d="M991.242,-144.37C1031.24,-133.853 1083.07,-120.222 1124.84,-109.239"/>
<polygon fill="midnightblue" stroke="midnightblue" points="990.124,-141.045 981.343,-146.973 991.905,-147.814 990.124,-141.045"/>
</g>
<!-- Node61 -->
<g id="node13" class="node"><title>Node61</title>
<g id="a_node13"><a xlink:href="_setup__2018__11_8cc.html" target="_top" xlink:title="src/expconfig/setups\l/Setup_2018_11.cc">
<polygon fill="white" stroke="black" points="1289.5,-74 1289.5,-104 1396.5,-104 1396.5,-74 1289.5,-74"/>
<text text-anchor="start" x="1297.5" y="-92" font-family="Helvetica,sans-Serif" font-size="10.00">src/expconfig/setups</text>
<text text-anchor="middle" x="1343" y="-81" font-family="Helvetica,sans-Serif" font-size="10.00">/Setup_2018_11.cc</text>
</a>
</g>
</g>
<!-- Node49&#45;&gt;Node61 -->
<g id="edge12" class="edge"><title>Node49&#45;&gt;Node61</title>
<path fill="none" stroke="midnightblue" d="M1001.48,-153.894C1073.14,-146.136 1184.92,-131.825 1280,-110 1287.16,-108.357 1294.67,-106.285 1301.92,-104.102"/>
<polygon fill="midnightblue" stroke="midnightblue" points="1000.78,-150.449 991.204,-154.992 1001.52,-157.41 1000.78,-150.449"/>
</g>
<!-- Node62 -->
<g id="node14" class="node"><title>Node62</title>
<g id="a_node14"><a xlink:href="_setup__2019__01_8cc.html" target="_top" xlink:title="src/expconfig/setups\l/Setup_2019_01.cc">
<polygon fill="white" stroke="black" points="1414.5,-74 1414.5,-104 1521.5,-104 1521.5,-74 1414.5,-74"/>
<text text-anchor="start" x="1422.5" y="-92" font-family="Helvetica,sans-Serif" font-size="10.00">src/expconfig/setups</text>
<text text-anchor="middle" x="1468" y="-81" font-family="Helvetica,sans-Serif" font-size="10.00">/Setup_2019_01.cc</text>
</a>
</g>
</g>
<!-- Node49&#45;&gt;Node62 -->
<g id="edge13" class="edge"><title>Node49&#45;&gt;Node62</title>
<path fill="none" stroke="midnightblue" d="M1001.13,-157.747C1095.36,-152.517 1263.84,-139.639 1405,-110 1412.52,-108.42 1420.43,-106.297 1427.99,-104.024"/>
<polygon fill="midnightblue" stroke="midnightblue" points="1000.93,-154.253 991.134,-158.289 1001.31,-161.242 1000.93,-154.253"/>
</g>
<!-- Node63 -->
<g id="node15" class="node"><title>Node63</title>
<g id="a_node15"><a xlink:href="_setup___c_b_source_calib_8cc.html" target="_top" xlink:title="src/expconfig/setups\l/Setup_CBSourceCalib.cc">
<polygon fill="white" stroke="black" points="1539.5,-74 1539.5,-104 1670.5,-104 1670.5,-74 1539.5,-74"/>
<text text-anchor="start" x="1547.5" y="-92" font-family="Helvetica,sans-Serif" font-size="10.00">src/expconfig/setups</text>
<text text-anchor="middle" x="1605" y="-81" font-family="Helvetica,sans-Serif" font-size="10.00">/Setup_CBSourceCalib.cc</text>
</a>
</g>
</g>
<!-- Node49&#45;&gt;Node63 -->
<g id="edge14" class="edge"><title>Node49&#45;&gt;Node63</title>
<path fill="none" stroke="midnightblue" d="M1001.3,-158.946C1115.19,-154.823 1341.18,-142.91 1530,-110 1538.89,-108.45 1548.27,-106.341 1557.27,-104.072"/>
<polygon fill="midnightblue" stroke="midnightblue" points="1001.17,-155.448 991.301,-159.298 1001.42,-162.444 1001.17,-155.448"/>
</g>
<!-- Node64 -->
<g id="node16" class="node"><title>Node64</title>
<g id="a_node16"><a xlink:href="expconfig__helpers_8cc.html" target="_top" xlink:title="test/expconfig_helpers.cc">
<polygon fill="white" stroke="black" points="1689,-79.5 1689,-98.5 1817,-98.5 1817,-79.5 1689,-79.5"/>
<text text-anchor="middle" x="1753" y="-86.5" font-family="Helvetica,sans-Serif" font-size="10.00">test/expconfig_helpers.cc</text>
</a>
</g>
</g>
<!-- Node49&#45;&gt;Node64 -->
<g id="edge15" class="edge"><title>Node49&#45;&gt;Node64</title>
<path fill="none" stroke="midnightblue" d="M1001.52,-160.772C1136.62,-159.301 1433.11,-151.168 1679,-110 1694.88,-107.341 1712.28,-102.728 1726.22,-98.6012"/>
<polygon fill="midnightblue" stroke="midnightblue" points="1001.25,-157.275 991.289,-160.874 1001.32,-164.274 1001.25,-157.275"/>
</g>
<!-- Node51 -->
<g id="node3" class="node"><title>Node51</title>
<g id="a_node3"><a xlink:href="analysis_2physics_2calibration_2_c_b___source_calib_8cc.html" target="_top" xlink:title="src/analysis/physics\l/calibration/CB_SourceCalib.cc">
<polygon fill="white" stroke="black" points="-0.5,-1 -0.5,-31 152.5,-31 152.5,-1 -0.5,-1"/>
<text text-anchor="start" x="7.5" y="-19" font-family="Helvetica,sans-Serif" font-size="10.00">src/analysis/physics</text>
<text text-anchor="middle" x="76" y="-8" font-family="Helvetica,sans-Serif" font-size="10.00">/calibration/CB_SourceCalib.cc</text>
</a>
</g>
</g>
<!-- Node50&#45;&gt;Node51 -->
<g id="edge2" class="edge"><title>Node50&#45;&gt;Node51</title>
<path fill="none" stroke="midnightblue" d="M76.6605,-63.8976C76.5089,-53.1314 76.3352,-40.8005 76.204,-31.4856"/>
<polygon fill="midnightblue" stroke="midnightblue" points="73.1619,-64.023 76.8024,-73.9727 80.1612,-63.9244 73.1619,-64.023"/>
</g>
<!-- Node53 -->
<g id="node5" class="node"><title>Node53</title>
<g id="a_node5"><a xlink:href="checkcb_8cc.html" target="_top" xlink:title="src/analysis/physics\l/scratch/lheijken/checkcb.cc">
<polygon fill="white" stroke="black" points="170.5,-1 170.5,-31 311.5,-31 311.5,-1 170.5,-1"/>
<text text-anchor="start" x="178.5" y="-19" font-family="Helvetica,sans-Serif" font-size="10.00">src/analysis/physics</text>
<text text-anchor="middle" x="241" y="-8" font-family="Helvetica,sans-Serif" font-size="10.00">/scratch/lheijken/checkcb.cc</text>
</a>
</g>
</g>
<!-- Node52&#45;&gt;Node53 -->
<g id="edge4" class="edge"><title>Node52&#45;&gt;Node53</title>
<path fill="none" stroke="midnightblue" d="M239.679,-63.8976C239.982,-53.1314 240.33,-40.8005 240.592,-31.4856"/>
<polygon fill="midnightblue" stroke="midnightblue" points="236.178,-63.8781 239.395,-73.9727 243.175,-64.0752 236.178,-63.8781"/>
</g>
</g>
</svg>
