<?xml version="1.0" encoding="UTF-8" standalone="no"?>
<!DOCTYPE svg PUBLIC "-//W3C//DTD SVG 1.1//EN"
 "http://www.w3.org/Graphics/SVG/1.1/DTD/svg11.dtd">
<!-- Generated by graphviz version 2.36.0 (20140111.2315)
 -->
<!-- Title: src/calibration/converters/MultiHit.h Pages: 1 -->
<svg width="1983pt" height="322pt"
 viewBox="0.00 0.00 1983.00 322.00" xmlns="http://www.w3.org/2000/svg" xmlns:xlink="http://www.w3.org/1999/xlink">
<g id="graph0" class="graph" transform="scale(1 1) rotate(0) translate(4 318)">
<title>src/calibration/converters/MultiHit.h</title>
<polygon fill="white" stroke="none" points="-4,4 -4,-318 1979,-318 1979,4 -4,4"/>
<!-- Node49 -->
<g id="node1" class="node"><title>Node49</title>
<polygon fill="#bfbfbf" stroke="black" points="1276,-283 1276,-313 1402,-313 1402,-283 1276,-283"/>
<text text-anchor="start" x="1284" y="-301" font-family="Helvetica,sans-Serif" font-size="10.00">src/calibration/converters</text>
<text text-anchor="middle" x="1339" y="-290" font-family="Helvetica,sans-Serif" font-size="10.00">/MultiHit.h</text>
</g>
<!-- Node50 -->
<g id="node2" class="node"><title>Node50</title>
<g id="a_node2"><a xlink:href="_multi_hit_reference_8h.html" target="_top" xlink:title="src/calibration/converters\l/MultiHitReference.h">
<polygon fill="white" stroke="black" points="893,-215 893,-245 1019,-245 1019,-215 893,-215"/>
<text text-anchor="start" x="901" y="-233" font-family="Helvetica,sans-Serif" font-size="10.00">src/calibration/converters</text>
<text text-anchor="middle" x="956" y="-222" font-family="Helvetica,sans-Serif" font-size="10.00">/MultiHitReference.h</text>
</a>
</g>
</g>
<!-- Node49&#45;&gt;Node50 -->
<g id="edge1" class="edge"><title>Node49&#45;&gt;Node50</title>
<path fill="none" stroke="midnightblue" d="M1265.48,-284.331C1194.03,-272.018 1086.67,-253.518 1019.02,-241.86"/>
<polygon fill="midnightblue" stroke="midnightblue" points="1265.31,-287.852 1275.76,-286.101 1266.49,-280.954 1265.31,-287.852"/>
</g>
<!-- Node58 -->
<g id="node10" class="node"><title>Node58</title>
<g id="a_node10"><a xlink:href="_setup__2007___base_8cc.html" target="_top" xlink:title="src/expconfig/setups\l/Setup_2007_Base.cc">
<polygon fill="white" stroke="black" points="1401.5,-74 1401.5,-104 1514.5,-104 1514.5,-74 1401.5,-74"/>
<text text-anchor="start" x="1409.5" y="-92" font-family="Helvetica,sans-Serif" font-size="10.00">src/expconfig/setups</text>
<text text-anchor="middle" x="1458" y="-81" font-family="Helvetica,sans-Serif" font-size="10.00">/Setup_2007_Base.cc</text>
</a>
</g>
</g>
<!-- Node49&#45;&gt;Node58 -->
<g id="edge34" class="edge"><title>Node49&#45;&gt;Node58</title>
<path fill="none" stroke="midnightblue" d="M1412.29,-295.392C1493.67,-291.876 1617.5,-280.786 1647,-246 1675.75,-212.103 1673.65,-181.568 1647,-146 1612.85,-100.416 1578.59,-126.26 1524,-110 1517.57,-108.086 1510.8,-106.052 1504.14,-104.043"/>
<polygon fill="midnightblue" stroke="midnightblue" points="1411.94,-291.903 1402.09,-295.803 1412.22,-298.898 1411.94,-291.903"/>
</g>
<!-- Node59 -->
<g id="node11" class="node"><title>Node59</title>
<g id="a_node11"><a xlink:href="_setup__2010__03___base_8cc.html" target="_top" xlink:title="src/expconfig/setups\l/Setup_2010_03_Base.cc">
<polygon fill="white" stroke="black" points="1533,-74 1533,-104 1661,-104 1661,-74 1533,-74"/>
<text text-anchor="start" x="1541" y="-92" font-family="Helvetica,sans-Serif" font-size="10.00">src/expconfig/setups</text>
<text text-anchor="middle" x="1597" y="-81" font-family="Helvetica,sans-Serif" font-size="10.00">/Setup_2010_03_Base.cc</text>
</a>
</g>
</g>
<!-- Node49&#45;&gt;Node59 -->
<g id="edge35" class="edge"><title>Node49&#45;&gt;Node59</title>
<path fill="none" stroke="midnightblue" d="M1412.32,-296.421C1499.79,-293.992 1638.35,-284.046 1671,-246 1678.92,-236.774 1685.28,-176.419 1670,-146 1660.75,-127.588 1642.29,-113.512 1626.24,-104.078"/>
<polygon fill="midnightblue" stroke="midnightblue" points="1412.09,-292.926 1402.18,-296.676 1412.26,-299.924 1412.09,-292.926"/>
</g>
<!-- Node60 -->
<g id="node12" class="node"><title>Node60</title>
<g id="a_node12"><a xlink:href="_setup__2014___e_p_t_8cc.html" target="_top" xlink:title="src/expconfig/setups\l/Setup_2014_EPT.cc">
<polygon fill="white" stroke="black" points="0,-74 0,-104 110,-104 110,-74 0,-74"/>
<text text-anchor="start" x="8" y="-92" font-family="Helvetica,sans-Serif" font-size="10.00">src/expconfig/setups</text>
<text text-anchor="middle" x="55" y="-81" font-family="Helvetica,sans-Serif" font-size="10.00">/Setup_2014_EPT.cc</text>
</a>
</g>
</g>
<!-- Node49&#45;&gt;Node60 -->
<g id="edge36" class="edge"><title>Node49&#45;&gt;Node60</title>
<path fill="none" stroke="midnightblue" d="M1265.49,-296.546C1067.79,-294.791 527.973,-286.336 355,-246 239.23,-219.003 118.9,-137.106 73.6621,-104.055"/>
<polygon fill="midnightblue" stroke="midnightblue" points="1265.74,-300.048 1275.77,-296.634 1265.8,-293.049 1265.74,-300.048"/>
</g>
<!-- Node61 -->
<g id="node13" class="node"><title>Node61</title>
<g id="a_node13"><a xlink:href="_setup__2015__01___pion_8cc.html" target="_top" xlink:title="src/expconfig/setups\l/Setup_2015_01_Pion.cc">
<polygon fill="white" stroke="black" points="128.5,-74 128.5,-104 253.5,-104 253.5,-74 128.5,-74"/>
<text text-anchor="start" x="136.5" y="-92" font-family="Helvetica,sans-Serif" font-size="10.00">src/expconfig/setups</text>
<text text-anchor="middle" x="191" y="-81" font-family="Helvetica,sans-Serif" font-size="10.00">/Setup_2015_01_Pion.cc</text>
</a>
</g>
</g>
<!-- Node49&#45;&gt;Node61 -->
<g id="edge37" class="edge"><title>Node49&#45;&gt;Node61</title>
<path fill="none" stroke="midnightblue" d="M1265.66,-297.019C1078.4,-296.407 586.374,-290.481 430,-246 333.729,-218.615 240.579,-137.318 205.566,-104.24"/>
<polygon fill="midnightblue" stroke="midnightblue" points="1265.68,-300.518 1275.69,-297.047 1265.7,-293.518 1265.68,-300.518"/>
</g>
<!-- Node62 -->
<g id="node14" class="node"><title>Node62</title>
<g id="a_node14"><a xlink:href="_setup__2017__03_8cc.html" target="_top" xlink:title="src/expconfig/setups\l/Setup_2017_03.cc">
<polygon fill="white" stroke="black" points="271.5,-74 271.5,-104 378.5,-104 378.5,-74 271.5,-74"/>
<text text-anchor="start" x="279.5" y="-92" font-family="Helvetica,sans-Serif" font-size="10.00">src/expconfig/setups</text>
<text text-anchor="middle" x="325" y="-81" font-family="Helvetica,sans-Serif" font-size="10.00">/Setup_2017_03.cc</text>
</a>
</g>
</g>
<!-- Node49&#45;&gt;Node62 -->
<g id="edge38" class="edge"><title>Node49&#45;&gt;Node62</title>
<path fill="none" stroke="midnightblue" d="M1265.61,-297.678C1086.82,-298.519 632.98,-295.545 491,-246 415.573,-219.679 355.824,-137.767 333.974,-104.382"/>
<polygon fill="midnightblue" stroke="midnightblue" points="1265.73,-301.178 1275.71,-297.625 1265.69,-294.178 1265.73,-301.178"/>
</g>
<!-- Node63 -->
<g id="node15" class="node"><title>Node63</title>
<g id="a_node15"><a xlink:href="_setup__2017__05_8cc.html" target="_top" xlink:title="src/expconfig/setups\l/Setup_2017_05.cc">
<polygon fill="white" stroke="black" points="396.5,-74 396.5,-104 503.5,-104 503.5,-74 396.5,-74"/>
<text text-anchor="start" x="404.5" y="-92" font-family="Helvetica,sans-Serif" font-size="10.00">src/expconfig/setups</text>
<text text-anchor="middle" x="450" y="-81" font-family="Helvetica,sans-Serif" font-size="10.00">/Setup_2017_05.cc</text>
</a>
</g>
</g>
<!-- Node49&#45;&gt;Node63 -->
<g id="edge39" class="edge"><title>Node49&#45;&gt;Node63</title>
<path fill="none" stroke="midnightblue" d="M1265.38,-296.085C1101.32,-293.392 710.251,-283.158 584,-246 524.077,-228.364 496.015,-229.728 461,-178 445.896,-155.687 446.302,-122.758 448.071,-104.153"/>
<polygon fill="midnightblue" stroke="midnightblue" points="1265.8,-299.592 1275.85,-296.252 1265.91,-292.593 1265.8,-299.592"/>
</g>
<!-- Node64 -->
<g id="node16" class="node"><title>Node64</title>
<g id="a_node16"><a xlink:href="_setup__2017_plus___new_tagger___base_8cc.html" target="_top" xlink:title="src/expconfig/setups\l/Setup_2017Plus_NewTagger\l_Base.cc">
<polygon fill="white" stroke="black" points="1679,-68.5 1679,-109.5 1825,-109.5 1825,-68.5 1679,-68.5"/>
<text text-anchor="start" x="1687" y="-97.5" font-family="Helvetica,sans-Serif" font-size="10.00">src/expconfig/setups</text>
<text text-anchor="start" x="1687" y="-86.5" font-family="Helvetica,sans-Serif" font-size="10.00">/Setup_2017Plus_NewTagger</text>
<text text-anchor="middle" x="1752" y="-75.5" font-family="Helvetica,sans-Serif" font-size="10.00">_Base.cc</text>
</a>
</g>
</g>
<!-- Node49&#45;&gt;Node64 -->
<g id="edge41" class="edge"><title>Node49&#45;&gt;Node64</title>
<path fill="none" stroke="midnightblue" d="M1412.22,-294.746C1501.94,-290.577 1647.21,-278.826 1689,-246 1732.3,-211.99 1745.99,-143.485 1750.2,-109.724"/>
<polygon fill="midnightblue" stroke="midnightblue" points="1411.94,-291.255 1402.1,-295.195 1412.25,-298.248 1411.94,-291.255"/>
</g>
<!-- Node65 -->
<g id="node17" class="node"><title>Node65</title>
<g id="a_node17"><a xlink:href="_setup__2018__11_8cc.html" target="_top" xlink:title="src/expconfig/setups\l/Setup_2018_11.cc">
<polygon fill="white" stroke="black" points="521.5,-74 521.5,-104 628.5,-104 628.5,-74 521.5,-74"/>
<text text-anchor="start" x="529.5" y="-92" font-family="Helvetica,sans-Serif" font-size="10.00">src/expconfig/setups</text>
<text text-anchor="middle" x="575" y="-81" font-family="Helvetica,sans-Serif" font-size="10.00">/Setup_2018_11.cc</text>
</a>
</g>
</g>
<!-- Node49&#45;&gt;Node65 -->
<g id="edge45" class="edge"><title>Node49&#45;&gt;Node65</title>
<path fill="none" stroke="midnightblue" d="M1265.68,-292.281C1068.27,-278.826 537.068,-237.374 487,-178 463.53,-150.169 509.081,-120.85 542.96,-104.06"/>
<polygon fill="midnightblue" stroke="midnightblue" points="1265.45,-295.774 1275.67,-292.958 1265.93,-288.79 1265.45,-295.774"/>
</g>
<!-- Node66 -->
<g id="node18" class="node"><title>Node66</title>
<g id="a_node18"><a xlink:href="_setup__2019__01_8cc.html" target="_top" xlink:title="src/expconfig/setups\l/Setup_2019_01.cc">
<polygon fill="white" stroke="black" points="1129.5,-74 1129.5,-104 1236.5,-104 1236.5,-74 1129.5,-74"/>
<text text-anchor="start" x="1137.5" y="-92" font-family="Helvetica,sans-Serif" font-size="10.00">src/expconfig/setups</text>
<text text-anchor="middle" x="1183" y="-81" font-family="Helvetica,sans-Serif" font-size="10.00">/Setup_2019_01.cc</text>
</a>
</g>
</g>
<!-- Node49&#45;&gt;Node66 -->
<g id="edge46" class="edge"><title>Node49&#45;&gt;Node66</title>
<path fill="none" stroke="midnightblue" d="M1411.76,-282.058C1505.41,-259.72 1649.3,-212.96 1589,-146 1537.71,-89.0485 1321.02,-125.676 1246,-110 1238.47,-108.427 1230.57,-106.308 1223.01,-104.036"/>
<polygon fill="midnightblue" stroke="midnightblue" points="1410.96,-278.651 1402.02,-284.338 1412.55,-285.467 1410.96,-278.651"/>
</g>
<!-- Node67 -->
<g id="node19" class="node"><title>Node67</title>
<g id="a_node19"><a xlink:href="_setup___c_b_source_calib_8cc.html" target="_top" xlink:title="src/expconfig/setups\l/Setup_CBSourceCalib.cc">
<polygon fill="white" stroke="black" points="1843.5,-74 1843.5,-104 1974.5,-104 1974.5,-74 1843.5,-74"/>
<text text-anchor="start" x="1851.5" y="-92" font-family="Helvetica,sans-Serif" font-size="10.00">src/expconfig/setups</text>
<text text-anchor="middle" x="1909" y="-81" font-family="Helvetica,sans-Serif" font-size="10.00">/Setup_CBSourceCalib.cc</text>
</a>
</g>
</g>
<!-- Node49&#45;&gt;Node67 -->
<g id="edge47" class="edge"><title>Node49&#45;&gt;Node67</title>
<path fill="none" stroke="midnightblue" d="M1412.03,-291.868C1506.06,-284.451 1663.71,-269.049 1717,-246 1795.84,-211.901 1868.68,-135.867 1896.77,-104.234"/>
<polygon fill="midnightblue" stroke="midnightblue" points="1411.71,-288.382 1402.01,-292.647 1412.25,-295.361 1411.71,-288.382"/>
</g>
<!-- Node68 -->
<g id="node20" class="node"><title>Node68</title>
<g id="a_node20"><a xlink:href="expconfig__helpers_8cc.html" target="_top" xlink:title="test/expconfig_helpers.cc">
<polygon fill="white" stroke="black" points="1255,-79.5 1255,-98.5 1383,-98.5 1383,-79.5 1255,-79.5"/>
<text text-anchor="middle" x="1319" y="-86.5" font-family="Helvetica,sans-Serif" font-size="10.00">test/expconfig_helpers.cc</text>
</a>
</g>
</g>
<!-- Node49&#45;&gt;Node68 -->
<g id="edge48" class="edge"><title>Node49&#45;&gt;Node68</title>
<path fill="none" stroke="midnightblue" d="M1412.41,-294.185C1487.46,-289.582 1596.64,-277.515 1623,-246 1651.51,-211.909 1651.91,-179.76 1623,-146 1589.21,-106.537 1442.8,-120.881 1392,-110 1377.09,-106.807 1360.71,-102.402 1347.24,-98.5377"/>
<polygon fill="midnightblue" stroke="midnightblue" points="1411.84,-290.712 1402.06,-294.786 1412.25,-297.7 1411.84,-290.712"/>
</g>
<!-- Node70 -->
<g id="node22" class="node"><title>Node70</title>
<g id="a_node22"><a xlink:href="_setup__2017__12_8cc.html" target="_top" xlink:title="src/expconfig/setups\l/Setup_2017_12.cc">
<polygon fill="white" stroke="black" points="1098.5,-147 1098.5,-177 1205.5,-177 1205.5,-147 1098.5,-147"/>
<text text-anchor="start" x="1106.5" y="-165" font-family="Helvetica,sans-Serif" font-size="10.00">src/expconfig/setups</text>
<text text-anchor="middle" x="1152" y="-154" font-family="Helvetica,sans-Serif" font-size="10.00">/Setup_2017_12.cc</text>
</a>
</g>
</g>
<!-- Node49&#45;&gt;Node70 -->
<g id="edge40" class="edge"><title>Node49&#45;&gt;Node70</title>
<path fill="none" stroke="midnightblue" d="M1311.2,-277.08C1272.96,-249.678 1205.08,-201.034 1171.68,-177.099"/>
<polygon fill="midnightblue" stroke="midnightblue" points="1309.17,-279.933 1319.34,-282.913 1313.25,-274.243 1309.17,-279.933"/>
</g>
<!-- Node71 -->
<g id="node23" class="node"><title>Node71</title>
<g id="a_node23"><a xlink:href="_setup__2018__03_8cc.html" target="_top" xlink:title="src/expconfig/setups\l/Setup_2018_03.cc">
<polygon fill="white" stroke="black" points="1223.5,-147 1223.5,-177 1330.5,-177 1330.5,-147 1223.5,-147"/>
<text text-anchor="start" x="1231.5" y="-165" font-family="Helvetica,sans-Serif" font-size="10.00">src/expconfig/setups</text>
<text text-anchor="middle" x="1277" y="-154" font-family="Helvetica,sans-Serif" font-size="10.00">/Setup_2018_03.cc</text>
</a>
</g>
</g>
<!-- Node49&#45;&gt;Node71 -->
<g id="edge42" class="edge"><title>Node49&#45;&gt;Node71</title>
<path fill="none" stroke="midnightblue" d="M1328.02,-273.261C1315.13,-245.412 1294.18,-200.141 1283.59,-177.237"/>
<polygon fill="midnightblue" stroke="midnightblue" points="1324.99,-275.054 1332.36,-282.66 1331.34,-272.114 1324.99,-275.054"/>
</g>
<!-- Node72 -->
<g id="node24" class="node"><title>Node72</title>
<g id="a_node24"><a xlink:href="_setup__2018__05_8cc.html" target="_top" xlink:title="src/expconfig/setups\l/Setup_2018_05.cc">
<polygon fill="white" stroke="black" points="1348.5,-147 1348.5,-177 1455.5,-177 1455.5,-147 1348.5,-147"/>
<text text-anchor="start" x="1356.5" y="-165" font-family="Helvetica,sans-Serif" font-size="10.00">src/expconfig/setups</text>
<text text-anchor="middle" x="1402" y="-154" font-family="Helvetica,sans-Serif" font-size="10.00">/Setup_2018_05.cc</text>
</a>
</g>
</g>
<!-- Node49&#45;&gt;Node72 -->
<g id="edge43" class="edge"><title>Node49&#45;&gt;Node72</title>
<path fill="none" stroke="midnightblue" d="M1350.16,-273.261C1363.25,-245.412 1384.54,-200.141 1395.31,-177.237"/>
<polygon fill="midnightblue" stroke="midnightblue" points="1346.83,-272.121 1345.74,-282.66 1353.16,-275.099 1346.83,-272.121"/>
</g>
<!-- Node73 -->
<g id="node25" class="node"><title>Node73</title>
<g id="a_node25"><a xlink:href="_setup__2018__09_8cc.html" target="_top" xlink:title="src/expconfig/setups\l/Setup_2018_09.cc">
<polygon fill="white" stroke="black" points="1473.5,-147 1473.5,-177 1580.5,-177 1580.5,-147 1473.5,-147"/>
<text text-anchor="start" x="1481.5" y="-165" font-family="Helvetica,sans-Serif" font-size="10.00">src/expconfig/setups</text>
<text text-anchor="middle" x="1527" y="-154" font-family="Helvetica,sans-Serif" font-size="10.00">/Setup_2018_09.cc</text>
</a>
</g>
</g>
<!-- Node49&#45;&gt;Node73 -->
<g id="edge44" class="edge"><title>Node49&#45;&gt;Node73</title>
<path fill="none" stroke="midnightblue" d="M1366.95,-277.08C1405.39,-249.678 1473.64,-201.034 1507.22,-177.099"/>
<polygon fill="midnightblue" stroke="midnightblue" points="1364.88,-274.259 1358.76,-282.913 1368.94,-279.959 1364.88,-274.259"/>
</g>
<!-- Node51 -->
<g id="node3" class="node"><title>Node51</title>
<g id="a_node3"><a xlink:href="analysis_2physics_2calibration_2_time_8cc.html" target="_top" xlink:title="src/analysis/physics\l/calibration/Time.cc">
<polygon fill="white" stroke="black" points="640,-147 640,-177 746,-177 746,-147 640,-147"/>
<text text-anchor="start" x="648" y="-165" font-family="Helvetica,sans-Serif" font-size="10.00">src/analysis/physics</text>
<text text-anchor="middle" x="693" y="-154" font-family="Helvetica,sans-Serif" font-size="10.00">/calibration/Time.cc</text>
</a>
</g>
</g>
<!-- Node50&#45;&gt;Node51 -->
<g id="edge2" class="edge"><title>Node50&#45;&gt;Node51</title>
<path fill="none" stroke="midnightblue" d="M890.068,-212.454C845.654,-201.309 787.828,-186.797 746.319,-176.38"/>
<polygon fill="midnightblue" stroke="midnightblue" points="889.351,-215.883 899.902,-214.922 891.055,-209.093 889.351,-215.883"/>
</g>
<!-- Node52 -->
<g id="node4" class="node"><title>Node52</title>
<g id="a_node4"><a xlink:href="_c_a_t_c_h___t_d_c_8h.html" target="_top" xlink:title="src/calibration/converters\l/CATCH_TDC.h">
<polygon fill="white" stroke="black" points="802,-147 802,-177 928,-177 928,-147 802,-147"/>
<text text-anchor="start" x="810" y="-165" font-family="Helvetica,sans-Serif" font-size="10.00">src/calibration/converters</text>
<text text-anchor="middle" x="865" y="-154" font-family="Helvetica,sans-Serif" font-size="10.00">/CATCH_TDC.h</text>
</a>
</g>
</g>
<!-- Node50&#45;&gt;Node52 -->
<g id="edge3" class="edge"><title>Node50&#45;&gt;Node52</title>
<path fill="none" stroke="midnightblue" d="M927.872,-208.599C913.769,-198.371 897.047,-186.243 884.394,-177.066"/>
<polygon fill="midnightblue" stroke="midnightblue" points="926.104,-211.641 936.254,-214.679 930.214,-205.975 926.104,-211.641"/>
</g>
<!-- Node50&#45;&gt;Node58 -->
<g id="edge21" class="edge"><title>Node50&#45;&gt;Node58</title>
<path fill="none" stroke="midnightblue" d="M980.229,-208.292C1008.38,-184.326 1051.55,-147.878 1056,-146 1194.35,-87.5484 1244.82,-139.909 1392,-110 1399.74,-108.426 1407.88,-106.335 1415.7,-104.097"/>
<polygon fill="midnightblue" stroke="midnightblue" points="977.724,-205.828 972.385,-214.979 982.266,-211.155 977.724,-205.828"/>
</g>
<!-- Node50&#45;&gt;Node59 -->
<g id="edge22" class="edge"><title>Node50&#45;&gt;Node59</title>
<path fill="none" stroke="midnightblue" d="M995.399,-210.173C1012.91,-201.22 1033.49,-189.886 1051,-178 1069.27,-165.601 1068.59,-154.421 1089,-146 1267.92,-72.1766 1332.35,-143.387 1523,-110 1531.78,-108.462 1541.04,-106.359 1549.91,-104.092"/>
<polygon fill="midnightblue" stroke="midnightblue" points="993.382,-207.269 986.021,-214.889 996.528,-213.522 993.382,-207.269"/>
</g>
<!-- Node50&#45;&gt;Node60 -->
<g id="edge23" class="edge"><title>Node50&#45;&gt;Node60</title>
<path fill="none" stroke="midnightblue" d="M882.546,-229.426C761.034,-228.759 511.12,-221.571 305,-178 223.967,-160.871 133.29,-124.324 86.5931,-104.134"/>
<polygon fill="midnightblue" stroke="midnightblue" points="882.824,-232.927 892.839,-229.468 882.853,-225.927 882.824,-232.927"/>
</g>
<!-- Node50&#45;&gt;Node61 -->
<g id="edge24" class="edge"><title>Node50&#45;&gt;Node61</title>
<path fill="none" stroke="midnightblue" d="M882.771,-229.714C774.296,-229.131 565.282,-221.694 394,-178 327.004,-160.909 253.861,-124.347 216.337,-104.144"/>
<polygon fill="midnightblue" stroke="midnightblue" points="882.938,-233.214 892.95,-229.75 882.962,-226.214 882.938,-233.214"/>
</g>
<!-- Node50&#45;&gt;Node62 -->
<g id="edge25" class="edge"><title>Node50&#45;&gt;Node62</title>
<path fill="none" stroke="midnightblue" d="M882.818,-225.662C764.533,-219.564 536.916,-204.725 461,-178 413.251,-161.191 365.413,-124.514 341.217,-104.218"/>
<polygon fill="midnightblue" stroke="midnightblue" points="882.711,-229.161 892.876,-226.173 883.066,-222.17 882.711,-229.161"/>
</g>
<!-- Node50&#45;&gt;Node63 -->
<g id="edge26" class="edge"><title>Node50&#45;&gt;Node63</title>
<path fill="none" stroke="midnightblue" d="M882.562,-229.856C766.573,-229.777 547.875,-223.376 487,-178 463.215,-160.27 454.602,-124.311 451.573,-104.283"/>
<polygon fill="midnightblue" stroke="midnightblue" points="882.779,-233.356 892.776,-229.847 882.773,-226.356 882.779,-233.356"/>
</g>
<!-- Node50&#45;&gt;Node65 -->
<g id="edge31" class="edge"><title>Node50&#45;&gt;Node65</title>
<path fill="none" stroke="midnightblue" d="M883.289,-212.686C854.196,-204.537 821.011,-193.128 793,-178 773.272,-167.346 773.74,-156.632 754,-146 706.473,-120.404 689.503,-126.167 638,-110 631.869,-108.075 625.405,-106.036 619.048,-104.024"/>
<polygon fill="midnightblue" stroke="midnightblue" points="882.417,-216.075 892.985,-215.325 884.256,-209.321 882.417,-216.075"/>
</g>
<!-- Node50&#45;&gt;Node66 -->
<g id="edge32" class="edge"><title>Node50&#45;&gt;Node66</title>
<path fill="none" stroke="midnightblue" d="M956.77,-204.755C958.667,-186.203 964.254,-161.284 980,-146 1026.1,-101.253 1058.25,-127.727 1120,-110 1126.4,-108.164 1133.13,-106.133 1139.72,-104.09"/>
<polygon fill="midnightblue" stroke="midnightblue" points="953.273,-204.592 956.03,-214.821 960.254,-205.105 953.273,-204.592"/>
</g>
<!-- Node50&#45;&gt;Node68 -->
<g id="edge33" class="edge"><title>Node50&#45;&gt;Node68</title>
<path fill="none" stroke="midnightblue" d="M966.915,-205.81C977.262,-186.539 994.687,-160.078 1018,-146 1105.44,-93.1964 1145.11,-131.356 1245,-110 1260.1,-106.773 1276.71,-102.363 1290.36,-98.5064"/>
<polygon fill="midnightblue" stroke="midnightblue" points="963.72,-204.371 962.283,-214.867 969.953,-207.558 963.72,-204.371"/>
</g>
<!-- Node69 -->
<g id="node21" class="node"><title>Node69</title>
<g id="a_node21"><a xlink:href="_multi_hit_reference_8cc.html" target="_top" xlink:title="src/calibration/converters\l/MultiHitReference.cc">
<polygon fill="white" stroke="black" points="496,-147 496,-177 622,-177 622,-147 496,-147"/>
<text text-anchor="start" x="504" y="-165" font-family="Helvetica,sans-Serif" font-size="10.00">src/calibration/converters</text>
<text text-anchor="middle" x="559" y="-154" font-family="Helvetica,sans-Serif" font-size="10.00">/MultiHitReference.cc</text>
</a>
</g>
</g>
<!-- Node50&#45;&gt;Node69 -->
<g id="edge20" class="edge"><title>Node50&#45;&gt;Node69</title>
<path fill="none" stroke="midnightblue" d="M882.636,-218.552C816.65,-208.901 717.132,-193.72 631,-178 628.111,-177.473 625.16,-176.919 622.181,-176.348"/>
<polygon fill="midnightblue" stroke="midnightblue" points="882.531,-222.073 892.932,-220.052 883.541,-215.146 882.531,-222.073"/>
</g>
<!-- Node50&#45;&gt;Node70 -->
<g id="edge27" class="edge"><title>Node50&#45;&gt;Node70</title>
<path fill="none" stroke="midnightblue" d="M1007.7,-211.592C1039.75,-200.798 1080.38,-187.116 1110.36,-177.022"/>
<polygon fill="midnightblue" stroke="midnightblue" points="1006.41,-208.333 998.047,-214.841 1008.64,-214.967 1006.41,-208.333"/>
</g>
<!-- Node50&#45;&gt;Node71 -->
<g id="edge28" class="edge"><title>Node50&#45;&gt;Node71</title>
<path fill="none" stroke="midnightblue" d="M1029.31,-215.289C1081.03,-205.425 1151.89,-191.527 1214,-178 1217.08,-177.33 1220.23,-176.627 1223.42,-175.907"/>
<polygon fill="midnightblue" stroke="midnightblue" points="1028.4,-211.899 1019.23,-217.207 1029.71,-218.776 1028.4,-211.899"/>
</g>
<!-- Node50&#45;&gt;Node72 -->
<g id="edge29" class="edge"><title>Node50&#45;&gt;Node72</title>
<path fill="none" stroke="midnightblue" d="M1029.12,-221.494C1106.45,-213.036 1231.85,-197.838 1339,-178 1342.1,-177.427 1345.27,-176.8 1348.46,-176.137"/>
<polygon fill="midnightblue" stroke="midnightblue" points="1028.57,-218.034 1019,-222.592 1029.32,-224.993 1028.57,-218.034"/>
</g>
<!-- Node50&#45;&gt;Node73 -->
<g id="edge30" class="edge"><title>Node50&#45;&gt;Node73</title>
<path fill="none" stroke="midnightblue" d="M1029.54,-224.713C1128.7,-218.227 1310.57,-203.848 1464,-178 1467.1,-177.477 1470.28,-176.889 1473.48,-176.256"/>
<polygon fill="midnightblue" stroke="midnightblue" points="1029.08,-221.235 1019.32,-225.372 1029.53,-228.221 1029.08,-221.235"/>
</g>
<!-- Node53 -->
<g id="node5" class="node"><title>Node53</title>
<g id="a_node5"><a xlink:href="analysis_2physics_2calibration_2_c_b___source_calib_8h.html" target="_top" xlink:title="src/analysis/physics\l/calibration/CB_SourceCalib.h">
<polygon fill="white" stroke="black" points="963,-74 963,-104 1111,-104 1111,-74 963,-74"/>
<text text-anchor="start" x="971" y="-92" font-family="Helvetica,sans-Serif" font-size="10.00">src/analysis/physics</text>
<text text-anchor="middle" x="1037" y="-81" font-family="Helvetica,sans-Serif" font-size="10.00">/calibration/CB_SourceCalib.h</text>
</a>
</g>
</g>
<!-- Node52&#45;&gt;Node53 -->
<g id="edge4" class="edge"><title>Node52&#45;&gt;Node53</title>
<path fill="none" stroke="midnightblue" d="M908.531,-143.031C937.762,-130.965 975.731,-115.291 1002.79,-104.12"/>
<polygon fill="midnightblue" stroke="midnightblue" points="906.89,-139.922 898.982,-146.973 909.561,-146.392 906.89,-139.922"/>
</g>
<!-- Node55 -->
<g id="node7" class="node"><title>Node55</title>
<g id="a_node7"><a xlink:href="analysis_2physics_2calibration_2_c_b___time_walk_8cc.html" target="_top" xlink:title="src/analysis/physics\l/calibration/CB_TimeWalk.cc">
<polygon fill="white" stroke="black" points="647,-74 647,-104 791,-104 791,-74 647,-74"/>
<text text-anchor="start" x="655" y="-92" font-family="Helvetica,sans-Serif" font-size="10.00">src/analysis/physics</text>
<text text-anchor="middle" x="719" y="-81" font-family="Helvetica,sans-Serif" font-size="10.00">/calibration/CB_TimeWalk.cc</text>
</a>
</g>
</g>
<!-- Node52&#45;&gt;Node55 -->
<g id="edge6" class="edge"><title>Node52&#45;&gt;Node55</title>
<path fill="none" stroke="midnightblue" d="M827.105,-142.572C802.515,-130.613 770.95,-115.263 748.285,-104.241"/>
<polygon fill="midnightblue" stroke="midnightblue" points="825.631,-145.747 836.155,-146.973 828.693,-139.452 825.631,-145.747"/>
</g>
<!-- Node56 -->
<g id="node8" class="node"><title>Node56</title>
<g id="a_node8"><a xlink:href="checkcb_8h.html" target="_top" xlink:title="src/analysis/physics\l/scratch/lheijken/checkcb.h">
<polygon fill="white" stroke="black" points="809,-74 809,-104 945,-104 945,-74 809,-74"/>
<text text-anchor="start" x="817" y="-92" font-family="Helvetica,sans-Serif" font-size="10.00">src/analysis/physics</text>
<text text-anchor="middle" x="877" y="-81" font-family="Helvetica,sans-Serif" font-size="10.00">/scratch/lheijken/checkcb.h</text>
</a>
</g>
</g>
<!-- Node52&#45;&gt;Node56 -->
<g id="edge7" class="edge"><title>Node52&#45;&gt;Node56</title>
<path fill="none" stroke="midnightblue" d="M869.074,-136.898C870.893,-126.131 872.977,-113.801 874.552,-104.486"/>
<polygon fill="midnightblue" stroke="midnightblue" points="865.586,-136.529 867.371,-146.973 872.488,-137.696 865.586,-136.529"/>
</g>
<!-- Node52&#45;&gt;Node58 -->
<g id="edge9" class="edge"><title>Node52&#45;&gt;Node58</title>
<path fill="none" stroke="midnightblue" d="M938.494,-153.768C963.7,-151.295 992.084,-148.518 1018,-146 1184.21,-129.853 1228.18,-142.373 1392,-110 1399.87,-108.445 1408.14,-106.334 1416.06,-104.064"/>
<polygon fill="midnightblue" stroke="midnightblue" points="937.881,-150.311 928.271,-154.772 938.565,-157.278 937.881,-150.311"/>
</g>
<!-- Node52&#45;&gt;Node59 -->
<g id="edge10" class="edge"><title>Node52&#45;&gt;Node59</title>
<path fill="none" stroke="midnightblue" d="M938.506,-155.202C974.004,-152.409 1017.22,-149.018 1056,-146 1263.54,-129.851 1317.85,-145.311 1523,-110 1531.92,-108.465 1541.32,-106.334 1550.32,-104.033"/>
<polygon fill="midnightblue" stroke="midnightblue" points="937.925,-151.737 928.23,-156.011 938.474,-158.716 937.925,-151.737"/>
</g>
<!-- Node52&#45;&gt;Node60 -->
<g id="edge11" class="edge"><title>Node52&#45;&gt;Node60</title>
<path fill="none" stroke="midnightblue" d="M791.963,-150.309C779.324,-148.694 766.296,-147.178 754,-146 472.612,-119.052 397.121,-160.54 119,-110 110.983,-108.543 102.565,-106.388 94.5644,-104.024"/>
<polygon fill="midnightblue" stroke="midnightblue" points="791.626,-153.795 801.995,-151.621 792.533,-146.854 791.626,-153.795"/>
</g>
<!-- Node52&#45;&gt;Node61 -->
<g id="edge12" class="edge"><title>Node52&#45;&gt;Node61</title>
<path fill="none" stroke="midnightblue" d="M791.946,-150.48C779.308,-148.846 766.286,-147.278 754,-146 535.926,-123.309 477.948,-147.916 262,-110 253.423,-108.494 244.393,-106.377 235.756,-104.08"/>
<polygon fill="midnightblue" stroke="midnightblue" points="791.606,-153.966 801.977,-151.801 792.52,-147.025 791.606,-153.966"/>
</g>
<!-- Node52&#45;&gt;Node62 -->
<g id="edge13" class="edge"><title>Node52&#45;&gt;Node62</title>
<path fill="none" stroke="midnightblue" d="M791.918,-150.738C779.283,-149.074 766.269,-147.43 754,-146 591.208,-127.023 547.465,-143.349 387,-110 379.581,-108.458 371.798,-106.353 364.351,-104.086"/>
<polygon fill="midnightblue" stroke="midnightblue" points="791.573,-154.223 801.947,-152.072 792.496,-147.284 791.573,-154.223"/>
</g>
<!-- Node52&#45;&gt;Node63 -->
<g id="edge14" class="edge"><title>Node52&#45;&gt;Node63</title>
<path fill="none" stroke="midnightblue" d="M791.823,-151.099C696.447,-138.091 538.627,-116.172 512,-110 504.838,-108.34 497.316,-106.234 490.079,-104.015"/>
<polygon fill="midnightblue" stroke="midnightblue" points="791.61,-154.602 801.991,-152.484 792.555,-147.666 791.61,-154.602"/>
</g>
<!-- Node52&#45;&gt;Node64 -->
<g id="edge15" class="edge"><title>Node52&#45;&gt;Node64</title>
<path fill="none" stroke="midnightblue" d="M938.217,-156.005C981.972,-153.043 1038.66,-149.245 1089,-146 1347.18,-129.357 1414.21,-148.805 1670,-110 1672.9,-109.56 1675.84,-109.067 1678.81,-108.532"/>
<polygon fill="midnightblue" stroke="midnightblue" points="937.977,-152.513 928.236,-156.681 938.45,-159.497 937.977,-152.513"/>
</g>
<!-- Node52&#45;&gt;Node65 -->
<g id="edge16" class="edge"><title>Node52&#45;&gt;Node65</title>
<path fill="none" stroke="midnightblue" d="M791.635,-146.198C746.985,-136.773 688.93,-123.778 638,-110 631.354,-108.202 624.362,-106.148 617.552,-104.057"/>
<polygon fill="midnightblue" stroke="midnightblue" points="791.021,-149.645 801.527,-148.273 792.459,-142.794 791.021,-149.645"/>
</g>
<!-- Node52&#45;&gt;Node66 -->
<g id="edge17" class="edge"><title>Node52&#45;&gt;Node66</title>
<path fill="none" stroke="midnightblue" d="M938.193,-146.566C1010.35,-132.306 1111.1,-112.295 1120,-110 1126.78,-108.252 1133.9,-106.201 1140.82,-104.092"/>
<polygon fill="midnightblue" stroke="midnightblue" points="937.347,-143.166 928.215,-148.538 938.703,-150.033 937.347,-143.166"/>
</g>
<!-- Node52&#45;&gt;Node67 -->
<g id="edge18" class="edge"><title>Node52&#45;&gt;Node67</title>
<path fill="none" stroke="midnightblue" d="M938.201,-155.754C981.951,-152.704 1038.64,-148.903 1089,-146 1419.95,-126.925 1506.45,-160.994 1834,-110 1843.32,-108.549 1853.15,-106.396 1862.52,-104.034"/>
<polygon fill="midnightblue" stroke="midnightblue" points="937.954,-152.262 928.222,-156.452 938.442,-159.245 937.954,-152.262"/>
</g>
<!-- Node52&#45;&gt;Node68 -->
<g id="edge19" class="edge"><title>Node52&#45;&gt;Node68</title>
<path fill="none" stroke="midnightblue" d="M938.383,-151.402C1044.59,-137.474 1230.16,-112.987 1245,-110 1260.26,-106.927 1277.03,-102.485 1290.74,-98.5677"/>
<polygon fill="midnightblue" stroke="midnightblue" points="937.821,-147.945 928.36,-152.716 938.73,-154.886 937.821,-147.945"/>
</g>
<!-- Node54 -->
<g id="node6" class="node"><title>Node54</title>
<g id="a_node6"><a xlink:href="analysis_2physics_2calibration_2_c_b___source_calib_8cc.html" target="_top" xlink:title="src/analysis/physics\l/calibration/CB_SourceCalib.cc">
<polygon fill="white" stroke="black" points="963.5,-1 963.5,-31 1116.5,-31 1116.5,-1 963.5,-1"/>
<text text-anchor="start" x="971.5" y="-19" font-family="Helvetica,sans-Serif" font-size="10.00">src/analysis/physics</text>
<text text-anchor="middle" x="1040" y="-8" font-family="Helvetica,sans-Serif" font-size="10.00">/calibration/CB_SourceCalib.cc</text>
</a>
</g>
</g>
<!-- Node53&#45;&gt;Node54 -->
<g id="edge5" class="edge"><title>Node53&#45;&gt;Node54</title>
<path fill="none" stroke="midnightblue" d="M1038.02,-63.8976C1038.47,-53.1314 1038.99,-40.8005 1039.39,-31.4856"/>
<polygon fill="midnightblue" stroke="midnightblue" points="1034.52,-63.8338 1037.59,-73.9727 1041.51,-64.1294 1034.52,-63.8338"/>
</g>
<!-- Node57 -->
<g id="node9" class="node"><title>Node57</title>
<g id="a_node9"><a xlink:href="checkcb_8cc.html" target="_top" xlink:title="src/analysis/physics\l/scratch/lheijken/checkcb.cc">
<polygon fill="white" stroke="black" points="804.5,-1 804.5,-31 945.5,-31 945.5,-1 804.5,-1"/>
<text text-anchor="start" x="812.5" y="-19" font-family="Helvetica,sans-Serif" font-size="10.00">src/analysis/physics</text>
<text text-anchor="middle" x="875" y="-8" font-family="Helvetica,sans-Serif" font-size="10.00">/scratch/lheijken/checkcb.cc</text>
</a>
</g>
</g>
<!-- Node56&#45;&gt;Node57 -->
<g id="edge8" class="edge"><title>Node56&#45;&gt;Node57</title>
<path fill="none" stroke="midnightblue" d="M876.321,-63.8976C876.018,-53.1314 875.67,-40.8005 875.408,-31.4856"/>
<polygon fill="midnightblue" stroke="midnightblue" points="872.825,-64.0752 876.605,-73.9727 879.822,-63.8781 872.825,-64.0752"/>
</g>
</g>
</svg>
