<?xml version="1.0" encoding="UTF-8" standalone="no"?>
<!DOCTYPE svg PUBLIC "-//W3C//DTD SVG 1.1//EN"
 "http://www.w3.org/Graphics/SVG/1.1/DTD/svg11.dtd">
<!-- Generated by graphviz version 2.36.0 (20140111.2315)
 -->
<!-- Title: src/calibration/converters/MultiHitReference.h Pages: 1 -->
<svg width="1996pt" height="254pt"
 viewBox="0.00 0.00 1996.00 254.00" xmlns="http://www.w3.org/2000/svg" xmlns:xlink="http://www.w3.org/1999/xlink">
<g id="graph0" class="graph" transform="scale(1 1) rotate(0) translate(4 250)">
<title>src/calibration/converters/MultiHitReference.h</title>
<polygon fill="white" stroke="none" points="-4,4 -4,-250 1992,-250 1992,4 -4,4"/>
<!-- Node51 -->
<g id="node1" class="node"><title>Node51</title>
<polygon fill="#bfbfbf" stroke="black" points="1176,-215 1176,-245 1302,-245 1302,-215 1176,-215"/>
<text text-anchor="start" x="1184" y="-233" font-family="Helvetica,sans-Serif" font-size="10.00">src/calibration/converters</text>
<text text-anchor="middle" x="1239" y="-222" font-family="Helvetica,sans-Serif" font-size="10.00">/MultiHitReference.h</text>
</g>
<!-- Node52 -->
<g id="node2" class="node"><title>Node52</title>
<g id="a_node2"><a xlink:href="analysis_2physics_2calibration_2_time_8cc.html" target="_top" xlink:title="src/analysis/physics\l/calibration/Time.cc">
<polygon fill="white" stroke="black" points="752,-147 752,-177 858,-177 858,-147 752,-147"/>
<text text-anchor="start" x="760" y="-165" font-family="Helvetica,sans-Serif" font-size="10.00">src/analysis/physics</text>
<text text-anchor="middle" x="805" y="-154" font-family="Helvetica,sans-Serif" font-size="10.00">/calibration/Time.cc</text>
</a>
</g>
</g>
<!-- Node51&#45;&gt;Node52 -->
<g id="edge1" class="edge"><title>Node51&#45;&gt;Node52</title>
<path fill="none" stroke="midnightblue" d="M1165.57,-220.597C1091.28,-211.674 973.261,-196.339 872,-178 867.543,-177.193 862.933,-176.295 858.313,-175.351"/>
<polygon fill="midnightblue" stroke="midnightblue" points="1165.41,-224.103 1175.76,-221.813 1166.24,-217.152 1165.41,-224.103"/>
</g>
<!-- Node53 -->
<g id="node3" class="node"><title>Node53</title>
<g id="a_node3"><a xlink:href="_c_a_t_c_h___t_d_c_8h.html" target="_top" xlink:title="src/calibration/converters\l/CATCH_TDC.h">
<polygon fill="white" stroke="black" points="1028,-147 1028,-177 1154,-177 1154,-147 1028,-147"/>
<text text-anchor="start" x="1036" y="-165" font-family="Helvetica,sans-Serif" font-size="10.00">src/calibration/converters</text>
<text text-anchor="middle" x="1091" y="-154" font-family="Helvetica,sans-Serif" font-size="10.00">/CATCH_TDC.h</text>
</a>
</g>
</g>
<!-- Node51&#45;&gt;Node53 -->
<g id="edge2" class="edge"><title>Node51&#45;&gt;Node53</title>
<path fill="none" stroke="midnightblue" d="M1198.07,-210.749C1174.18,-200.093 1144.49,-186.855 1122.44,-177.022"/>
<polygon fill="midnightblue" stroke="midnightblue" points="1196.69,-213.965 1207.25,-214.841 1199.54,-207.572 1196.69,-213.965"/>
</g>
<!-- Node59 -->
<g id="node9" class="node"><title>Node59</title>
<g id="a_node9"><a xlink:href="_setup__2007___base_8cc.html" target="_top" xlink:title="src/expconfig/setups\l/Setup_2007_Base.cc">
<polygon fill="white" stroke="black" points="-0.5,-74 -0.5,-104 112.5,-104 112.5,-74 -0.5,-74"/>
<text text-anchor="start" x="7.5" y="-92" font-family="Helvetica,sans-Serif" font-size="10.00">src/expconfig/setups</text>
<text text-anchor="middle" x="56" y="-81" font-family="Helvetica,sans-Serif" font-size="10.00">/Setup_2007_Base.cc</text>
</a>
</g>
</g>
<!-- Node51&#45;&gt;Node59 -->
<g id="edge20" class="edge"><title>Node51&#45;&gt;Node59</title>
<path fill="none" stroke="midnightblue" d="M1165.83,-223.129C1080.58,-215.4 945.591,-200.148 900,-178 881.335,-168.933 885.099,-154.114 866,-146 713.651,-81.2777 285.104,-138.215 122,-110 113.742,-108.571 105.065,-106.429 96.816,-104.069"/>
<polygon fill="midnightblue" stroke="midnightblue" points="1165.7,-226.631 1175.97,-224.034 1166.32,-219.659 1165.7,-226.631"/>
</g>
<!-- Node60 -->
<g id="node10" class="node"><title>Node60</title>
<g id="a_node10"><a xlink:href="_setup__2010__03___base_8cc.html" target="_top" xlink:title="src/expconfig/setups\l/Setup_2010_03_Base.cc">
<polygon fill="white" stroke="black" points="131,-74 131,-104 259,-104 259,-74 131,-74"/>
<text text-anchor="start" x="139" y="-92" font-family="Helvetica,sans-Serif" font-size="10.00">src/expconfig/setups</text>
<text text-anchor="middle" x="195" y="-81" font-family="Helvetica,sans-Serif" font-size="10.00">/Setup_2010_03_Base.cc</text>
</a>
</g>
</g>
<!-- Node51&#45;&gt;Node60 -->
<g id="edge21" class="edge"><title>Node51&#45;&gt;Node60</title>
<path fill="none" stroke="midnightblue" d="M1165.68,-227.304C1102.69,-223.393 1010.77,-211.717 938,-178 917.966,-168.718 920.518,-154.157 900,-146 769.279,-94.0314 406.827,-132.711 268,-110 259.052,-108.536 249.624,-106.408 240.625,-104.081"/>
<polygon fill="midnightblue" stroke="midnightblue" points="1165.74,-230.813 1175.93,-227.888 1166.14,-223.825 1165.74,-230.813"/>
</g>
<!-- Node61 -->
<g id="node11" class="node"><title>Node61</title>
<g id="a_node11"><a xlink:href="_setup__2014___e_p_t_8cc.html" target="_top" xlink:title="src/expconfig/setups\l/Setup_2014_EPT.cc">
<polygon fill="white" stroke="black" points="277,-74 277,-104 387,-104 387,-74 277,-74"/>
<text text-anchor="start" x="285" y="-92" font-family="Helvetica,sans-Serif" font-size="10.00">src/expconfig/setups</text>
<text text-anchor="middle" x="332" y="-81" font-family="Helvetica,sans-Serif" font-size="10.00">/Setup_2014_EPT.cc</text>
</a>
</g>
</g>
<!-- Node51&#45;&gt;Node61 -->
<g id="edge22" class="edge"><title>Node51&#45;&gt;Node61</title>
<path fill="none" stroke="midnightblue" d="M1165.62,-224.725C1111.08,-219.231 1036.03,-206.679 976,-178 956.078,-168.481 958.479,-154.253 938,-146 826.041,-100.878 514.659,-132.157 396,-110 388.104,-108.526 379.815,-106.393 371.919,-104.064"/>
<polygon fill="midnightblue" stroke="midnightblue" points="1165.62,-228.24 1175.91,-225.702 1166.28,-221.272 1165.62,-228.24"/>
</g>
<!-- Node62 -->
<g id="node12" class="node"><title>Node62</title>
<g id="a_node12"><a xlink:href="_setup__2015__01___pion_8cc.html" target="_top" xlink:title="src/expconfig/setups\l/Setup_2015_01_Pion.cc">
<polygon fill="white" stroke="black" points="405.5,-74 405.5,-104 530.5,-104 530.5,-74 405.5,-74"/>
<text text-anchor="start" x="413.5" y="-92" font-family="Helvetica,sans-Serif" font-size="10.00">src/expconfig/setups</text>
<text text-anchor="middle" x="468" y="-81" font-family="Helvetica,sans-Serif" font-size="10.00">/Setup_2015_01_Pion.cc</text>
</a>
</g>
</g>
<!-- Node51&#45;&gt;Node62 -->
<g id="edge23" class="edge"><title>Node51&#45;&gt;Node62</title>
<path fill="none" stroke="midnightblue" d="M1165.54,-219.726C1121.56,-212.308 1065.37,-199.48 1019,-178 997.384,-167.987 998.286,-154.416 976,-146 794.101,-77.309 731.411,-144.172 540,-110 531.315,-108.45 522.165,-106.312 513.408,-104.008"/>
<polygon fill="midnightblue" stroke="midnightblue" points="1165.15,-223.209 1175.59,-221.362 1166.28,-216.3 1165.15,-223.209"/>
</g>
<!-- Node63 -->
<g id="node13" class="node"><title>Node63</title>
<g id="a_node13"><a xlink:href="_setup__2017__03_8cc.html" target="_top" xlink:title="src/expconfig/setups\l/Setup_2017_03.cc">
<polygon fill="white" stroke="black" points="1345.5,-74 1345.5,-104 1452.5,-104 1452.5,-74 1345.5,-74"/>
<text text-anchor="start" x="1353.5" y="-92" font-family="Helvetica,sans-Serif" font-size="10.00">src/expconfig/setups</text>
<text text-anchor="middle" x="1399" y="-81" font-family="Helvetica,sans-Serif" font-size="10.00">/Setup_2017_03.cc</text>
</a>
</g>
</g>
<!-- Node51&#45;&gt;Node63 -->
<g id="edge24" class="edge"><title>Node51&#45;&gt;Node63</title>
<path fill="none" stroke="midnightblue" d="M1218.86,-206.833C1205.27,-189.09 1192.12,-164.243 1206,-146 1242.3,-98.2847 1278.53,-127.073 1336,-110 1342.27,-108.137 1348.87,-106.113 1355.35,-104.09"/>
<polygon fill="midnightblue" stroke="midnightblue" points="1216.42,-209.376 1225.46,-214.912 1221.85,-204.951 1216.42,-209.376"/>
</g>
<!-- Node64 -->
<g id="node14" class="node"><title>Node64</title>
<g id="a_node14"><a xlink:href="_setup__2017__05_8cc.html" target="_top" xlink:title="src/expconfig/setups\l/Setup_2017_05.cc">
<polygon fill="white" stroke="black" points="1470.5,-74 1470.5,-104 1577.5,-104 1577.5,-74 1470.5,-74"/>
<text text-anchor="start" x="1478.5" y="-92" font-family="Helvetica,sans-Serif" font-size="10.00">src/expconfig/setups</text>
<text text-anchor="middle" x="1524" y="-81" font-family="Helvetica,sans-Serif" font-size="10.00">/Setup_2017_05.cc</text>
</a>
</g>
</g>
<!-- Node51&#45;&gt;Node64 -->
<g id="edge25" class="edge"><title>Node51&#45;&gt;Node64</title>
<path fill="none" stroke="midnightblue" d="M1233.18,-204.979C1230.25,-186.552 1229.87,-161.69 1244,-146 1276.72,-109.682 1413.47,-121.424 1461,-110 1468.03,-108.31 1475.41,-106.241 1482.55,-104.081"/>
<polygon fill="midnightblue" stroke="midnightblue" points="1229.78,-205.811 1235.11,-214.967 1236.65,-204.486 1229.78,-205.811"/>
</g>
<!-- Node66 -->
<g id="node16" class="node"><title>Node66</title>
<g id="a_node16"><a xlink:href="_setup__2018__11_8cc.html" target="_top" xlink:title="src/expconfig/setups\l/Setup_2018_11.cc">
<polygon fill="white" stroke="black" points="1595.5,-74 1595.5,-104 1702.5,-104 1702.5,-74 1595.5,-74"/>
<text text-anchor="start" x="1603.5" y="-92" font-family="Helvetica,sans-Serif" font-size="10.00">src/expconfig/setups</text>
<text text-anchor="middle" x="1649" y="-81" font-family="Helvetica,sans-Serif" font-size="10.00">/Setup_2018_11.cc</text>
</a>
</g>
</g>
<!-- Node51&#45;&gt;Node66 -->
<g id="edge30" class="edge"><title>Node51&#45;&gt;Node66</title>
<path fill="none" stroke="midnightblue" d="M1244.79,-204.966C1250.76,-185.739 1262.07,-159.791 1282,-146 1337.94,-107.29 1519.5,-124.356 1586,-110 1593.4,-108.402 1601.18,-106.298 1608.64,-104.056"/>
<polygon fill="midnightblue" stroke="midnightblue" points="1241.36,-204.261 1242.01,-214.836 1248.09,-206.162 1241.36,-204.261"/>
</g>
<!-- Node67 -->
<g id="node17" class="node"><title>Node67</title>
<g id="a_node17"><a xlink:href="_setup__2019__01_8cc.html" target="_top" xlink:title="src/expconfig/setups\l/Setup_2019_01.cc">
<polygon fill="white" stroke="black" points="1720.5,-74 1720.5,-104 1827.5,-104 1827.5,-74 1720.5,-74"/>
<text text-anchor="start" x="1728.5" y="-92" font-family="Helvetica,sans-Serif" font-size="10.00">src/expconfig/setups</text>
<text text-anchor="middle" x="1774" y="-81" font-family="Helvetica,sans-Serif" font-size="10.00">/Setup_2019_01.cc</text>
</a>
</g>
</g>
<!-- Node51&#45;&gt;Node67 -->
<g id="edge31" class="edge"><title>Node51&#45;&gt;Node67</title>
<path fill="none" stroke="midnightblue" d="M1257.13,-207.247C1276.09,-185.119 1305.11,-153.097 1320,-146 1477.54,-70.9264 1539.95,-144.603 1711,-110 1718.65,-108.453 1726.68,-106.316 1734.35,-104.013"/>
<polygon fill="midnightblue" stroke="midnightblue" points="1254.45,-204.999 1250.65,-214.888 1259.79,-209.528 1254.45,-204.999"/>
</g>
<!-- Node69 -->
<g id="node19" class="node"><title>Node69</title>
<g id="a_node19"><a xlink:href="expconfig__helpers_8cc.html" target="_top" xlink:title="test/expconfig_helpers.cc">
<polygon fill="white" stroke="black" points="1846,-79.5 1846,-98.5 1974,-98.5 1974,-79.5 1846,-79.5"/>
<text text-anchor="middle" x="1910" y="-86.5" font-family="Helvetica,sans-Serif" font-size="10.00">test/expconfig_helpers.cc</text>
</a>
</g>
</g>
<!-- Node51&#45;&gt;Node69 -->
<g id="edge32" class="edge"><title>Node51&#45;&gt;Node69</title>
<path fill="none" stroke="midnightblue" d="M1270.55,-209.399C1284.74,-200.261 1301.51,-188.995 1316,-178 1333.32,-164.859 1332.92,-154.341 1353,-146 1452.4,-104.709 1729.91,-128.122 1836,-110 1851.87,-107.289 1869.27,-102.672 1883.21,-98.5575"/>
<polygon fill="midnightblue" stroke="midnightblue" points="1268.65,-206.463 1262.1,-214.792 1272.41,-212.364 1268.65,-206.463"/>
</g>
<!-- Node70 -->
<g id="node20" class="node"><title>Node70</title>
<g id="a_node20"><a xlink:href="_multi_hit_reference_8cc.html" target="_top" xlink:title="src/calibration/converters\l/MultiHitReference.cc">
<polygon fill="white" stroke="black" points="1362,-147 1362,-177 1488,-177 1488,-147 1362,-147"/>
<text text-anchor="start" x="1370" y="-165" font-family="Helvetica,sans-Serif" font-size="10.00">src/calibration/converters</text>
<text text-anchor="middle" x="1425" y="-154" font-family="Helvetica,sans-Serif" font-size="10.00">/MultiHitReference.cc</text>
</a>
</g>
</g>
<!-- Node51&#45;&gt;Node70 -->
<g id="edge19" class="edge"><title>Node51&#45;&gt;Node70</title>
<path fill="none" stroke="midnightblue" d="M1288.45,-211.452C1318.81,-200.68 1357.16,-187.072 1385.48,-177.022"/>
<polygon fill="midnightblue" stroke="midnightblue" points="1287.16,-208.199 1278.9,-214.841 1289.5,-214.796 1287.16,-208.199"/>
</g>
<!-- Node71 -->
<g id="node21" class="node"><title>Node71</title>
<g id="a_node21"><a xlink:href="_setup__2017__12_8cc.html" target="_top" xlink:title="src/expconfig/setups\l/Setup_2017_12.cc">
<polygon fill="white" stroke="black" points="1506.5,-147 1506.5,-177 1613.5,-177 1613.5,-147 1506.5,-147"/>
<text text-anchor="start" x="1514.5" y="-165" font-family="Helvetica,sans-Serif" font-size="10.00">src/expconfig/setups</text>
<text text-anchor="middle" x="1560" y="-154" font-family="Helvetica,sans-Serif" font-size="10.00">/Setup_2017_12.cc</text>
</a>
</g>
</g>
<!-- Node51&#45;&gt;Node71 -->
<g id="edge26" class="edge"><title>Node51&#45;&gt;Node71</title>
<path fill="none" stroke="midnightblue" d="M1312.31,-215.289C1364.03,-205.425 1434.89,-191.527 1497,-178 1500.08,-177.33 1503.23,-176.627 1506.42,-175.907"/>
<polygon fill="midnightblue" stroke="midnightblue" points="1311.4,-211.899 1302.23,-217.207 1312.71,-218.776 1311.4,-211.899"/>
</g>
<!-- Node72 -->
<g id="node22" class="node"><title>Node72</title>
<g id="a_node22"><a xlink:href="_setup__2018__03_8cc.html" target="_top" xlink:title="src/expconfig/setups\l/Setup_2018_03.cc">
<polygon fill="white" stroke="black" points="1631.5,-147 1631.5,-177 1738.5,-177 1738.5,-147 1631.5,-147"/>
<text text-anchor="start" x="1639.5" y="-165" font-family="Helvetica,sans-Serif" font-size="10.00">src/expconfig/setups</text>
<text text-anchor="middle" x="1685" y="-154" font-family="Helvetica,sans-Serif" font-size="10.00">/Setup_2018_03.cc</text>
</a>
</g>
</g>
<!-- Node51&#45;&gt;Node72 -->
<g id="edge27" class="edge"><title>Node51&#45;&gt;Node72</title>
<path fill="none" stroke="midnightblue" d="M1312.12,-221.494C1389.45,-213.036 1514.85,-197.838 1622,-178 1625.1,-177.427 1628.27,-176.8 1631.46,-176.137"/>
<polygon fill="midnightblue" stroke="midnightblue" points="1311.57,-218.034 1302,-222.592 1312.32,-224.993 1311.57,-218.034"/>
</g>
<!-- Node73 -->
<g id="node23" class="node"><title>Node73</title>
<g id="a_node23"><a xlink:href="_setup__2018__05_8cc.html" target="_top" xlink:title="src/expconfig/setups\l/Setup_2018_05.cc">
<polygon fill="white" stroke="black" points="1756.5,-147 1756.5,-177 1863.5,-177 1863.5,-147 1756.5,-147"/>
<text text-anchor="start" x="1764.5" y="-165" font-family="Helvetica,sans-Serif" font-size="10.00">src/expconfig/setups</text>
<text text-anchor="middle" x="1810" y="-154" font-family="Helvetica,sans-Serif" font-size="10.00">/Setup_2018_05.cc</text>
</a>
</g>
</g>
<!-- Node51&#45;&gt;Node73 -->
<g id="edge28" class="edge"><title>Node51&#45;&gt;Node73</title>
<path fill="none" stroke="midnightblue" d="M1312.54,-224.713C1411.7,-218.227 1593.57,-203.848 1747,-178 1750.1,-177.477 1753.28,-176.889 1756.48,-176.256"/>
<polygon fill="midnightblue" stroke="midnightblue" points="1312.08,-221.235 1302.32,-225.372 1312.53,-228.221 1312.08,-221.235"/>
</g>
<!-- Node74 -->
<g id="node24" class="node"><title>Node74</title>
<g id="a_node24"><a xlink:href="_setup__2018__09_8cc.html" target="_top" xlink:title="src/expconfig/setups\l/Setup_2018_09.cc">
<polygon fill="white" stroke="black" points="1881.5,-147 1881.5,-177 1988.5,-177 1988.5,-147 1881.5,-147"/>
<text text-anchor="start" x="1889.5" y="-165" font-family="Helvetica,sans-Serif" font-size="10.00">src/expconfig/setups</text>
<text text-anchor="middle" x="1935" y="-154" font-family="Helvetica,sans-Serif" font-size="10.00">/Setup_2018_09.cc</text>
</a>
</g>
</g>
<!-- Node51&#45;&gt;Node74 -->
<g id="edge29" class="edge"><title>Node51&#45;&gt;Node74</title>
<path fill="none" stroke="midnightblue" d="M1312.31,-226.742C1430.67,-222.28 1670.96,-209.84 1872,-178 1875.11,-177.508 1878.29,-176.943 1881.5,-176.329"/>
<polygon fill="midnightblue" stroke="midnightblue" points="1312.14,-223.246 1302.27,-227.112 1312.39,-230.241 1312.14,-223.246"/>
</g>
<!-- Node54 -->
<g id="node4" class="node"><title>Node54</title>
<g id="a_node4"><a xlink:href="analysis_2physics_2calibration_2_c_b___source_calib_8h.html" target="_top" xlink:title="src/analysis/physics\l/calibration/CB_SourceCalib.h">
<polygon fill="white" stroke="black" points="1017,-74 1017,-104 1165,-104 1165,-74 1017,-74"/>
<text text-anchor="start" x="1025" y="-92" font-family="Helvetica,sans-Serif" font-size="10.00">src/analysis/physics</text>
<text text-anchor="middle" x="1091" y="-81" font-family="Helvetica,sans-Serif" font-size="10.00">/calibration/CB_SourceCalib.h</text>
</a>
</g>
</g>
<!-- Node53&#45;&gt;Node54 -->
<g id="edge3" class="edge"><title>Node53&#45;&gt;Node54</title>
<path fill="none" stroke="midnightblue" d="M1091,-136.898C1091,-126.131 1091,-113.801 1091,-104.486"/>
<polygon fill="midnightblue" stroke="midnightblue" points="1087.5,-136.973 1091,-146.973 1094.5,-136.973 1087.5,-136.973"/>
</g>
<!-- Node56 -->
<g id="node6" class="node"><title>Node56</title>
<g id="a_node6"><a xlink:href="analysis_2physics_2calibration_2_c_b___time_walk_8cc.html" target="_top" xlink:title="src/analysis/physics\l/calibration/CB_TimeWalk.cc">
<polygon fill="white" stroke="black" points="1183,-74 1183,-104 1327,-104 1327,-74 1183,-74"/>
<text text-anchor="start" x="1191" y="-92" font-family="Helvetica,sans-Serif" font-size="10.00">src/analysis/physics</text>
<text text-anchor="middle" x="1255" y="-81" font-family="Helvetica,sans-Serif" font-size="10.00">/calibration/CB_TimeWalk.cc</text>
</a>
</g>
</g>
<!-- Node53&#45;&gt;Node56 -->
<g id="edge5" class="edge"><title>Node53&#45;&gt;Node56</title>
<path fill="none" stroke="midnightblue" d="M1132.87,-142.873C1160.69,-130.829 1196.69,-115.243 1222.39,-104.12"/>
<polygon fill="midnightblue" stroke="midnightblue" points="1131.19,-139.788 1123.4,-146.973 1133.97,-146.212 1131.19,-139.788"/>
</g>
<!-- Node57 -->
<g id="node7" class="node"><title>Node57</title>
<g id="a_node7"><a xlink:href="checkcb_8h.html" target="_top" xlink:title="src/analysis/physics\l/scratch/lheijken/checkcb.h">
<polygon fill="white" stroke="black" points="549,-74 549,-104 685,-104 685,-74 549,-74"/>
<text text-anchor="start" x="557" y="-92" font-family="Helvetica,sans-Serif" font-size="10.00">src/analysis/physics</text>
<text text-anchor="middle" x="617" y="-81" font-family="Helvetica,sans-Serif" font-size="10.00">/scratch/lheijken/checkcb.h</text>
</a>
</g>
</g>
<!-- Node53&#45;&gt;Node57 -->
<g id="edge6" class="edge"><title>Node53&#45;&gt;Node57</title>
<path fill="none" stroke="midnightblue" d="M1017.36,-146.524C1016.23,-146.345 1015.11,-146.17 1014,-146 872.535,-124.299 834.728,-136.056 694,-110 685.172,-108.366 675.864,-106.272 666.887,-104.057"/>
<polygon fill="midnightblue" stroke="midnightblue" points="1017.18,-150.044 1027.62,-148.235 1018.33,-143.139 1017.18,-150.044"/>
</g>
<!-- Node53&#45;&gt;Node59 -->
<g id="edge8" class="edge"><title>Node53&#45;&gt;Node59</title>
<path fill="none" stroke="midnightblue" d="M1017.53,-154.675C982.041,-151.762 938.826,-148.422 900,-146 554.524,-124.447 463.144,-168.643 122,-110 113.74,-108.58 105.063,-106.441 96.8136,-104.083"/>
<polygon fill="midnightblue" stroke="midnightblue" points="1017.55,-158.189 1027.8,-155.524 1018.13,-151.213 1017.55,-158.189"/>
</g>
<!-- Node53&#45;&gt;Node60 -->
<g id="edge9" class="edge"><title>Node53&#45;&gt;Node60</title>
<path fill="none" stroke="midnightblue" d="M1017.56,-153.138C992.358,-150.616 963.964,-147.969 938,-146 640.647,-123.446 562.372,-157.67 268,-110 258.92,-108.53 249.347,-106.368 240.231,-104.003"/>
<polygon fill="midnightblue" stroke="midnightblue" points="1017.48,-156.648 1027.78,-154.171 1018.18,-149.683 1017.48,-156.648"/>
</g>
<!-- Node53&#45;&gt;Node61 -->
<g id="edge10" class="edge"><title>Node53&#45;&gt;Node61</title>
<path fill="none" stroke="midnightblue" d="M1017.83,-150.701C1003.96,-148.963 989.547,-147.302 976,-146 718.912,-121.283 649.988,-156.858 396,-110 388.101,-108.543 379.811,-106.418 371.914,-104.092"/>
<polygon fill="midnightblue" stroke="midnightblue" points="1017.46,-154.182 1027.82,-151.977 1018.34,-147.238 1017.46,-154.182"/>
</g>
<!-- Node53&#45;&gt;Node62 -->
<g id="edge11" class="edge"><title>Node53&#45;&gt;Node62</title>
<path fill="none" stroke="midnightblue" d="M1017.36,-146.468C1016.24,-146.306 1015.11,-146.15 1014,-146 804.623,-117.753 748.106,-146.446 540,-110 531.31,-108.478 522.157,-106.354 513.4,-104.054"/>
<polygon fill="midnightblue" stroke="midnightblue" points="1017.23,-149.989 1027.65,-148.051 1018.3,-143.07 1017.23,-149.989"/>
</g>
<!-- Node53&#45;&gt;Node63 -->
<g id="edge12" class="edge"><title>Node53&#45;&gt;Node63</title>
<path fill="none" stroke="midnightblue" d="M1163.87,-146.685C1223.89,-134.738 1304.1,-118.36 1336,-110 1342.77,-108.225 1349.89,-106.161 1356.81,-104.045"/>
<polygon fill="midnightblue" stroke="midnightblue" points="1163.18,-143.255 1154.05,-148.637 1164.54,-150.121 1163.18,-143.255"/>
</g>
<!-- Node53&#45;&gt;Node64 -->
<g id="edge13" class="edge"><title>Node53&#45;&gt;Node64</title>
<path fill="none" stroke="midnightblue" d="M1164.44,-151.203C1268.19,-137.317 1446.71,-113.228 1461,-110 1468.28,-108.356 1475.92,-106.258 1483.27,-104.042"/>
<polygon fill="midnightblue" stroke="midnightblue" points="1163.78,-147.76 1154.33,-152.556 1164.71,-154.698 1163.78,-147.76"/>
</g>
<!-- Node65 -->
<g id="node15" class="node"><title>Node65</title>
<g id="a_node15"><a xlink:href="_setup__2017_plus___new_tagger___base_8cc.html" target="_top" xlink:title="src/expconfig/setups\l/Setup_2017Plus_NewTagger\l_Base.cc">
<polygon fill="white" stroke="black" points="703,-68.5 703,-109.5 849,-109.5 849,-68.5 703,-68.5"/>
<text text-anchor="start" x="711" y="-97.5" font-family="Helvetica,sans-Serif" font-size="10.00">src/expconfig/setups</text>
<text text-anchor="start" x="711" y="-86.5" font-family="Helvetica,sans-Serif" font-size="10.00">/Setup_2017Plus_NewTagger</text>
<text text-anchor="middle" x="776" y="-75.5" font-family="Helvetica,sans-Serif" font-size="10.00">_Base.cc</text>
</a>
</g>
</g>
<!-- Node53&#45;&gt;Node65 -->
<g id="edge14" class="edge"><title>Node53&#45;&gt;Node65</title>
<path fill="none" stroke="midnightblue" d="M1017.75,-145.433C971.804,-135.553 911.372,-122.348 858,-110 855.145,-109.339 852.235,-108.66 849.297,-107.969"/>
<polygon fill="midnightblue" stroke="midnightblue" points="1017.11,-148.875 1027.62,-147.552 1018.58,-142.031 1017.11,-148.875"/>
</g>
<!-- Node53&#45;&gt;Node66 -->
<g id="edge15" class="edge"><title>Node53&#45;&gt;Node66</title>
<path fill="none" stroke="midnightblue" d="M1164.54,-153.822C1297.42,-140.798 1565.7,-114.221 1586,-110 1593.53,-108.435 1601.43,-106.319 1609,-104.048"/>
<polygon fill="midnightblue" stroke="midnightblue" points="1164.05,-150.354 1154.44,-154.812 1164.73,-157.32 1164.05,-150.354"/>
</g>
<!-- Node53&#45;&gt;Node67 -->
<g id="edge16" class="edge"><title>Node53&#45;&gt;Node67</title>
<path fill="none" stroke="midnightblue" d="M1164.57,-155.165C1325.94,-142.339 1697.74,-112.615 1711,-110 1718.66,-108.49 1726.69,-106.371 1734.36,-104.073"/>
<polygon fill="midnightblue" stroke="midnightblue" points="1163.94,-151.704 1154.25,-155.985 1164.5,-158.682 1163.94,-151.704"/>
</g>
<!-- Node68 -->
<g id="node18" class="node"><title>Node68</title>
<g id="a_node18"><a xlink:href="_setup___c_b_source_calib_8cc.html" target="_top" xlink:title="src/expconfig/setups\l/Setup_CBSourceCalib.cc">
<polygon fill="white" stroke="black" points="867.5,-74 867.5,-104 998.5,-104 998.5,-74 867.5,-74"/>
<text text-anchor="start" x="875.5" y="-92" font-family="Helvetica,sans-Serif" font-size="10.00">src/expconfig/setups</text>
<text text-anchor="middle" x="933" y="-81" font-family="Helvetica,sans-Serif" font-size="10.00">/Setup_CBSourceCalib.cc</text>
</a>
</g>
</g>
<!-- Node53&#45;&gt;Node68 -->
<g id="edge17" class="edge"><title>Node53&#45;&gt;Node68</title>
<path fill="none" stroke="midnightblue" d="M1050.66,-142.873C1023.86,-130.829 989.174,-115.243 964.421,-104.12"/>
<polygon fill="midnightblue" stroke="midnightblue" points="1049.23,-146.066 1059.78,-146.973 1052.1,-139.681 1049.23,-146.066"/>
</g>
<!-- Node53&#45;&gt;Node69 -->
<g id="edge18" class="edge"><title>Node53&#45;&gt;Node69</title>
<path fill="none" stroke="midnightblue" d="M1164.31,-156.171C1348.94,-143.984 1819.57,-112.755 1836,-110 1851.88,-107.337 1869.28,-102.723 1883.22,-98.5976"/>
<polygon fill="midnightblue" stroke="midnightblue" points="1163.9,-152.69 1154.15,-156.841 1164.36,-159.675 1163.9,-152.69"/>
</g>
<!-- Node55 -->
<g id="node5" class="node"><title>Node55</title>
<g id="a_node5"><a xlink:href="analysis_2physics_2calibration_2_c_b___source_calib_8cc.html" target="_top" xlink:title="src/analysis/physics\l/calibration/CB_SourceCalib.cc">
<polygon fill="white" stroke="black" points="1014.5,-1 1014.5,-31 1167.5,-31 1167.5,-1 1014.5,-1"/>
<text text-anchor="start" x="1022.5" y="-19" font-family="Helvetica,sans-Serif" font-size="10.00">src/analysis/physics</text>
<text text-anchor="middle" x="1091" y="-8" font-family="Helvetica,sans-Serif" font-size="10.00">/calibration/CB_SourceCalib.cc</text>
</a>
</g>
</g>
<!-- Node54&#45;&gt;Node55 -->
<g id="edge4" class="edge"><title>Node54&#45;&gt;Node55</title>
<path fill="none" stroke="midnightblue" d="M1091,-63.8976C1091,-53.1314 1091,-40.8005 1091,-31.4856"/>
<polygon fill="midnightblue" stroke="midnightblue" points="1087.5,-63.9727 1091,-73.9727 1094.5,-63.9727 1087.5,-63.9727"/>
</g>
<!-- Node58 -->
<g id="node8" class="node"><title>Node58</title>
<g id="a_node8"><a xlink:href="checkcb_8cc.html" target="_top" xlink:title="src/analysis/physics\l/scratch/lheijken/checkcb.cc">
<polygon fill="white" stroke="black" points="546.5,-1 546.5,-31 687.5,-31 687.5,-1 546.5,-1"/>
<text text-anchor="start" x="554.5" y="-19" font-family="Helvetica,sans-Serif" font-size="10.00">src/analysis/physics</text>
<text text-anchor="middle" x="617" y="-8" font-family="Helvetica,sans-Serif" font-size="10.00">/scratch/lheijken/checkcb.cc</text>
</a>
</g>
</g>
<!-- Node57&#45;&gt;Node58 -->
<g id="edge7" class="edge"><title>Node57&#45;&gt;Node58</title>
<path fill="none" stroke="midnightblue" d="M617,-63.8976C617,-53.1314 617,-40.8005 617,-31.4856"/>
<polygon fill="midnightblue" stroke="midnightblue" points="613.5,-63.9727 617,-73.9727 620.5,-63.9727 613.5,-63.9727"/>
</g>
</g>
</svg>
