<?xml version="1.0" encoding="UTF-8" standalone="no"?>
<!DOCTYPE svg PUBLIC "-//W3C//DTD SVG 1.1//EN"
 "http://www.w3.org/Graphics/SVG/1.1/DTD/svg11.dtd">
<!-- Generated by graphviz version 2.36.0 (20140111.2315)
 -->
<!-- Title: src/calibration/modules/NewTagger_Time.h Pages: 1 -->
<svg width="874pt" height="108pt"
 viewBox="0.00 0.00 874.00 108.00" xmlns="http://www.w3.org/2000/svg" xmlns:xlink="http://www.w3.org/1999/xlink">
<g id="graph0" class="graph" transform="scale(1 1) rotate(0) translate(4 104)">
<title>src/calibration/modules/NewTagger_Time.h</title>
<polygon fill="white" stroke="none" points="-4,4 -4,-104 870,-104 870,4 -4,4"/>
<!-- Node63 -->
<g id="node1" class="node"><title>Node63</title>
<polygon fill="#bfbfbf" stroke="black" points="379.5,-69 379.5,-99 496.5,-99 496.5,-69 379.5,-69"/>
<text text-anchor="start" x="387.5" y="-87" font-family="Helvetica,sans-Serif" font-size="10.00">src/calibration/modules</text>
<text text-anchor="middle" x="438" y="-76" font-family="Helvetica,sans-Serif" font-size="10.00">/NewTagger_Time.h</text>
</g>
<!-- Node64 -->
<g id="node2" class="node"><title>Node64</title>
<g id="a_node2"><a xlink:href="_new_tagger___time_8cc.html" target="_top" xlink:title="src/calibration/modules\l/NewTagger_Time.cc">
<polygon fill="white" stroke="black" points="-0.5,-1 -0.5,-31 116.5,-31 116.5,-1 -0.5,-1"/>
<text text-anchor="start" x="7.5" y="-19" font-family="Helvetica,sans-Serif" font-size="10.00">src/calibration/modules</text>
<text text-anchor="middle" x="58" y="-8" font-family="Helvetica,sans-Serif" font-size="10.00">/NewTagger_Time.cc</text>
</a>
</g>
</g>
<!-- Node63&#45;&gt;Node64 -->
<g id="edge1" class="edge"><title>Node63&#45;&gt;Node64</title>
<path fill="none" stroke="midnightblue" d="M369.36,-73.0019C305.807,-63.464 208.767,-48.1868 125,-32 122.308,-31.4798 119.559,-30.9321 116.785,-30.3659"/>
<polygon fill="midnightblue" stroke="midnightblue" points="368.858,-76.4656 379.265,-74.4827 369.893,-69.5425 368.858,-76.4656"/>
</g>
<!-- Node65 -->
<g id="node3" class="node"><title>Node65</title>
<g id="a_node3"><a xlink:href="_setup__2017__12_8cc.html" target="_top" xlink:title="src/expconfig/setups\l/Setup_2017_12.cc">
<polygon fill="white" stroke="black" points="134.5,-1 134.5,-31 241.5,-31 241.5,-1 134.5,-1"/>
<text text-anchor="start" x="142.5" y="-19" font-family="Helvetica,sans-Serif" font-size="10.00">src/expconfig/setups</text>
<text text-anchor="middle" x="188" y="-8" font-family="Helvetica,sans-Serif" font-size="10.00">/Setup_2017_12.cc</text>
</a>
</g>
</g>
<!-- Node63&#45;&gt;Node65 -->
<g id="edge2" class="edge"><title>Node63&#45;&gt;Node65</title>
<path fill="none" stroke="midnightblue" d="M374.996,-66.367C333.728,-55.4721 280.387,-41.3902 241.243,-31.0561"/>
<polygon fill="midnightblue" stroke="midnightblue" points="374.113,-69.7537 384.675,-68.9223 375.9,-62.9856 374.113,-69.7537"/>
</g>
<!-- Node66 -->
<g id="node4" class="node"><title>Node66</title>
<g id="a_node4"><a xlink:href="_setup__2018__03_8cc.html" target="_top" xlink:title="src/expconfig/setups\l/Setup_2018_03.cc">
<polygon fill="white" stroke="black" points="259.5,-1 259.5,-31 366.5,-31 366.5,-1 259.5,-1"/>
<text text-anchor="start" x="267.5" y="-19" font-family="Helvetica,sans-Serif" font-size="10.00">src/expconfig/setups</text>
<text text-anchor="middle" x="313" y="-8" font-family="Helvetica,sans-Serif" font-size="10.00">/Setup_2018_03.cc</text>
</a>
</g>
</g>
<!-- Node63&#45;&gt;Node66 -->
<g id="edge3" class="edge"><title>Node63&#45;&gt;Node66</title>
<path fill="none" stroke="midnightblue" d="M402.118,-64.0545C382.25,-53.5641 357.968,-40.7434 339.771,-31.1352"/>
<polygon fill="midnightblue" stroke="midnightblue" points="400.707,-67.2672 411.184,-68.8413 403.976,-61.0771 400.707,-67.2672"/>
</g>
<!-- Node67 -->
<g id="node5" class="node"><title>Node67</title>
<g id="a_node5"><a xlink:href="_setup__2018__05_8cc.html" target="_top" xlink:title="src/expconfig/setups\l/Setup_2018_05.cc">
<polygon fill="white" stroke="black" points="384.5,-1 384.5,-31 491.5,-31 491.5,-1 384.5,-1"/>
<text text-anchor="start" x="392.5" y="-19" font-family="Helvetica,sans-Serif" font-size="10.00">src/expconfig/setups</text>
<text text-anchor="middle" x="438" y="-8" font-family="Helvetica,sans-Serif" font-size="10.00">/Setup_2018_05.cc</text>
</a>
</g>
</g>
<!-- Node63&#45;&gt;Node67 -->
<g id="edge4" class="edge"><title>Node63&#45;&gt;Node67</title>
<path fill="none" stroke="midnightblue" d="M438,-58.5322C438,-49.3606 438,-39.2449 438,-31.2931"/>
<polygon fill="midnightblue" stroke="midnightblue" points="434.5,-58.6789 438,-68.679 441.5,-58.679 434.5,-58.6789"/>
</g>
<!-- Node68 -->
<g id="node6" class="node"><title>Node68</title>
<g id="a_node6"><a xlink:href="_setup__2018__09_8cc.html" target="_top" xlink:title="src/expconfig/setups\l/Setup_2018_09.cc">
<polygon fill="white" stroke="black" points="509.5,-1 509.5,-31 616.5,-31 616.5,-1 509.5,-1"/>
<text text-anchor="start" x="517.5" y="-19" font-family="Helvetica,sans-Serif" font-size="10.00">src/expconfig/setups</text>
<text text-anchor="middle" x="563" y="-8" font-family="Helvetica,sans-Serif" font-size="10.00">/Setup_2018_09.cc</text>
</a>
</g>
</g>
<!-- Node63&#45;&gt;Node68 -->
<g id="edge5" class="edge"><title>Node63&#45;&gt;Node68</title>
<path fill="none" stroke="midnightblue" d="M473.882,-64.0545C493.75,-53.5641 518.032,-40.7434 536.229,-31.1352"/>
<polygon fill="midnightblue" stroke="midnightblue" points="472.024,-61.0771 464.816,-68.8413 475.293,-67.2672 472.024,-61.0771"/>
</g>
<!-- Node69 -->
<g id="node7" class="node"><title>Node69</title>
<g id="a_node7"><a xlink:href="_setup__2018__11_8cc.html" target="_top" xlink:title="src/expconfig/setups\l/Setup_2018_11.cc">
<polygon fill="white" stroke="black" points="634.5,-1 634.5,-31 741.5,-31 741.5,-1 634.5,-1"/>
<text text-anchor="start" x="642.5" y="-19" font-family="Helvetica,sans-Serif" font-size="10.00">src/expconfig/setups</text>
<text text-anchor="middle" x="688" y="-8" font-family="Helvetica,sans-Serif" font-size="10.00">/Setup_2018_11.cc</text>
</a>
</g>
</g>
<!-- Node63&#45;&gt;Node69 -->
<g id="edge6" class="edge"><title>Node63&#45;&gt;Node69</title>
<path fill="none" stroke="midnightblue" d="M501.004,-66.367C542.272,-55.4721 595.613,-41.3902 634.757,-31.0561"/>
<polygon fill="midnightblue" stroke="midnightblue" points="500.1,-62.9856 491.325,-68.9223 501.887,-69.7537 500.1,-62.9856"/>
</g>
<!-- Node70 -->
<g id="node8" class="node"><title>Node70</title>
<g id="a_node8"><a xlink:href="_setup__2019__01_8cc.html" target="_top" xlink:title="src/expconfig/setups\l/Setup_2019_01.cc">
<polygon fill="white" stroke="black" points="759.5,-1 759.5,-31 866.5,-31 866.5,-1 759.5,-1"/>
<text text-anchor="start" x="767.5" y="-19" font-family="Helvetica,sans-Serif" font-size="10.00">src/expconfig/setups</text>
<text text-anchor="middle" x="813" y="-8" font-family="Helvetica,sans-Serif" font-size="10.00">/Setup_2019_01.cc</text>
</a>
</g>
</g>
<!-- Node63&#45;&gt;Node70 -->
<g id="edge7" class="edge"><title>Node63&#45;&gt;Node70</title>
<path fill="none" stroke="midnightblue" d="M506.863,-73.1935C570.254,-63.823 666.781,-48.6863 750,-32 753.087,-31.3811 756.252,-30.7181 759.441,-30.0281"/>
<polygon fill="midnightblue" stroke="midnightblue" points="505.976,-69.7862 496.592,-74.7042 506.995,-76.7117 505.976,-69.7862"/>
</g>
</g>
</svg>
