<?xml version="1.0" encoding="UTF-8" standalone="no"?>
<!DOCTYPE svg PUBLIC "-//W3C//DTD SVG 1.1//EN"
 "http://www.w3.org/Graphics/SVG/1.1/DTD/svg11.dtd">
<!-- Generated by graphviz version 2.36.0 (20140111.2315)
 -->
<!-- Title: src/expconfig/detectors/PID.h Pages: 1 -->
<svg width="3491pt" height="196pt"
 viewBox="0.00 0.00 3491.00 196.00" xmlns="http://www.w3.org/2000/svg" xmlns:xlink="http://www.w3.org/1999/xlink">
<g id="graph0" class="graph" transform="scale(1 1) rotate(0) translate(4 192)">
<title>src/expconfig/detectors/PID.h</title>
<polygon fill="white" stroke="none" points="-4,4 -4,-192 3487,-192 3487,4 -4,4"/>
<!-- Node56 -->
<g id="node1" class="node"><title>Node56</title>
<polygon fill="#bfbfbf" stroke="black" points="1623.5,-157 1623.5,-187 1742.5,-187 1742.5,-157 1623.5,-157"/>
<text text-anchor="start" x="1631.5" y="-175" font-family="Helvetica,sans-Serif" font-size="10.00">src/expconfig/detectors</text>
<text text-anchor="middle" x="1683" y="-164" font-family="Helvetica,sans-Serif" font-size="10.00">/PID.h</text>
</g>
<!-- Node57 -->
<g id="node2" class="node"><title>Node57</title>
<g id="a_node2"><a xlink:href="checkcb_8h.html" target="_top" xlink:title="src/analysis/physics\l/scratch/lheijken/checkcb.h">
<polygon fill="white" stroke="black" points="2,-84 2,-114 138,-114 138,-84 2,-84"/>
<text text-anchor="start" x="10" y="-102" font-family="Helvetica,sans-Serif" font-size="10.00">src/analysis/physics</text>
<text text-anchor="middle" x="70" y="-91" font-family="Helvetica,sans-Serif" font-size="10.00">/scratch/lheijken/checkcb.h</text>
</a>
</g>
</g>
<!-- Node56&#45;&gt;Node57 -->
<g id="edge1" class="edge"><title>Node56&#45;&gt;Node57</title>
<path fill="none" stroke="midnightblue" d="M1613.08,-170.728C1352.18,-169.393 435.759,-161.77 147,-120 137.295,-118.596 127.05,-116.433 117.312,-114.039"/>
<polygon fill="midnightblue" stroke="midnightblue" points="1613.16,-174.228 1623.18,-170.778 1613.2,-167.228 1613.16,-174.228"/>
</g>
<!-- Node59 -->
<g id="node4" class="node"><title>Node59</title>
<g id="a_node4"><a xlink:href="_m_c_fake_reconstructed_8cc.html" target="_top" xlink:title="src/analysis/utils\l/MCFakeReconstructed.cc">
<polygon fill="white" stroke="black" points="156,-84 156,-114 290,-114 290,-84 156,-84"/>
<text text-anchor="start" x="164" y="-102" font-family="Helvetica,sans-Serif" font-size="10.00">src/analysis/utils</text>
<text text-anchor="middle" x="223" y="-91" font-family="Helvetica,sans-Serif" font-size="10.00">/MCFakeReconstructed.cc</text>
</a>
</g>
</g>
<!-- Node56&#45;&gt;Node59 -->
<g id="edge3" class="edge"><title>Node56&#45;&gt;Node59</title>
<path fill="none" stroke="midnightblue" d="M1613.18,-170.461C1369.35,-168.26 556.632,-158.168 299,-120 289.418,-118.58 279.305,-116.41 269.692,-114.014"/>
<polygon fill="midnightblue" stroke="midnightblue" points="1613.3,-173.962 1623.33,-170.551 1613.36,-166.962 1613.3,-173.962"/>
</g>
<!-- Node60 -->
<g id="node5" class="node"><title>Node60</title>
<g id="a_node5"><a xlink:href="calibration_2modules_2_p_i_d___energy_8cc.html" target="_top" xlink:title="src/calibration/modules\l/PID_Energy.cc">
<polygon fill="white" stroke="black" points="308.5,-84 308.5,-114 425.5,-114 425.5,-84 308.5,-84"/>
<text text-anchor="start" x="316.5" y="-102" font-family="Helvetica,sans-Serif" font-size="10.00">src/calibration/modules</text>
<text text-anchor="middle" x="367" y="-91" font-family="Helvetica,sans-Serif" font-size="10.00">/PID_Energy.cc</text>
</a>
</g>
</g>
<!-- Node56&#45;&gt;Node60 -->
<g id="edge4" class="edge"><title>Node56&#45;&gt;Node60</title>
<path fill="none" stroke="midnightblue" d="M1613.13,-170.435C1385,-168.229 663.527,-158.325 434,-120 425.499,-118.581 416.56,-116.41 408.079,-114.014"/>
<polygon fill="midnightblue" stroke="midnightblue" points="1613.26,-173.936 1623.29,-170.531 1613.32,-166.936 1613.26,-173.936"/>
</g>
<!-- Node61 -->
<g id="node6" class="node"><title>Node61</title>
<g id="a_node6"><a xlink:href="calibration_2modules_2_p_i_d___phi_angle_8cc.html" target="_top" xlink:title="src/calibration/modules\l/PID_PhiAngle.cc">
<polygon fill="white" stroke="black" points="443.5,-84 443.5,-114 560.5,-114 560.5,-84 443.5,-84"/>
<text text-anchor="start" x="451.5" y="-102" font-family="Helvetica,sans-Serif" font-size="10.00">src/calibration/modules</text>
<text text-anchor="middle" x="502" y="-91" font-family="Helvetica,sans-Serif" font-size="10.00">/PID_PhiAngle.cc</text>
</a>
</g>
</g>
<!-- Node56&#45;&gt;Node61 -->
<g id="edge5" class="edge"><title>Node56&#45;&gt;Node61</title>
<path fill="none" stroke="midnightblue" d="M1613.23,-170.033C1401.96,-166.754 771.244,-154.283 569,-120 560.622,-118.58 551.816,-116.441 543.443,-114.083"/>
<polygon fill="midnightblue" stroke="midnightblue" points="1613.22,-173.533 1623.27,-170.187 1613.33,-166.534 1613.22,-173.533"/>
</g>
<!-- Node62 -->
<g id="node7" class="node"><title>Node62</title>
<g id="a_node7"><a xlink:href="_p_i_d__2004__elements_8h.html" target="_top" xlink:title="src/expconfig/detectors\l/detail/PID_2004_elements.h">
<polygon fill="white" stroke="black" points="578.5,-84 578.5,-114 721.5,-114 721.5,-84 578.5,-84"/>
<text text-anchor="start" x="586.5" y="-102" font-family="Helvetica,sans-Serif" font-size="10.00">src/expconfig/detectors</text>
<text text-anchor="middle" x="650" y="-91" font-family="Helvetica,sans-Serif" font-size="10.00">/detail/PID_2004_elements.h</text>
</a>
</g>
</g>
<!-- Node56&#45;&gt;Node62 -->
<g id="edge6" class="edge"><title>Node56&#45;&gt;Node62</title>
<path fill="none" stroke="midnightblue" d="M1613.36,-171.397C1456.09,-171.388 1061.8,-166.294 736,-120 725.528,-118.512 714.454,-116.373 703.862,-114.043"/>
<polygon fill="midnightblue" stroke="midnightblue" points="1613.37,-174.897 1623.37,-171.39 1613.37,-167.897 1613.37,-174.897"/>
</g>
<!-- Node63 -->
<g id="node8" class="node"><title>Node63</title>
<g id="a_node8"><a xlink:href="_p_i_d_8cc.html" target="_top" xlink:title="src/expconfig/detectors\l/PID.cc">
<polygon fill="white" stroke="black" points="871.5,-6 871.5,-36 990.5,-36 990.5,-6 871.5,-6"/>
<text text-anchor="start" x="879.5" y="-24" font-family="Helvetica,sans-Serif" font-size="10.00">src/expconfig/detectors</text>
<text text-anchor="middle" x="931" y="-13" font-family="Helvetica,sans-Serif" font-size="10.00">/PID.cc</text>
</a>
</g>
</g>
<!-- Node56&#45;&gt;Node63 -->
<g id="edge18" class="edge"><title>Node56&#45;&gt;Node63</title>
<path fill="none" stroke="midnightblue" d="M1613.25,-169.698C1404.61,-165.465 797.912,-150.57 769,-120 756.174,-106.438 758.169,-93.2034 769,-78 792.136,-45.5226 835.438,-31.7017 871.455,-25.9047"/>
<polygon fill="midnightblue" stroke="midnightblue" points="1613.41,-173.202 1623.47,-169.903 1613.55,-166.203 1613.41,-173.202"/>
</g>
<!-- Node64 -->
<g id="node9" class="node"><title>Node64</title>
<g id="a_node9"><a xlink:href="_p_i_d__2007__elements_8h.html" target="_top" xlink:title="src/expconfig/detectors\l/detail/PID_2007_elements.h">
<polygon fill="white" stroke="black" points="778.5,-84 778.5,-114 921.5,-114 921.5,-84 778.5,-84"/>
<text text-anchor="start" x="786.5" y="-102" font-family="Helvetica,sans-Serif" font-size="10.00">src/expconfig/detectors</text>
<text text-anchor="middle" x="850" y="-91" font-family="Helvetica,sans-Serif" font-size="10.00">/detail/PID_2007_elements.h</text>
</a>
</g>
</g>
<!-- Node56&#45;&gt;Node64 -->
<g id="edge8" class="edge"><title>Node56&#45;&gt;Node64</title>
<path fill="none" stroke="midnightblue" d="M1613.06,-170.316C1479.63,-168.115 1179.86,-158.858 931,-120 921.268,-118.48 910.991,-116.357 901.146,-114.058"/>
<polygon fill="midnightblue" stroke="midnightblue" points="1613.09,-173.816 1623.14,-170.474 1613.2,-166.817 1613.09,-173.816"/>
</g>
<!-- Node65 -->
<g id="node10" class="node"><title>Node65</title>
<g id="a_node10"><a xlink:href="_p_i_d__2009__05__elements_8h.html" target="_top" xlink:title="src/expconfig/detectors\l/detail/PID_2009_05_elements.h">
<polygon fill="white" stroke="black" points="940,-84 940,-114 1098,-114 1098,-84 940,-84"/>
<text text-anchor="start" x="948" y="-102" font-family="Helvetica,sans-Serif" font-size="10.00">src/expconfig/detectors</text>
<text text-anchor="middle" x="1019" y="-91" font-family="Helvetica,sans-Serif" font-size="10.00">/detail/PID_2009_05_elements.h</text>
</a>
</g>
</g>
<!-- Node56&#45;&gt;Node65 -->
<g id="edge10" class="edge"><title>Node56&#45;&gt;Node65</title>
<path fill="none" stroke="midnightblue" d="M1613.21,-167.869C1504.49,-162.306 1288.34,-148.501 1107,-120 1096.78,-118.395 1085.99,-116.287 1075.59,-114.044"/>
<polygon fill="midnightblue" stroke="midnightblue" points="1613.23,-171.374 1623.39,-168.382 1613.58,-164.383 1613.23,-171.374"/>
</g>
<!-- Node66 -->
<g id="node11" class="node"><title>Node66</title>
<g id="a_node11"><a xlink:href="_p_i_d__2009__06__elements_8h.html" target="_top" xlink:title="src/expconfig/detectors\l/detail/PID_2009_06_elements.h">
<polygon fill="white" stroke="black" points="1116,-84 1116,-114 1274,-114 1274,-84 1116,-84"/>
<text text-anchor="start" x="1124" y="-102" font-family="Helvetica,sans-Serif" font-size="10.00">src/expconfig/detectors</text>
<text text-anchor="middle" x="1195" y="-91" font-family="Helvetica,sans-Serif" font-size="10.00">/detail/PID_2009_06_elements.h</text>
</a>
</g>
</g>
<!-- Node56&#45;&gt;Node66 -->
<g id="edge12" class="edge"><title>Node56&#45;&gt;Node66</title>
<path fill="none" stroke="midnightblue" d="M1613.47,-164.196C1533.43,-155.887 1398.19,-140.385 1283,-120 1273.28,-118.28 1263.02,-116.195 1253.06,-114.03"/>
<polygon fill="midnightblue" stroke="midnightblue" points="1613.12,-167.679 1623.43,-165.222 1613.84,-160.716 1613.12,-167.679"/>
</g>
<!-- Node67 -->
<g id="node12" class="node"><title>Node67</title>
<g id="a_node12"><a xlink:href="_p_i_d__2009__07__elements_8h.html" target="_top" xlink:title="src/expconfig/detectors\l/detail/PID_2009_07_elements.h">
<polygon fill="white" stroke="black" points="1292,-84 1292,-114 1450,-114 1450,-84 1292,-84"/>
<text text-anchor="start" x="1300" y="-102" font-family="Helvetica,sans-Serif" font-size="10.00">src/expconfig/detectors</text>
<text text-anchor="middle" x="1371" y="-91" font-family="Helvetica,sans-Serif" font-size="10.00">/detail/PID_2009_07_elements.h</text>
</a>
</g>
</g>
<!-- Node56&#45;&gt;Node67 -->
<g id="edge14" class="edge"><title>Node56&#45;&gt;Node67</title>
<path fill="none" stroke="midnightblue" d="M1613.35,-155.149C1559.19,-142.824 1484.75,-125.886 1432.72,-114.045"/>
<polygon fill="midnightblue" stroke="midnightblue" points="1612.69,-158.588 1623.21,-157.394 1614.24,-151.763 1612.69,-158.588"/>
</g>
<!-- Node68 -->
<g id="node13" class="node"><title>Node68</title>
<g id="a_node13"><a xlink:href="_p_i_d__2014__elements_8h.html" target="_top" xlink:title="src/expconfig/detectors\l/detail/PID_2014_elements.h">
<polygon fill="white" stroke="black" points="1468.5,-84 1468.5,-114 1611.5,-114 1611.5,-84 1468.5,-84"/>
<text text-anchor="start" x="1476.5" y="-102" font-family="Helvetica,sans-Serif" font-size="10.00">src/expconfig/detectors</text>
<text text-anchor="middle" x="1540" y="-91" font-family="Helvetica,sans-Serif" font-size="10.00">/detail/PID_2014_elements.h</text>
</a>
</g>
</g>
<!-- Node56&#45;&gt;Node68 -->
<g id="edge16" class="edge"><title>Node56&#45;&gt;Node68</title>
<path fill="none" stroke="midnightblue" d="M1645.57,-152.414C1621.53,-140.478 1590.78,-125.215 1568.68,-114.241"/>
<polygon fill="midnightblue" stroke="midnightblue" points="1644.23,-155.66 1654.75,-156.973 1647.35,-149.391 1644.23,-155.66"/>
</g>
<!-- Node69 -->
<g id="node14" class="node"><title>Node69</title>
<g id="a_node14"><a xlink:href="_setup__2007___base_8h.html" target="_top" xlink:title="src/expconfig/setups\l/Setup_2007_Base.h">
<polygon fill="white" stroke="black" points="1629.5,-84 1629.5,-114 1736.5,-114 1736.5,-84 1629.5,-84"/>
<text text-anchor="start" x="1637.5" y="-102" font-family="Helvetica,sans-Serif" font-size="10.00">src/expconfig/setups</text>
<text text-anchor="middle" x="1683" y="-91" font-family="Helvetica,sans-Serif" font-size="10.00">/Setup_2007_Base.h</text>
</a>
</g>
</g>
<!-- Node56&#45;&gt;Node69 -->
<g id="edge19" class="edge"><title>Node56&#45;&gt;Node69</title>
<path fill="none" stroke="midnightblue" d="M1683,-146.898C1683,-136.131 1683,-123.801 1683,-114.486"/>
<polygon fill="midnightblue" stroke="midnightblue" points="1679.5,-146.973 1683,-156.973 1686.5,-146.973 1679.5,-146.973"/>
</g>
<!-- Node73 -->
<g id="node18" class="node"><title>Node73</title>
<g id="a_node18"><a xlink:href="_setup__2010__03___base_8h.html" target="_top" xlink:title="src/expconfig/setups\l/Setup_2010_03_Base.h">
<polygon fill="white" stroke="black" points="1754.5,-84 1754.5,-114 1877.5,-114 1877.5,-84 1754.5,-84"/>
<text text-anchor="start" x="1762.5" y="-102" font-family="Helvetica,sans-Serif" font-size="10.00">src/expconfig/setups</text>
<text text-anchor="middle" x="1816" y="-91" font-family="Helvetica,sans-Serif" font-size="10.00">/Setup_2010_03_Base.h</text>
</a>
</g>
</g>
<!-- Node56&#45;&gt;Node73 -->
<g id="edge23" class="edge"><title>Node56&#45;&gt;Node73</title>
<path fill="none" stroke="midnightblue" d="M1718.11,-152.255C1740.43,-140.343 1768.86,-125.166 1789.32,-114.241"/>
<polygon fill="midnightblue" stroke="midnightblue" points="1716.45,-149.176 1709.28,-156.973 1719.75,-155.351 1716.45,-149.176"/>
</g>
<!-- Node76 -->
<g id="node21" class="node"><title>Node76</title>
<g id="a_node21"><a xlink:href="_setup__2012__12___compton_8cc.html" target="_top" xlink:title="src/expconfig/setups\l/Setup_2012_12_Compton.cc">
<polygon fill="white" stroke="black" points="1896,-84 1896,-114 2042,-114 2042,-84 1896,-84"/>
<text text-anchor="start" x="1904" y="-102" font-family="Helvetica,sans-Serif" font-size="10.00">src/expconfig/setups</text>
<text text-anchor="middle" x="1969" y="-91" font-family="Helvetica,sans-Serif" font-size="10.00">/Setup_2012_12_Compton.cc</text>
</a>
</g>
</g>
<!-- Node56&#45;&gt;Node76 -->
<g id="edge26" class="edge"><title>Node56&#45;&gt;Node76</title>
<path fill="none" stroke="midnightblue" d="M1749.44,-154.507C1798.74,-142.267 1865.26,-125.753 1912.12,-114.12"/>
<polygon fill="midnightblue" stroke="midnightblue" points="1748.37,-151.166 1739.5,-156.973 1750.05,-157.96 1748.37,-151.166"/>
</g>
<!-- Node77 -->
<g id="node22" class="node"><title>Node77</title>
<g id="a_node22"><a xlink:href="_setup__2014___e_p_t_8h.html" target="_top" xlink:title="src/expconfig/setups\l/Setup_2014_EPT.h">
<polygon fill="white" stroke="black" points="2060.5,-84 2060.5,-114 2167.5,-114 2167.5,-84 2060.5,-84"/>
<text text-anchor="start" x="2068.5" y="-102" font-family="Helvetica,sans-Serif" font-size="10.00">src/expconfig/setups</text>
<text text-anchor="middle" x="2114" y="-91" font-family="Helvetica,sans-Serif" font-size="10.00">/Setup_2014_EPT.h</text>
</a>
</g>
</g>
<!-- Node56&#45;&gt;Node77 -->
<g id="edge27" class="edge"><title>Node56&#45;&gt;Node77</title>
<path fill="none" stroke="midnightblue" d="M1752.7,-164.897C1827.19,-157.55 1948.41,-143.217 2051,-120 2058.28,-118.354 2065.92,-116.254 2073.27,-114.037"/>
<polygon fill="midnightblue" stroke="midnightblue" points="1752.13,-161.436 1742.51,-165.887 1752.8,-168.403 1752.13,-161.436"/>
</g>
<!-- Node82 -->
<g id="node27" class="node"><title>Node82</title>
<g id="a_node27"><a xlink:href="_setup__2015__01___pion_8cc.html" target="_top" xlink:title="src/expconfig/setups\l/Setup_2015_01_Pion.cc">
<polygon fill="white" stroke="black" points="2185.5,-84 2185.5,-114 2310.5,-114 2310.5,-84 2185.5,-84"/>
<text text-anchor="start" x="2193.5" y="-102" font-family="Helvetica,sans-Serif" font-size="10.00">src/expconfig/setups</text>
<text text-anchor="middle" x="2248" y="-91" font-family="Helvetica,sans-Serif" font-size="10.00">/Setup_2015_01_Pion.cc</text>
</a>
</g>
</g>
<!-- Node56&#45;&gt;Node82 -->
<g id="edge32" class="edge"><title>Node56&#45;&gt;Node82</title>
<path fill="none" stroke="midnightblue" d="M1752.82,-167.476C1848.84,-161.791 2026.72,-148.248 2176,-120 2184.41,-118.408 2193.27,-116.308 2201.79,-114.067"/>
<polygon fill="midnightblue" stroke="midnightblue" points="1752.44,-163.992 1742.66,-168.066 1752.84,-170.98 1752.44,-163.992"/>
</g>
<!-- Node83 -->
<g id="node28" class="node"><title>Node83</title>
<g id="a_node28"><a xlink:href="_setup__2017__03_8h.html" target="_top" xlink:title="src/expconfig/setups\l/Setup_2017_03.h">
<polygon fill="white" stroke="black" points="2330.5,-84 2330.5,-114 2437.5,-114 2437.5,-84 2330.5,-84"/>
<text text-anchor="start" x="2338.5" y="-102" font-family="Helvetica,sans-Serif" font-size="10.00">src/expconfig/setups</text>
<text text-anchor="middle" x="2384" y="-91" font-family="Helvetica,sans-Serif" font-size="10.00">/Setup_2017_03.h</text>
</a>
</g>
</g>
<!-- Node56&#45;&gt;Node83 -->
<g id="edge33" class="edge"><title>Node56&#45;&gt;Node83</title>
<path fill="none" stroke="midnightblue" d="M1753.09,-170.362C1870.98,-168.182 2115.97,-158.89 2319,-120 2326.89,-118.49 2335.17,-116.37 2343.08,-114.073"/>
<polygon fill="midnightblue" stroke="midnightblue" points="1752.7,-166.868 1742.77,-170.541 1752.83,-173.867 1752.7,-166.868"/>
</g>
<!-- Node85 -->
<g id="node30" class="node"><title>Node85</title>
<g id="a_node30"><a xlink:href="_setup__2017__05_8h.html" target="_top" xlink:title="src/expconfig/setups\l/Setup_2017_05.h">
<polygon fill="white" stroke="black" points="2459.5,-84 2459.5,-114 2566.5,-114 2566.5,-84 2459.5,-84"/>
<text text-anchor="start" x="2467.5" y="-102" font-family="Helvetica,sans-Serif" font-size="10.00">src/expconfig/setups</text>
<text text-anchor="middle" x="2513" y="-91" font-family="Helvetica,sans-Serif" font-size="10.00">/Setup_2017_05.h</text>
</a>
</g>
</g>
<!-- Node56&#45;&gt;Node85 -->
<g id="edge35" class="edge"><title>Node56&#45;&gt;Node85</title>
<path fill="none" stroke="midnightblue" d="M1753.13,-171.516C1888.31,-171.367 2193.87,-165.466 2446,-120 2454.24,-118.514 2462.91,-116.375 2471.17,-114.045"/>
<polygon fill="midnightblue" stroke="midnightblue" points="1752.91,-168.016 1742.91,-171.516 1752.91,-175.016 1752.91,-168.016"/>
</g>
<!-- Node87 -->
<g id="node32" class="node"><title>Node87</title>
<g id="a_node32"><a xlink:href="_setup__2017_plus___new_tagger___base_8h.html" target="_top" xlink:title="src/expconfig/setups\l/Setup_2017Plus_NewTagger\l_Base.h">
<polygon fill="white" stroke="black" points="2649,-78.5 2649,-119.5 2795,-119.5 2795,-78.5 2649,-78.5"/>
<text text-anchor="start" x="2657" y="-107.5" font-family="Helvetica,sans-Serif" font-size="10.00">src/expconfig/setups</text>
<text text-anchor="start" x="2657" y="-96.5" font-family="Helvetica,sans-Serif" font-size="10.00">/Setup_2017Plus_NewTagger</text>
<text text-anchor="middle" x="2722" y="-85.5" font-family="Helvetica,sans-Serif" font-size="10.00">_Base.h</text>
</a>
</g>
</g>
<!-- Node56&#45;&gt;Node87 -->
<g id="edge37" class="edge"><title>Node56&#45;&gt;Node87</title>
<path fill="none" stroke="midnightblue" d="M1752.65,-168.87C1903.06,-163.864 2269.37,-149.483 2575,-120 2599.1,-117.675 2625.32,-114.361 2648.85,-111.098"/>
<polygon fill="midnightblue" stroke="midnightblue" points="1752.5,-165.373 1742.62,-169.201 1752.73,-172.369 1752.5,-165.373"/>
</g>
<!-- Node93 -->
<g id="node38" class="node"><title>Node93</title>
<g id="a_node38"><a xlink:href="_setup__2018__11_8h.html" target="_top" xlink:title="src/expconfig/setups\l/Setup_2018_11.h">
<polygon fill="white" stroke="black" points="2813.5,-84 2813.5,-114 2920.5,-114 2920.5,-84 2813.5,-84"/>
<text text-anchor="start" x="2821.5" y="-102" font-family="Helvetica,sans-Serif" font-size="10.00">src/expconfig/setups</text>
<text text-anchor="middle" x="2867" y="-91" font-family="Helvetica,sans-Serif" font-size="10.00">/Setup_2018_11.h</text>
</a>
</g>
</g>
<!-- Node56&#45;&gt;Node93 -->
<g id="edge43" class="edge"><title>Node56&#45;&gt;Node93</title>
<path fill="none" stroke="midnightblue" d="M1752.86,-170.211C1965.18,-167.438 2600.67,-156.25 2804,-120 2811.91,-118.59 2820.2,-116.456 2828.08,-114.099"/>
<polygon fill="midnightblue" stroke="midnightblue" points="1752.73,-166.713 1742.78,-170.341 1752.82,-173.712 1752.73,-166.713"/>
</g>
<!-- Node95 -->
<g id="node40" class="node"><title>Node95</title>
<g id="a_node40"><a xlink:href="_setup__2019__01_8h.html" target="_top" xlink:title="src/expconfig/setups\l/Setup_2019_01.h">
<polygon fill="white" stroke="black" points="2938.5,-84 2938.5,-114 3045.5,-114 3045.5,-84 2938.5,-84"/>
<text text-anchor="start" x="2946.5" y="-102" font-family="Helvetica,sans-Serif" font-size="10.00">src/expconfig/setups</text>
<text text-anchor="middle" x="2992" y="-91" font-family="Helvetica,sans-Serif" font-size="10.00">/Setup_2019_01.h</text>
</a>
</g>
</g>
<!-- Node56&#45;&gt;Node95 -->
<g id="edge45" class="edge"><title>Node56&#45;&gt;Node95</title>
<path fill="none" stroke="midnightblue" d="M1752.73,-170.585C1980.4,-168.846 2700.36,-160.225 2929,-120 2937.02,-118.588 2945.44,-116.421 2953.42,-114.026"/>
<polygon fill="midnightblue" stroke="midnightblue" points="1752.56,-167.086 1742.59,-170.66 1752.61,-174.085 1752.56,-167.086"/>
</g>
<!-- Node97 -->
<g id="node42" class="node"><title>Node97</title>
<g id="a_node42"><a xlink:href="_candidate_builder_8cc.html" target="_top" xlink:title="src/reconstruct/Candidate\lBuilder.cc">
<polygon fill="white" stroke="black" points="3063.5,-84 3063.5,-114 3192.5,-114 3192.5,-84 3063.5,-84"/>
<text text-anchor="start" x="3071.5" y="-102" font-family="Helvetica,sans-Serif" font-size="10.00">src/reconstruct/Candidate</text>
<text text-anchor="middle" x="3128" y="-91" font-family="Helvetica,sans-Serif" font-size="10.00">Builder.cc</text>
</a>
</g>
</g>
<!-- Node56&#45;&gt;Node97 -->
<g id="edge47" class="edge"><title>Node56&#45;&gt;Node97</title>
<path fill="none" stroke="midnightblue" d="M1752.59,-170.495C1994.66,-168.413 2799.06,-158.679 3054,-120 3063.34,-118.583 3073.19,-116.413 3082.55,-114.018"/>
<polygon fill="midnightblue" stroke="midnightblue" points="1752.48,-166.996 1742.51,-170.58 1752.54,-173.995 1752.48,-166.996"/>
</g>
<!-- Node98 -->
<g id="node43" class="node"><title>Node98</title>
<g id="a_node43"><a xlink:href="expconfig__helpers_8cc.html" target="_top" xlink:title="test/expconfig_helpers.cc">
<polygon fill="white" stroke="black" points="3211,-89.5 3211,-108.5 3339,-108.5 3339,-89.5 3211,-89.5"/>
<text text-anchor="middle" x="3275" y="-96.5" font-family="Helvetica,sans-Serif" font-size="10.00">test/expconfig_helpers.cc</text>
</a>
</g>
</g>
<!-- Node56&#45;&gt;Node98 -->
<g id="edge48" class="edge"><title>Node56&#45;&gt;Node98</title>
<path fill="none" stroke="midnightblue" d="M1752.55,-170.788C2011.03,-169.668 2916,-162.717 3201,-120 3217.32,-117.554 3235.19,-112.785 3249.28,-108.518"/>
<polygon fill="midnightblue" stroke="midnightblue" points="1752.53,-167.288 1742.54,-170.829 1752.56,-174.288 1752.53,-167.288"/>
</g>
<!-- Node58 -->
<g id="node3" class="node"><title>Node58</title>
<g id="a_node3"><a xlink:href="checkcb_8cc.html" target="_top" xlink:title="src/analysis/physics\l/scratch/lheijken/checkcb.cc">
<polygon fill="white" stroke="black" points="-0.5,-6 -0.5,-36 140.5,-36 140.5,-6 -0.5,-6"/>
<text text-anchor="start" x="7.5" y="-24" font-family="Helvetica,sans-Serif" font-size="10.00">src/analysis/physics</text>
<text text-anchor="middle" x="70" y="-13" font-family="Helvetica,sans-Serif" font-size="10.00">/scratch/lheijken/checkcb.cc</text>
</a>
</g>
</g>
<!-- Node57&#45;&gt;Node58 -->
<g id="edge2" class="edge"><title>Node57&#45;&gt;Node58</title>
<path fill="none" stroke="midnightblue" d="M70,-73.5898C70,-61.2565 70,-46.7237 70,-36.2309"/>
<polygon fill="midnightblue" stroke="midnightblue" points="66.5001,-73.7049 70,-83.705 73.5001,-73.705 66.5001,-73.7049"/>
</g>
<!-- Node62&#45;&gt;Node63 -->
<g id="edge7" class="edge"><title>Node62&#45;&gt;Node63</title>
<path fill="none" stroke="midnightblue" d="M711.612,-81.3363C761.718,-67.7846 831.628,-48.8765 878.96,-36.0749"/>
<polygon fill="midnightblue" stroke="midnightblue" points="710.607,-77.9824 701.867,-83.9719 712.434,-84.7396 710.607,-77.9824"/>
</g>
<!-- Node64&#45;&gt;Node63 -->
<g id="edge9" class="edge"><title>Node64&#45;&gt;Node63</title>
<path fill="none" stroke="midnightblue" d="M872.879,-76.5332C886.629,-63.6316 903.746,-47.5716 915.833,-36.2309"/>
<polygon fill="midnightblue" stroke="midnightblue" points="870.133,-74.3101 865.235,-83.705 874.923,-79.415 870.133,-74.3101"/>
</g>
<!-- Node65&#45;&gt;Node63 -->
<g id="edge11" class="edge"><title>Node65&#45;&gt;Node63</title>
<path fill="none" stroke="midnightblue" d="M994.562,-76.8941C979.553,-63.9322 960.732,-47.6775 947.478,-36.2309"/>
<polygon fill="midnightblue" stroke="midnightblue" points="992.592,-79.8176 1002.45,-83.705 997.167,-74.5199 992.592,-79.8176"/>
</g>
<!-- Node66&#45;&gt;Node63 -->
<g id="edge13" class="edge"><title>Node66&#45;&gt;Node63</title>
<path fill="none" stroke="midnightblue" d="M1135.34,-81.083C1096.48,-70.0348 1044.71,-55.2519 999,-42 992.381,-40.0812 985.405,-38.0448 978.543,-36.0342"/>
<polygon fill="midnightblue" stroke="midnightblue" points="1134.85,-84.5842 1145.43,-83.9516 1136.77,-77.8509 1134.85,-84.5842"/>
</g>
<!-- Node67&#45;&gt;Node63 -->
<g id="edge15" class="edge"><title>Node67&#45;&gt;Node63</title>
<path fill="none" stroke="midnightblue" d="M1302.29,-81.882C1295.45,-80.4817 1288.6,-79.1591 1282,-78 1157.12,-56.0759 1123.1,-67.9707 999,-42 991.171,-40.3616 982.934,-38.2659 975,-36.0506"/>
<polygon fill="midnightblue" stroke="midnightblue" points="1301.77,-85.3477 1312.27,-83.9792 1303.21,-78.4974 1301.77,-85.3477"/>
</g>
<!-- Node68&#45;&gt;Node63 -->
<g id="edge17" class="edge"><title>Node68&#45;&gt;Node63</title>
<path fill="none" stroke="midnightblue" d="M1477.99,-81.7626C1471.27,-80.3372 1464.51,-79.0428 1458,-78 1255.95,-45.6515 1200.24,-79.0692 999,-42 990.771,-40.4841 982.115,-38.3624 973.841,-36.0637"/>
<polygon fill="midnightblue" stroke="midnightblue" points="1477.24,-85.1822 1487.76,-83.9306 1478.76,-78.3483 1477.24,-85.1822"/>
</g>
<!-- Node70 -->
<g id="node15" class="node"><title>Node70</title>
<g id="a_node15"><a xlink:href="_setup__2007__06_8cc.html" target="_top" xlink:title="src/expconfig/setups\l/Setup_2007_06.cc">
<polygon fill="white" stroke="black" points="1008.5,-6 1008.5,-36 1115.5,-36 1115.5,-6 1008.5,-6"/>
<text text-anchor="start" x="1016.5" y="-24" font-family="Helvetica,sans-Serif" font-size="10.00">src/expconfig/setups</text>
<text text-anchor="middle" x="1062" y="-13" font-family="Helvetica,sans-Serif" font-size="10.00">/Setup_2007_06.cc</text>
</a>
</g>
</g>
<!-- Node69&#45;&gt;Node70 -->
<g id="edge20" class="edge"><title>Node69&#45;&gt;Node70</title>
<path fill="none" stroke="midnightblue" d="M1633.72,-81.1531C1629.12,-79.9447 1624.5,-78.8642 1620,-78 1402.95,-36.2738 1340.95,-84.2302 1124,-42 1116.34,-40.5089 1108.3,-38.3687 1100.65,-36.0376"/>
<polygon fill="midnightblue" stroke="midnightblue" points="1633.14,-84.6238 1643.71,-83.9684 1635.03,-77.8864 1633.14,-84.6238"/>
</g>
<!-- Node71 -->
<g id="node16" class="node"><title>Node71</title>
<g id="a_node16"><a xlink:href="_setup__2007__07_8cc.html" target="_top" xlink:title="src/expconfig/setups\l/Setup_2007_07.cc">
<polygon fill="white" stroke="black" points="1133.5,-6 1133.5,-36 1240.5,-36 1240.5,-6 1133.5,-6"/>
<text text-anchor="start" x="1141.5" y="-24" font-family="Helvetica,sans-Serif" font-size="10.00">src/expconfig/setups</text>
<text text-anchor="middle" x="1187" y="-13" font-family="Helvetica,sans-Serif" font-size="10.00">/Setup_2007_07.cc</text>
</a>
</g>
</g>
<!-- Node69&#45;&gt;Node71 -->
<g id="edge21" class="edge"><title>Node69&#45;&gt;Node71</title>
<path fill="none" stroke="midnightblue" d="M1633.3,-81.1627C1628.83,-79.9721 1624.35,-78.8921 1620,-78 1457.71,-44.7526 1411.22,-75.6242 1249,-42 1241.58,-40.462 1233.8,-38.3591 1226.35,-36.0923"/>
<polygon fill="midnightblue" stroke="midnightblue" points="1632.43,-84.5533 1643,-83.9159 1634.34,-77.8191 1632.43,-84.5533"/>
</g>
<!-- Node72 -->
<g id="node17" class="node"><title>Node72</title>
<g id="a_node17"><a xlink:href="_setup__2007___base_8cc.html" target="_top" xlink:title="src/expconfig/setups\l/Setup_2007_Base.cc">
<polygon fill="white" stroke="black" points="1258.5,-6 1258.5,-36 1371.5,-36 1371.5,-6 1258.5,-6"/>
<text text-anchor="start" x="1266.5" y="-24" font-family="Helvetica,sans-Serif" font-size="10.00">src/expconfig/setups</text>
<text text-anchor="middle" x="1315" y="-13" font-family="Helvetica,sans-Serif" font-size="10.00">/Setup_2007_Base.cc</text>
</a>
</g>
</g>
<!-- Node69&#45;&gt;Node72 -->
<g id="edge22" class="edge"><title>Node69&#45;&gt;Node72</title>
<path fill="none" stroke="midnightblue" d="M1632.3,-81.1481C1628.16,-80.0035 1624.02,-78.9356 1620,-78 1515.37,-53.6726 1485.79,-65.6382 1381,-42 1373.53,-40.3138 1365.66,-38.2207 1358.07,-36.0296"/>
<polygon fill="midnightblue" stroke="midnightblue" points="1631.34,-84.5121 1641.92,-83.9317 1633.28,-77.7884 1631.34,-84.5121"/>
</g>
<!-- Node74 -->
<g id="node19" class="node"><title>Node74</title>
<g id="a_node19"><a xlink:href="_setup__2010__03___base_8cc.html" target="_top" xlink:title="src/expconfig/setups\l/Setup_2010_03_Base.cc">
<polygon fill="white" stroke="black" points="1390,-6 1390,-36 1518,-36 1518,-6 1390,-6"/>
<text text-anchor="start" x="1398" y="-24" font-family="Helvetica,sans-Serif" font-size="10.00">src/expconfig/setups</text>
<text text-anchor="middle" x="1454" y="-13" font-family="Helvetica,sans-Serif" font-size="10.00">/Setup_2010_03_Base.cc</text>
</a>
</g>
</g>
<!-- Node73&#45;&gt;Node74 -->
<g id="edge24" class="edge"><title>Node73&#45;&gt;Node74</title>
<path fill="none" stroke="midnightblue" d="M1759.1,-81.3754C1754.35,-80.1683 1749.6,-79.0247 1745,-78 1649.15,-56.6542 1622.93,-63.0023 1527,-42 1519.04,-40.2576 1510.66,-38.186 1502.52,-36.047"/>
<polygon fill="midnightblue" stroke="midnightblue" points="1758.27,-84.7748 1768.83,-83.9244 1760.04,-78.0035 1758.27,-84.7748"/>
</g>
<!-- Node75 -->
<g id="node20" class="node"><title>Node75</title>
<g id="a_node20"><a xlink:href="_setup__2010__09___compton_8cc.html" target="_top" xlink:title="src/expconfig/setups\l/Setup_2010_09_Compton.cc">
<polygon fill="white" stroke="black" points="1536,-6 1536,-36 1682,-36 1682,-6 1536,-6"/>
<text text-anchor="start" x="1544" y="-24" font-family="Helvetica,sans-Serif" font-size="10.00">src/expconfig/setups</text>
<text text-anchor="middle" x="1609" y="-13" font-family="Helvetica,sans-Serif" font-size="10.00">/Setup_2010_09_Compton.cc</text>
</a>
</g>
</g>
<!-- Node73&#45;&gt;Node75 -->
<g id="edge25" class="edge"><title>Node73&#45;&gt;Node75</title>
<path fill="none" stroke="midnightblue" d="M1768.04,-80.3918C1731.31,-66.9049 1681.31,-48.5488 1647.24,-36.0413"/>
<polygon fill="midnightblue" stroke="midnightblue" points="1766.96,-83.722 1777.55,-83.8831 1769.37,-77.1509 1766.96,-83.722"/>
</g>
<!-- Node78 -->
<g id="node23" class="node"><title>Node78</title>
<g id="a_node23"><a xlink:href="_setup__2014__07___e_p_t___prod_8cc.html" target="_top" xlink:title="src/expconfig/setups\l/Setup_2014_07_EPT_Prod.cc">
<polygon fill="white" stroke="black" points="1700.5,-6 1700.5,-36 1851.5,-36 1851.5,-6 1700.5,-6"/>
<text text-anchor="start" x="1708.5" y="-24" font-family="Helvetica,sans-Serif" font-size="10.00">src/expconfig/setups</text>
<text text-anchor="middle" x="1776" y="-13" font-family="Helvetica,sans-Serif" font-size="10.00">/Setup_2014_07_EPT_Prod.cc</text>
</a>
</g>
</g>
<!-- Node77&#45;&gt;Node78 -->
<g id="edge28" class="edge"><title>Node77&#45;&gt;Node78</title>
<path fill="none" stroke="midnightblue" d="M2062.54,-81.1063C2058.65,-80.0005 2054.77,-78.9507 2051,-78 1967.23,-56.8924 1944.49,-60.0092 1860,-42 1851.35,-40.1561 1842.22,-38.0998 1833.3,-36.0269"/>
<polygon fill="midnightblue" stroke="midnightblue" points="2061.6,-84.4776 2072.18,-83.9462 2063.58,-77.7629 2061.6,-84.4776"/>
</g>
<!-- Node79 -->
<g id="node24" class="node"><title>Node79</title>
<g id="a_node24"><a xlink:href="_setup__2014__10___e_p_t___prod_8cc.html" target="_top" xlink:title="src/expconfig/setups\l/Setup_2014_10_EPT_Prod.cc">
<polygon fill="white" stroke="black" points="1869.5,-6 1869.5,-36 2020.5,-36 2020.5,-6 1869.5,-6"/>
<text text-anchor="start" x="1877.5" y="-24" font-family="Helvetica,sans-Serif" font-size="10.00">src/expconfig/setups</text>
<text text-anchor="middle" x="1945" y="-13" font-family="Helvetica,sans-Serif" font-size="10.00">/Setup_2014_10_EPT_Prod.cc</text>
</a>
</g>
</g>
<!-- Node77&#45;&gt;Node79 -->
<g id="edge29" class="edge"><title>Node77&#45;&gt;Node79</title>
<path fill="none" stroke="midnightblue" d="M2073.3,-79.6989C2043.47,-66.2817 2003.56,-48.3359 1976.22,-36.0413"/>
<polygon fill="midnightblue" stroke="midnightblue" points="2072.05,-82.9737 2082.61,-83.8831 2074.92,-76.5896 2072.05,-82.9737"/>
</g>
<!-- Node80 -->
<g id="node25" class="node"><title>Node80</title>
<g id="a_node25"><a xlink:href="_setup__2014__12___e_p_t___prod_8cc.html" target="_top" xlink:title="src/expconfig/setups\l/Setup_2014_12_EPT_Prod.cc">
<polygon fill="white" stroke="black" points="2038.5,-6 2038.5,-36 2189.5,-36 2189.5,-6 2038.5,-6"/>
<text text-anchor="start" x="2046.5" y="-24" font-family="Helvetica,sans-Serif" font-size="10.00">src/expconfig/setups</text>
<text text-anchor="middle" x="2114" y="-13" font-family="Helvetica,sans-Serif" font-size="10.00">/Setup_2014_12_EPT_Prod.cc</text>
</a>
</g>
</g>
<!-- Node77&#45;&gt;Node80 -->
<g id="edge30" class="edge"><title>Node77&#45;&gt;Node80</title>
<path fill="none" stroke="midnightblue" d="M2114,-73.5898C2114,-61.2565 2114,-46.7237 2114,-36.2309"/>
<polygon fill="midnightblue" stroke="midnightblue" points="2110.5,-73.7049 2114,-83.705 2117.5,-73.705 2110.5,-73.7049"/>
</g>
<!-- Node81 -->
<g id="node26" class="node"><title>Node81</title>
<g id="a_node26"><a xlink:href="_setup__2014___e_p_t_8cc.html" target="_top" xlink:title="src/expconfig/setups\l/Setup_2014_EPT.cc">
<polygon fill="white" stroke="black" points="2208,-6 2208,-36 2318,-36 2318,-6 2208,-6"/>
<text text-anchor="start" x="2216" y="-24" font-family="Helvetica,sans-Serif" font-size="10.00">src/expconfig/setups</text>
<text text-anchor="middle" x="2263" y="-13" font-family="Helvetica,sans-Serif" font-size="10.00">/Setup_2014_EPT.cc</text>
</a>
</g>
</g>
<!-- Node77&#45;&gt;Node81 -->
<g id="edge31" class="edge"><title>Node77&#45;&gt;Node81</title>
<path fill="none" stroke="midnightblue" d="M2150.91,-79.1739C2177.1,-65.8166 2211.68,-48.1762 2235.47,-36.0413"/>
<polygon fill="midnightblue" stroke="midnightblue" points="2148.99,-76.2215 2141.68,-83.8831 2152.18,-82.4572 2148.99,-76.2215"/>
</g>
<!-- Node84 -->
<g id="node29" class="node"><title>Node84</title>
<g id="a_node29"><a xlink:href="_setup__2017__03_8cc.html" target="_top" xlink:title="src/expconfig/setups\l/Setup_2017_03.cc">
<polygon fill="white" stroke="black" points="2336.5,-6 2336.5,-36 2443.5,-36 2443.5,-6 2336.5,-6"/>
<text text-anchor="start" x="2344.5" y="-24" font-family="Helvetica,sans-Serif" font-size="10.00">src/expconfig/setups</text>
<text text-anchor="middle" x="2390" y="-13" font-family="Helvetica,sans-Serif" font-size="10.00">/Setup_2017_03.cc</text>
</a>
</g>
</g>
<!-- Node83&#45;&gt;Node84 -->
<g id="edge34" class="edge"><title>Node83&#45;&gt;Node84</title>
<path fill="none" stroke="midnightblue" d="M2385.93,-73.5898C2386.9,-61.2565 2388.05,-46.7237 2388.88,-36.2309"/>
<polygon fill="midnightblue" stroke="midnightblue" points="2382.43,-73.4605 2385.13,-83.705 2389.4,-74.0115 2382.43,-73.4605"/>
</g>
<!-- Node86 -->
<g id="node31" class="node"><title>Node86</title>
<g id="a_node31"><a xlink:href="_setup__2017__05_8cc.html" target="_top" xlink:title="src/expconfig/setups\l/Setup_2017_05.cc">
<polygon fill="white" stroke="black" points="2461.5,-6 2461.5,-36 2568.5,-36 2568.5,-6 2461.5,-6"/>
<text text-anchor="start" x="2469.5" y="-24" font-family="Helvetica,sans-Serif" font-size="10.00">src/expconfig/setups</text>
<text text-anchor="middle" x="2515" y="-13" font-family="Helvetica,sans-Serif" font-size="10.00">/Setup_2017_05.cc</text>
</a>
</g>
</g>
<!-- Node85&#45;&gt;Node86 -->
<g id="edge36" class="edge"><title>Node85&#45;&gt;Node86</title>
<path fill="none" stroke="midnightblue" d="M2513.64,-73.5898C2513.97,-61.2565 2514.35,-46.7237 2514.63,-36.2309"/>
<polygon fill="midnightblue" stroke="midnightblue" points="2510.14,-73.6163 2513.38,-83.705 2517.14,-73.8005 2510.14,-73.6163"/>
</g>
<!-- Node88 -->
<g id="node33" class="node"><title>Node88</title>
<g id="a_node33"><a xlink:href="_setup__2017__12_8cc.html" target="_top" xlink:title="src/expconfig/setups\l/Setup_2017_12.cc">
<polygon fill="white" stroke="black" points="2586.5,-6 2586.5,-36 2693.5,-36 2693.5,-6 2586.5,-6"/>
<text text-anchor="start" x="2594.5" y="-24" font-family="Helvetica,sans-Serif" font-size="10.00">src/expconfig/setups</text>
<text text-anchor="middle" x="2640" y="-13" font-family="Helvetica,sans-Serif" font-size="10.00">/Setup_2017_12.cc</text>
</a>
</g>
</g>
<!-- Node87&#45;&gt;Node88 -->
<g id="edge38" class="edge"><title>Node87&#45;&gt;Node88</title>
<path fill="none" stroke="midnightblue" d="M2693.22,-71.3245C2680.47,-59.5076 2665.98,-46.0827 2655.35,-36.2254"/>
<polygon fill="midnightblue" stroke="midnightblue" points="2691.17,-74.1974 2700.88,-78.4281 2695.93,-69.0634 2691.17,-74.1974"/>
</g>
<!-- Node89 -->
<g id="node34" class="node"><title>Node89</title>
<g id="a_node34"><a xlink:href="_setup__2017_plus___new_tagger___base_8cc.html" target="_top" xlink:title="src/expconfig/setups\l/Setup_2017Plus_NewTagger\l_Base.cc">
<polygon fill="white" stroke="black" points="2712,-0.5 2712,-41.5 2858,-41.5 2858,-0.5 2712,-0.5"/>
<text text-anchor="start" x="2720" y="-29.5" font-family="Helvetica,sans-Serif" font-size="10.00">src/expconfig/setups</text>
<text text-anchor="start" x="2720" y="-18.5" font-family="Helvetica,sans-Serif" font-size="10.00">/Setup_2017Plus_NewTagger</text>
<text text-anchor="middle" x="2785" y="-7.5" font-family="Helvetica,sans-Serif" font-size="10.00">_Base.cc</text>
</a>
</g>
</g>
<!-- Node87&#45;&gt;Node89 -->
<g id="edge39" class="edge"><title>Node87&#45;&gt;Node89</title>
<path fill="none" stroke="midnightblue" d="M2744.69,-70.627C2752.68,-60.9901 2761.49,-50.3617 2768.83,-41.5056"/>
<polygon fill="midnightblue" stroke="midnightblue" points="2741.91,-68.4956 2738.22,-78.4281 2747.3,-72.963 2741.91,-68.4956"/>
</g>
<!-- Node90 -->
<g id="node35" class="node"><title>Node90</title>
<g id="a_node35"><a xlink:href="_setup__2018__03_8cc.html" target="_top" xlink:title="src/expconfig/setups\l/Setup_2018_03.cc">
<polygon fill="white" stroke="black" points="2876.5,-6 2876.5,-36 2983.5,-36 2983.5,-6 2876.5,-6"/>
<text text-anchor="start" x="2884.5" y="-24" font-family="Helvetica,sans-Serif" font-size="10.00">src/expconfig/setups</text>
<text text-anchor="middle" x="2930" y="-13" font-family="Helvetica,sans-Serif" font-size="10.00">/Setup_2018_03.cc</text>
</a>
</g>
</g>
<!-- Node87&#45;&gt;Node90 -->
<g id="edge40" class="edge"><title>Node87&#45;&gt;Node90</title>
<path fill="none" stroke="midnightblue" d="M2785.13,-74.9337C2819.77,-62.2767 2861.6,-46.9911 2891.39,-36.1065"/>
<polygon fill="midnightblue" stroke="midnightblue" points="2783.76,-71.7087 2775.57,-78.4281 2786.16,-78.2835 2783.76,-71.7087"/>
</g>
<!-- Node91 -->
<g id="node36" class="node"><title>Node91</title>
<g id="a_node36"><a xlink:href="_setup__2018__05_8cc.html" target="_top" xlink:title="src/expconfig/setups\l/Setup_2018_05.cc">
<polygon fill="white" stroke="black" points="3001.5,-6 3001.5,-36 3108.5,-36 3108.5,-6 3001.5,-6"/>
<text text-anchor="start" x="3009.5" y="-24" font-family="Helvetica,sans-Serif" font-size="10.00">src/expconfig/setups</text>
<text text-anchor="middle" x="3055" y="-13" font-family="Helvetica,sans-Serif" font-size="10.00">/Setup_2018_05.cc</text>
</a>
</g>
</g>
<!-- Node87&#45;&gt;Node91 -->
<g id="edge41" class="edge"><title>Node87&#45;&gt;Node91</title>
<path fill="none" stroke="midnightblue" d="M2805.22,-77.7994C2888.87,-60.1041 2912.6,-62.1314 2992,-42 2998.9,-40.2515 3006.15,-38.1769 3013.18,-36.0366"/>
<polygon fill="midnightblue" stroke="midnightblue" points="2804.32,-74.4135 2795.28,-79.9355 2805.79,-81.2574 2804.32,-74.4135"/>
</g>
<!-- Node92 -->
<g id="node37" class="node"><title>Node92</title>
<g id="a_node37"><a xlink:href="_setup__2018__09_8cc.html" target="_top" xlink:title="src/expconfig/setups\l/Setup_2018_09.cc">
<polygon fill="white" stroke="black" points="3126.5,-6 3126.5,-36 3233.5,-36 3233.5,-6 3126.5,-6"/>
<text text-anchor="start" x="3134.5" y="-24" font-family="Helvetica,sans-Serif" font-size="10.00">src/expconfig/setups</text>
<text text-anchor="middle" x="3180" y="-13" font-family="Helvetica,sans-Serif" font-size="10.00">/Setup_2018_09.cc</text>
</a>
</g>
</g>
<!-- Node87&#45;&gt;Node92 -->
<g id="edge42" class="edge"><title>Node87&#45;&gt;Node92</title>
<path fill="none" stroke="midnightblue" d="M2805.35,-77.8844C2943.69,-54.1777 2983.29,-70.6338 3117,-42 3124.41,-40.4141 3132.18,-38.3166 3139.64,-36.0767"/>
<polygon fill="midnightblue" stroke="midnightblue" points="2804.47,-74.4867 2795.22,-79.6618 2805.68,-81.3814 2804.47,-74.4867"/>
</g>
<!-- Node94 -->
<g id="node39" class="node"><title>Node94</title>
<g id="a_node39"><a xlink:href="_setup__2018__11_8cc.html" target="_top" xlink:title="src/expconfig/setups\l/Setup_2018_11.cc">
<polygon fill="white" stroke="black" points="3251.5,-6 3251.5,-36 3358.5,-36 3358.5,-6 3251.5,-6"/>
<text text-anchor="start" x="3259.5" y="-24" font-family="Helvetica,sans-Serif" font-size="10.00">src/expconfig/setups</text>
<text text-anchor="middle" x="3305" y="-13" font-family="Helvetica,sans-Serif" font-size="10.00">/Setup_2018_11.cc</text>
</a>
</g>
</g>
<!-- Node93&#45;&gt;Node94 -->
<g id="edge44" class="edge"><title>Node93&#45;&gt;Node94</title>
<path fill="none" stroke="midnightblue" d="M2917.27,-81.0978C2921.55,-79.9473 2925.83,-78.8928 2930,-78 3066.49,-48.7466 3105.51,-71.2534 3242,-42 3249.41,-40.4127 3257.18,-38.3146 3264.64,-36.0744"/>
<polygon fill="midnightblue" stroke="midnightblue" points="2916.02,-77.8172 2907.36,-83.9256 2917.94,-84.5488 2916.02,-77.8172"/>
</g>
<!-- Node96 -->
<g id="node41" class="node"><title>Node96</title>
<g id="a_node41"><a xlink:href="_setup__2019__01_8cc.html" target="_top" xlink:title="src/expconfig/setups\l/Setup_2019_01.cc">
<polygon fill="white" stroke="black" points="3376.5,-6 3376.5,-36 3483.5,-36 3483.5,-6 3376.5,-6"/>
<text text-anchor="start" x="3384.5" y="-24" font-family="Helvetica,sans-Serif" font-size="10.00">src/expconfig/setups</text>
<text text-anchor="middle" x="3430" y="-13" font-family="Helvetica,sans-Serif" font-size="10.00">/Setup_2019_01.cc</text>
</a>
</g>
</g>
<!-- Node95&#45;&gt;Node96 -->
<g id="edge46" class="edge"><title>Node95&#45;&gt;Node96</title>
<path fill="none" stroke="midnightblue" d="M3042.27,-81.0978C3046.55,-79.9473 3050.83,-78.8928 3055,-78 3191.49,-48.7466 3230.51,-71.2534 3367,-42 3374.41,-40.4127 3382.18,-38.3146 3389.64,-36.0744"/>
<polygon fill="midnightblue" stroke="midnightblue" points="3041.02,-77.8172 3032.36,-83.9256 3042.94,-84.5488 3041.02,-77.8172"/>
</g>
</g>
</svg>
