<?xml version="1.0" encoding="UTF-8" standalone="no"?>
<!DOCTYPE svg PUBLIC "-//W3C//DTD SVG 1.1//EN"
 "http://www.w3.org/Graphics/SVG/1.1/DTD/svg11.dtd">
<!-- Generated by graphviz version 2.36.0 (20140111.2315)
 -->
<!-- Title: src/expconfig/setups/SetupRegistry.h Pages: 1 -->
<svg width="3167pt" height="264pt"
 viewBox="0.00 0.00 3167.00 264.00" xmlns="http://www.w3.org/2000/svg" xmlns:xlink="http://www.w3.org/1999/xlink">
<g id="graph0" class="graph" transform="scale(1 1) rotate(0) translate(4 260)">
<title>src/expconfig/setups/SetupRegistry.h</title>
<polygon fill="white" stroke="none" points="-4,4 -4,-260 3163,-260 3163,4 -4,4"/>
<!-- Node9 -->
<g id="node1" class="node"><title>Node9</title>
<polygon fill="#bfbfbf" stroke="black" points="1497.5,-225 1497.5,-255 1604.5,-255 1604.5,-225 1497.5,-225"/>
<text text-anchor="start" x="1505.5" y="-243" font-family="Helvetica,sans-Serif" font-size="10.00">src/expconfig/setups</text>
<text text-anchor="middle" x="1551" y="-232" font-family="Helvetica,sans-Serif" font-size="10.00">/SetupRegistry.h</text>
</g>
<!-- Node10 -->
<g id="node2" class="node"><title>Node10</title>
<g id="a_node2"><a xlink:href="_ant-rawdump_8cc.html" target="_top" xlink:title="progs/Ant&#45;rawdump.cc">
<polygon fill="white" stroke="black" points="-0.5,-89.5 -0.5,-108.5 114.5,-108.5 114.5,-89.5 -0.5,-89.5"/>
<text text-anchor="middle" x="57" y="-96.5" font-family="Helvetica,sans-Serif" font-size="10.00">progs/Ant&#45;rawdump.cc</text>
</a>
</g>
</g>
<!-- Node9&#45;&gt;Node10 -->
<g id="edge1" class="edge"><title>Node9&#45;&gt;Node10</title>
<path fill="none" stroke="midnightblue" d="M1486.95,-238.614C1323.8,-237.033 879.507,-228.981 512,-188 337.571,-168.549 293.742,-160.635 123,-120 109.489,-116.784 94.6709,-112.377 82.5046,-108.517"/>
<polygon fill="midnightblue" stroke="midnightblue" points="1487.25,-242.117 1497.28,-238.709 1487.31,-235.117 1487.25,-242.117"/>
</g>
<!-- Node11 -->
<g id="node3" class="node"><title>Node11</title>
<g id="a_node3"><a xlink:href="_ant_8cc.html" target="_top" xlink:title="Main Ant executable. ">
<polygon fill="white" stroke="black" points="1658,-162.5 1658,-181.5 1730,-181.5 1730,-162.5 1658,-162.5"/>
<text text-anchor="middle" x="1694" y="-169.5" font-family="Helvetica,sans-Serif" font-size="10.00">progs/Ant.cc</text>
</a>
</g>
</g>
<!-- Node9&#45;&gt;Node11 -->
<g id="edge2" class="edge"><title>Node9&#45;&gt;Node11</title>
<path fill="none" stroke="midnightblue" d="M1591.06,-220.512C1618.59,-207.804 1653.9,-191.51 1675.19,-181.682"/>
<polygon fill="midnightblue" stroke="midnightblue" points="1589.29,-217.473 1581.68,-224.841 1592.22,-223.829 1589.29,-217.473"/>
</g>
<!-- Node12 -->
<g id="node4" class="node"><title>Node12</title>
<g id="a_node4"><a xlink:href="_omega_eta_g__fit_8cc.html" target="_top" xlink:title="progs/OmegaEtaG_fit.cc">
<polygon fill="white" stroke="black" points="132.5,-89.5 132.5,-108.5 257.5,-108.5 257.5,-89.5 132.5,-89.5"/>
<text text-anchor="middle" x="195" y="-96.5" font-family="Helvetica,sans-Serif" font-size="10.00">progs/OmegaEtaG_fit.cc</text>
</a>
</g>
</g>
<!-- Node9&#45;&gt;Node12 -->
<g id="edge3" class="edge"><title>Node9&#45;&gt;Node12</title>
<path fill="none" stroke="midnightblue" d="M1487.11,-236.625C1299.49,-228.889 734.388,-200.115 273,-120 256.472,-117.13 238.3,-112.556 223.657,-108.506"/>
<polygon fill="midnightblue" stroke="midnightblue" points="1487.2,-240.132 1497.34,-237.042 1487.49,-233.138 1487.2,-240.132"/>
</g>
<!-- Node13 -->
<g id="node5" class="node"><title>Node13</title>
<g id="a_node5"><a xlink:href="_setup_8h.html" target="_top" xlink:title="src/expconfig/setups\l/Setup.h">
<polygon fill="white" stroke="black" points="1456.5,-157 1456.5,-187 1563.5,-187 1563.5,-157 1456.5,-157"/>
<text text-anchor="start" x="1464.5" y="-175" font-family="Helvetica,sans-Serif" font-size="10.00">src/expconfig/setups</text>
<text text-anchor="middle" x="1510" y="-164" font-family="Helvetica,sans-Serif" font-size="10.00">/Setup.h</text>
</a>
</g>
</g>
<!-- Node9&#45;&gt;Node13 -->
<g id="edge4" class="edge"><title>Node9&#45;&gt;Node13</title>
<path fill="none" stroke="midnightblue" d="M1536.72,-216.019C1530.79,-206.467 1524.09,-195.677 1518.88,-187.293"/>
<polygon fill="midnightblue" stroke="midnightblue" points="1533.85,-218.031 1542.1,-224.679 1539.8,-214.338 1533.85,-218.031"/>
</g>
<!-- Node50 -->
<g id="node42" class="node"><title>Node50</title>
<g id="a_node42"><a xlink:href="_setup_registry_8cc.html" target="_top" xlink:title="src/expconfig/setups\l/SetupRegistry.cc">
<polygon fill="white" stroke="black" points="2735.5,-84 2735.5,-114 2842.5,-114 2842.5,-84 2735.5,-84"/>
<text text-anchor="start" x="2743.5" y="-102" font-family="Helvetica,sans-Serif" font-size="10.00">src/expconfig/setups</text>
<text text-anchor="middle" x="2789" y="-91" font-family="Helvetica,sans-Serif" font-size="10.00">/SetupRegistry.cc</text>
</a>
</g>
</g>
<!-- Node9&#45;&gt;Node50 -->
<g id="edge48" class="edge"><title>Node9&#45;&gt;Node50</title>
<path fill="none" stroke="midnightblue" d="M1561.98,-215.643C1572.69,-195.83 1591.03,-168.665 1616,-156 1726.05,-100.178 2604.38,-140.866 2726,-120 2734.03,-118.622 2742.45,-116.47 2750.43,-114.08"/>
<polygon fill="midnightblue" stroke="midnightblue" points="1558.79,-214.19 1557.33,-224.684 1565.02,-217.388 1558.79,-214.19"/>
</g>
<!-- Node51 -->
<g id="node43" class="node"><title>Node51</title>
<g id="a_node43"><a xlink:href="expconfig__helpers_8cc.html" target="_top" xlink:title="test/expconfig_helpers.cc">
<polygon fill="white" stroke="black" points="2861,-89.5 2861,-108.5 2989,-108.5 2989,-89.5 2861,-89.5"/>
<text text-anchor="middle" x="2925" y="-96.5" font-family="Helvetica,sans-Serif" font-size="10.00">test/expconfig_helpers.cc</text>
</a>
</g>
</g>
<!-- Node9&#45;&gt;Node51 -->
<g id="edge49" class="edge"><title>Node9&#45;&gt;Node51</title>
<path fill="none" stroke="midnightblue" d="M1576.32,-218.536C1587.63,-209.305 1601.07,-198.205 1613,-188 1629.27,-174.087 1629.11,-163.906 1649,-156 1773.17,-106.651 2718.82,-139.565 2851,-120 2867.32,-117.584 2885.2,-112.816 2899.29,-108.541"/>
<polygon fill="midnightblue" stroke="midnightblue" points="1574.07,-215.86 1568.52,-224.887 1578.48,-221.289 1574.07,-215.86"/>
</g>
<!-- Node13&#45;&gt;Node10 -->
<g id="edge8" class="edge"><title>Node13&#45;&gt;Node10</title>
<path fill="none" stroke="midnightblue" d="M1446.15,-170.829C1209.5,-169.858 382.656,-163.368 123,-120 108.356,-117.554 92.414,-112.785 79.8666,-108.518"/>
<polygon fill="midnightblue" stroke="midnightblue" points="1446.3,-174.33 1456.31,-170.869 1446.33,-167.33 1446.3,-174.33"/>
</g>
<!-- Node13&#45;&gt;Node12 -->
<g id="edge9" class="edge"><title>Node13&#45;&gt;Node12</title>
<path fill="none" stroke="midnightblue" d="M1445.98,-169.162C1208.86,-162.246 388.293,-137.296 272,-120 255.197,-117.501 236.765,-112.786 222.148,-108.562"/>
<polygon fill="midnightblue" stroke="midnightblue" points="1446.06,-172.666 1456.16,-169.459 1446.27,-165.669 1446.06,-172.666"/>
</g>
<!-- Node14 -->
<g id="node6" class="node"><title>Node14</title>
<g id="a_node6"><a xlink:href="_ant-fake_raw_8cc.html" target="_top" xlink:title="progs/Ant&#45;fakeRaw.cc">
<polygon fill="white" stroke="black" points="1267,-89.5 1267,-108.5 1381,-108.5 1381,-89.5 1267,-89.5"/>
<text text-anchor="middle" x="1324" y="-96.5" font-family="Helvetica,sans-Serif" font-size="10.00">progs/Ant&#45;fakeRaw.cc</text>
</a>
</g>
</g>
<!-- Node13&#45;&gt;Node14 -->
<g id="edge5" class="edge"><title>Node13&#45;&gt;Node14</title>
<path fill="none" stroke="midnightblue" d="M1463.58,-153.279C1426.17,-139.002 1375.23,-119.554 1346.36,-108.536"/>
<polygon fill="midnightblue" stroke="midnightblue" points="1462.66,-156.676 1473.25,-156.973 1465.16,-150.137 1462.66,-156.676"/>
</g>
<!-- Node15 -->
<g id="node7" class="node"><title>Node15</title>
<g id="a_node7"><a xlink:href="_ant-info_8cc.html" target="_top" xlink:title="progs/Ant&#45;info.cc">
<polygon fill="white" stroke="black" points="1399.5,-89.5 1399.5,-108.5 1490.5,-108.5 1490.5,-89.5 1399.5,-89.5"/>
<text text-anchor="middle" x="1445" y="-96.5" font-family="Helvetica,sans-Serif" font-size="10.00">progs/Ant&#45;info.cc</text>
</a>
</g>
</g>
<!-- Node13&#45;&gt;Node15 -->
<g id="edge6" class="edge"><title>Node13&#45;&gt;Node15</title>
<path fill="none" stroke="midnightblue" d="M1490.19,-149.36C1477.64,-135.658 1462.11,-118.689 1452.91,-108.637"/>
<polygon fill="midnightblue" stroke="midnightblue" points="1487.82,-151.96 1497.16,-156.973 1492.99,-147.233 1487.82,-151.96"/>
</g>
<!-- Node16 -->
<g id="node8" class="node"><title>Node16</title>
<g id="a_node8"><a xlink:href="_ant-make_tagg_eff_8cc.html" target="_top" xlink:title="progs/Ant&#45;makeTaggEff.cc">
<polygon fill="white" stroke="black" points="1509,-89.5 1509,-108.5 1643,-108.5 1643,-89.5 1509,-89.5"/>
<text text-anchor="middle" x="1576" y="-96.5" font-family="Helvetica,sans-Serif" font-size="10.00">progs/Ant&#45;makeTaggEff.cc</text>
</a>
</g>
</g>
<!-- Node13&#45;&gt;Node16 -->
<g id="edge7" class="edge"><title>Node13&#45;&gt;Node16</title>
<path fill="none" stroke="midnightblue" d="M1530.12,-149.36C1542.85,-135.658 1558.63,-118.689 1567.97,-108.637"/>
<polygon fill="midnightblue" stroke="midnightblue" points="1527.28,-147.265 1523.04,-156.973 1532.41,-152.031 1527.28,-147.265"/>
</g>
<!-- Node17 -->
<g id="node9" class="node"><title>Node17</title>
<g id="a_node9"><a xlink:href="_proton_vertex_test_8cc.html" target="_top" xlink:title="src/analysis/physics\l/scratch/wolfes/ProtonVertex\lTest.cc">
<polygon fill="white" stroke="black" points="1661.5,-78.5 1661.5,-119.5 1804.5,-119.5 1804.5,-78.5 1661.5,-78.5"/>
<text text-anchor="start" x="1669.5" y="-107.5" font-family="Helvetica,sans-Serif" font-size="10.00">src/analysis/physics</text>
<text text-anchor="start" x="1669.5" y="-96.5" font-family="Helvetica,sans-Serif" font-size="10.00">/scratch/wolfes/ProtonVertex</text>
<text text-anchor="middle" x="1733" y="-85.5" font-family="Helvetica,sans-Serif" font-size="10.00">Test.cc</text>
</a>
</g>
</g>
<!-- Node13&#45;&gt;Node17 -->
<g id="edge10" class="edge"><title>Node13&#45;&gt;Node17</title>
<path fill="none" stroke="midnightblue" d="M1563.85,-153.856C1596.38,-143.499 1637.94,-130.265 1671.73,-119.507"/>
<polygon fill="midnightblue" stroke="midnightblue" points="1562.52,-150.604 1554.06,-156.973 1564.65,-157.274 1562.52,-150.604"/>
</g>
<!-- Node18 -->
<g id="node10" class="node"><title>Node18</title>
<g id="a_node10"><a xlink:href="_exp_config_8cc.html" target="_top" xlink:title="src/expconfig/ExpConfig.cc">
<polygon fill="white" stroke="black" points="1822.5,-89.5 1822.5,-108.5 1959.5,-108.5 1959.5,-89.5 1822.5,-89.5"/>
<text text-anchor="middle" x="1891" y="-96.5" font-family="Helvetica,sans-Serif" font-size="10.00">src/expconfig/ExpConfig.cc</text>
</a>
</g>
</g>
<!-- Node13&#45;&gt;Node18 -->
<g id="edge11" class="edge"><title>Node13&#45;&gt;Node18</title>
<path fill="none" stroke="midnightblue" d="M1573.61,-156.835C1575.09,-156.549 1576.55,-156.27 1578,-156 1681.87,-136.609 1709.48,-141.148 1813,-120 1828.75,-116.782 1846.09,-112.42 1860.41,-108.59"/>
<polygon fill="midnightblue" stroke="midnightblue" points="1572.88,-153.412 1563.76,-158.803 1574.25,-160.276 1572.88,-153.412"/>
</g>
<!-- Node19 -->
<g id="node11" class="node"><title>Node19</title>
<g id="a_node11"><a xlink:href="_setup_8cc.html" target="_top" xlink:title="src/expconfig/setups\l/Setup.cc">
<polygon fill="white" stroke="black" points="1977.5,-84 1977.5,-114 2084.5,-114 2084.5,-84 1977.5,-84"/>
<text text-anchor="start" x="1985.5" y="-102" font-family="Helvetica,sans-Serif" font-size="10.00">src/expconfig/setups</text>
<text text-anchor="middle" x="2031" y="-91" font-family="Helvetica,sans-Serif" font-size="10.00">/Setup.cc</text>
</a>
</g>
</g>
<!-- Node13&#45;&gt;Node19 -->
<g id="edge12" class="edge"><title>Node13&#45;&gt;Node19</title>
<path fill="none" stroke="midnightblue" d="M1573.59,-156.716C1575.07,-156.466 1576.54,-156.227 1578,-156 1749.99,-129.199 1797.39,-154.535 1968,-120 1975.65,-118.452 1983.68,-116.315 1991.35,-114.011"/>
<polygon fill="midnightblue" stroke="midnightblue" points="1572.92,-153.28 1563.7,-158.503 1574.17,-160.168 1572.92,-153.28"/>
</g>
<!-- Node20 -->
<g id="node12" class="node"><title>Node20</title>
<g id="a_node12"><a xlink:href="_setup__2007___base_8h.html" target="_top" xlink:title="src/expconfig/setups\l/Setup_2007_Base.h">
<polygon fill="white" stroke="black" points="2102.5,-84 2102.5,-114 2209.5,-114 2209.5,-84 2102.5,-84"/>
<text text-anchor="start" x="2110.5" y="-102" font-family="Helvetica,sans-Serif" font-size="10.00">src/expconfig/setups</text>
<text text-anchor="middle" x="2156" y="-91" font-family="Helvetica,sans-Serif" font-size="10.00">/Setup_2007_Base.h</text>
</a>
</g>
</g>
<!-- Node13&#45;&gt;Node20 -->
<g id="edge13" class="edge"><title>Node13&#45;&gt;Node20</title>
<path fill="none" stroke="midnightblue" d="M1573.58,-156.672C1575.07,-156.435 1576.54,-156.211 1578,-156 1805.09,-123.198 1867.62,-163.016 2093,-120 2100.78,-118.516 2108.94,-116.378 2116.71,-114.048"/>
<polygon fill="midnightblue" stroke="midnightblue" points="1572.94,-153.231 1563.69,-158.391 1574.14,-160.128 1572.94,-153.231"/>
</g>
<!-- Node23 -->
<g id="node15" class="node"><title>Node23</title>
<g id="a_node15"><a xlink:href="_setup__2007___base_8cc.html" target="_top" xlink:title="src/expconfig/setups\l/Setup_2007_Base.cc">
<polygon fill="white" stroke="black" points="2099.5,-6 2099.5,-36 2212.5,-36 2212.5,-6 2099.5,-6"/>
<text text-anchor="start" x="2107.5" y="-24" font-family="Helvetica,sans-Serif" font-size="10.00">src/expconfig/setups</text>
<text text-anchor="middle" x="2156" y="-13" font-family="Helvetica,sans-Serif" font-size="10.00">/Setup_2007_Base.cc</text>
</a>
</g>
</g>
<!-- Node13&#45;&gt;Node23 -->
<g id="edge17" class="edge"><title>Node13&#45;&gt;Node23</title>
<path fill="none" stroke="midnightblue" d="M1573.58,-156.645C1575.07,-156.416 1576.54,-156.201 1578,-156 1648.56,-146.297 2169.07,-171.758 2218,-120 2230.82,-106.435 2225.58,-95.0588 2218,-78 2210.17,-60.3706 2193.74,-45.9441 2179.76,-36.151"/>
<polygon fill="midnightblue" stroke="midnightblue" points="1572.95,-153.201 1563.68,-158.323 1574.12,-160.103 1572.95,-153.201"/>
</g>
<!-- Node24 -->
<g id="node16" class="node"><title>Node24</title>
<g id="a_node16"><a xlink:href="_setup__2010__03___base_8cc.html" target="_top" xlink:title="src/expconfig/setups\l/Setup_2010_03_Base.cc">
<polygon fill="white" stroke="black" points="2231,-6 2231,-36 2359,-36 2359,-6 2231,-6"/>
<text text-anchor="start" x="2239" y="-24" font-family="Helvetica,sans-Serif" font-size="10.00">src/expconfig/setups</text>
<text text-anchor="middle" x="2295" y="-13" font-family="Helvetica,sans-Serif" font-size="10.00">/Setup_2010_03_Base.cc</text>
</a>
</g>
</g>
<!-- Node13&#45;&gt;Node24 -->
<g id="edge18" class="edge"><title>Node13&#45;&gt;Node24</title>
<path fill="none" stroke="midnightblue" d="M1573.58,-156.642C1575.07,-156.414 1576.54,-156.2 1578,-156 1650.44,-146.093 2172.22,-157.468 2235,-120 2266.69,-101.086 2283.91,-58.3298 2291.03,-36.0684"/>
<polygon fill="midnightblue" stroke="midnightblue" points="1572.95,-153.198 1563.68,-158.316 1574.12,-160.1 1572.95,-153.198"/>
</g>
<!-- Node25 -->
<g id="node17" class="node"><title>Node25</title>
<g id="a_node17"><a xlink:href="_setup__2010__03___base_8h.html" target="_top" xlink:title="src/expconfig/setups\l/Setup_2010_03_Base.h">
<polygon fill="white" stroke="black" points="2304.5,-84 2304.5,-114 2427.5,-114 2427.5,-84 2304.5,-84"/>
<text text-anchor="start" x="2312.5" y="-102" font-family="Helvetica,sans-Serif" font-size="10.00">src/expconfig/setups</text>
<text text-anchor="middle" x="2366" y="-91" font-family="Helvetica,sans-Serif" font-size="10.00">/Setup_2010_03_Base.h</text>
</a>
</g>
</g>
<!-- Node13&#45;&gt;Node25 -->
<g id="edge19" class="edge"><title>Node13&#45;&gt;Node25</title>
<path fill="none" stroke="midnightblue" d="M1573.58,-156.634C1575.06,-156.408 1576.54,-156.197 1578,-156 1892.02,-113.727 1976.9,-168.577 2290,-120 2299.44,-118.536 2309.4,-116.377 2318.89,-114.013"/>
<polygon fill="midnightblue" stroke="midnightblue" points="1572.96,-153.189 1563.67,-158.294 1574.12,-160.093 1572.96,-153.189"/>
</g>
<!-- Node27 -->
<g id="node19" class="node"><title>Node27</title>
<g id="a_node19"><a xlink:href="_setup__2012__12___compton_8cc.html" target="_top" xlink:title="src/expconfig/setups\l/Setup_2012_12_Compton.cc">
<polygon fill="white" stroke="black" points="2446,-84 2446,-114 2592,-114 2592,-84 2446,-84"/>
<text text-anchor="start" x="2454" y="-102" font-family="Helvetica,sans-Serif" font-size="10.00">src/expconfig/setups</text>
<text text-anchor="middle" x="2519" y="-91" font-family="Helvetica,sans-Serif" font-size="10.00">/Setup_2012_12_Compton.cc</text>
</a>
</g>
</g>
<!-- Node13&#45;&gt;Node27 -->
<g id="edge22" class="edge"><title>Node13&#45;&gt;Node27</title>
<path fill="none" stroke="midnightblue" d="M1573.58,-156.617C1575.06,-156.396 1576.54,-156.19 1578,-156 1956.47,-106.703 2058.02,-172.955 2436,-120 2446.28,-118.56 2457.14,-116.413 2467.5,-114.052"/>
<polygon fill="midnightblue" stroke="midnightblue" points="1572.97,-153.17 1563.67,-158.251 1574.1,-160.077 1572.97,-153.17"/>
</g>
<!-- Node28 -->
<g id="node20" class="node"><title>Node28</title>
<g id="a_node20"><a xlink:href="_setup__2014___e_p_t_8h.html" target="_top" xlink:title="src/expconfig/setups\l/Setup_2014_EPT.h">
<polygon fill="white" stroke="black" points="2610.5,-84 2610.5,-114 2717.5,-114 2717.5,-84 2610.5,-84"/>
<text text-anchor="start" x="2618.5" y="-102" font-family="Helvetica,sans-Serif" font-size="10.00">src/expconfig/setups</text>
<text text-anchor="middle" x="2664" y="-91" font-family="Helvetica,sans-Serif" font-size="10.00">/Setup_2014_EPT.h</text>
</a>
</g>
</g>
<!-- Node13&#45;&gt;Node28 -->
<g id="edge23" class="edge"><title>Node13&#45;&gt;Node28</title>
<path fill="none" stroke="midnightblue" d="M1573.57,-156.603C1575.06,-156.387 1576.54,-156.185 1578,-156 2029.33,-98.7632 2152.71,-197.546 2601,-120 2609.03,-118.611 2617.45,-116.454 2625.43,-114.062"/>
<polygon fill="midnightblue" stroke="midnightblue" points="1572.97,-153.155 1563.66,-158.217 1574.1,-160.064 1572.97,-153.155"/>
</g>
<!-- Node33 -->
<g id="node25" class="node"><title>Node33</title>
<g id="a_node25"><a xlink:href="_setup__2015__01___pion_8cc.html" target="_top" xlink:title="src/expconfig/setups\l/Setup_2015_01_Pion.cc">
<polygon fill="white" stroke="black" points="204.5,-6 204.5,-36 329.5,-36 329.5,-6 204.5,-6"/>
<text text-anchor="start" x="212.5" y="-24" font-family="Helvetica,sans-Serif" font-size="10.00">src/expconfig/setups</text>
<text text-anchor="middle" x="267" y="-13" font-family="Helvetica,sans-Serif" font-size="10.00">/Setup_2015_01_Pion.cc</text>
</a>
</g>
</g>
<!-- Node13&#45;&gt;Node33 -->
<g id="edge28" class="edge"><title>Node13&#45;&gt;Node33</title>
<path fill="none" stroke="midnightblue" d="M1446.07,-169.238C1200.25,-162.343 328.389,-136.754 305,-120 277.704,-100.447 270.015,-58.3746 267.849,-36.2554"/>
<polygon fill="midnightblue" stroke="midnightblue" points="1446.18,-172.742 1456.28,-169.523 1446.38,-165.745 1446.18,-172.742"/>
</g>
<!-- Node34 -->
<g id="node26" class="node"><title>Node34</title>
<g id="a_node26"><a xlink:href="_setup__2015__01___pion_8h.html" target="_top" xlink:title="src/expconfig/setups\l/Setup_2015_01_Pion.h">
<polygon fill="white" stroke="black" points="314,-84 314,-114 434,-114 434,-84 314,-84"/>
<text text-anchor="start" x="322" y="-102" font-family="Helvetica,sans-Serif" font-size="10.00">src/expconfig/setups</text>
<text text-anchor="middle" x="374" y="-91" font-family="Helvetica,sans-Serif" font-size="10.00">/Setup_2015_01_Pion.h</text>
</a>
</g>
</g>
<!-- Node13&#45;&gt;Node34 -->
<g id="edge29" class="edge"><title>Node13&#45;&gt;Node34</title>
<path fill="none" stroke="midnightblue" d="M1446.42,-169.914C1247.37,-166.206 637.87,-152.437 443,-120 434.388,-118.566 425.327,-116.422 416.706,-114.061"/>
<polygon fill="midnightblue" stroke="midnightblue" points="1446.36,-173.413 1456.43,-170.098 1446.49,-166.415 1446.36,-173.413"/>
</g>
<!-- Node35 -->
<g id="node27" class="node"><title>Node35</title>
<g id="a_node27"><a xlink:href="_setup__2017__03_8h.html" target="_top" xlink:title="src/expconfig/setups\l/Setup_2017_03.h">
<polygon fill="white" stroke="black" points="452.5,-84 452.5,-114 559.5,-114 559.5,-84 452.5,-84"/>
<text text-anchor="start" x="460.5" y="-102" font-family="Helvetica,sans-Serif" font-size="10.00">src/expconfig/setups</text>
<text text-anchor="middle" x="506" y="-91" font-family="Helvetica,sans-Serif" font-size="10.00">/Setup_2017_03.h</text>
</a>
</g>
</g>
<!-- Node13&#45;&gt;Node35 -->
<g id="edge31" class="edge"><title>Node13&#45;&gt;Node35</title>
<path fill="none" stroke="midnightblue" d="M1446.46,-169.693C1263.41,-165.59 737.219,-151.329 568,-120 560.215,-118.559 552.052,-116.41 544.3,-114.049"/>
<polygon fill="midnightblue" stroke="midnightblue" points="1446.4,-173.192 1456.47,-169.915 1446.55,-166.194 1446.4,-173.192"/>
</g>
<!-- Node37 -->
<g id="node29" class="node"><title>Node37</title>
<g id="a_node29"><a xlink:href="_setup__2017__05_8h.html" target="_top" xlink:title="src/expconfig/setups\l/Setup_2017_05.h">
<polygon fill="white" stroke="black" points="577.5,-84 577.5,-114 684.5,-114 684.5,-84 577.5,-84"/>
<text text-anchor="start" x="585.5" y="-102" font-family="Helvetica,sans-Serif" font-size="10.00">src/expconfig/setups</text>
<text text-anchor="middle" x="631" y="-91" font-family="Helvetica,sans-Serif" font-size="10.00">/Setup_2017_05.h</text>
</a>
</g>
</g>
<!-- Node13&#45;&gt;Node37 -->
<g id="edge33" class="edge"><title>Node13&#45;&gt;Node37</title>
<path fill="none" stroke="midnightblue" d="M1446.26,-169.034C1280.35,-163.593 838.008,-146.936 694,-120 686.217,-118.544 678.053,-116.42 670.278,-114.094"/>
<polygon fill="midnightblue" stroke="midnightblue" points="1446.2,-172.534 1456.31,-169.361 1446.43,-165.537 1446.2,-172.534"/>
</g>
<!-- Node39 -->
<g id="node31" class="node"><title>Node39</title>
<g id="a_node31"><a xlink:href="_setup__2017_plus___new_tagger___base_8h.html" target="_top" xlink:title="src/expconfig/setups\l/Setup_2017Plus_NewTagger\l_Base.h">
<polygon fill="white" stroke="black" points="703,-78.5 703,-119.5 849,-119.5 849,-78.5 703,-78.5"/>
<text text-anchor="start" x="711" y="-107.5" font-family="Helvetica,sans-Serif" font-size="10.00">src/expconfig/setups</text>
<text text-anchor="start" x="711" y="-96.5" font-family="Helvetica,sans-Serif" font-size="10.00">/Setup_2017Plus_NewTagger</text>
<text text-anchor="middle" x="776" y="-85.5" font-family="Helvetica,sans-Serif" font-size="10.00">_Base.h</text>
</a>
</g>
</g>
<!-- Node13&#45;&gt;Node39 -->
<g id="edge35" class="edge"><title>Node13&#45;&gt;Node39</title>
<path fill="none" stroke="midnightblue" d="M1446.19,-169.417C1328.99,-165.756 1071.85,-154.214 858,-120 855.106,-119.537 852.164,-119.024 849.199,-118.472"/>
<polygon fill="midnightblue" stroke="midnightblue" points="1446.31,-172.923 1456.41,-169.728 1446.52,-165.926 1446.31,-172.923"/>
</g>
<!-- Node45 -->
<g id="node37" class="node"><title>Node45</title>
<g id="a_node37"><a xlink:href="_setup__2018__11_8h.html" target="_top" xlink:title="src/expconfig/setups\l/Setup_2018_11.h">
<polygon fill="white" stroke="black" points="867.5,-84 867.5,-114 974.5,-114 974.5,-84 867.5,-84"/>
<text text-anchor="start" x="875.5" y="-102" font-family="Helvetica,sans-Serif" font-size="10.00">src/expconfig/setups</text>
<text text-anchor="middle" x="921" y="-91" font-family="Helvetica,sans-Serif" font-size="10.00">/Setup_2018_11.h</text>
</a>
</g>
</g>
<!-- Node13&#45;&gt;Node45 -->
<g id="edge41" class="edge"><title>Node13&#45;&gt;Node45</title>
<path fill="none" stroke="midnightblue" d="M1446.1,-169.249C1346.29,-165.523 1147.74,-154.125 983,-120 975.58,-118.463 967.797,-116.36 960.349,-114.094"/>
<polygon fill="midnightblue" stroke="midnightblue" points="1446.2,-172.755 1456.32,-169.616 1446.45,-165.759 1446.2,-172.755"/>
</g>
<!-- Node47 -->
<g id="node39" class="node"><title>Node47</title>
<g id="a_node39"><a xlink:href="_setup__2019__01_8h.html" target="_top" xlink:title="src/expconfig/setups\l/Setup_2019_01.h">
<polygon fill="white" stroke="black" points="992.5,-84 992.5,-114 1099.5,-114 1099.5,-84 992.5,-84"/>
<text text-anchor="start" x="1000.5" y="-102" font-family="Helvetica,sans-Serif" font-size="10.00">src/expconfig/setups</text>
<text text-anchor="middle" x="1046" y="-91" font-family="Helvetica,sans-Serif" font-size="10.00">/Setup_2019_01.h</text>
</a>
</g>
</g>
<!-- Node13&#45;&gt;Node47 -->
<g id="edge43" class="edge"><title>Node13&#45;&gt;Node47</title>
<path fill="none" stroke="midnightblue" d="M1446.08,-166.576C1366.24,-160.21 1225.8,-146.233 1108,-120 1100.71,-118.377 1093.06,-116.262 1085.72,-114.016"/>
<polygon fill="midnightblue" stroke="midnightblue" points="1446.22,-170.097 1456.46,-167.388 1446.76,-163.119 1446.22,-170.097"/>
</g>
<!-- Node49 -->
<g id="node41" class="node"><title>Node49</title>
<g id="a_node41"><a xlink:href="_setup___c_b_source_calib_8cc.html" target="_top" xlink:title="src/expconfig/setups\l/Setup_CBSourceCalib.cc">
<polygon fill="white" stroke="black" points="1117.5,-84 1117.5,-114 1248.5,-114 1248.5,-84 1117.5,-84"/>
<text text-anchor="start" x="1125.5" y="-102" font-family="Helvetica,sans-Serif" font-size="10.00">src/expconfig/setups</text>
<text text-anchor="middle" x="1183" y="-91" font-family="Helvetica,sans-Serif" font-size="10.00">/Setup_CBSourceCalib.cc</text>
</a>
</g>
</g>
<!-- Node13&#45;&gt;Node49 -->
<g id="edge45" class="edge"><title>Node13&#45;&gt;Node49</title>
<path fill="none" stroke="midnightblue" d="M1446.3,-159.221C1395.21,-149.507 1321.76,-134.94 1258,-120 1250.26,-118.186 1242.1,-116.146 1234.13,-114.081"/>
<polygon fill="midnightblue" stroke="midnightblue" points="1445.73,-162.676 1456.21,-161.098 1447.04,-155.798 1445.73,-162.676"/>
</g>
<!-- Node13&#45;&gt;Node50 -->
<g id="edge46" class="edge"><title>Node13&#45;&gt;Node50</title>
<path fill="none" stroke="midnightblue" d="M1573.57,-156.596C1575.06,-156.382 1576.54,-156.183 1578,-156 2084.54,-92.7469 2222.83,-206.048 2726,-120 2734.03,-118.627 2742.45,-116.477 2750.43,-114.086"/>
<polygon fill="midnightblue" stroke="midnightblue" points="1572.97,-153.147 1563.66,-158.198 1574.09,-160.057 1572.97,-153.147"/>
</g>
<!-- Node13&#45;&gt;Node51 -->
<g id="edge47" class="edge"><title>Node13&#45;&gt;Node51</title>
<path fill="none" stroke="midnightblue" d="M1573.53,-160.836C1587.49,-158.931 1602.22,-157.173 1616,-156 2163.15,-109.458 2307.76,-200.188 2851,-120 2867.33,-117.59 2885.2,-112.823 2899.29,-108.547"/>
<polygon fill="midnightblue" stroke="midnightblue" points="1572.94,-157.385 1563.52,-162.243 1573.91,-164.316 1572.94,-157.385"/>
</g>
<!-- Node21 -->
<g id="node13" class="node"><title>Node21</title>
<g id="a_node13"><a xlink:href="_setup__2007__06_8cc.html" target="_top" xlink:title="src/expconfig/setups\l/Setup_2007_06.cc">
<polygon fill="white" stroke="black" points="1974.5,-6 1974.5,-36 2081.5,-36 2081.5,-6 1974.5,-6"/>
<text text-anchor="start" x="1982.5" y="-24" font-family="Helvetica,sans-Serif" font-size="10.00">src/expconfig/setups</text>
<text text-anchor="middle" x="2028" y="-13" font-family="Helvetica,sans-Serif" font-size="10.00">/Setup_2007_06.cc</text>
</a>
</g>
</g>
<!-- Node20&#45;&gt;Node21 -->
<g id="edge14" class="edge"><title>Node20&#45;&gt;Node21</title>
<path fill="none" stroke="midnightblue" d="M2123.4,-78.6444C2101.02,-65.3533 2071.82,-48.0166 2051.65,-36.0413"/>
<polygon fill="midnightblue" stroke="midnightblue" points="2121.84,-81.7872 2132.22,-83.8831 2125.41,-75.7682 2121.84,-81.7872"/>
</g>
<!-- Node22 -->
<g id="node14" class="node"><title>Node22</title>
<g id="a_node14"><a xlink:href="_setup__2007__07_8cc.html" target="_top" xlink:title="src/expconfig/setups\l/Setup_2007_07.cc">
<polygon fill="white" stroke="black" points="1849.5,-6 1849.5,-36 1956.5,-36 1956.5,-6 1849.5,-6"/>
<text text-anchor="start" x="1857.5" y="-24" font-family="Helvetica,sans-Serif" font-size="10.00">src/expconfig/setups</text>
<text text-anchor="middle" x="1903" y="-13" font-family="Helvetica,sans-Serif" font-size="10.00">/Setup_2007_07.cc</text>
</a>
</g>
</g>
<!-- Node20&#45;&gt;Node22 -->
<g id="edge15" class="edge"><title>Node20&#45;&gt;Node22</title>
<path fill="none" stroke="midnightblue" d="M2102.59,-80.9176C2099.35,-79.9201 2096.13,-78.9409 2093,-78 2036.81,-61.122 2022.19,-58.878 1966,-42 1959.74,-40.1183 1953.14,-38.083 1946.66,-36.0558"/>
<polygon fill="midnightblue" stroke="midnightblue" points="2101.75,-84.3208 2112.34,-83.9442 2103.82,-77.6357 2101.75,-84.3208"/>
</g>
<!-- Node20&#45;&gt;Node23 -->
<g id="edge16" class="edge"><title>Node20&#45;&gt;Node23</title>
<path fill="none" stroke="midnightblue" d="M2156,-73.5898C2156,-61.2565 2156,-46.7237 2156,-36.2309"/>
<polygon fill="midnightblue" stroke="midnightblue" points="2152.5,-73.7049 2156,-83.705 2159.5,-73.705 2152.5,-73.7049"/>
</g>
<!-- Node25&#45;&gt;Node24 -->
<g id="edge20" class="edge"><title>Node25&#45;&gt;Node24</title>
<path fill="none" stroke="midnightblue" d="M2345.61,-76.1707C2333.61,-63.3319 2318.79,-47.4656 2308.29,-36.2309"/>
<polygon fill="midnightblue" stroke="midnightblue" points="2343.26,-78.7869 2352.65,-83.705 2348.38,-74.0083 2343.26,-78.7869"/>
</g>
<!-- Node26 -->
<g id="node18" class="node"><title>Node26</title>
<g id="a_node18"><a xlink:href="_setup__2010__09___compton_8cc.html" target="_top" xlink:title="src/expconfig/setups\l/Setup_2010_09_Compton.cc">
<polygon fill="white" stroke="black" points="2377,-6 2377,-36 2523,-36 2523,-6 2377,-6"/>
<text text-anchor="start" x="2385" y="-24" font-family="Helvetica,sans-Serif" font-size="10.00">src/expconfig/setups</text>
<text text-anchor="middle" x="2450" y="-13" font-family="Helvetica,sans-Serif" font-size="10.00">/Setup_2010_09_Compton.cc</text>
</a>
</g>
</g>
<!-- Node25&#45;&gt;Node26 -->
<g id="edge21" class="edge"><title>Node25&#45;&gt;Node26</title>
<path fill="none" stroke="midnightblue" d="M2389.33,-76.8941C2403.65,-63.9322 2421.62,-47.6775 2434.27,-36.2309"/>
<polygon fill="midnightblue" stroke="midnightblue" points="2386.87,-74.4004 2381.8,-83.705 2391.56,-79.5912 2386.87,-74.4004"/>
</g>
<!-- Node29 -->
<g id="node21" class="node"><title>Node29</title>
<g id="a_node21"><a xlink:href="_setup__2014__07___e_p_t___prod_8cc.html" target="_top" xlink:title="src/expconfig/setups\l/Setup_2014_07_EPT_Prod.cc">
<polygon fill="white" stroke="black" points="2839.5,-6 2839.5,-36 2990.5,-36 2990.5,-6 2839.5,-6"/>
<text text-anchor="start" x="2847.5" y="-24" font-family="Helvetica,sans-Serif" font-size="10.00">src/expconfig/setups</text>
<text text-anchor="middle" x="2915" y="-13" font-family="Helvetica,sans-Serif" font-size="10.00">/Setup_2014_07_EPT_Prod.cc</text>
</a>
</g>
</g>
<!-- Node28&#45;&gt;Node29 -->
<g id="edge24" class="edge"><title>Node28&#45;&gt;Node29</title>
<path fill="none" stroke="midnightblue" d="M2717.6,-80.9137C2720.78,-79.9222 2723.93,-78.9448 2727,-78 2774.52,-63.3798 2828.99,-47.2214 2867.02,-36.0346"/>
<polygon fill="midnightblue" stroke="midnightblue" points="2716.52,-77.5817 2708.03,-83.9123 2718.62,-84.2613 2716.52,-77.5817"/>
</g>
<!-- Node30 -->
<g id="node22" class="node"><title>Node30</title>
<g id="a_node22"><a xlink:href="_setup__2014__10___e_p_t___prod_8cc.html" target="_top" xlink:title="src/expconfig/setups\l/Setup_2014_10_EPT_Prod.cc">
<polygon fill="white" stroke="black" points="3008.5,-6 3008.5,-36 3159.5,-36 3159.5,-6 3008.5,-6"/>
<text text-anchor="start" x="3016.5" y="-24" font-family="Helvetica,sans-Serif" font-size="10.00">src/expconfig/setups</text>
<text text-anchor="middle" x="3084" y="-13" font-family="Helvetica,sans-Serif" font-size="10.00">/Setup_2014_10_EPT_Prod.cc</text>
</a>
</g>
</g>
<!-- Node28&#45;&gt;Node30 -->
<g id="edge25" class="edge"><title>Node28&#45;&gt;Node30</title>
<path fill="none" stroke="midnightblue" d="M2714.49,-81.1211C2718.69,-79.9741 2722.9,-78.9135 2727,-78 2846.02,-51.4488 2879.06,-63.9921 2999,-42 3008.39,-40.2775 3018.31,-38.1916 3027.93,-36.0254"/>
<polygon fill="midnightblue" stroke="midnightblue" points="2713.37,-77.801 2704.72,-83.9255 2715.3,-84.529 2713.37,-77.801"/>
</g>
<!-- Node31 -->
<g id="node23" class="node"><title>Node31</title>
<g id="a_node23"><a xlink:href="_setup__2014__12___e_p_t___prod_8cc.html" target="_top" xlink:title="src/expconfig/setups\l/Setup_2014_12_EPT_Prod.cc">
<polygon fill="white" stroke="black" points="2541.5,-6 2541.5,-36 2692.5,-36 2692.5,-6 2541.5,-6"/>
<text text-anchor="start" x="2549.5" y="-24" font-family="Helvetica,sans-Serif" font-size="10.00">src/expconfig/setups</text>
<text text-anchor="middle" x="2617" y="-13" font-family="Helvetica,sans-Serif" font-size="10.00">/Setup_2014_12_EPT_Prod.cc</text>
</a>
</g>
</g>
<!-- Node28&#45;&gt;Node31 -->
<g id="edge26" class="edge"><title>Node28&#45;&gt;Node31</title>
<path fill="none" stroke="midnightblue" d="M2649.82,-75.0735C2642.01,-62.4375 2632.55,-47.1476 2625.8,-36.2309"/>
<polygon fill="midnightblue" stroke="midnightblue" points="2646.92,-77.0408 2655.16,-83.705 2652.88,-73.359 2646.92,-77.0408"/>
</g>
<!-- Node32 -->
<g id="node24" class="node"><title>Node32</title>
<g id="a_node24"><a xlink:href="_setup__2014___e_p_t_8cc.html" target="_top" xlink:title="src/expconfig/setups\l/Setup_2014_EPT.cc">
<polygon fill="white" stroke="black" points="2711,-6 2711,-36 2821,-36 2821,-6 2711,-6"/>
<text text-anchor="start" x="2719" y="-24" font-family="Helvetica,sans-Serif" font-size="10.00">src/expconfig/setups</text>
<text text-anchor="middle" x="2766" y="-13" font-family="Helvetica,sans-Serif" font-size="10.00">/Setup_2014_EPT.cc</text>
</a>
</g>
</g>
<!-- Node28&#45;&gt;Node32 -->
<g id="edge27" class="edge"><title>Node28&#45;&gt;Node32</title>
<path fill="none" stroke="midnightblue" d="M2691.36,-77.6108C2708.91,-64.5359 2731.25,-47.8895 2746.9,-36.2309"/>
<polygon fill="midnightblue" stroke="midnightblue" points="2689.11,-74.9235 2683.19,-83.705 2693.3,-80.5367 2689.11,-74.9235"/>
</g>
<!-- Node34&#45;&gt;Node33 -->
<g id="edge30" class="edge"><title>Node34&#45;&gt;Node33</title>
<path fill="none" stroke="midnightblue" d="M345.746,-77.9318C327.171,-64.7386 303.329,-47.8037 286.769,-36.0413"/>
<polygon fill="midnightblue" stroke="midnightblue" points="343.945,-80.9458 354.125,-83.8831 347.999,-75.2388 343.945,-80.9458"/>
</g>
<!-- Node36 -->
<g id="node28" class="node"><title>Node36</title>
<g id="a_node28"><a xlink:href="_setup__2017__03_8cc.html" target="_top" xlink:title="src/expconfig/setups\l/Setup_2017_03.cc">
<polygon fill="white" stroke="black" points="347.5,-6 347.5,-36 454.5,-36 454.5,-6 347.5,-6"/>
<text text-anchor="start" x="355.5" y="-24" font-family="Helvetica,sans-Serif" font-size="10.00">src/expconfig/setups</text>
<text text-anchor="middle" x="401" y="-13" font-family="Helvetica,sans-Serif" font-size="10.00">/Setup_2017_03.cc</text>
</a>
</g>
</g>
<!-- Node35&#45;&gt;Node36 -->
<g id="edge32" class="edge"><title>Node35&#45;&gt;Node36</title>
<path fill="none" stroke="midnightblue" d="M477.831,-77.6108C459.767,-64.5359 436.768,-47.8895 420.661,-36.2309"/>
<polygon fill="midnightblue" stroke="midnightblue" points="476.097,-80.6768 486.25,-83.705 480.202,-75.0063 476.097,-80.6768"/>
</g>
<!-- Node38 -->
<g id="node30" class="node"><title>Node38</title>
<g id="a_node30"><a xlink:href="_setup__2017__05_8cc.html" target="_top" xlink:title="src/expconfig/setups\l/Setup_2017_05.cc">
<polygon fill="white" stroke="black" points="472.5,-6 472.5,-36 579.5,-36 579.5,-6 472.5,-6"/>
<text text-anchor="start" x="480.5" y="-24" font-family="Helvetica,sans-Serif" font-size="10.00">src/expconfig/setups</text>
<text text-anchor="middle" x="526" y="-13" font-family="Helvetica,sans-Serif" font-size="10.00">/Setup_2017_05.cc</text>
</a>
</g>
</g>
<!-- Node37&#45;&gt;Node38 -->
<g id="edge34" class="edge"><title>Node37&#45;&gt;Node38</title>
<path fill="none" stroke="midnightblue" d="M602.831,-77.6108C584.767,-64.5359 561.768,-47.8895 545.661,-36.2309"/>
<polygon fill="midnightblue" stroke="midnightblue" points="601.097,-80.6768 611.25,-83.705 605.202,-75.0063 601.097,-80.6768"/>
</g>
<!-- Node40 -->
<g id="node32" class="node"><title>Node40</title>
<g id="a_node32"><a xlink:href="_setup__2017__12_8cc.html" target="_top" xlink:title="src/expconfig/setups\l/Setup_2017_12.cc">
<polygon fill="white" stroke="black" points="847.5,-6 847.5,-36 954.5,-36 954.5,-6 847.5,-6"/>
<text text-anchor="start" x="855.5" y="-24" font-family="Helvetica,sans-Serif" font-size="10.00">src/expconfig/setups</text>
<text text-anchor="middle" x="901" y="-13" font-family="Helvetica,sans-Serif" font-size="10.00">/Setup_2017_12.cc</text>
</a>
</g>
</g>
<!-- Node39&#45;&gt;Node40 -->
<g id="edge36" class="edge"><title>Node39&#45;&gt;Node40</title>
<path fill="none" stroke="midnightblue" d="M816.871,-73.1502C837.003,-60.9103 860.549,-46.5941 877.603,-36.2254"/>
<polygon fill="midnightblue" stroke="midnightblue" points="814.917,-70.2423 808.191,-78.4281 818.554,-76.2236 814.917,-70.2423"/>
</g>
<!-- Node41 -->
<g id="node33" class="node"><title>Node41</title>
<g id="a_node33"><a xlink:href="_setup__2017_plus___new_tagger___base_8cc.html" target="_top" xlink:title="src/expconfig/setups\l/Setup_2017Plus_NewTagger\l_Base.cc">
<polygon fill="white" stroke="black" points="973,-0.5 973,-41.5 1119,-41.5 1119,-0.5 973,-0.5"/>
<text text-anchor="start" x="981" y="-29.5" font-family="Helvetica,sans-Serif" font-size="10.00">src/expconfig/setups</text>
<text text-anchor="start" x="981" y="-18.5" font-family="Helvetica,sans-Serif" font-size="10.00">/Setup_2017Plus_NewTagger</text>
<text text-anchor="middle" x="1046" y="-7.5" font-family="Helvetica,sans-Serif" font-size="10.00">_Base.cc</text>
</a>
</g>
</g>
<!-- Node39&#45;&gt;Node41 -->
<g id="edge37" class="edge"><title>Node39&#45;&gt;Node41</title>
<path fill="none" stroke="midnightblue" d="M855.158,-75.7184C893.685,-64.8738 939.578,-51.9557 976.704,-41.5056"/>
<polygon fill="midnightblue" stroke="midnightblue" points="854.209,-72.3494 845.532,-78.4281 856.106,-79.0876 854.209,-72.3494"/>
</g>
<!-- Node42 -->
<g id="node34" class="node"><title>Node42</title>
<g id="a_node34"><a xlink:href="_setup__2018__03_8cc.html" target="_top" xlink:title="src/expconfig/setups\l/Setup_2018_03.cc">
<polygon fill="white" stroke="black" points="1137.5,-6 1137.5,-36 1244.5,-36 1244.5,-6 1137.5,-6"/>
<text text-anchor="start" x="1145.5" y="-24" font-family="Helvetica,sans-Serif" font-size="10.00">src/expconfig/setups</text>
<text text-anchor="middle" x="1191" y="-13" font-family="Helvetica,sans-Serif" font-size="10.00">/Setup_2018_03.cc</text>
</a>
</g>
</g>
<!-- Node39&#45;&gt;Node42 -->
<g id="edge38" class="edge"><title>Node39&#45;&gt;Node42</title>
<path fill="none" stroke="midnightblue" d="M859.144,-77.8971C978.769,-56.2723 1012.97,-67.7198 1128,-42 1135.28,-40.3724 1142.92,-38.282 1150.28,-36.0686"/>
<polygon fill="midnightblue" stroke="midnightblue" points="858.431,-74.4694 849.234,-79.7281 859.703,-81.3529 858.431,-74.4694"/>
</g>
<!-- Node43 -->
<g id="node35" class="node"><title>Node43</title>
<g id="a_node35"><a xlink:href="_setup__2018__05_8cc.html" target="_top" xlink:title="src/expconfig/setups\l/Setup_2018_05.cc">
<polygon fill="white" stroke="black" points="597.5,-6 597.5,-36 704.5,-36 704.5,-6 597.5,-6"/>
<text text-anchor="start" x="605.5" y="-24" font-family="Helvetica,sans-Serif" font-size="10.00">src/expconfig/setups</text>
<text text-anchor="middle" x="651" y="-13" font-family="Helvetica,sans-Serif" font-size="10.00">/Setup_2018_05.cc</text>
</a>
</g>
</g>
<!-- Node39&#45;&gt;Node43 -->
<g id="edge39" class="edge"><title>Node39&#45;&gt;Node43</title>
<path fill="none" stroke="midnightblue" d="M735.129,-73.1502C714.997,-60.9103 691.451,-46.5941 674.397,-36.2254"/>
<polygon fill="midnightblue" stroke="midnightblue" points="733.446,-76.2236 743.809,-78.4281 737.083,-70.2423 733.446,-76.2236"/>
</g>
<!-- Node44 -->
<g id="node36" class="node"><title>Node44</title>
<g id="a_node36"><a xlink:href="_setup__2018__09_8cc.html" target="_top" xlink:title="src/expconfig/setups\l/Setup_2018_09.cc">
<polygon fill="white" stroke="black" points="722.5,-6 722.5,-36 829.5,-36 829.5,-6 722.5,-6"/>
<text text-anchor="start" x="730.5" y="-24" font-family="Helvetica,sans-Serif" font-size="10.00">src/expconfig/setups</text>
<text text-anchor="middle" x="776" y="-13" font-family="Helvetica,sans-Serif" font-size="10.00">/Setup_2018_09.cc</text>
</a>
</g>
</g>
<!-- Node39&#45;&gt;Node44 -->
<g id="edge40" class="edge"><title>Node39&#45;&gt;Node44</title>
<path fill="none" stroke="midnightblue" d="M776,-68.2829C776,-57.2536 776,-45.2457 776,-36.2254"/>
<polygon fill="midnightblue" stroke="midnightblue" points="772.5,-68.4281 776,-78.4281 779.5,-68.4281 772.5,-68.4281"/>
</g>
<!-- Node46 -->
<g id="node38" class="node"><title>Node46</title>
<g id="a_node38"><a xlink:href="_setup__2018__11_8cc.html" target="_top" xlink:title="src/expconfig/setups\l/Setup_2018_11.cc">
<polygon fill="white" stroke="black" points="1262.5,-6 1262.5,-36 1369.5,-36 1369.5,-6 1262.5,-6"/>
<text text-anchor="start" x="1270.5" y="-24" font-family="Helvetica,sans-Serif" font-size="10.00">src/expconfig/setups</text>
<text text-anchor="middle" x="1316" y="-13" font-family="Helvetica,sans-Serif" font-size="10.00">/Setup_2018_11.cc</text>
</a>
</g>
</g>
<!-- Node45&#45;&gt;Node46 -->
<g id="edge42" class="edge"><title>Node45&#45;&gt;Node46</title>
<path fill="none" stroke="midnightblue" d="M970.676,-81.117C974.82,-79.9709 978.967,-78.9117 983,-78 1101.08,-51.3094 1134.86,-68.4163 1253,-42 1260.28,-40.3724 1267.92,-38.282 1275.28,-36.0686"/>
<polygon fill="midnightblue" stroke="midnightblue" points="969.684,-77.7604 961.064,-83.92 971.644,-84.4806 969.684,-77.7604"/>
</g>
<!-- Node48 -->
<g id="node40" class="node"><title>Node48</title>
<g id="a_node40"><a xlink:href="_setup__2019__01_8cc.html" target="_top" xlink:title="src/expconfig/setups\l/Setup_2019_01.cc">
<polygon fill="white" stroke="black" points="1387.5,-6 1387.5,-36 1494.5,-36 1494.5,-6 1387.5,-6"/>
<text text-anchor="start" x="1395.5" y="-24" font-family="Helvetica,sans-Serif" font-size="10.00">src/expconfig/setups</text>
<text text-anchor="middle" x="1441" y="-13" font-family="Helvetica,sans-Serif" font-size="10.00">/Setup_2019_01.cc</text>
</a>
</g>
</g>
<!-- Node47&#45;&gt;Node48 -->
<g id="edge44" class="edge"><title>Node47&#45;&gt;Node48</title>
<path fill="none" stroke="midnightblue" d="M1095.68,-81.117C1099.82,-79.9709 1103.97,-78.9117 1108,-78 1226.08,-51.3094 1259.86,-68.4163 1378,-42 1385.28,-40.3724 1392.92,-38.282 1400.28,-36.0686"/>
<polygon fill="midnightblue" stroke="midnightblue" points="1094.68,-77.7604 1086.06,-83.92 1096.64,-84.4806 1094.68,-77.7604"/>
</g>
</g>
</svg>
