<?xml version="1.0" encoding="UTF-8" standalone="no"?>
<!DOCTYPE svg PUBLIC "-//W3C//DTD SVG 1.1//EN"
 "http://www.w3.org/Graphics/SVG/1.1/DTD/svg11.dtd">
<!-- Generated by graphviz version 2.36.0 (20140111.2315)
 -->
<!-- Title: src/expconfig/setups/Setup.h Pages: 1 -->
<svg width="3087pt" height="196pt"
 viewBox="0.00 0.00 3087.00 196.00" xmlns="http://www.w3.org/2000/svg" xmlns:xlink="http://www.w3.org/1999/xlink">
<g id="graph0" class="graph" transform="scale(1 1) rotate(0) translate(4 192)">
<title>src/expconfig/setups/Setup.h</title>
<polygon fill="white" stroke="none" points="-4,4 -4,-192 3083,-192 3083,4 -4,4"/>
<!-- Node61 -->
<g id="node1" class="node"><title>Node61</title>
<polygon fill="#bfbfbf" stroke="black" points="1397.5,-157 1397.5,-187 1504.5,-187 1504.5,-157 1397.5,-157"/>
<text text-anchor="start" x="1405.5" y="-175" font-family="Helvetica,sans-Serif" font-size="10.00">src/expconfig/setups</text>
<text text-anchor="middle" x="1451" y="-164" font-family="Helvetica,sans-Serif" font-size="10.00">/Setup.h</text>
</g>
<!-- Node62 -->
<g id="node2" class="node"><title>Node62</title>
<g id="a_node2"><a xlink:href="_ant-fake_raw_8cc.html" target="_top" xlink:title="progs/Ant&#45;fakeRaw.cc">
<polygon fill="white" stroke="black" points="0,-89.5 0,-108.5 114,-108.5 114,-89.5 0,-89.5"/>
<text text-anchor="middle" x="57" y="-96.5" font-family="Helvetica,sans-Serif" font-size="10.00">progs/Ant&#45;fakeRaw.cc</text>
</a>
</g>
</g>
<!-- Node61&#45;&gt;Node62 -->
<g id="edge1" class="edge"><title>Node61&#45;&gt;Node62</title>
<path fill="none" stroke="midnightblue" d="M1387.26,-170.671C1157.39,-169.156 371.527,-161.026 124,-120 109.15,-117.539 92.9665,-112.769 80.2254,-108.505"/>
<polygon fill="midnightblue" stroke="midnightblue" points="1387.44,-174.173 1397.46,-170.737 1387.49,-167.173 1387.44,-174.173"/>
</g>
<!-- Node63 -->
<g id="node3" class="node"><title>Node63</title>
<g id="a_node3"><a xlink:href="_ant-info_8cc.html" target="_top" xlink:title="progs/Ant&#45;info.cc">
<polygon fill="white" stroke="black" points="132.5,-89.5 132.5,-108.5 223.5,-108.5 223.5,-89.5 132.5,-89.5"/>
<text text-anchor="middle" x="178" y="-96.5" font-family="Helvetica,sans-Serif" font-size="10.00">progs/Ant&#45;info.cc</text>
</a>
</g>
</g>
<!-- Node61&#45;&gt;Node63 -->
<g id="edge2" class="edge"><title>Node61&#45;&gt;Node63</title>
<path fill="none" stroke="midnightblue" d="M1387.02,-170.901C1169.13,-170.161 457.063,-164.327 233,-120 220.641,-117.555 207.35,-112.786 196.931,-108.518"/>
<polygon fill="midnightblue" stroke="midnightblue" points="1387.32,-174.402 1397.33,-170.933 1387.34,-167.402 1387.32,-174.402"/>
</g>
<!-- Node64 -->
<g id="node4" class="node"><title>Node64</title>
<g id="a_node4"><a xlink:href="_ant-make_tagg_eff_8cc.html" target="_top" xlink:title="progs/Ant&#45;makeTaggEff.cc">
<polygon fill="white" stroke="black" points="242,-89.5 242,-108.5 376,-108.5 376,-89.5 242,-89.5"/>
<text text-anchor="middle" x="309" y="-96.5" font-family="Helvetica,sans-Serif" font-size="10.00">progs/Ant&#45;makeTaggEff.cc</text>
</a>
</g>
</g>
<!-- Node61&#45;&gt;Node64 -->
<g id="edge3" class="edge"><title>Node61&#45;&gt;Node64</title>
<path fill="none" stroke="midnightblue" d="M1387.23,-169.672C1188.31,-165.256 580.826,-149.642 386,-120 369.205,-117.445 350.773,-112.728 336.155,-108.517"/>
<polygon fill="midnightblue" stroke="midnightblue" points="1387.16,-173.171 1397.23,-169.892 1387.31,-166.173 1387.16,-173.171"/>
</g>
<!-- Node65 -->
<g id="node5" class="node"><title>Node65</title>
<g id="a_node5"><a xlink:href="_ant-rawdump_8cc.html" target="_top" xlink:title="progs/Ant&#45;rawdump.cc">
<polygon fill="white" stroke="black" points="394.5,-89.5 394.5,-108.5 509.5,-108.5 509.5,-89.5 394.5,-89.5"/>
<text text-anchor="middle" x="452" y="-96.5" font-family="Helvetica,sans-Serif" font-size="10.00">progs/Ant&#45;rawdump.cc</text>
</a>
</g>
</g>
<!-- Node61&#45;&gt;Node65 -->
<g id="edge4" class="edge"><title>Node61&#45;&gt;Node65</title>
<path fill="none" stroke="midnightblue" d="M1387.26,-169.465C1205.42,-164.777 686.47,-149.157 519,-120 504.29,-117.439 488.249,-112.722 475.551,-108.512"/>
<polygon fill="midnightblue" stroke="midnightblue" points="1387.38,-172.97 1397.47,-169.726 1387.56,-165.972 1387.38,-172.97"/>
</g>
<!-- Node66 -->
<g id="node6" class="node"><title>Node66</title>
<g id="a_node6"><a xlink:href="_omega_eta_g__fit_8cc.html" target="_top" xlink:title="progs/OmegaEtaG_fit.cc">
<polygon fill="white" stroke="black" points="527.5,-89.5 527.5,-108.5 652.5,-108.5 652.5,-89.5 527.5,-89.5"/>
<text text-anchor="middle" x="590" y="-96.5" font-family="Helvetica,sans-Serif" font-size="10.00">progs/OmegaEtaG_fit.cc</text>
</a>
</g>
</g>
<!-- Node61&#45;&gt;Node66 -->
<g id="edge5" class="edge"><title>Node61&#45;&gt;Node66</title>
<path fill="none" stroke="midnightblue" d="M1387.31,-171.317C1252.5,-171.019 928.772,-165.175 662,-120 646.395,-117.357 629.311,-112.691 615.702,-108.531"/>
<polygon fill="midnightblue" stroke="midnightblue" points="1387.46,-174.817 1397.46,-171.329 1387.46,-167.817 1387.46,-174.817"/>
</g>
<!-- Node67 -->
<g id="node7" class="node"><title>Node67</title>
<g id="a_node7"><a xlink:href="_proton_vertex_test_8cc.html" target="_top" xlink:title="src/analysis/physics\l/scratch/wolfes/ProtonVertex\lTest.cc">
<polygon fill="white" stroke="black" points="670.5,-78.5 670.5,-119.5 813.5,-119.5 813.5,-78.5 670.5,-78.5"/>
<text text-anchor="start" x="678.5" y="-107.5" font-family="Helvetica,sans-Serif" font-size="10.00">src/analysis/physics</text>
<text text-anchor="start" x="678.5" y="-96.5" font-family="Helvetica,sans-Serif" font-size="10.00">/scratch/wolfes/ProtonVertex</text>
<text text-anchor="middle" x="742" y="-85.5" font-family="Helvetica,sans-Serif" font-size="10.00">Test.cc</text>
</a>
</g>
</g>
<!-- Node61&#45;&gt;Node67 -->
<g id="edge6" class="edge"><title>Node61&#45;&gt;Node67</title>
<path fill="none" stroke="midnightblue" d="M1387.01,-169.203C1272.98,-165.247 1027.41,-153.314 823,-120 819.998,-119.511 816.943,-118.967 813.865,-118.381"/>
<polygon fill="midnightblue" stroke="midnightblue" points="1387.19,-172.711 1397.3,-169.551 1387.43,-165.715 1387.19,-172.711"/>
</g>
<!-- Node68 -->
<g id="node8" class="node"><title>Node68</title>
<g id="a_node8"><a xlink:href="_exp_config_8cc.html" target="_top" xlink:title="src/expconfig/ExpConfig.cc">
<polygon fill="white" stroke="black" points="831.5,-89.5 831.5,-108.5 968.5,-108.5 968.5,-89.5 831.5,-89.5"/>
<text text-anchor="middle" x="900" y="-96.5" font-family="Helvetica,sans-Serif" font-size="10.00">src/expconfig/ExpConfig.cc</text>
</a>
</g>
</g>
<!-- Node61&#45;&gt;Node68 -->
<g id="edge7" class="edge"><title>Node61&#45;&gt;Node68</title>
<path fill="none" stroke="midnightblue" d="M1387.26,-167.045C1296.02,-160.725 1123.16,-146.296 978,-120 961.631,-117.035 943.625,-112.505 929.042,-108.505"/>
<polygon fill="midnightblue" stroke="midnightblue" points="1387.23,-170.551 1397.44,-167.74 1387.7,-163.567 1387.23,-170.551"/>
</g>
<!-- Node69 -->
<g id="node9" class="node"><title>Node69</title>
<g id="a_node9"><a xlink:href="_setup_8cc.html" target="_top" xlink:title="src/expconfig/setups\l/Setup.cc">
<polygon fill="white" stroke="black" points="986.5,-84 986.5,-114 1093.5,-114 1093.5,-84 986.5,-84"/>
<text text-anchor="start" x="994.5" y="-102" font-family="Helvetica,sans-Serif" font-size="10.00">src/expconfig/setups</text>
<text text-anchor="middle" x="1040" y="-91" font-family="Helvetica,sans-Serif" font-size="10.00">/Setup.cc</text>
</a>
</g>
</g>
<!-- Node61&#45;&gt;Node69 -->
<g id="edge8" class="edge"><title>Node61&#45;&gt;Node69</title>
<path fill="none" stroke="midnightblue" d="M1387.42,-164.809C1317.21,-157.25 1201.11,-142.607 1103,-120 1095.84,-118.351 1088.33,-116.277 1081.08,-114.092"/>
<polygon fill="midnightblue" stroke="midnightblue" points="1387.13,-168.297 1397.44,-165.873 1387.87,-161.336 1387.13,-168.297"/>
</g>
<!-- Node70 -->
<g id="node10" class="node"><title>Node70</title>
<g id="a_node10"><a xlink:href="_setup__2007___base_8h.html" target="_top" xlink:title="src/expconfig/setups\l/Setup_2007_Base.h">
<polygon fill="white" stroke="black" points="1111.5,-84 1111.5,-114 1218.5,-114 1218.5,-84 1111.5,-84"/>
<text text-anchor="start" x="1119.5" y="-102" font-family="Helvetica,sans-Serif" font-size="10.00">src/expconfig/setups</text>
<text text-anchor="middle" x="1165" y="-91" font-family="Helvetica,sans-Serif" font-size="10.00">/Setup_2007_Base.h</text>
</a>
</g>
</g>
<!-- Node61&#45;&gt;Node70 -->
<g id="edge9" class="edge"><title>Node61&#45;&gt;Node70</title>
<path fill="none" stroke="midnightblue" d="M1387.59,-157.154C1343.96,-147.387 1284.78,-133.659 1233,-120 1225.98,-118.148 1218.58,-116.087 1211.36,-114.013"/>
<polygon fill="midnightblue" stroke="midnightblue" points="1386.96,-160.601 1397.49,-159.362 1388.49,-153.769 1386.96,-160.601"/>
</g>
<!-- Node73 -->
<g id="node13" class="node"><title>Node73</title>
<g id="a_node13"><a xlink:href="_setup__2007___base_8cc.html" target="_top" xlink:title="src/expconfig/setups\l/Setup_2007_Base.cc">
<polygon fill="white" stroke="black" points="711.5,-6 711.5,-36 824.5,-36 824.5,-6 711.5,-6"/>
<text text-anchor="start" x="719.5" y="-24" font-family="Helvetica,sans-Serif" font-size="10.00">src/expconfig/setups</text>
<text text-anchor="middle" x="768" y="-13" font-family="Helvetica,sans-Serif" font-size="10.00">/Setup_2007_Base.cc</text>
</a>
</g>
</g>
<!-- Node61&#45;&gt;Node73 -->
<g id="edge13" class="edge"><title>Node61&#45;&gt;Node73</title>
<path fill="none" stroke="midnightblue" d="M1387.22,-164.014C1348.28,-157.393 1298.86,-144.6 1261,-120 1240.86,-106.914 1248.18,-89.32 1227,-78 1149.65,-36.6638 920.074,-58.8031 834,-42 826.127,-40.463 817.854,-38.3606 809.93,-36.094"/>
<polygon fill="midnightblue" stroke="midnightblue" points="1386.97,-167.518 1397.4,-165.645 1388.08,-160.606 1386.97,-167.518"/>
</g>
<!-- Node74 -->
<g id="node14" class="node"><title>Node74</title>
<g id="a_node14"><a xlink:href="_setup__2010__03___base_8cc.html" target="_top" xlink:title="src/expconfig/setups\l/Setup_2010_03_Base.cc">
<polygon fill="white" stroke="black" points="843,-6 843,-36 971,-36 971,-6 843,-6"/>
<text text-anchor="start" x="851" y="-24" font-family="Helvetica,sans-Serif" font-size="10.00">src/expconfig/setups</text>
<text text-anchor="middle" x="907" y="-13" font-family="Helvetica,sans-Serif" font-size="10.00">/Setup_2010_03_Base.cc</text>
</a>
</g>
</g>
<!-- Node61&#45;&gt;Node74 -->
<g id="edge14" class="edge"><title>Node61&#45;&gt;Node74</title>
<path fill="none" stroke="midnightblue" d="M1387.6,-155.295C1360.93,-147.091 1330.29,-135.476 1305,-120 1281.94,-105.89 1285.4,-89.6319 1261,-78 1147.34,-23.8259 1103.46,-66.6953 980,-42 971.753,-40.3505 963.067,-38.2757 954.677,-36.0915"/>
<polygon fill="midnightblue" stroke="midnightblue" points="1386.65,-158.663 1397.23,-158.165 1388.65,-151.954 1386.65,-158.663"/>
</g>
<!-- Node75 -->
<g id="node15" class="node"><title>Node75</title>
<g id="a_node15"><a xlink:href="_setup__2010__03___base_8h.html" target="_top" xlink:title="src/expconfig/setups\l/Setup_2010_03_Base.h">
<polygon fill="white" stroke="black" points="1313.5,-84 1313.5,-114 1436.5,-114 1436.5,-84 1313.5,-84"/>
<text text-anchor="start" x="1321.5" y="-102" font-family="Helvetica,sans-Serif" font-size="10.00">src/expconfig/setups</text>
<text text-anchor="middle" x="1375" y="-91" font-family="Helvetica,sans-Serif" font-size="10.00">/Setup_2010_03_Base.h</text>
</a>
</g>
</g>
<!-- Node61&#45;&gt;Node75 -->
<g id="edge15" class="edge"><title>Node61&#45;&gt;Node75</title>
<path fill="none" stroke="midnightblue" d="M1428.34,-149.831C1416.04,-138.339 1401.16,-124.438 1390.24,-114.241"/>
<polygon fill="midnightblue" stroke="midnightblue" points="1426.29,-152.704 1435.98,-156.973 1431.07,-147.588 1426.29,-152.704"/>
</g>
<!-- Node77 -->
<g id="node17" class="node"><title>Node77</title>
<g id="a_node17"><a xlink:href="_setup__2012__12___compton_8cc.html" target="_top" xlink:title="src/expconfig/setups\l/Setup_2012_12_Compton.cc">
<polygon fill="white" stroke="black" points="1455,-84 1455,-114 1601,-114 1601,-84 1455,-84"/>
<text text-anchor="start" x="1463" y="-102" font-family="Helvetica,sans-Serif" font-size="10.00">src/expconfig/setups</text>
<text text-anchor="middle" x="1528" y="-91" font-family="Helvetica,sans-Serif" font-size="10.00">/Setup_2012_12_Compton.cc</text>
</a>
</g>
</g>
<!-- Node61&#45;&gt;Node77 -->
<g id="edge18" class="edge"><title>Node61&#45;&gt;Node77</title>
<path fill="none" stroke="midnightblue" d="M1473.6,-150.159C1486.13,-138.604 1501.39,-124.535 1512.56,-114.241"/>
<polygon fill="midnightblue" stroke="midnightblue" points="1471.19,-147.621 1466.21,-156.973 1475.94,-152.767 1471.19,-147.621"/>
</g>
<!-- Node78 -->
<g id="node18" class="node"><title>Node78</title>
<g id="a_node18"><a xlink:href="_setup__2014___e_p_t_8h.html" target="_top" xlink:title="src/expconfig/setups\l/Setup_2014_EPT.h">
<polygon fill="white" stroke="black" points="1619.5,-84 1619.5,-114 1726.5,-114 1726.5,-84 1619.5,-84"/>
<text text-anchor="start" x="1627.5" y="-102" font-family="Helvetica,sans-Serif" font-size="10.00">src/expconfig/setups</text>
<text text-anchor="middle" x="1673" y="-91" font-family="Helvetica,sans-Serif" font-size="10.00">/Setup_2014_EPT.h</text>
</a>
</g>
</g>
<!-- Node61&#45;&gt;Node78 -->
<g id="edge19" class="edge"><title>Node61&#45;&gt;Node78</title>
<path fill="none" stroke="midnightblue" d="M1504.74,-153.812C1542.78,-141.648 1593.16,-125.534 1628.85,-114.12"/>
<polygon fill="midnightblue" stroke="midnightblue" points="1503.32,-150.593 1494.86,-156.973 1505.45,-157.26 1503.32,-150.593"/>
</g>
<!-- Node83 -->
<g id="node23" class="node"><title>Node83</title>
<g id="a_node23"><a xlink:href="_setup__2015__01___pion_8cc.html" target="_top" xlink:title="src/expconfig/setups\l/Setup_2015_01_Pion.cc">
<polygon fill="white" stroke="black" points="1789.5,-6 1789.5,-36 1914.5,-36 1914.5,-6 1789.5,-6"/>
<text text-anchor="start" x="1797.5" y="-24" font-family="Helvetica,sans-Serif" font-size="10.00">src/expconfig/setups</text>
<text text-anchor="middle" x="1852" y="-13" font-family="Helvetica,sans-Serif" font-size="10.00">/Setup_2015_01_Pion.cc</text>
</a>
</g>
</g>
<!-- Node61&#45;&gt;Node83 -->
<g id="edge24" class="edge"><title>Node61&#45;&gt;Node83</title>
<path fill="none" stroke="midnightblue" d="M1514.69,-170.932C1574.89,-168.337 1666.02,-157.691 1735,-120 1757.35,-107.786 1754.89,-94.8454 1774,-78 1791.76,-62.3459 1813.81,-46.8281 1829.94,-36.1118"/>
<polygon fill="midnightblue" stroke="midnightblue" points="1514.43,-167.44 1504.57,-171.306 1514.69,-174.435 1514.43,-167.44"/>
</g>
<!-- Node84 -->
<g id="node24" class="node"><title>Node84</title>
<g id="a_node24"><a xlink:href="_setup__2015__01___pion_8h.html" target="_top" xlink:title="src/expconfig/setups\l/Setup_2015_01_Pion.h">
<polygon fill="white" stroke="black" points="1783,-84 1783,-114 1903,-114 1903,-84 1783,-84"/>
<text text-anchor="start" x="1791" y="-102" font-family="Helvetica,sans-Serif" font-size="10.00">src/expconfig/setups</text>
<text text-anchor="middle" x="1843" y="-91" font-family="Helvetica,sans-Serif" font-size="10.00">/Setup_2015_01_Pion.h</text>
</a>
</g>
</g>
<!-- Node61&#45;&gt;Node84 -->
<g id="edge25" class="edge"><title>Node61&#45;&gt;Node84</title>
<path fill="none" stroke="midnightblue" d="M1514.78,-162.777C1579.25,-153.996 1681.56,-138.773 1769,-120 1777.07,-118.268 1785.57,-116.202 1793.82,-114.065"/>
<polygon fill="midnightblue" stroke="midnightblue" points="1514.21,-159.322 1504.77,-164.13 1515.15,-166.259 1514.21,-159.322"/>
</g>
<!-- Node85 -->
<g id="node25" class="node"><title>Node85</title>
<g id="a_node25"><a xlink:href="_setup__2017__03_8h.html" target="_top" xlink:title="src/expconfig/setups\l/Setup_2017_03.h">
<polygon fill="white" stroke="black" points="1921.5,-84 1921.5,-114 2028.5,-114 2028.5,-84 1921.5,-84"/>
<text text-anchor="start" x="1929.5" y="-102" font-family="Helvetica,sans-Serif" font-size="10.00">src/expconfig/setups</text>
<text text-anchor="middle" x="1975" y="-91" font-family="Helvetica,sans-Serif" font-size="10.00">/Setup_2017_03.h</text>
</a>
</g>
</g>
<!-- Node61&#45;&gt;Node85 -->
<g id="edge27" class="edge"><title>Node61&#45;&gt;Node85</title>
<path fill="none" stroke="midnightblue" d="M1514.9,-167.807C1604.3,-162.461 1771.43,-149.259 1911,-120 1918.52,-118.424 1926.42,-116.331 1933.99,-114.092"/>
<polygon fill="midnightblue" stroke="midnightblue" points="1514.43,-164.328 1504.65,-168.406 1514.84,-171.316 1514.43,-164.328"/>
</g>
<!-- Node87 -->
<g id="node27" class="node"><title>Node87</title>
<g id="a_node27"><a xlink:href="_setup__2017__05_8h.html" target="_top" xlink:title="src/expconfig/setups\l/Setup_2017_05.h">
<polygon fill="white" stroke="black" points="2046.5,-84 2046.5,-114 2153.5,-114 2153.5,-84 2046.5,-84"/>
<text text-anchor="start" x="2054.5" y="-102" font-family="Helvetica,sans-Serif" font-size="10.00">src/expconfig/setups</text>
<text text-anchor="middle" x="2100" y="-91" font-family="Helvetica,sans-Serif" font-size="10.00">/Setup_2017_05.h</text>
</a>
</g>
</g>
<!-- Node61&#45;&gt;Node87 -->
<g id="edge29" class="edge"><title>Node61&#45;&gt;Node87</title>
<path fill="none" stroke="midnightblue" d="M1515.01,-170.031C1623.45,-167.369 1849.76,-157.391 2037,-120 2044.65,-118.472 2052.68,-116.344 2060.35,-114.044"/>
<polygon fill="midnightblue" stroke="midnightblue" points="1514.8,-166.535 1504.89,-170.267 1514.96,-173.533 1514.8,-166.535"/>
</g>
<!-- Node89 -->
<g id="node29" class="node"><title>Node89</title>
<g id="a_node29"><a xlink:href="_setup__2017_plus___new_tagger___base_8h.html" target="_top" xlink:title="src/expconfig/setups\l/Setup_2017Plus_NewTagger\l_Base.h">
<polygon fill="white" stroke="black" points="2172,-78.5 2172,-119.5 2318,-119.5 2318,-78.5 2172,-78.5"/>
<text text-anchor="start" x="2180" y="-107.5" font-family="Helvetica,sans-Serif" font-size="10.00">src/expconfig/setups</text>
<text text-anchor="start" x="2180" y="-96.5" font-family="Helvetica,sans-Serif" font-size="10.00">/Setup_2017Plus_NewTagger</text>
<text text-anchor="middle" x="2245" y="-85.5" font-family="Helvetica,sans-Serif" font-size="10.00">_Base.h</text>
</a>
</g>
</g>
<!-- Node61&#45;&gt;Node89 -->
<g id="edge31" class="edge"><title>Node61&#45;&gt;Node89</title>
<path fill="none" stroke="midnightblue" d="M1515.02,-169.937C1640.07,-167.083 1925.3,-156.751 2162,-120 2165.22,-119.5 2168.5,-118.938 2171.81,-118.328"/>
<polygon fill="midnightblue" stroke="midnightblue" points="1514.78,-166.441 1504.85,-170.16 1514.93,-173.44 1514.78,-166.441"/>
</g>
<!-- Node95 -->
<g id="node35" class="node"><title>Node95</title>
<g id="a_node35"><a xlink:href="_setup__2018__11_8h.html" target="_top" xlink:title="src/expconfig/setups\l/Setup_2018_11.h">
<polygon fill="white" stroke="black" points="2336.5,-84 2336.5,-114 2443.5,-114 2443.5,-84 2336.5,-84"/>
<text text-anchor="start" x="2344.5" y="-102" font-family="Helvetica,sans-Serif" font-size="10.00">src/expconfig/setups</text>
<text text-anchor="middle" x="2390" y="-91" font-family="Helvetica,sans-Serif" font-size="10.00">/Setup_2018_11.h</text>
</a>
</g>
</g>
<!-- Node61&#45;&gt;Node95 -->
<g id="edge37" class="edge"><title>Node61&#45;&gt;Node95</title>
<path fill="none" stroke="midnightblue" d="M1514.84,-169.347C1689.23,-164.501 2171.03,-148.828 2327,-120 2334.9,-118.54 2343.19,-116.383 2351.06,-114.019"/>
<polygon fill="midnightblue" stroke="midnightblue" points="1514.69,-165.849 1504.79,-169.623 1514.88,-172.847 1514.69,-165.849"/>
</g>
<!-- Node97 -->
<g id="node37" class="node"><title>Node97</title>
<g id="a_node37"><a xlink:href="_setup__2019__01_8h.html" target="_top" xlink:title="src/expconfig/setups\l/Setup_2019_01.h">
<polygon fill="white" stroke="black" points="2461.5,-84 2461.5,-114 2568.5,-114 2568.5,-84 2461.5,-84"/>
<text text-anchor="start" x="2469.5" y="-102" font-family="Helvetica,sans-Serif" font-size="10.00">src/expconfig/setups</text>
<text text-anchor="middle" x="2515" y="-91" font-family="Helvetica,sans-Serif" font-size="10.00">/Setup_2019_01.h</text>
</a>
</g>
</g>
<!-- Node61&#45;&gt;Node97 -->
<g id="edge39" class="edge"><title>Node61&#45;&gt;Node97</title>
<path fill="none" stroke="midnightblue" d="M1514.85,-169.884C1705.89,-166.208 2270.94,-152.788 2452,-120 2459.9,-118.569 2468.2,-116.425 2476.07,-114.065"/>
<polygon fill="midnightblue" stroke="midnightblue" points="1514.63,-166.388 1504.69,-170.077 1514.76,-173.387 1514.63,-166.388"/>
</g>
<!-- Node99 -->
<g id="node39" class="node"><title>Node99</title>
<g id="a_node39"><a xlink:href="_setup___c_b_source_calib_8cc.html" target="_top" xlink:title="src/expconfig/setups\l/Setup_CBSourceCalib.cc">
<polygon fill="white" stroke="black" points="2586.5,-84 2586.5,-114 2717.5,-114 2717.5,-84 2586.5,-84"/>
<text text-anchor="start" x="2594.5" y="-102" font-family="Helvetica,sans-Serif" font-size="10.00">src/expconfig/setups</text>
<text text-anchor="middle" x="2652" y="-91" font-family="Helvetica,sans-Serif" font-size="10.00">/Setup_CBSourceCalib.cc</text>
</a>
</g>
</g>
<!-- Node61&#45;&gt;Node99 -->
<g id="edge41" class="edge"><title>Node61&#45;&gt;Node99</title>
<path fill="none" stroke="midnightblue" d="M1514.88,-169.915C1721.44,-166.122 2369.93,-151.917 2577,-120 2586.32,-118.563 2596.16,-116.416 2605.52,-114.056"/>
<polygon fill="midnightblue" stroke="midnightblue" points="1514.73,-166.417 1504.8,-170.098 1514.86,-173.416 1514.73,-166.417"/>
</g>
<!-- Node100 -->
<g id="node40" class="node"><title>Node100</title>
<g id="a_node40"><a xlink:href="_setup_registry_8cc.html" target="_top" xlink:title="src/expconfig/setups\l/SetupRegistry.cc">
<polygon fill="white" stroke="black" points="2735.5,-84 2735.5,-114 2842.5,-114 2842.5,-84 2735.5,-84"/>
<text text-anchor="start" x="2743.5" y="-102" font-family="Helvetica,sans-Serif" font-size="10.00">src/expconfig/setups</text>
<text text-anchor="middle" x="2789" y="-91" font-family="Helvetica,sans-Serif" font-size="10.00">/SetupRegistry.cc</text>
</a>
</g>
</g>
<!-- Node61&#45;&gt;Node100 -->
<g id="edge42" class="edge"><title>Node61&#45;&gt;Node100</title>
<path fill="none" stroke="midnightblue" d="M1514.87,-170.698C1739.08,-169.287 2489.46,-161.502 2726,-120 2734.02,-118.592 2742.44,-116.427 2750.42,-114.032"/>
<polygon fill="midnightblue" stroke="midnightblue" points="1514.57,-167.2 1504.59,-170.761 1514.61,-174.2 1514.57,-167.2"/>
</g>
<!-- Node101 -->
<g id="node41" class="node"><title>Node101</title>
<g id="a_node41"><a xlink:href="expconfig__helpers_8cc.html" target="_top" xlink:title="test/expconfig_helpers.cc">
<polygon fill="white" stroke="black" points="2861,-89.5 2861,-108.5 2989,-108.5 2989,-89.5 2861,-89.5"/>
<text text-anchor="middle" x="2925" y="-96.5" font-family="Helvetica,sans-Serif" font-size="10.00">test/expconfig_helpers.cc</text>
</a>
</g>
</g>
<!-- Node61&#45;&gt;Node101 -->
<g id="edge43" class="edge"><title>Node61&#45;&gt;Node101</title>
<path fill="none" stroke="midnightblue" d="M1515,-170.6C1753.19,-168.811 2588.13,-159.78 2851,-120 2867.18,-117.551 2884.9,-112.838 2898.94,-108.602"/>
<polygon fill="midnightblue" stroke="midnightblue" points="1514.75,-167.102 1504.78,-170.675 1514.8,-174.101 1514.75,-167.102"/>
</g>
<!-- Node71 -->
<g id="node11" class="node"><title>Node71</title>
<g id="a_node11"><a xlink:href="_setup__2007__06_8cc.html" target="_top" xlink:title="src/expconfig/setups\l/Setup_2007_06.cc">
<polygon fill="white" stroke="black" points="461.5,-6 461.5,-36 568.5,-36 568.5,-6 461.5,-6"/>
<text text-anchor="start" x="469.5" y="-24" font-family="Helvetica,sans-Serif" font-size="10.00">src/expconfig/setups</text>
<text text-anchor="middle" x="515" y="-13" font-family="Helvetica,sans-Serif" font-size="10.00">/Setup_2007_06.cc</text>
</a>
</g>
</g>
<!-- Node70&#45;&gt;Node71 -->
<g id="edge10" class="edge"><title>Node70&#45;&gt;Node71</title>
<path fill="none" stroke="midnightblue" d="M1115.73,-81.1345C1111.12,-79.93 1106.5,-78.8555 1102,-78 872.675,-34.3727 807.325,-85.6273 578,-42 570.221,-40.5202 562.059,-38.3852 554.285,-36.0556"/>
<polygon fill="midnightblue" stroke="midnightblue" points="1115.14,-84.6055 1125.71,-83.9444 1117.04,-77.867 1115.14,-84.6055"/>
</g>
<!-- Node72 -->
<g id="node12" class="node"><title>Node72</title>
<g id="a_node12"><a xlink:href="_setup__2007__07_8cc.html" target="_top" xlink:title="src/expconfig/setups\l/Setup_2007_07.cc">
<polygon fill="white" stroke="black" points="586.5,-6 586.5,-36 693.5,-36 693.5,-6 586.5,-6"/>
<text text-anchor="start" x="594.5" y="-24" font-family="Helvetica,sans-Serif" font-size="10.00">src/expconfig/setups</text>
<text text-anchor="middle" x="640" y="-13" font-family="Helvetica,sans-Serif" font-size="10.00">/Setup_2007_07.cc</text>
</a>
</g>
</g>
<!-- Node70&#45;&gt;Node72 -->
<g id="edge11" class="edge"><title>Node70&#45;&gt;Node72</title>
<path fill="none" stroke="midnightblue" d="M1115.51,-81.184C1110.97,-79.9791 1106.42,-78.8905 1102,-78 927.449,-42.8549 877.551,-77.1451 703,-42 695.35,-40.4597 687.319,-38.3266 679.65,-36.0243"/>
<polygon fill="midnightblue" stroke="midnightblue" points="1114.77,-84.6145 1125.35,-83.9757 1116.68,-77.8801 1114.77,-84.6145"/>
</g>
<!-- Node70&#45;&gt;Node73 -->
<g id="edge12" class="edge"><title>Node70&#45;&gt;Node73</title>
<path fill="none" stroke="midnightblue" d="M1114.51,-81.1298C1110.3,-79.9809 1106.09,-78.9175 1102,-78 984.728,-51.7186 951.443,-67.509 834,-42 826.395,-40.3482 818.397,-38.2458 810.696,-36.0281"/>
<polygon fill="midnightblue" stroke="midnightblue" points="1113.7,-84.5376 1124.28,-83.9373 1115.63,-77.8102 1113.7,-84.5376"/>
</g>
<!-- Node75&#45;&gt;Node74 -->
<g id="edge16" class="edge"><title>Node75&#45;&gt;Node74</title>
<path fill="none" stroke="midnightblue" d="M1315.7,-81.5143C1310.08,-80.2178 1304.45,-79.0188 1299,-78 1158.75,-51.7759 1120.11,-68.9311 980,-42 971.612,-40.3878 962.778,-38.3049 954.264,-36.0943"/>
<polygon fill="midnightblue" stroke="midnightblue" points="1315.23,-84.9996 1325.77,-83.9354 1316.86,-78.1937 1315.23,-84.9996"/>
</g>
<!-- Node76 -->
<g id="node16" class="node"><title>Node76</title>
<g id="a_node16"><a xlink:href="_setup__2010__09___compton_8cc.html" target="_top" xlink:title="src/expconfig/setups\l/Setup_2010_09_Compton.cc">
<polygon fill="white" stroke="black" points="989,-6 989,-36 1135,-36 1135,-6 989,-6"/>
<text text-anchor="start" x="997" y="-24" font-family="Helvetica,sans-Serif" font-size="10.00">src/expconfig/setups</text>
<text text-anchor="middle" x="1062" y="-13" font-family="Helvetica,sans-Serif" font-size="10.00">/Setup_2010_09_Compton.cc</text>
</a>
</g>
</g>
<!-- Node75&#45;&gt;Node76 -->
<g id="edge17" class="edge"><title>Node75&#45;&gt;Node76</title>
<path fill="none" stroke="midnightblue" d="M1312.39,-81.3773C1307.86,-80.2202 1303.36,-79.0839 1299,-78 1230.78,-61.0542 1213.39,-58.2331 1145,-42 1136.92,-40.0831 1128.41,-38.0477 1120.03,-36.0376"/>
<polygon fill="midnightblue" stroke="midnightblue" points="1311.75,-84.8266 1322.31,-83.9318 1313.5,-78.0479 1311.75,-84.8266"/>
</g>
<!-- Node79 -->
<g id="node19" class="node"><title>Node79</title>
<g id="a_node19"><a xlink:href="_setup__2014__07___e_p_t___prod_8cc.html" target="_top" xlink:title="src/expconfig/setups\l/Setup_2014_07_EPT_Prod.cc">
<polygon fill="white" stroke="black" points="1153.5,-6 1153.5,-36 1304.5,-36 1304.5,-6 1153.5,-6"/>
<text text-anchor="start" x="1161.5" y="-24" font-family="Helvetica,sans-Serif" font-size="10.00">src/expconfig/setups</text>
<text text-anchor="middle" x="1229" y="-13" font-family="Helvetica,sans-Serif" font-size="10.00">/Setup_2014_07_EPT_Prod.cc</text>
</a>
</g>
</g>
<!-- Node78&#45;&gt;Node79 -->
<g id="edge20" class="edge"><title>Node78&#45;&gt;Node79</title>
<path fill="none" stroke="midnightblue" d="M1622.72,-81.1259C1618.44,-79.9692 1614.16,-78.9056 1610,-78 1480.5,-49.8281 1444.48,-65.2119 1314,-42 1304.45,-40.3006 1294.36,-38.2009 1284.6,-36.0073"/>
<polygon fill="midnightblue" stroke="midnightblue" points="1622.06,-84.5764 1632.63,-83.9632 1623.98,-77.8466 1622.06,-84.5764"/>
</g>
<!-- Node80 -->
<g id="node20" class="node"><title>Node80</title>
<g id="a_node20"><a xlink:href="_setup__2014__10___e_p_t___prod_8cc.html" target="_top" xlink:title="src/expconfig/setups\l/Setup_2014_10_EPT_Prod.cc">
<polygon fill="white" stroke="black" points="1322.5,-6 1322.5,-36 1473.5,-36 1473.5,-6 1322.5,-6"/>
<text text-anchor="start" x="1330.5" y="-24" font-family="Helvetica,sans-Serif" font-size="10.00">src/expconfig/setups</text>
<text text-anchor="middle" x="1398" y="-13" font-family="Helvetica,sans-Serif" font-size="10.00">/Setup_2014_10_EPT_Prod.cc</text>
</a>
</g>
</g>
<!-- Node78&#45;&gt;Node80 -->
<g id="edge21" class="edge"><title>Node78&#45;&gt;Node80</title>
<path fill="none" stroke="midnightblue" d="M1620.09,-80.9962C1616.68,-79.9646 1613.3,-78.9577 1610,-78 1557.54,-62.7551 1497.28,-47.0053 1454.45,-36.1067"/>
<polygon fill="midnightblue" stroke="midnightblue" points="1619.12,-84.3593 1629.71,-83.948 1621.17,-77.6675 1619.12,-84.3593"/>
</g>
<!-- Node81 -->
<g id="node21" class="node"><title>Node81</title>
<g id="a_node21"><a xlink:href="_setup__2014__12___e_p_t___prod_8cc.html" target="_top" xlink:title="src/expconfig/setups\l/Setup_2014_12_EPT_Prod.cc">
<polygon fill="white" stroke="black" points="1491.5,-6 1491.5,-36 1642.5,-36 1642.5,-6 1491.5,-6"/>
<text text-anchor="start" x="1499.5" y="-24" font-family="Helvetica,sans-Serif" font-size="10.00">src/expconfig/setups</text>
<text text-anchor="middle" x="1567" y="-13" font-family="Helvetica,sans-Serif" font-size="10.00">/Setup_2014_12_EPT_Prod.cc</text>
</a>
</g>
</g>
<!-- Node78&#45;&gt;Node81 -->
<g id="edge22" class="edge"><title>Node78&#45;&gt;Node81</title>
<path fill="none" stroke="midnightblue" d="M1644.56,-77.6108C1626.33,-64.5359 1603.11,-47.8895 1586.85,-36.2309"/>
<polygon fill="midnightblue" stroke="midnightblue" points="1642.9,-80.7225 1653.06,-83.705 1646.97,-75.0336 1642.9,-80.7225"/>
</g>
<!-- Node82 -->
<g id="node22" class="node"><title>Node82</title>
<g id="a_node22"><a xlink:href="_setup__2014___e_p_t_8cc.html" target="_top" xlink:title="src/expconfig/setups\l/Setup_2014_EPT.cc">
<polygon fill="white" stroke="black" points="1661,-6 1661,-36 1771,-36 1771,-6 1661,-6"/>
<text text-anchor="start" x="1669" y="-24" font-family="Helvetica,sans-Serif" font-size="10.00">src/expconfig/setups</text>
<text text-anchor="middle" x="1716" y="-13" font-family="Helvetica,sans-Serif" font-size="10.00">/Setup_2014_EPT.cc</text>
</a>
</g>
</g>
<!-- Node78&#45;&gt;Node82 -->
<g id="edge23" class="edge"><title>Node78&#45;&gt;Node82</title>
<path fill="none" stroke="midnightblue" d="M1686.18,-74.7047C1693.29,-62.141 1701.83,-47.0416 1707.95,-36.2309"/>
<polygon fill="midnightblue" stroke="midnightblue" points="1682.97,-73.2779 1681.09,-83.705 1689.06,-76.725 1682.97,-73.2779"/>
</g>
<!-- Node84&#45;&gt;Node83 -->
<g id="edge26" class="edge"><title>Node84&#45;&gt;Node83</title>
<path fill="none" stroke="midnightblue" d="M1845.89,-73.5898C1847.35,-61.2565 1849.07,-46.7237 1850.31,-36.2309"/>
<polygon fill="midnightblue" stroke="midnightblue" points="1842.39,-73.3627 1844.69,-83.705 1849.34,-74.186 1842.39,-73.3627"/>
</g>
<!-- Node86 -->
<g id="node26" class="node"><title>Node86</title>
<g id="a_node26"><a xlink:href="_setup__2017__03_8cc.html" target="_top" xlink:title="src/expconfig/setups\l/Setup_2017_03.cc">
<polygon fill="white" stroke="black" points="1932.5,-6 1932.5,-36 2039.5,-36 2039.5,-6 1932.5,-6"/>
<text text-anchor="start" x="1940.5" y="-24" font-family="Helvetica,sans-Serif" font-size="10.00">src/expconfig/setups</text>
<text text-anchor="middle" x="1986" y="-13" font-family="Helvetica,sans-Serif" font-size="10.00">/Setup_2017_03.cc</text>
</a>
</g>
</g>
<!-- Node85&#45;&gt;Node86 -->
<g id="edge28" class="edge"><title>Node85&#45;&gt;Node86</title>
<path fill="none" stroke="midnightblue" d="M1978.53,-73.5898C1980.32,-61.2565 1982.42,-46.7237 1983.94,-36.2309"/>
<polygon fill="midnightblue" stroke="midnightblue" points="1975.04,-73.3067 1977.07,-83.705 1981.97,-74.3095 1975.04,-73.3067"/>
</g>
<!-- Node88 -->
<g id="node28" class="node"><title>Node88</title>
<g id="a_node28"><a xlink:href="_setup__2017__05_8cc.html" target="_top" xlink:title="src/expconfig/setups\l/Setup_2017_05.cc">
<polygon fill="white" stroke="black" points="2057.5,-6 2057.5,-36 2164.5,-36 2164.5,-6 2057.5,-6"/>
<text text-anchor="start" x="2065.5" y="-24" font-family="Helvetica,sans-Serif" font-size="10.00">src/expconfig/setups</text>
<text text-anchor="middle" x="2111" y="-13" font-family="Helvetica,sans-Serif" font-size="10.00">/Setup_2017_05.cc</text>
</a>
</g>
</g>
<!-- Node87&#45;&gt;Node88 -->
<g id="edge30" class="edge"><title>Node87&#45;&gt;Node88</title>
<path fill="none" stroke="midnightblue" d="M2103.53,-73.5898C2105.32,-61.2565 2107.42,-46.7237 2108.94,-36.2309"/>
<polygon fill="midnightblue" stroke="midnightblue" points="2100.04,-73.3067 2102.07,-83.705 2106.97,-74.3095 2100.04,-73.3067"/>
</g>
<!-- Node90 -->
<g id="node30" class="node"><title>Node90</title>
<g id="a_node30"><a xlink:href="_setup__2017__12_8cc.html" target="_top" xlink:title="src/expconfig/setups\l/Setup_2017_12.cc">
<polygon fill="white" stroke="black" points="2182.5,-6 2182.5,-36 2289.5,-36 2289.5,-6 2182.5,-6"/>
<text text-anchor="start" x="2190.5" y="-24" font-family="Helvetica,sans-Serif" font-size="10.00">src/expconfig/setups</text>
<text text-anchor="middle" x="2236" y="-13" font-family="Helvetica,sans-Serif" font-size="10.00">/Setup_2017_12.cc</text>
</a>
</g>
</g>
<!-- Node89&#45;&gt;Node90 -->
<g id="edge32" class="edge"><title>Node89&#45;&gt;Node90</title>
<path fill="none" stroke="midnightblue" d="M2241.48,-68.2829C2240.17,-57.2536 2238.75,-45.2457 2237.68,-36.2254"/>
<polygon fill="midnightblue" stroke="midnightblue" points="2238.03,-68.9091 2242.68,-78.4281 2244.98,-68.0859 2238.03,-68.9091"/>
</g>
<!-- Node91 -->
<g id="node31" class="node"><title>Node91</title>
<g id="a_node31"><a xlink:href="_setup__2017_plus___new_tagger___base_8cc.html" target="_top" xlink:title="src/expconfig/setups\l/Setup_2017Plus_NewTagger\l_Base.cc">
<polygon fill="white" stroke="black" points="2308,-0.5 2308,-41.5 2454,-41.5 2454,-0.5 2308,-0.5"/>
<text text-anchor="start" x="2316" y="-29.5" font-family="Helvetica,sans-Serif" font-size="10.00">src/expconfig/setups</text>
<text text-anchor="start" x="2316" y="-18.5" font-family="Helvetica,sans-Serif" font-size="10.00">/Setup_2017Plus_NewTagger</text>
<text text-anchor="middle" x="2381" y="-7.5" font-family="Helvetica,sans-Serif" font-size="10.00">_Base.cc</text>
</a>
</g>
</g>
<!-- Node89&#45;&gt;Node91 -->
<g id="edge33" class="edge"><title>Node89&#45;&gt;Node91</title>
<path fill="none" stroke="midnightblue" d="M2288.87,-73.4856C2307.39,-63.1335 2328.66,-51.2473 2346.1,-41.5056"/>
<polygon fill="midnightblue" stroke="midnightblue" points="2287.05,-70.4945 2280.02,-78.4281 2290.46,-76.6052 2287.05,-70.4945"/>
</g>
<!-- Node92 -->
<g id="node32" class="node"><title>Node92</title>
<g id="a_node32"><a xlink:href="_setup__2018__03_8cc.html" target="_top" xlink:title="src/expconfig/setups\l/Setup_2018_03.cc">
<polygon fill="white" stroke="black" points="2472.5,-6 2472.5,-36 2579.5,-36 2579.5,-6 2472.5,-6"/>
<text text-anchor="start" x="2480.5" y="-24" font-family="Helvetica,sans-Serif" font-size="10.00">src/expconfig/setups</text>
<text text-anchor="middle" x="2526" y="-13" font-family="Helvetica,sans-Serif" font-size="10.00">/Setup_2018_03.cc</text>
</a>
</g>
</g>
<!-- Node89&#45;&gt;Node92 -->
<g id="edge34" class="edge"><title>Node89&#45;&gt;Node92</title>
<path fill="none" stroke="midnightblue" d="M2328.33,-77.7567C2369.08,-67.5622 2418.76,-54.6942 2463,-42 2469.4,-40.1644 2476.13,-38.1339 2482.72,-36.0911"/>
<polygon fill="midnightblue" stroke="midnightblue" points="2327.3,-74.407 2318.44,-80.2222 2328.99,-81.1991 2327.3,-74.407"/>
</g>
<!-- Node93 -->
<g id="node33" class="node"><title>Node93</title>
<g id="a_node33"><a xlink:href="_setup__2018__05_8cc.html" target="_top" xlink:title="src/expconfig/setups\l/Setup_2018_05.cc">
<polygon fill="white" stroke="black" points="2597.5,-6 2597.5,-36 2704.5,-36 2704.5,-6 2597.5,-6"/>
<text text-anchor="start" x="2605.5" y="-24" font-family="Helvetica,sans-Serif" font-size="10.00">src/expconfig/setups</text>
<text text-anchor="middle" x="2651" y="-13" font-family="Helvetica,sans-Serif" font-size="10.00">/Setup_2018_05.cc</text>
</a>
</g>
</g>
<!-- Node89&#45;&gt;Node93 -->
<g id="edge35" class="edge"><title>Node89&#45;&gt;Node93</title>
<path fill="none" stroke="midnightblue" d="M2328.23,-78.0764C2444.41,-56.9068 2477.33,-67.038 2588,-42 2595.28,-40.3541 2602.92,-38.2546 2610.27,-36.038"/>
<polygon fill="midnightblue" stroke="midnightblue" points="2327.43,-74.6667 2318.24,-79.9374 2328.71,-81.5485 2327.43,-74.6667"/>
</g>
<!-- Node94 -->
<g id="node34" class="node"><title>Node94</title>
<g id="a_node34"><a xlink:href="_setup__2018__09_8cc.html" target="_top" xlink:title="src/expconfig/setups\l/Setup_2018_09.cc">
<polygon fill="white" stroke="black" points="2722.5,-6 2722.5,-36 2829.5,-36 2829.5,-6 2722.5,-6"/>
<text text-anchor="start" x="2730.5" y="-24" font-family="Helvetica,sans-Serif" font-size="10.00">src/expconfig/setups</text>
<text text-anchor="middle" x="2776" y="-13" font-family="Helvetica,sans-Serif" font-size="10.00">/Setup_2018_09.cc</text>
</a>
</g>
</g>
<!-- Node89&#45;&gt;Node94 -->
<g id="edge36" class="edge"><title>Node89&#45;&gt;Node94</title>
<path fill="none" stroke="midnightblue" d="M2328.31,-78.1079C2499.36,-50.7816 2547.79,-75.5449 2713,-42 2720.65,-40.4473 2728.68,-38.3083 2736.35,-36.0041"/>
<polygon fill="midnightblue" stroke="midnightblue" points="2327.51,-74.6918 2318.2,-79.759 2328.64,-81.6001 2327.51,-74.6918"/>
</g>
<!-- Node96 -->
<g id="node36" class="node"><title>Node96</title>
<g id="a_node36"><a xlink:href="_setup__2018__11_8cc.html" target="_top" xlink:title="src/expconfig/setups\l/Setup_2018_11.cc">
<polygon fill="white" stroke="black" points="2847.5,-6 2847.5,-36 2954.5,-36 2954.5,-6 2847.5,-6"/>
<text text-anchor="start" x="2855.5" y="-24" font-family="Helvetica,sans-Serif" font-size="10.00">src/expconfig/setups</text>
<text text-anchor="middle" x="2901" y="-13" font-family="Helvetica,sans-Serif" font-size="10.00">/Setup_2018_11.cc</text>
</a>
</g>
</g>
<!-- Node95&#45;&gt;Node96 -->
<g id="edge38" class="edge"><title>Node95&#45;&gt;Node96</title>
<path fill="none" stroke="midnightblue" d="M2439.5,-81.1994C2444.03,-79.9912 2448.58,-78.8977 2453,-78 2621.42,-43.8039 2669.58,-76.1961 2838,-42 2845.65,-40.4473 2853.68,-38.3083 2861.35,-36.0041"/>
<polygon fill="midnightblue" stroke="midnightblue" points="2438.32,-77.8962 2429.65,-83.9959 2440.23,-84.6297 2438.32,-77.8962"/>
</g>
<!-- Node98 -->
<g id="node38" class="node"><title>Node98</title>
<g id="a_node38"><a xlink:href="_setup__2019__01_8cc.html" target="_top" xlink:title="src/expconfig/setups\l/Setup_2019_01.cc">
<polygon fill="white" stroke="black" points="2972.5,-6 2972.5,-36 3079.5,-36 3079.5,-6 2972.5,-6"/>
<text text-anchor="start" x="2980.5" y="-24" font-family="Helvetica,sans-Serif" font-size="10.00">src/expconfig/setups</text>
<text text-anchor="middle" x="3026" y="-13" font-family="Helvetica,sans-Serif" font-size="10.00">/Setup_2019_01.cc</text>
</a>
</g>
</g>
<!-- Node97&#45;&gt;Node98 -->
<g id="edge40" class="edge"><title>Node97&#45;&gt;Node98</title>
<path fill="none" stroke="midnightblue" d="M2564.5,-81.1994C2569.03,-79.9912 2573.58,-78.8977 2578,-78 2746.42,-43.8039 2794.58,-76.1961 2963,-42 2970.65,-40.4473 2978.68,-38.3083 2986.35,-36.0041"/>
<polygon fill="midnightblue" stroke="midnightblue" points="2563.32,-77.8962 2554.65,-83.9959 2565.23,-84.6297 2563.32,-77.8962"/>
</g>
</g>
</svg>
