<?xml version="1.0" encoding="UTF-8" standalone="no"?>
<!DOCTYPE svg PUBLIC "-//W3C//DTD SVG 1.1//EN"
 "http://www.w3.org/Graphics/SVG/1.1/DTD/svg11.dtd">
<!-- Generated by graphviz version 2.36.0 (20140111.2315)
 -->
<!-- Title: src/calibration/modules/TAPS_ShowerCorrection.h Pages: 1 -->
<svg width="1350pt" height="118pt"
 viewBox="0.00 0.00 1350.00 118.00" xmlns="http://www.w3.org/2000/svg" xmlns:xlink="http://www.w3.org/1999/xlink">
<g id="graph0" class="graph" transform="scale(1 1) rotate(0) translate(4 114)">
<title>src/calibration/modules/TAPS_ShowerCorrection.h</title>
<polygon fill="white" stroke="none" points="-4,4 -4,-114 1346,-114 1346,4 -4,4"/>
<!-- Node51 -->
<g id="node1" class="node"><title>Node51</title>
<polygon fill="#bfbfbf" stroke="black" points="595.5,-79 595.5,-109 732.5,-109 732.5,-79 595.5,-79"/>
<text text-anchor="start" x="603.5" y="-97" font-family="Helvetica,sans-Serif" font-size="10.00">src/calibration/modules</text>
<text text-anchor="middle" x="664" y="-86" font-family="Helvetica,sans-Serif" font-size="10.00">/TAPS_ShowerCorrection.h</text>
</g>
<!-- Node52 -->
<g id="node2" class="node"><title>Node52</title>
<g id="a_node2"><a xlink:href="_setup__2007___base_8cc.html" target="_top" xlink:title="src/expconfig/setups\l/Setup_2007_Base.cc">
<polygon fill="white" stroke="black" points="-0.5,-6 -0.5,-36 112.5,-36 112.5,-6 -0.5,-6"/>
<text text-anchor="start" x="7.5" y="-24" font-family="Helvetica,sans-Serif" font-size="10.00">src/expconfig/setups</text>
<text text-anchor="middle" x="56" y="-13" font-family="Helvetica,sans-Serif" font-size="10.00">/Setup_2007_Base.cc</text>
</a>
</g>
</g>
<!-- Node51&#45;&gt;Node52 -->
<g id="edge1" class="edge"><title>Node51&#45;&gt;Node52</title>
<path fill="none" stroke="midnightblue" d="M585.041,-90.523C478.884,-86.0697 284.673,-73.9652 122,-42 114.129,-40.4533 105.857,-38.3463 97.933,-36.0781"/>
<polygon fill="midnightblue" stroke="midnightblue" points="585.214,-94.0329 595.348,-90.9429 585.499,-87.0387 585.214,-94.0329"/>
</g>
<!-- Node53 -->
<g id="node3" class="node"><title>Node53</title>
<g id="a_node3"><a xlink:href="_setup__2010__03___base_8cc.html" target="_top" xlink:title="src/expconfig/setups\l/Setup_2010_03_Base.cc">
<polygon fill="white" stroke="black" points="131,-6 131,-36 259,-36 259,-6 131,-6"/>
<text text-anchor="start" x="139" y="-24" font-family="Helvetica,sans-Serif" font-size="10.00">src/expconfig/setups</text>
<text text-anchor="middle" x="195" y="-13" font-family="Helvetica,sans-Serif" font-size="10.00">/Setup_2010_03_Base.cc</text>
</a>
</g>
</g>
<!-- Node51&#45;&gt;Node53 -->
<g id="edge2" class="edge"><title>Node51&#45;&gt;Node53</title>
<path fill="none" stroke="midnightblue" d="M585.168,-86.1125C504.87,-78.3343 377.012,-63.8423 268,-42 259.754,-40.3478 251.068,-38.2716 242.678,-36.0869"/>
<polygon fill="midnightblue" stroke="midnightblue" points="584.916,-89.6043 595.204,-87.0737 585.584,-82.6362 584.916,-89.6043"/>
</g>
<!-- Node54 -->
<g id="node4" class="node"><title>Node54</title>
<g id="a_node4"><a xlink:href="_setup__2014___e_p_t_8cc.html" target="_top" xlink:title="src/expconfig/setups\l/Setup_2014_EPT.cc">
<polygon fill="white" stroke="black" points="277,-6 277,-36 387,-36 387,-6 277,-6"/>
<text text-anchor="start" x="285" y="-24" font-family="Helvetica,sans-Serif" font-size="10.00">src/expconfig/setups</text>
<text text-anchor="middle" x="332" y="-13" font-family="Helvetica,sans-Serif" font-size="10.00">/Setup_2014_EPT.cc</text>
</a>
</g>
</g>
<!-- Node51&#45;&gt;Node54 -->
<g id="edge3" class="edge"><title>Node51&#45;&gt;Node54</title>
<path fill="none" stroke="midnightblue" d="M585.099,-80.4386C531.439,-71.297 459.015,-57.7866 396,-42 388.999,-40.2461 381.635,-38.1686 374.495,-36.0272"/>
<polygon fill="midnightblue" stroke="midnightblue" points="584.789,-83.9358 595.233,-82.1511 585.956,-77.0337 584.789,-83.9358"/>
</g>
<!-- Node55 -->
<g id="node5" class="node"><title>Node55</title>
<g id="a_node5"><a xlink:href="_setup__2015__01___pion_8cc.html" target="_top" xlink:title="src/expconfig/setups\l/Setup_2015_01_Pion.cc">
<polygon fill="white" stroke="black" points="405.5,-6 405.5,-36 530.5,-36 530.5,-6 405.5,-6"/>
<text text-anchor="start" x="413.5" y="-24" font-family="Helvetica,sans-Serif" font-size="10.00">src/expconfig/setups</text>
<text text-anchor="middle" x="468" y="-13" font-family="Helvetica,sans-Serif" font-size="10.00">/Setup_2015_01_Pion.cc</text>
</a>
</g>
</g>
<!-- Node51&#45;&gt;Node55 -->
<g id="edge4" class="edge"><title>Node51&#45;&gt;Node55</title>
<path fill="none" stroke="midnightblue" d="M615.693,-75.501C582.217,-63.3743 538.22,-47.4369 506.978,-36.1195"/>
<polygon fill="midnightblue" stroke="midnightblue" points="614.682,-78.8575 625.277,-78.9727 617.067,-72.276 614.682,-78.8575"/>
</g>
<!-- Node56 -->
<g id="node6" class="node"><title>Node56</title>
<g id="a_node6"><a xlink:href="_setup__2017__03_8cc.html" target="_top" xlink:title="src/expconfig/setups\l/Setup_2017_03.cc">
<polygon fill="white" stroke="black" points="548.5,-6 548.5,-36 655.5,-36 655.5,-6 548.5,-6"/>
<text text-anchor="start" x="556.5" y="-24" font-family="Helvetica,sans-Serif" font-size="10.00">src/expconfig/setups</text>
<text text-anchor="middle" x="602" y="-13" font-family="Helvetica,sans-Serif" font-size="10.00">/Setup_2017_03.cc</text>
</a>
</g>
</g>
<!-- Node51&#45;&gt;Node56 -->
<g id="edge5" class="edge"><title>Node51&#45;&gt;Node56</title>
<path fill="none" stroke="midnightblue" d="M644.986,-71.226C635.136,-59.9457 623.377,-46.4798 614.649,-36.4856"/>
<polygon fill="midnightblue" stroke="midnightblue" points="642.537,-73.7425 651.751,-78.9727 647.81,-69.1382 642.537,-73.7425"/>
</g>
<!-- Node57 -->
<g id="node7" class="node"><title>Node57</title>
<g id="a_node7"><a xlink:href="_setup__2017__05_8cc.html" target="_top" xlink:title="src/expconfig/setups\l/Setup_2017_05.cc">
<polygon fill="white" stroke="black" points="673.5,-6 673.5,-36 780.5,-36 780.5,-6 673.5,-6"/>
<text text-anchor="start" x="681.5" y="-24" font-family="Helvetica,sans-Serif" font-size="10.00">src/expconfig/setups</text>
<text text-anchor="middle" x="727" y="-13" font-family="Helvetica,sans-Serif" font-size="10.00">/Setup_2017_05.cc</text>
</a>
</g>
</g>
<!-- Node51&#45;&gt;Node57 -->
<g id="edge6" class="edge"><title>Node51&#45;&gt;Node57</title>
<path fill="none" stroke="midnightblue" d="M683.321,-71.226C693.33,-59.9457 705.279,-46.4798 714.147,-36.4856"/>
<polygon fill="midnightblue" stroke="midnightblue" points="680.466,-69.1698 676.447,-78.9727 685.702,-73.8158 680.466,-69.1698"/>
</g>
<!-- Node58 -->
<g id="node8" class="node"><title>Node58</title>
<g id="a_node8"><a xlink:href="_setup__2017_plus___new_tagger___base_8cc.html" target="_top" xlink:title="src/expconfig/setups\l/Setup_2017Plus_NewTagger\l_Base.cc">
<polygon fill="white" stroke="black" points="799,-0.5 799,-41.5 945,-41.5 945,-0.5 799,-0.5"/>
<text text-anchor="start" x="807" y="-29.5" font-family="Helvetica,sans-Serif" font-size="10.00">src/expconfig/setups</text>
<text text-anchor="start" x="807" y="-18.5" font-family="Helvetica,sans-Serif" font-size="10.00">/Setup_2017Plus_NewTagger</text>
<text text-anchor="middle" x="872" y="-7.5" font-family="Helvetica,sans-Serif" font-size="10.00">_Base.cc</text>
</a>
</g>
</g>
<!-- Node51&#45;&gt;Node58 -->
<g id="edge7" class="edge"><title>Node51&#45;&gt;Node58</title>
<path fill="none" stroke="midnightblue" d="M714.616,-75.7223C744.902,-65.3846 783.473,-52.2183 814.851,-41.5075"/>
<polygon fill="midnightblue" stroke="midnightblue" points="713.427,-72.4298 705.094,-78.9727 715.689,-79.0545 713.427,-72.4298"/>
</g>
<!-- Node59 -->
<g id="node9" class="node"><title>Node59</title>
<g id="a_node9"><a xlink:href="_setup__2018__11_8cc.html" target="_top" xlink:title="src/expconfig/setups\l/Setup_2018_11.cc">
<polygon fill="white" stroke="black" points="963.5,-6 963.5,-36 1070.5,-36 1070.5,-6 963.5,-6"/>
<text text-anchor="start" x="971.5" y="-24" font-family="Helvetica,sans-Serif" font-size="10.00">src/expconfig/setups</text>
<text text-anchor="middle" x="1017" y="-13" font-family="Helvetica,sans-Serif" font-size="10.00">/Setup_2018_11.cc</text>
</a>
</g>
</g>
<!-- Node51&#45;&gt;Node59 -->
<g id="edge8" class="edge"><title>Node51&#45;&gt;Node59</title>
<path fill="none" stroke="midnightblue" d="M742.449,-82.1015C801.135,-73.2498 883.135,-59.3975 954,-42 961.021,-40.2763 968.402,-38.1898 975.54,-36.0234"/>
<polygon fill="midnightblue" stroke="midnightblue" points="741.878,-78.6479 732.505,-83.5873 742.912,-85.5711 741.878,-78.6479"/>
</g>
<!-- Node60 -->
<g id="node10" class="node"><title>Node60</title>
<g id="a_node10"><a xlink:href="_setup__2019__01_8cc.html" target="_top" xlink:title="src/expconfig/setups\l/Setup_2019_01.cc">
<polygon fill="white" stroke="black" points="1088.5,-6 1088.5,-36 1195.5,-36 1195.5,-6 1088.5,-6"/>
<text text-anchor="start" x="1096.5" y="-24" font-family="Helvetica,sans-Serif" font-size="10.00">src/expconfig/setups</text>
<text text-anchor="middle" x="1142" y="-13" font-family="Helvetica,sans-Serif" font-size="10.00">/Setup_2019_01.cc</text>
</a>
</g>
</g>
<!-- Node51&#45;&gt;Node60 -->
<g id="edge9" class="edge"><title>Node51&#45;&gt;Node60</title>
<path fill="none" stroke="midnightblue" d="M742.56,-87.7001C826.562,-81.0237 963.313,-67.2436 1079,-42 1086.4,-40.3854 1094.17,-38.2739 1101.63,-36.0292"/>
<polygon fill="midnightblue" stroke="midnightblue" points="742.28,-84.2112 732.582,-88.4794 742.825,-91.19 742.28,-84.2112"/>
</g>
<!-- Node61 -->
<g id="node11" class="node"><title>Node61</title>
<g id="a_node11"><a xlink:href="expconfig__helpers_8cc.html" target="_top" xlink:title="test/expconfig_helpers.cc">
<polygon fill="white" stroke="black" points="1214,-11.5 1214,-30.5 1342,-30.5 1342,-11.5 1214,-11.5"/>
<text text-anchor="middle" x="1278" y="-18.5" font-family="Helvetica,sans-Serif" font-size="10.00">test/expconfig_helpers.cc</text>
</a>
</g>
</g>
<!-- Node51&#45;&gt;Node61 -->
<g id="edge10" class="edge"><title>Node51&#45;&gt;Node61</title>
<path fill="none" stroke="midnightblue" d="M742.968,-89.7442C848.674,-84.4309 1041.69,-71.3791 1204,-42 1219.71,-39.1556 1236.96,-34.5833 1250.84,-30.528"/>
<polygon fill="midnightblue" stroke="midnightblue" points="742.518,-86.262 732.702,-90.2495 742.862,-93.2535 742.518,-86.262"/>
</g>
</g>
</svg>
