<?xml version="1.0" encoding="UTF-8" standalone="no"?>
<!DOCTYPE svg PUBLIC "-//W3C//DTD SVG 1.1//EN"
 "http://www.w3.org/Graphics/SVG/1.1/DTD/svg11.dtd">
<!-- Generated by graphviz version 2.36.0 (20140111.2315)
 -->
<!-- Title: src/expconfig/detectors/TAPSVeto.h Pages: 1 -->
<svg width="3258pt" height="196pt"
 viewBox="0.00 0.00 3258.00 196.00" xmlns="http://www.w3.org/2000/svg" xmlns:xlink="http://www.w3.org/1999/xlink">
<g id="graph0" class="graph" transform="scale(1 1) rotate(0) translate(4 192)">
<title>src/expconfig/detectors/TAPSVeto.h</title>
<polygon fill="white" stroke="none" points="-4,4 -4,-192 3254,-192 3254,4 -4,4"/>
<!-- Node56 -->
<g id="node1" class="node"><title>Node56</title>
<polygon fill="#bfbfbf" stroke="black" points="1360.5,-157 1360.5,-187 1479.5,-187 1479.5,-157 1360.5,-157"/>
<text text-anchor="start" x="1368.5" y="-175" font-family="Helvetica,sans-Serif" font-size="10.00">src/expconfig/detectors</text>
<text text-anchor="middle" x="1420" y="-164" font-family="Helvetica,sans-Serif" font-size="10.00">/TAPSVeto.h</text>
</g>
<!-- Node57 -->
<g id="node2" class="node"><title>Node57</title>
<g id="a_node2"><a xlink:href="_m_c_fake_reconstructed_8cc.html" target="_top" xlink:title="src/analysis/utils\l/MCFakeReconstructed.cc">
<polygon fill="white" stroke="black" points="0,-84 0,-114 134,-114 134,-84 0,-84"/>
<text text-anchor="start" x="8" y="-102" font-family="Helvetica,sans-Serif" font-size="10.00">src/analysis/utils</text>
<text text-anchor="middle" x="67" y="-91" font-family="Helvetica,sans-Serif" font-size="10.00">/MCFakeReconstructed.cc</text>
</a>
</g>
</g>
<!-- Node56&#45;&gt;Node57 -->
<g id="edge1" class="edge"><title>Node56&#45;&gt;Node57</title>
<path fill="none" stroke="midnightblue" d="M1349.81,-170.205C1118.06,-167.265 378.696,-155.289 143,-120 133.555,-118.586 123.592,-116.45 114.102,-114.092"/>
<polygon fill="midnightblue" stroke="midnightblue" points="1350.09,-173.709 1360.13,-170.334 1350.17,-166.709 1350.09,-173.709"/>
</g>
<!-- Node58 -->
<g id="node3" class="node"><title>Node58</title>
<g id="a_node3"><a xlink:href="calibration_2modules_2_t_a_p_s_veto___energy_8cc.html" target="_top" xlink:title="src/calibration/modules\l/TAPSVeto_Energy.cc">
<polygon fill="white" stroke="black" points="152.5,-84 152.5,-114 269.5,-114 269.5,-84 152.5,-84"/>
<text text-anchor="start" x="160.5" y="-102" font-family="Helvetica,sans-Serif" font-size="10.00">src/calibration/modules</text>
<text text-anchor="middle" x="211" y="-91" font-family="Helvetica,sans-Serif" font-size="10.00">/TAPSVeto_Energy.cc</text>
</a>
</g>
</g>
<!-- Node56&#45;&gt;Node58 -->
<g id="edge2" class="edge"><title>Node56&#45;&gt;Node58</title>
<path fill="none" stroke="midnightblue" d="M1350.05,-170.082C1135.17,-166.914 486.706,-154.663 279,-120 270.504,-118.582 261.569,-116.444 253.072,-114.086"/>
<polygon fill="midnightblue" stroke="midnightblue" points="1350.2,-173.585 1360.25,-170.231 1350.31,-166.585 1350.2,-173.585"/>
</g>
<!-- Node59 -->
<g id="node4" class="node"><title>Node59</title>
<g id="a_node4"><a xlink:href="_t_a_p_s_veto___time_8cc.html" target="_top" xlink:title="src/calibration/modules\l/TAPSVeto_Time.cc">
<polygon fill="white" stroke="black" points="287.5,-84 287.5,-114 404.5,-114 404.5,-84 287.5,-84"/>
<text text-anchor="start" x="295.5" y="-102" font-family="Helvetica,sans-Serif" font-size="10.00">src/calibration/modules</text>
<text text-anchor="middle" x="346" y="-91" font-family="Helvetica,sans-Serif" font-size="10.00">/TAPSVeto_Time.cc</text>
</a>
</g>
</g>
<!-- Node56&#45;&gt;Node59 -->
<g id="edge3" class="edge"><title>Node56&#45;&gt;Node59</title>
<path fill="none" stroke="midnightblue" d="M1350.02,-169.594C1152.69,-165.289 594.489,-150.676 414,-120 405.508,-118.557 396.576,-116.407 388.079,-114.046"/>
<polygon fill="midnightblue" stroke="midnightblue" points="1350.18,-173.098 1360.26,-169.815 1350.34,-166.1 1350.18,-173.098"/>
</g>
<!-- Node60 -->
<g id="node5" class="node"><title>Node60</title>
<g id="a_node5"><a xlink:href="_t_a_p_s_veto__2007___ba_f2__elements_8h.html" target="_top" xlink:title="src/expconfig/detectors\l/detail/TAPSVeto_2007\l_BaF2_elements.h">
<polygon fill="white" stroke="black" points="422.5,-78.5 422.5,-119.5 541.5,-119.5 541.5,-78.5 422.5,-78.5"/>
<text text-anchor="start" x="430.5" y="-107.5" font-family="Helvetica,sans-Serif" font-size="10.00">src/expconfig/detectors</text>
<text text-anchor="start" x="430.5" y="-96.5" font-family="Helvetica,sans-Serif" font-size="10.00">/detail/TAPSVeto_2007</text>
<text text-anchor="middle" x="482" y="-85.5" font-family="Helvetica,sans-Serif" font-size="10.00">_BaF2_elements.h</text>
</a>
</g>
</g>
<!-- Node56&#45;&gt;Node60 -->
<g id="edge4" class="edge"><title>Node56&#45;&gt;Node60</title>
<path fill="none" stroke="midnightblue" d="M1350.08,-171.705C1202.39,-172.137 848.196,-167.593 556,-120 551.271,-119.23 546.409,-118.281 541.545,-117.218"/>
<polygon fill="midnightblue" stroke="midnightblue" points="1350.37,-175.204 1360.35,-171.666 1350.34,-168.204 1350.37,-175.204"/>
</g>
<!-- Node61 -->
<g id="node6" class="node"><title>Node61</title>
<g id="a_node6"><a xlink:href="_t_a_p_s_veto_8cc.html" target="_top" xlink:title="src/expconfig/detectors\l/TAPSVeto.cc">
<polygon fill="white" stroke="black" points="638.5,-6 638.5,-36 757.5,-36 757.5,-6 638.5,-6"/>
<text text-anchor="start" x="646.5" y="-24" font-family="Helvetica,sans-Serif" font-size="10.00">src/expconfig/detectors</text>
<text text-anchor="middle" x="698" y="-13" font-family="Helvetica,sans-Serif" font-size="10.00">/TAPSVeto.cc</text>
</a>
</g>
</g>
<!-- Node56&#45;&gt;Node61 -->
<g id="edge18" class="edge"><title>Node56&#45;&gt;Node61</title>
<path fill="none" stroke="midnightblue" d="M1350.36,-169.289C1155.28,-164.161 615.901,-147.541 590,-120 577.212,-106.402 580.303,-93.9505 590,-78 602.288,-57.7868 624.496,-44.5414 645.592,-36.0359"/>
<polygon fill="midnightblue" stroke="midnightblue" points="1350.41,-172.792 1360.5,-169.554 1350.59,-165.794 1350.41,-172.792"/>
</g>
<!-- Node62 -->
<g id="node7" class="node"><title>Node62</title>
<g id="a_node7"><a xlink:href="_t_a_p_s_veto__2009__03___ba_f2__elements_8h.html" target="_top" xlink:title="src/expconfig/detectors\l/detail/TAPSVeto_2009\l_03_BaF2_elements.h">
<polygon fill="white" stroke="black" points="598.5,-78.5 598.5,-119.5 717.5,-119.5 717.5,-78.5 598.5,-78.5"/>
<text text-anchor="start" x="606.5" y="-107.5" font-family="Helvetica,sans-Serif" font-size="10.00">src/expconfig/detectors</text>
<text text-anchor="start" x="606.5" y="-96.5" font-family="Helvetica,sans-Serif" font-size="10.00">/detail/TAPSVeto_2009</text>
<text text-anchor="middle" x="658" y="-85.5" font-family="Helvetica,sans-Serif" font-size="10.00">_03_BaF2_elements.h</text>
</a>
</g>
</g>
<!-- Node56&#45;&gt;Node62 -->
<g id="edge6" class="edge"><title>Node56&#45;&gt;Node62</title>
<path fill="none" stroke="midnightblue" d="M1349.89,-170.653C1224.11,-168.966 952.205,-160.467 727,-120 723.931,-119.449 720.804,-118.814 717.658,-118.118"/>
<polygon fill="midnightblue" stroke="midnightblue" points="1350.11,-174.156 1360.15,-170.78 1350.19,-167.156 1350.11,-174.156"/>
</g>
<!-- Node63 -->
<g id="node8" class="node"><title>Node63</title>
<g id="a_node8"><a xlink:href="_t_a_p_s_veto__2009__03___pb_w_o4__elements_8h.html" target="_top" xlink:title="src/expconfig/detectors\l/detail/TAPSVeto_2009\l_03_PbWO4_elements.h">
<polygon fill="white" stroke="black" points="735.5,-78.5 735.5,-119.5 860.5,-119.5 860.5,-78.5 735.5,-78.5"/>
<text text-anchor="start" x="743.5" y="-107.5" font-family="Helvetica,sans-Serif" font-size="10.00">src/expconfig/detectors</text>
<text text-anchor="start" x="743.5" y="-96.5" font-family="Helvetica,sans-Serif" font-size="10.00">/detail/TAPSVeto_2009</text>
<text text-anchor="middle" x="798" y="-85.5" font-family="Helvetica,sans-Serif" font-size="10.00">_03_PbWO4_elements.h</text>
</a>
</g>
</g>
<!-- Node56&#45;&gt;Node63 -->
<g id="edge8" class="edge"><title>Node56&#45;&gt;Node63</title>
<path fill="none" stroke="midnightblue" d="M1349.95,-168.507C1244.91,-163.869 1040.69,-151.361 870,-120 866.938,-119.437 863.817,-118.804 860.675,-118.119"/>
<polygon fill="midnightblue" stroke="midnightblue" points="1349.97,-172.011 1360.11,-168.945 1350.27,-165.017 1349.97,-172.011"/>
</g>
<!-- Node64 -->
<g id="node9" class="node"><title>Node64</title>
<g id="a_node9"><a xlink:href="_t_a_p_s_veto__2013__11___ba_f2__elements_8h.html" target="_top" xlink:title="src/expconfig/detectors\l/detail/TAPSVeto_2013\l_11_BaF2_elements.h">
<polygon fill="white" stroke="black" points="878.5,-78.5 878.5,-119.5 997.5,-119.5 997.5,-78.5 878.5,-78.5"/>
<text text-anchor="start" x="886.5" y="-107.5" font-family="Helvetica,sans-Serif" font-size="10.00">src/expconfig/detectors</text>
<text text-anchor="start" x="886.5" y="-96.5" font-family="Helvetica,sans-Serif" font-size="10.00">/detail/TAPSVeto_2013</text>
<text text-anchor="middle" x="938" y="-85.5" font-family="Helvetica,sans-Serif" font-size="10.00">_11_BaF2_elements.h</text>
</a>
</g>
</g>
<!-- Node56&#45;&gt;Node64 -->
<g id="edge10" class="edge"><title>Node56&#45;&gt;Node64</title>
<path fill="none" stroke="midnightblue" d="M1350.34,-165.805C1267.8,-158.867 1126.4,-144.513 1007,-120 1003.95,-119.373 1000.83,-118.678 997.694,-117.933"/>
<polygon fill="midnightblue" stroke="midnightblue" points="1350.1,-169.298 1360.36,-166.635 1350.68,-162.321 1350.1,-169.298"/>
</g>
<!-- Node65 -->
<g id="node10" class="node"><title>Node65</title>
<g id="a_node10"><a xlink:href="_t_a_p_s_veto__2013__11___pb_w_o4__elements_8h.html" target="_top" xlink:title="src/expconfig/detectors\l/detail/TAPSVeto_2013\l_11_PbWO4_elements.h">
<polygon fill="white" stroke="black" points="1015.5,-78.5 1015.5,-119.5 1140.5,-119.5 1140.5,-78.5 1015.5,-78.5"/>
<text text-anchor="start" x="1023.5" y="-107.5" font-family="Helvetica,sans-Serif" font-size="10.00">src/expconfig/detectors</text>
<text text-anchor="start" x="1023.5" y="-96.5" font-family="Helvetica,sans-Serif" font-size="10.00">/detail/TAPSVeto_2013</text>
<text text-anchor="middle" x="1078" y="-85.5" font-family="Helvetica,sans-Serif" font-size="10.00">_11_PbWO4_elements.h</text>
</a>
</g>
</g>
<!-- Node56&#45;&gt;Node65 -->
<g id="edge12" class="edge"><title>Node56&#45;&gt;Node65</title>
<path fill="none" stroke="midnightblue" d="M1350.5,-159.532C1295.77,-150.102 1217.68,-135.764 1150,-120 1146.97,-119.294 1143.87,-118.544 1140.75,-117.766"/>
<polygon fill="midnightblue" stroke="midnightblue" points="1350,-162.996 1360.44,-161.235 1351.18,-156.097 1350,-162.996"/>
</g>
<!-- Node66 -->
<g id="node11" class="node"><title>Node66</title>
<g id="a_node11"><a xlink:href="_t_a_p_s_veto__2014___ba_f2__elements_8h.html" target="_top" xlink:title="src/expconfig/detectors\l/detail/TAPSVeto_2014\l_BaF2_elements.h">
<polygon fill="white" stroke="black" points="1158.5,-78.5 1158.5,-119.5 1277.5,-119.5 1277.5,-78.5 1158.5,-78.5"/>
<text text-anchor="start" x="1166.5" y="-107.5" font-family="Helvetica,sans-Serif" font-size="10.00">src/expconfig/detectors</text>
<text text-anchor="start" x="1166.5" y="-96.5" font-family="Helvetica,sans-Serif" font-size="10.00">/detail/TAPSVeto_2014</text>
<text text-anchor="middle" x="1218" y="-85.5" font-family="Helvetica,sans-Serif" font-size="10.00">_BaF2_elements.h</text>
</a>
</g>
</g>
<!-- Node56&#45;&gt;Node66 -->
<g id="edge14" class="edge"><title>Node56&#45;&gt;Node66</title>
<path fill="none" stroke="midnightblue" d="M1370.46,-153.588C1341.11,-143.271 1303.84,-130.172 1273.5,-119.507"/>
<polygon fill="midnightblue" stroke="midnightblue" points="1369.5,-156.959 1380.09,-156.973 1371.82,-150.355 1369.5,-156.959"/>
</g>
<!-- Node67 -->
<g id="node12" class="node"><title>Node67</title>
<g id="a_node12"><a xlink:href="_t_a_p_s_veto__2014___pb_w_o4__elements_8h.html" target="_top" xlink:title="src/expconfig/detectors\l/detail/TAPSVeto_2014\l_PbWO4_elements.h">
<polygon fill="white" stroke="black" points="1295.5,-78.5 1295.5,-119.5 1414.5,-119.5 1414.5,-78.5 1295.5,-78.5"/>
<text text-anchor="start" x="1303.5" y="-107.5" font-family="Helvetica,sans-Serif" font-size="10.00">src/expconfig/detectors</text>
<text text-anchor="start" x="1303.5" y="-96.5" font-family="Helvetica,sans-Serif" font-size="10.00">/detail/TAPSVeto_2014</text>
<text text-anchor="middle" x="1355" y="-85.5" font-family="Helvetica,sans-Serif" font-size="10.00">_PbWO4_elements.h</text>
</a>
</g>
</g>
<!-- Node56&#45;&gt;Node67 -->
<g id="edge16" class="edge"><title>Node56&#45;&gt;Node67</title>
<path fill="none" stroke="midnightblue" d="M1400.27,-149.451C1391.59,-139.964 1381.46,-128.898 1372.98,-119.642"/>
<polygon fill="midnightblue" stroke="midnightblue" points="1397.82,-151.96 1407.16,-156.973 1402.99,-147.233 1397.82,-151.96"/>
</g>
<!-- Node68 -->
<g id="node13" class="node"><title>Node68</title>
<g id="a_node13"><a xlink:href="_setup__2007___base_8h.html" target="_top" xlink:title="src/expconfig/setups\l/Setup_2007_Base.h">
<polygon fill="white" stroke="black" points="1432.5,-84 1432.5,-114 1539.5,-114 1539.5,-84 1432.5,-84"/>
<text text-anchor="start" x="1440.5" y="-102" font-family="Helvetica,sans-Serif" font-size="10.00">src/expconfig/setups</text>
<text text-anchor="middle" x="1486" y="-91" font-family="Helvetica,sans-Serif" font-size="10.00">/Setup_2007_Base.h</text>
</a>
</g>
</g>
<!-- Node56&#45;&gt;Node68 -->
<g id="edge19" class="edge"><title>Node56&#45;&gt;Node68</title>
<path fill="none" stroke="midnightblue" d="M1439.94,-149.554C1450.48,-138.207 1463.15,-124.577 1472.53,-114.486"/>
<polygon fill="midnightblue" stroke="midnightblue" points="1437.28,-147.265 1433.04,-156.973 1442.41,-152.031 1437.28,-147.265"/>
</g>
<!-- Node72 -->
<g id="node17" class="node"><title>Node72</title>
<g id="a_node17"><a xlink:href="_setup__2010__03___base_8h.html" target="_top" xlink:title="src/expconfig/setups\l/Setup_2010_03_Base.h">
<polygon fill="white" stroke="black" points="1557.5,-84 1557.5,-114 1680.5,-114 1680.5,-84 1557.5,-84"/>
<text text-anchor="start" x="1565.5" y="-102" font-family="Helvetica,sans-Serif" font-size="10.00">src/expconfig/setups</text>
<text text-anchor="middle" x="1619" y="-91" font-family="Helvetica,sans-Serif" font-size="10.00">/Setup_2010_03_Base.h</text>
</a>
</g>
</g>
<!-- Node56&#45;&gt;Node72 -->
<g id="edge23" class="edge"><title>Node56&#45;&gt;Node72</title>
<path fill="none" stroke="midnightblue" d="M1469.05,-153.501C1503.04,-141.374 1547.71,-125.437 1579.43,-114.12"/>
<polygon fill="midnightblue" stroke="midnightblue" points="1467.56,-150.316 1459.32,-156.973 1469.91,-156.909 1467.56,-150.316"/>
</g>
<!-- Node75 -->
<g id="node20" class="node"><title>Node75</title>
<g id="a_node20"><a xlink:href="_setup__2014___e_p_t_8h.html" target="_top" xlink:title="src/expconfig/setups\l/Setup_2014_EPT.h">
<polygon fill="white" stroke="black" points="1698.5,-84 1698.5,-114 1805.5,-114 1805.5,-84 1698.5,-84"/>
<text text-anchor="start" x="1706.5" y="-102" font-family="Helvetica,sans-Serif" font-size="10.00">src/expconfig/setups</text>
<text text-anchor="middle" x="1752" y="-91" font-family="Helvetica,sans-Serif" font-size="10.00">/Setup_2014_EPT.h</text>
</a>
</g>
</g>
<!-- Node56&#45;&gt;Node75 -->
<g id="edge26" class="edge"><title>Node56&#45;&gt;Node75</title>
<path fill="none" stroke="midnightblue" d="M1489.67,-160.153C1544.27,-151.084 1621.97,-136.929 1689,-120 1695.9,-118.258 1703.15,-116.186 1710.18,-114.047"/>
<polygon fill="midnightblue" stroke="midnightblue" points="1489.05,-156.708 1479.75,-161.786 1490.18,-163.615 1489.05,-156.708"/>
</g>
<!-- Node80 -->
<g id="node25" class="node"><title>Node80</title>
<g id="a_node25"><a xlink:href="_setup__2015__01___pion_8cc.html" target="_top" xlink:title="src/expconfig/setups\l/Setup_2015_01_Pion.cc">
<polygon fill="white" stroke="black" points="1823.5,-84 1823.5,-114 1948.5,-114 1948.5,-84 1823.5,-84"/>
<text text-anchor="start" x="1831.5" y="-102" font-family="Helvetica,sans-Serif" font-size="10.00">src/expconfig/setups</text>
<text text-anchor="middle" x="1886" y="-91" font-family="Helvetica,sans-Serif" font-size="10.00">/Setup_2015_01_Pion.cc</text>
</a>
</g>
</g>
<!-- Node56&#45;&gt;Node80 -->
<g id="edge31" class="edge"><title>Node56&#45;&gt;Node80</title>
<path fill="none" stroke="midnightblue" d="M1489.84,-164.988C1568.98,-157.475 1701.59,-142.767 1814,-120 1822.14,-118.352 1830.71,-116.278 1838.98,-114.094"/>
<polygon fill="midnightblue" stroke="midnightblue" points="1489.14,-161.538 1479.51,-165.956 1489.79,-168.508 1489.14,-161.538"/>
</g>
<!-- Node81 -->
<g id="node26" class="node"><title>Node81</title>
<g id="a_node26"><a xlink:href="_setup__2017__03_8h.html" target="_top" xlink:title="src/expconfig/setups\l/Setup_2017_03.h">
<polygon fill="white" stroke="black" points="2000.5,-84 2000.5,-114 2107.5,-114 2107.5,-84 2000.5,-84"/>
<text text-anchor="start" x="2008.5" y="-102" font-family="Helvetica,sans-Serif" font-size="10.00">src/expconfig/setups</text>
<text text-anchor="middle" x="2054" y="-91" font-family="Helvetica,sans-Serif" font-size="10.00">/Setup_2017_03.h</text>
</a>
</g>
</g>
<!-- Node56&#45;&gt;Node81 -->
<g id="edge32" class="edge"><title>Node56&#45;&gt;Node81</title>
<path fill="none" stroke="midnightblue" d="M1490.11,-166.781C1592.92,-160.043 1790.46,-145.001 1957,-120 1971.11,-117.881 1986.27,-115.034 2000.31,-112.153"/>
<polygon fill="midnightblue" stroke="midnightblue" points="1489.61,-163.306 1479.86,-167.446 1490.06,-170.292 1489.61,-163.306"/>
</g>
<!-- Node83 -->
<g id="node28" class="node"><title>Node83</title>
<g id="a_node28"><a xlink:href="_setup__2017__05_8h.html" target="_top" xlink:title="src/expconfig/setups\l/Setup_2017_05.h">
<polygon fill="white" stroke="black" points="2193.5,-84 2193.5,-114 2300.5,-114 2300.5,-84 2193.5,-84"/>
<text text-anchor="start" x="2201.5" y="-102" font-family="Helvetica,sans-Serif" font-size="10.00">src/expconfig/setups</text>
<text text-anchor="middle" x="2247" y="-91" font-family="Helvetica,sans-Serif" font-size="10.00">/Setup_2017_05.h</text>
</a>
</g>
</g>
<!-- Node56&#45;&gt;Node83 -->
<g id="edge34" class="edge"><title>Node56&#45;&gt;Node83</title>
<path fill="none" stroke="midnightblue" d="M1489.98,-167.69C1615.62,-161.343 1887.65,-145.757 2116,-120 2141.49,-117.125 2169.63,-112.96 2193.27,-109.175"/>
<polygon fill="midnightblue" stroke="midnightblue" points="1489.54,-164.207 1479.73,-168.204 1489.89,-171.199 1489.54,-164.207"/>
</g>
<!-- Node85 -->
<g id="node30" class="node"><title>Node85</title>
<g id="a_node30"><a xlink:href="_setup__2017_plus___new_tagger___base_8h.html" target="_top" xlink:title="src/expconfig/setups\l/Setup_2017Plus_NewTagger\l_Base.h">
<polygon fill="white" stroke="black" points="2406,-78.5 2406,-119.5 2552,-119.5 2552,-78.5 2406,-78.5"/>
<text text-anchor="start" x="2414" y="-107.5" font-family="Helvetica,sans-Serif" font-size="10.00">src/expconfig/setups</text>
<text text-anchor="start" x="2414" y="-96.5" font-family="Helvetica,sans-Serif" font-size="10.00">/Setup_2017Plus_NewTagger</text>
<text text-anchor="middle" x="2479" y="-85.5" font-family="Helvetica,sans-Serif" font-size="10.00">_Base.h</text>
</a>
</g>
</g>
<!-- Node56&#45;&gt;Node85 -->
<g id="edge36" class="edge"><title>Node56&#45;&gt;Node85</title>
<path fill="none" stroke="midnightblue" d="M1489.65,-168.423C1639.65,-162.561 2004.33,-146.637 2309,-120 2340.82,-117.218 2375.9,-113.245 2405.88,-109.573"/>
<polygon fill="midnightblue" stroke="midnightblue" points="1489.51,-164.926 1479.66,-168.811 1489.78,-171.92 1489.51,-164.926"/>
</g>
<!-- Node91 -->
<g id="node36" class="node"><title>Node91</title>
<g id="a_node36"><a xlink:href="_setup__2018__11_8h.html" target="_top" xlink:title="src/expconfig/setups\l/Setup_2018_11.h">
<polygon fill="white" stroke="black" points="2570.5,-84 2570.5,-114 2677.5,-114 2677.5,-84 2570.5,-84"/>
<text text-anchor="start" x="2578.5" y="-102" font-family="Helvetica,sans-Serif" font-size="10.00">src/expconfig/setups</text>
<text text-anchor="middle" x="2624" y="-91" font-family="Helvetica,sans-Serif" font-size="10.00">/Setup_2018_11.h</text>
</a>
</g>
</g>
<!-- Node56&#45;&gt;Node91 -->
<g id="edge42" class="edge"><title>Node56&#45;&gt;Node91</title>
<path fill="none" stroke="midnightblue" d="M1489.98,-170.275C1704.96,-167.669 2353.68,-156.878 2561,-120 2569.02,-118.573 2577.44,-116.399 2585.42,-114.003"/>
<polygon fill="midnightblue" stroke="midnightblue" points="1489.73,-166.778 1479.78,-170.396 1489.82,-173.777 1489.73,-166.778"/>
</g>
<!-- Node93 -->
<g id="node38" class="node"><title>Node93</title>
<g id="a_node38"><a xlink:href="_setup__2019__01_8h.html" target="_top" xlink:title="src/expconfig/setups\l/Setup_2019_01.h">
<polygon fill="white" stroke="black" points="2695.5,-84 2695.5,-114 2802.5,-114 2802.5,-84 2695.5,-84"/>
<text text-anchor="start" x="2703.5" y="-102" font-family="Helvetica,sans-Serif" font-size="10.00">src/expconfig/setups</text>
<text text-anchor="middle" x="2749" y="-91" font-family="Helvetica,sans-Serif" font-size="10.00">/Setup_2019_01.h</text>
</a>
</g>
</g>
<!-- Node56&#45;&gt;Node93 -->
<g id="edge44" class="edge"><title>Node56&#45;&gt;Node93</title>
<path fill="none" stroke="midnightblue" d="M1490.06,-170.635C1720.49,-169.05 2453.42,-160.841 2686,-120 2694.02,-118.591 2702.44,-116.425 2710.42,-114.03"/>
<polygon fill="midnightblue" stroke="midnightblue" points="1489.77,-167.137 1479.79,-170.704 1489.82,-174.137 1489.77,-167.137"/>
</g>
<!-- Node95 -->
<g id="node40" class="node"><title>Node95</title>
<g id="a_node40"><a xlink:href="_candidate_builder_8cc.html" target="_top" xlink:title="src/reconstruct/Candidate\lBuilder.cc">
<polygon fill="white" stroke="black" points="2820.5,-84 2820.5,-114 2949.5,-114 2949.5,-84 2820.5,-84"/>
<text text-anchor="start" x="2828.5" y="-102" font-family="Helvetica,sans-Serif" font-size="10.00">src/reconstruct/Candidate</text>
<text text-anchor="middle" x="2885" y="-91" font-family="Helvetica,sans-Serif" font-size="10.00">Builder.cc</text>
</a>
</g>
</g>
<!-- Node56&#45;&gt;Node95 -->
<g id="edge46" class="edge"><title>Node56&#45;&gt;Node95</title>
<path fill="none" stroke="midnightblue" d="M1489.77,-170.537C1734.35,-168.586 2552.05,-159.218 2811,-120 2820.34,-118.585 2830.19,-116.417 2839.56,-114.021"/>
<polygon fill="midnightblue" stroke="midnightblue" points="1489.56,-167.038 1479.59,-170.616 1489.61,-174.038 1489.56,-167.038"/>
</g>
<!-- Node96 -->
<g id="node41" class="node"><title>Node96</title>
<g id="a_node41"><a xlink:href="expconfig__helpers_8cc.html" target="_top" xlink:title="test/expconfig_helpers.cc">
<polygon fill="white" stroke="black" points="2968,-89.5 2968,-108.5 3096,-108.5 3096,-89.5 2968,-89.5"/>
<text text-anchor="middle" x="3032" y="-96.5" font-family="Helvetica,sans-Serif" font-size="10.00">test/expconfig_helpers.cc</text>
</a>
</g>
</g>
<!-- Node56&#45;&gt;Node96 -->
<g id="edge47" class="edge"><title>Node56&#45;&gt;Node96</title>
<path fill="none" stroke="midnightblue" d="M1490.03,-170.821C1751.31,-169.821 2669.07,-163.24 2958,-120 2974.32,-117.558 2992.19,-112.789 3006.28,-108.52"/>
<polygon fill="midnightblue" stroke="midnightblue" points="1489.89,-167.322 1479.91,-170.858 1489.92,-174.322 1489.89,-167.322"/>
</g>
<!-- Node60&#45;&gt;Node61 -->
<g id="edge5" class="edge"><title>Node60&#45;&gt;Node61</title>
<path fill="none" stroke="midnightblue" d="M547.096,-75.0959C583.158,-62.4074 626.84,-47.0376 657.908,-36.1065"/>
<polygon fill="midnightblue" stroke="midnightblue" points="545.897,-71.8074 537.625,-78.4281 548.22,-78.4106 545.897,-71.8074"/>
</g>
<!-- Node62&#45;&gt;Node61 -->
<g id="edge7" class="edge"><title>Node62&#45;&gt;Node61</title>
<path fill="none" stroke="midnightblue" d="M673.104,-69.3033C679.053,-57.9992 685.619,-45.5247 690.513,-36.2254"/>
<polygon fill="midnightblue" stroke="midnightblue" points="669.861,-67.9488 668.301,-78.4281 676.056,-71.209 669.861,-67.9488"/>
</g>
<!-- Node63&#45;&gt;Node61 -->
<g id="edge9" class="edge"><title>Node63&#45;&gt;Node61</title>
<path fill="none" stroke="midnightblue" d="M764.216,-72.3238C748.356,-60.2703 730.055,-46.3617 716.718,-36.2254"/>
<polygon fill="midnightblue" stroke="midnightblue" points="762.168,-75.1638 772.248,-78.4281 766.404,-69.5907 762.168,-75.1638"/>
</g>
<!-- Node64&#45;&gt;Node61 -->
<g id="edge11" class="edge"><title>Node64&#45;&gt;Node61</title>
<path fill="none" stroke="midnightblue" d="M868.759,-76.0737C827.995,-63.1649 777.649,-47.2223 742.221,-36.0032"/>
<polygon fill="midnightblue" stroke="midnightblue" points="867.776,-79.4335 878.366,-79.1158 869.889,-72.7601 867.776,-79.4335"/>
</g>
<!-- Node65&#45;&gt;Node61 -->
<g id="edge13" class="edge"><title>Node65&#45;&gt;Node61</title>
<path fill="none" stroke="midnightblue" d="M1005.45,-78.0266C899.179,-56.1076 868.855,-64.3293 767,-42 759.325,-40.3174 751.248,-38.2517 743.433,-36.0933"/>
<polygon fill="midnightblue" stroke="midnightblue" points="1004.78,-81.4616 1015.28,-80.0953 1006.22,-74.6115 1004.78,-81.4616"/>
</g>
<!-- Node66&#45;&gt;Node61 -->
<g id="edge15" class="edge"><title>Node66&#45;&gt;Node61</title>
<path fill="none" stroke="midnightblue" d="M1148.36,-78.0918C979.644,-47.1571 931.334,-73.2714 767,-42 758.791,-40.4379 750.152,-38.3235 741.872,-36.0529"/>
<polygon fill="midnightblue" stroke="midnightblue" points="1147.85,-81.5571 1158.33,-79.9587 1149.14,-74.6769 1147.85,-81.5571"/>
</g>
<!-- Node67&#45;&gt;Node61 -->
<g id="edge17" class="edge"><title>Node67&#45;&gt;Node61</title>
<path fill="none" stroke="midnightblue" d="M1285.38,-78.122C1056.5,-38.8383 991.438,-81.8419 767,-42 758.527,-40.4958 749.608,-38.3495 741.1,-36.0166"/>
<polygon fill="midnightblue" stroke="midnightblue" points="1284.89,-81.5896 1295.34,-79.8662 1286.1,-74.6944 1284.89,-81.5896"/>
</g>
<!-- Node69 -->
<g id="node14" class="node"><title>Node69</title>
<g id="a_node14"><a xlink:href="_setup__2007__06_8cc.html" target="_top" xlink:title="src/expconfig/setups\l/Setup_2007_06.cc">
<polygon fill="white" stroke="black" points="775.5,-6 775.5,-36 882.5,-36 882.5,-6 775.5,-6"/>
<text text-anchor="start" x="783.5" y="-24" font-family="Helvetica,sans-Serif" font-size="10.00">src/expconfig/setups</text>
<text text-anchor="middle" x="829" y="-13" font-family="Helvetica,sans-Serif" font-size="10.00">/Setup_2007_06.cc</text>
</a>
</g>
</g>
<!-- Node68&#45;&gt;Node69 -->
<g id="edge20" class="edge"><title>Node68&#45;&gt;Node69</title>
<path fill="none" stroke="midnightblue" d="M1436.73,-81.1302C1432.12,-79.9266 1427.5,-78.8535 1423,-78 1190.61,-33.8973 1124.39,-86.1027 892,-42 884.221,-40.5237 876.058,-38.3903 868.284,-36.0612"/>
<polygon fill="midnightblue" stroke="midnightblue" points="1436.14,-84.6012 1446.72,-83.9388 1438.04,-77.8625 1436.14,-84.6012"/>
</g>
<!-- Node70 -->
<g id="node15" class="node"><title>Node70</title>
<g id="a_node15"><a xlink:href="_setup__2007__07_8cc.html" target="_top" xlink:title="src/expconfig/setups\l/Setup_2007_07.cc">
<polygon fill="white" stroke="black" points="900.5,-6 900.5,-36 1007.5,-36 1007.5,-6 900.5,-6"/>
<text text-anchor="start" x="908.5" y="-24" font-family="Helvetica,sans-Serif" font-size="10.00">src/expconfig/setups</text>
<text text-anchor="middle" x="954" y="-13" font-family="Helvetica,sans-Serif" font-size="10.00">/Setup_2007_07.cc</text>
</a>
</g>
</g>
<!-- Node68&#45;&gt;Node70 -->
<g id="edge21" class="edge"><title>Node68&#45;&gt;Node70</title>
<path fill="none" stroke="midnightblue" d="M1436.51,-81.1766C1431.97,-79.9733 1427.42,-78.887 1423,-78 1245.38,-42.3803 1194.62,-77.6197 1017,-42 1009.35,-40.4657 1001.32,-38.3353 993.648,-36.0338"/>
<polygon fill="midnightblue" stroke="midnightblue" points="1435.78,-84.6073 1446.35,-83.9662 1437.69,-77.8725 1435.78,-84.6073"/>
</g>
<!-- Node71 -->
<g id="node16" class="node"><title>Node71</title>
<g id="a_node16"><a xlink:href="_setup__2007___base_8cc.html" target="_top" xlink:title="src/expconfig/setups\l/Setup_2007_Base.cc">
<polygon fill="white" stroke="black" points="1025.5,-6 1025.5,-36 1138.5,-36 1138.5,-6 1025.5,-6"/>
<text text-anchor="start" x="1033.5" y="-24" font-family="Helvetica,sans-Serif" font-size="10.00">src/expconfig/setups</text>
<text text-anchor="middle" x="1082" y="-13" font-family="Helvetica,sans-Serif" font-size="10.00">/Setup_2007_Base.cc</text>
</a>
</g>
</g>
<!-- Node68&#45;&gt;Node71 -->
<g id="edge22" class="edge"><title>Node68&#45;&gt;Node71</title>
<path fill="none" stroke="midnightblue" d="M1435.52,-81.1147C1431.31,-79.9691 1427.1,-78.9106 1423,-78 1302.67,-51.2463 1268.5,-67.9612 1148,-42 1140.39,-40.3609 1132.39,-38.2648 1124.69,-36.0495"/>
<polygon fill="midnightblue" stroke="midnightblue" points="1434.7,-84.5228 1445.28,-83.9169 1436.63,-77.7943 1434.7,-84.5228"/>
</g>
<!-- Node73 -->
<g id="node18" class="node"><title>Node73</title>
<g id="a_node18"><a xlink:href="_setup__2010__03___base_8cc.html" target="_top" xlink:title="src/expconfig/setups\l/Setup_2010_03_Base.cc">
<polygon fill="white" stroke="black" points="1157,-6 1157,-36 1285,-36 1285,-6 1157,-6"/>
<text text-anchor="start" x="1165" y="-24" font-family="Helvetica,sans-Serif" font-size="10.00">src/expconfig/setups</text>
<text text-anchor="middle" x="1221" y="-13" font-family="Helvetica,sans-Serif" font-size="10.00">/Setup_2010_03_Base.cc</text>
</a>
</g>
</g>
<!-- Node72&#45;&gt;Node73 -->
<g id="edge24" class="edge"><title>Node72&#45;&gt;Node73</title>
<path fill="none" stroke="midnightblue" d="M1562.59,-81.3741C1557.67,-80.1496 1552.76,-79.0034 1548,-78 1436.43,-54.4902 1405.65,-65.11 1294,-42 1285.89,-40.322 1277.36,-38.2587 1269.09,-36.1013"/>
<polygon fill="midnightblue" stroke="midnightblue" points="1562.07,-84.8552 1572.63,-83.9768 1563.83,-78.0792 1562.07,-84.8552"/>
</g>
<!-- Node74 -->
<g id="node19" class="node"><title>Node74</title>
<g id="a_node19"><a xlink:href="_setup__2010__09___compton_8cc.html" target="_top" xlink:title="src/expconfig/setups\l/Setup_2010_09_Compton.cc">
<polygon fill="white" stroke="black" points="1303,-6 1303,-36 1449,-36 1449,-6 1303,-6"/>
<text text-anchor="start" x="1311" y="-24" font-family="Helvetica,sans-Serif" font-size="10.00">src/expconfig/setups</text>
<text text-anchor="middle" x="1376" y="-13" font-family="Helvetica,sans-Serif" font-size="10.00">/Setup_2010_09_Compton.cc</text>
</a>
</g>
</g>
<!-- Node72&#45;&gt;Node74 -->
<g id="edge25" class="edge"><title>Node72&#45;&gt;Node74</title>
<path fill="none" stroke="midnightblue" d="M1564.36,-80.9111C1521.13,-67.3913 1461.51,-48.7431 1421,-36.0749"/>
<polygon fill="midnightblue" stroke="midnightblue" points="1563.56,-84.3272 1574.15,-83.9719 1565.65,-77.6464 1563.56,-84.3272"/>
</g>
<!-- Node76 -->
<g id="node21" class="node"><title>Node76</title>
<g id="a_node21"><a xlink:href="_setup__2014__07___e_p_t___prod_8cc.html" target="_top" xlink:title="src/expconfig/setups\l/Setup_2014_07_EPT_Prod.cc">
<polygon fill="white" stroke="black" points="1467.5,-6 1467.5,-36 1618.5,-36 1618.5,-6 1467.5,-6"/>
<text text-anchor="start" x="1475.5" y="-24" font-family="Helvetica,sans-Serif" font-size="10.00">src/expconfig/setups</text>
<text text-anchor="middle" x="1543" y="-13" font-family="Helvetica,sans-Serif" font-size="10.00">/Setup_2014_07_EPT_Prod.cc</text>
</a>
</g>
</g>
<!-- Node75&#45;&gt;Node76 -->
<g id="edge27" class="edge"><title>Node75&#45;&gt;Node76</title>
<path fill="none" stroke="midnightblue" d="M1703.58,-80.3918C1666.49,-66.9049 1616.01,-48.5488 1581.61,-36.0413"/>
<polygon fill="midnightblue" stroke="midnightblue" points="1702.58,-83.7549 1713.18,-83.8831 1704.98,-77.1763 1702.58,-83.7549"/>
</g>
<!-- Node77 -->
<g id="node22" class="node"><title>Node77</title>
<g id="a_node22"><a xlink:href="_setup__2014__10___e_p_t___prod_8cc.html" target="_top" xlink:title="src/expconfig/setups\l/Setup_2014_10_EPT_Prod.cc">
<polygon fill="white" stroke="black" points="1636.5,-6 1636.5,-36 1787.5,-36 1787.5,-6 1636.5,-6"/>
<text text-anchor="start" x="1644.5" y="-24" font-family="Helvetica,sans-Serif" font-size="10.00">src/expconfig/setups</text>
<text text-anchor="middle" x="1712" y="-13" font-family="Helvetica,sans-Serif" font-size="10.00">/Setup_2014_10_EPT_Prod.cc</text>
</a>
</g>
</g>
<!-- Node75&#45;&gt;Node77 -->
<g id="edge28" class="edge"><title>Node75&#45;&gt;Node77</title>
<path fill="none" stroke="midnightblue" d="M1739.74,-74.7047C1733.13,-62.141 1725.18,-47.0416 1719.49,-36.2309"/>
<polygon fill="midnightblue" stroke="midnightblue" points="1736.72,-76.4859 1744.48,-83.705 1742.92,-73.2257 1736.72,-76.4859"/>
</g>
<!-- Node78 -->
<g id="node23" class="node"><title>Node78</title>
<g id="a_node23"><a xlink:href="_setup__2014__12___e_p_t___prod_8cc.html" target="_top" xlink:title="src/expconfig/setups\l/Setup_2014_12_EPT_Prod.cc">
<polygon fill="white" stroke="black" points="1805.5,-6 1805.5,-36 1956.5,-36 1956.5,-6 1805.5,-6"/>
<text text-anchor="start" x="1813.5" y="-24" font-family="Helvetica,sans-Serif" font-size="10.00">src/expconfig/setups</text>
<text text-anchor="middle" x="1881" y="-13" font-family="Helvetica,sans-Serif" font-size="10.00">/Setup_2014_12_EPT_Prod.cc</text>
</a>
</g>
</g>
<!-- Node75&#45;&gt;Node78 -->
<g id="edge29" class="edge"><title>Node75&#45;&gt;Node78</title>
<path fill="none" stroke="midnightblue" d="M1784.85,-78.6444C1807.41,-65.3533 1836.84,-48.0166 1857.17,-36.0413"/>
<polygon fill="midnightblue" stroke="midnightblue" points="1782.8,-75.7914 1775.96,-83.8831 1786.35,-81.8226 1782.8,-75.7914"/>
</g>
<!-- Node79 -->
<g id="node24" class="node"><title>Node79</title>
<g id="a_node24"><a xlink:href="_setup__2014___e_p_t_8cc.html" target="_top" xlink:title="src/expconfig/setups\l/Setup_2014_EPT.cc">
<polygon fill="white" stroke="black" points="1975,-6 1975,-36 2085,-36 2085,-6 1975,-6"/>
<text text-anchor="start" x="1983" y="-24" font-family="Helvetica,sans-Serif" font-size="10.00">src/expconfig/setups</text>
<text text-anchor="middle" x="2030" y="-13" font-family="Helvetica,sans-Serif" font-size="10.00">/Setup_2014_EPT.cc</text>
</a>
</g>
</g>
<!-- Node75&#45;&gt;Node79 -->
<g id="edge30" class="edge"><title>Node75&#45;&gt;Node79</title>
<path fill="none" stroke="midnightblue" d="M1804.71,-80.9607C1808.18,-79.9322 1811.64,-78.9361 1815,-78 1881.05,-59.6158 1898.87,-60.0902 1965,-42 1971.72,-40.1619 1978.79,-38.1088 1985.7,-36.0373"/>
<polygon fill="midnightblue" stroke="midnightblue" points="1803.47,-77.6773 1794.92,-83.9226 1805.5,-84.3775 1803.47,-77.6773"/>
</g>
<!-- Node82 -->
<g id="node27" class="node"><title>Node82</title>
<g id="a_node27"><a xlink:href="_setup__2017__03_8cc.html" target="_top" xlink:title="src/expconfig/setups\l/Setup_2017_03.cc">
<polygon fill="white" stroke="black" points="2103.5,-6 2103.5,-36 2210.5,-36 2210.5,-6 2103.5,-6"/>
<text text-anchor="start" x="2111.5" y="-24" font-family="Helvetica,sans-Serif" font-size="10.00">src/expconfig/setups</text>
<text text-anchor="middle" x="2157" y="-13" font-family="Helvetica,sans-Serif" font-size="10.00">/Setup_2017_03.cc</text>
</a>
</g>
</g>
<!-- Node81&#45;&gt;Node82 -->
<g id="edge33" class="edge"><title>Node81&#45;&gt;Node82</title>
<path fill="none" stroke="midnightblue" d="M2081.63,-77.6108C2099.35,-64.5359 2121.91,-47.8895 2137.71,-36.2309"/>
<polygon fill="midnightblue" stroke="midnightblue" points="2079.34,-74.9513 2073.37,-83.705 2083.5,-80.5839 2079.34,-74.9513"/>
</g>
<!-- Node84 -->
<g id="node29" class="node"><title>Node84</title>
<g id="a_node29"><a xlink:href="_setup__2017__05_8cc.html" target="_top" xlink:title="src/expconfig/setups\l/Setup_2017_05.cc">
<polygon fill="white" stroke="black" points="2228.5,-6 2228.5,-36 2335.5,-36 2335.5,-6 2228.5,-6"/>
<text text-anchor="start" x="2236.5" y="-24" font-family="Helvetica,sans-Serif" font-size="10.00">src/expconfig/setups</text>
<text text-anchor="middle" x="2282" y="-13" font-family="Helvetica,sans-Serif" font-size="10.00">/Setup_2017_05.cc</text>
</a>
</g>
</g>
<!-- Node83&#45;&gt;Node84 -->
<g id="edge35" class="edge"><title>Node83&#45;&gt;Node84</title>
<path fill="none" stroke="midnightblue" d="M2257.9,-74.3345C2263.65,-61.8454 2270.52,-46.9356 2275.45,-36.2309"/>
<polygon fill="midnightblue" stroke="midnightblue" points="2254.59,-73.1578 2253.58,-83.705 2260.95,-76.086 2254.59,-73.1578"/>
</g>
<!-- Node86 -->
<g id="node31" class="node"><title>Node86</title>
<g id="a_node31"><a xlink:href="_setup__2017__12_8cc.html" target="_top" xlink:title="src/expconfig/setups\l/Setup_2017_12.cc">
<polygon fill="white" stroke="black" points="2353.5,-6 2353.5,-36 2460.5,-36 2460.5,-6 2353.5,-6"/>
<text text-anchor="start" x="2361.5" y="-24" font-family="Helvetica,sans-Serif" font-size="10.00">src/expconfig/setups</text>
<text text-anchor="middle" x="2407" y="-13" font-family="Helvetica,sans-Serif" font-size="10.00">/Setup_2017_12.cc</text>
</a>
</g>
</g>
<!-- Node85&#45;&gt;Node86 -->
<g id="edge37" class="edge"><title>Node85&#45;&gt;Node86</title>
<path fill="none" stroke="midnightblue" d="M2453.41,-70.9896C2442.29,-59.2546 2429.73,-45.9897 2420.48,-36.2254"/>
<polygon fill="midnightblue" stroke="midnightblue" points="2451.04,-73.5757 2460.46,-78.4281 2456.12,-68.7614 2451.04,-73.5757"/>
</g>
<!-- Node87 -->
<g id="node32" class="node"><title>Node87</title>
<g id="a_node32"><a xlink:href="_setup__2017_plus___new_tagger___base_8cc.html" target="_top" xlink:title="src/expconfig/setups\l/Setup_2017Plus_NewTagger\l_Base.cc">
<polygon fill="white" stroke="black" points="2479,-0.5 2479,-41.5 2625,-41.5 2625,-0.5 2479,-0.5"/>
<text text-anchor="start" x="2487" y="-29.5" font-family="Helvetica,sans-Serif" font-size="10.00">src/expconfig/setups</text>
<text text-anchor="start" x="2487" y="-18.5" font-family="Helvetica,sans-Serif" font-size="10.00">/Setup_2017Plus_NewTagger</text>
<text text-anchor="middle" x="2552" y="-7.5" font-family="Helvetica,sans-Serif" font-size="10.00">_Base.cc</text>
</a>
</g>
</g>
<!-- Node85&#45;&gt;Node87 -->
<g id="edge38" class="edge"><title>Node85&#45;&gt;Node87</title>
<path fill="none" stroke="midnightblue" d="M2504.74,-71.204C2514.14,-61.416 2524.59,-50.5388 2533.26,-41.5056"/>
<polygon fill="midnightblue" stroke="midnightblue" points="2502.2,-68.7915 2497.8,-78.4281 2507.25,-73.6407 2502.2,-68.7915"/>
</g>
<!-- Node88 -->
<g id="node33" class="node"><title>Node88</title>
<g id="a_node33"><a xlink:href="_setup__2018__03_8cc.html" target="_top" xlink:title="src/expconfig/setups\l/Setup_2018_03.cc">
<polygon fill="white" stroke="black" points="2643.5,-6 2643.5,-36 2750.5,-36 2750.5,-6 2643.5,-6"/>
<text text-anchor="start" x="2651.5" y="-24" font-family="Helvetica,sans-Serif" font-size="10.00">src/expconfig/setups</text>
<text text-anchor="middle" x="2697" y="-13" font-family="Helvetica,sans-Serif" font-size="10.00">/Setup_2018_03.cc</text>
</a>
</g>
</g>
<!-- Node85&#45;&gt;Node88 -->
<g id="edge39" class="edge"><title>Node85&#45;&gt;Node88</title>
<path fill="none" stroke="midnightblue" d="M2544.7,-75.0959C2581.09,-62.4074 2625.18,-47.0376 2656.54,-36.1065"/>
<polygon fill="midnightblue" stroke="midnightblue" points="2543.43,-71.8312 2535.14,-78.4281 2545.74,-78.441 2543.43,-71.8312"/>
</g>
<!-- Node89 -->
<g id="node34" class="node"><title>Node89</title>
<g id="a_node34"><a xlink:href="_setup__2018__05_8cc.html" target="_top" xlink:title="src/expconfig/setups\l/Setup_2018_05.cc">
<polygon fill="white" stroke="black" points="2768.5,-6 2768.5,-36 2875.5,-36 2875.5,-6 2768.5,-6"/>
<text text-anchor="start" x="2776.5" y="-24" font-family="Helvetica,sans-Serif" font-size="10.00">src/expconfig/setups</text>
<text text-anchor="middle" x="2822" y="-13" font-family="Helvetica,sans-Serif" font-size="10.00">/Setup_2018_05.cc</text>
</a>
</g>
</g>
<!-- Node85&#45;&gt;Node89 -->
<g id="edge40" class="edge"><title>Node85&#45;&gt;Node89</title>
<path fill="none" stroke="midnightblue" d="M2562.21,-78.0324C2650.81,-59.8133 2675.67,-62.7525 2759,-42 2765.9,-40.2807 2773.16,-38.2211 2780.19,-36.0868"/>
<polygon fill="midnightblue" stroke="midnightblue" points="2561.34,-74.6389 2552.27,-80.1104 2562.77,-81.4909 2561.34,-74.6389"/>
</g>
<!-- Node90 -->
<g id="node35" class="node"><title>Node90</title>
<g id="a_node35"><a xlink:href="_setup__2018__09_8cc.html" target="_top" xlink:title="src/expconfig/setups\l/Setup_2018_09.cc">
<polygon fill="white" stroke="black" points="2893.5,-6 2893.5,-36 3000.5,-36 3000.5,-6 2893.5,-6"/>
<text text-anchor="start" x="2901.5" y="-24" font-family="Helvetica,sans-Serif" font-size="10.00">src/expconfig/setups</text>
<text text-anchor="middle" x="2947" y="-13" font-family="Helvetica,sans-Serif" font-size="10.00">/Setup_2018_09.cc</text>
</a>
</g>
</g>
<!-- Node85&#45;&gt;Node90 -->
<g id="edge41" class="edge"><title>Node85&#45;&gt;Node90</title>
<path fill="none" stroke="midnightblue" d="M2562.26,-78.0975C2705.65,-53.9063 2746.31,-71.2576 2884,-42 2891.41,-40.4259 2899.18,-38.334 2906.65,-36.0961"/>
<polygon fill="midnightblue" stroke="midnightblue" points="2561.48,-74.682 2552.22,-79.8319 2562.67,-81.58 2561.48,-74.682"/>
</g>
<!-- Node92 -->
<g id="node37" class="node"><title>Node92</title>
<g id="a_node37"><a xlink:href="_setup__2018__11_8cc.html" target="_top" xlink:title="src/expconfig/setups\l/Setup_2018_11.cc">
<polygon fill="white" stroke="black" points="3018.5,-6 3018.5,-36 3125.5,-36 3125.5,-6 3018.5,-6"/>
<text text-anchor="start" x="3026.5" y="-24" font-family="Helvetica,sans-Serif" font-size="10.00">src/expconfig/setups</text>
<text text-anchor="middle" x="3072" y="-13" font-family="Helvetica,sans-Serif" font-size="10.00">/Setup_2018_11.cc</text>
</a>
</g>
</g>
<!-- Node91&#45;&gt;Node92 -->
<g id="edge43" class="edge"><title>Node91&#45;&gt;Node92</title>
<path fill="none" stroke="midnightblue" d="M2674.27,-81.0816C2678.55,-79.9347 2682.83,-78.8855 2687,-78 2827.86,-48.0702 2868.14,-71.9298 3009,-42 3016.41,-40.4259 3024.18,-38.334 3031.65,-36.0961"/>
<polygon fill="midnightblue" stroke="midnightblue" points="2673.01,-77.8002 2664.35,-83.9039 2674.93,-84.5329 2673.01,-77.8002"/>
</g>
<!-- Node94 -->
<g id="node39" class="node"><title>Node94</title>
<g id="a_node39"><a xlink:href="_setup__2019__01_8cc.html" target="_top" xlink:title="src/expconfig/setups\l/Setup_2019_01.cc">
<polygon fill="white" stroke="black" points="3143.5,-6 3143.5,-36 3250.5,-36 3250.5,-6 3143.5,-6"/>
<text text-anchor="start" x="3151.5" y="-24" font-family="Helvetica,sans-Serif" font-size="10.00">src/expconfig/setups</text>
<text text-anchor="middle" x="3197" y="-13" font-family="Helvetica,sans-Serif" font-size="10.00">/Setup_2019_01.cc</text>
</a>
</g>
</g>
<!-- Node93&#45;&gt;Node94 -->
<g id="edge45" class="edge"><title>Node93&#45;&gt;Node94</title>
<path fill="none" stroke="midnightblue" d="M2799.27,-81.0816C2803.55,-79.9347 2807.83,-78.8855 2812,-78 2952.86,-48.0702 2993.14,-71.9298 3134,-42 3141.41,-40.4259 3149.18,-38.334 3156.65,-36.0961"/>
<polygon fill="midnightblue" stroke="midnightblue" points="2798.01,-77.8002 2789.35,-83.9039 2799.93,-84.5329 2798.01,-77.8002"/>
</g>
</g>
</svg>
