<?xml version="1.0" encoding="UTF-8" standalone="no"?>
<!DOCTYPE svg PUBLIC "-//W3C//DTD SVG 1.1//EN"
 "http://www.w3.org/Graphics/SVG/1.1/DTD/svg11.dtd">
<!-- Generated by graphviz version 2.36.0 (20140111.2315)
 -->
<!-- Title: src/calibration/modules/Tagger_QDC.h Pages: 1 -->
<svg width="1253pt" height="108pt"
 viewBox="0.00 0.00 1253.00 108.00" xmlns="http://www.w3.org/2000/svg" xmlns:xlink="http://www.w3.org/1999/xlink">
<g id="graph0" class="graph" transform="scale(1 1) rotate(0) translate(4 104)">
<title>src/calibration/modules/Tagger_QDC.h</title>
<polygon fill="white" stroke="none" points="-4,4 -4,-104 1249,-104 1249,4 -4,4"/>
<!-- Node49 -->
<g id="node1" class="node"><title>Node49</title>
<polygon fill="#bfbfbf" stroke="black" points="570.5,-69 570.5,-99 687.5,-99 687.5,-69 570.5,-69"/>
<text text-anchor="start" x="578.5" y="-87" font-family="Helvetica,sans-Serif" font-size="10.00">src/calibration/modules</text>
<text text-anchor="middle" x="629" y="-76" font-family="Helvetica,sans-Serif" font-size="10.00">/Tagger_QDC.h</text>
</g>
<!-- Node50 -->
<g id="node2" class="node"><title>Node50</title>
<g id="a_node2"><a xlink:href="_tagger___q_d_c_8cc.html" target="_top" xlink:title="src/calibration/modules\l/Tagger_QDC.cc">
<polygon fill="white" stroke="black" points="-0.5,-1 -0.5,-31 116.5,-31 116.5,-1 -0.5,-1"/>
<text text-anchor="start" x="7.5" y="-19" font-family="Helvetica,sans-Serif" font-size="10.00">src/calibration/modules</text>
<text text-anchor="middle" x="58" y="-8" font-family="Helvetica,sans-Serif" font-size="10.00">/Tagger_QDC.cc</text>
</a>
</g>
</g>
<!-- Node49&#45;&gt;Node50 -->
<g id="edge1" class="edge"><title>Node49&#45;&gt;Node50</title>
<path fill="none" stroke="midnightblue" d="M560.253,-78.5688C463.088,-71.7301 280.224,-56.7428 126,-32 122.896,-31.5021 119.722,-30.9506 116.523,-30.3615"/>
<polygon fill="midnightblue" stroke="midnightblue" points="560.023,-82.0611 570.242,-79.2643 560.51,-75.078 560.023,-82.0611"/>
</g>
<!-- Node51 -->
<g id="node3" class="node"><title>Node51</title>
<g id="a_node3"><a xlink:href="_setup__2014___e_p_t_8cc.html" target="_top" xlink:title="src/expconfig/setups\l/Setup_2014_EPT.cc">
<polygon fill="white" stroke="black" points="135,-1 135,-31 245,-31 245,-1 135,-1"/>
<text text-anchor="start" x="143" y="-19" font-family="Helvetica,sans-Serif" font-size="10.00">src/expconfig/setups</text>
<text text-anchor="middle" x="190" y="-8" font-family="Helvetica,sans-Serif" font-size="10.00">/Setup_2014_EPT.cc</text>
</a>
</g>
</g>
<!-- Node49&#45;&gt;Node51 -->
<g id="edge2" class="edge"><title>Node49&#45;&gt;Node51</title>
<path fill="none" stroke="midnightblue" d="M559.948,-75.6019C484.473,-67.0526 360.137,-51.6094 254,-32 251.082,-31.4609 248.097,-30.8766 245.088,-30.2618"/>
<polygon fill="midnightblue" stroke="midnightblue" points="559.938,-79.1228 570.266,-76.7623 560.72,-72.1666 559.938,-79.1228"/>
</g>
<!-- Node52 -->
<g id="node4" class="node"><title>Node52</title>
<g id="a_node4"><a xlink:href="_setup__2017__03_8cc.html" target="_top" xlink:title="src/expconfig/setups\l/Setup_2017_03.cc">
<polygon fill="white" stroke="black" points="263.5,-1 263.5,-31 370.5,-31 370.5,-1 263.5,-1"/>
<text text-anchor="start" x="271.5" y="-19" font-family="Helvetica,sans-Serif" font-size="10.00">src/expconfig/setups</text>
<text text-anchor="middle" x="317" y="-8" font-family="Helvetica,sans-Serif" font-size="10.00">/Setup_2017_03.cc</text>
</a>
</g>
</g>
<!-- Node49&#45;&gt;Node52 -->
<g id="edge3" class="edge"><title>Node49&#45;&gt;Node52</title>
<path fill="none" stroke="midnightblue" d="M560.17,-69.6539C509.875,-59.7328 440.078,-45.6138 379,-32 376.298,-31.3977 373.532,-30.77 370.741,-30.1275"/>
<polygon fill="midnightblue" stroke="midnightblue" points="559.79,-73.1462 570.278,-71.6431 561.142,-66.278 559.79,-73.1462"/>
</g>
<!-- Node53 -->
<g id="node5" class="node"><title>Node53</title>
<g id="a_node5"><a xlink:href="_setup__2017__05_8cc.html" target="_top" xlink:title="src/expconfig/setups\l/Setup_2017_05.cc">
<polygon fill="white" stroke="black" points="388.5,-1 388.5,-31 495.5,-31 495.5,-1 388.5,-1"/>
<text text-anchor="start" x="396.5" y="-19" font-family="Helvetica,sans-Serif" font-size="10.00">src/expconfig/setups</text>
<text text-anchor="middle" x="442" y="-8" font-family="Helvetica,sans-Serif" font-size="10.00">/Setup_2017_05.cc</text>
</a>
</g>
</g>
<!-- Node49&#45;&gt;Node53 -->
<g id="edge4" class="edge"><title>Node49&#45;&gt;Node53</title>
<path fill="none" stroke="midnightblue" d="M579.28,-65.4519C548.761,-54.6805 510.205,-41.0722 481.728,-31.0218"/>
<polygon fill="midnightblue" stroke="midnightblue" points="578.289,-68.8135 588.884,-68.8413 580.619,-62.2126 578.289,-68.8135"/>
</g>
<!-- Node54 -->
<g id="node6" class="node"><title>Node54</title>
<g id="a_node6"><a xlink:href="_setup__2017__12_8cc.html" target="_top" xlink:title="src/expconfig/setups\l/Setup_2017_12.cc">
<polygon fill="white" stroke="black" points="513.5,-1 513.5,-31 620.5,-31 620.5,-1 513.5,-1"/>
<text text-anchor="start" x="521.5" y="-19" font-family="Helvetica,sans-Serif" font-size="10.00">src/expconfig/setups</text>
<text text-anchor="middle" x="567" y="-8" font-family="Helvetica,sans-Serif" font-size="10.00">/Setup_2017_12.cc</text>
</a>
</g>
</g>
<!-- Node49&#45;&gt;Node54 -->
<g id="edge5" class="edge"><title>Node49&#45;&gt;Node54</title>
<path fill="none" stroke="midnightblue" d="M608.515,-61.1939C599.278,-51.3605 588.627,-40.0228 580.427,-31.2931"/>
<polygon fill="midnightblue" stroke="midnightblue" points="606.149,-63.7869 615.547,-68.679 611.251,-58.9941 606.149,-63.7869"/>
</g>
<!-- Node55 -->
<g id="node7" class="node"><title>Node55</title>
<g id="a_node7"><a xlink:href="_setup__2018__03_8cc.html" target="_top" xlink:title="src/expconfig/setups\l/Setup_2018_03.cc">
<polygon fill="white" stroke="black" points="638.5,-1 638.5,-31 745.5,-31 745.5,-1 638.5,-1"/>
<text text-anchor="start" x="646.5" y="-19" font-family="Helvetica,sans-Serif" font-size="10.00">src/expconfig/setups</text>
<text text-anchor="middle" x="692" y="-8" font-family="Helvetica,sans-Serif" font-size="10.00">/Setup_2018_03.cc</text>
</a>
</g>
</g>
<!-- Node49&#45;&gt;Node55 -->
<g id="edge6" class="edge"><title>Node49&#45;&gt;Node55</title>
<path fill="none" stroke="midnightblue" d="M649.815,-61.1939C659.201,-51.3605 670.024,-40.0228 678.357,-31.2931"/>
<polygon fill="midnightblue" stroke="midnightblue" points="647.043,-59.0287 642.67,-68.679 652.107,-63.8621 647.043,-59.0287"/>
</g>
<!-- Node56 -->
<g id="node8" class="node"><title>Node56</title>
<g id="a_node8"><a xlink:href="_setup__2018__05_8cc.html" target="_top" xlink:title="src/expconfig/setups\l/Setup_2018_05.cc">
<polygon fill="white" stroke="black" points="763.5,-1 763.5,-31 870.5,-31 870.5,-1 763.5,-1"/>
<text text-anchor="start" x="771.5" y="-19" font-family="Helvetica,sans-Serif" font-size="10.00">src/expconfig/setups</text>
<text text-anchor="middle" x="817" y="-8" font-family="Helvetica,sans-Serif" font-size="10.00">/Setup_2018_05.cc</text>
</a>
</g>
</g>
<!-- Node49&#45;&gt;Node56 -->
<g id="edge7" class="edge"><title>Node49&#45;&gt;Node56</title>
<path fill="none" stroke="midnightblue" d="M678.985,-65.4519C709.668,-54.6805 748.431,-41.0722 777.059,-31.0218"/>
<polygon fill="midnightblue" stroke="midnightblue" points="677.607,-62.2264 669.331,-68.8413 679.926,-68.8312 677.607,-62.2264"/>
</g>
<!-- Node57 -->
<g id="node9" class="node"><title>Node57</title>
<g id="a_node9"><a xlink:href="_setup__2018__09_8cc.html" target="_top" xlink:title="src/expconfig/setups\l/Setup_2018_09.cc">
<polygon fill="white" stroke="black" points="888.5,-1 888.5,-31 995.5,-31 995.5,-1 888.5,-1"/>
<text text-anchor="start" x="896.5" y="-19" font-family="Helvetica,sans-Serif" font-size="10.00">src/expconfig/setups</text>
<text text-anchor="middle" x="942" y="-8" font-family="Helvetica,sans-Serif" font-size="10.00">/Setup_2018_09.cc</text>
</a>
</g>
</g>
<!-- Node49&#45;&gt;Node57 -->
<g id="edge8" class="edge"><title>Node49&#45;&gt;Node57</title>
<path fill="none" stroke="midnightblue" d="M697.816,-69.5871C748.103,-59.6334 817.897,-45.5029 879,-32 882.074,-31.3207 885.229,-30.6106 888.411,-29.8844"/>
<polygon fill="midnightblue" stroke="midnightblue" points="696.841,-66.2118 687.709,-71.5832 698.198,-73.0791 696.841,-66.2118"/>
</g>
<!-- Node58 -->
<g id="node10" class="node"><title>Node58</title>
<g id="a_node10"><a xlink:href="_setup__2018__11_8cc.html" target="_top" xlink:title="src/expconfig/setups\l/Setup_2018_11.cc">
<polygon fill="white" stroke="black" points="1013.5,-1 1013.5,-31 1120.5,-31 1120.5,-1 1013.5,-1"/>
<text text-anchor="start" x="1021.5" y="-19" font-family="Helvetica,sans-Serif" font-size="10.00">src/expconfig/setups</text>
<text text-anchor="middle" x="1067" y="-8" font-family="Helvetica,sans-Serif" font-size="10.00">/Setup_2018_11.cc</text>
</a>
</g>
</g>
<!-- Node49&#45;&gt;Node58 -->
<g id="edge9" class="edge"><title>Node49&#45;&gt;Node58</title>
<path fill="none" stroke="midnightblue" d="M698.066,-75.674C773.552,-67.1866 897.898,-51.7964 1004,-32 1007.09,-31.4226 1010.27,-30.7921 1013.46,-30.1269"/>
<polygon fill="midnightblue" stroke="midnightblue" points="697.296,-72.2381 687.746,-76.8255 698.072,-79.1949 697.296,-72.2381"/>
</g>
<!-- Node59 -->
<g id="node11" class="node"><title>Node59</title>
<g id="a_node11"><a xlink:href="_setup__2019__01_8cc.html" target="_top" xlink:title="src/expconfig/setups\l/Setup_2019_01.cc">
<polygon fill="white" stroke="black" points="1138.5,-1 1138.5,-31 1245.5,-31 1245.5,-1 1138.5,-1"/>
<text text-anchor="start" x="1146.5" y="-19" font-family="Helvetica,sans-Serif" font-size="10.00">src/expconfig/setups</text>
<text text-anchor="middle" x="1192" y="-8" font-family="Helvetica,sans-Serif" font-size="10.00">/Setup_2019_01.cc</text>
</a>
</g>
</g>
<!-- Node49&#45;&gt;Node59 -->
<g id="edge10" class="edge"><title>Node49&#45;&gt;Node59</title>
<path fill="none" stroke="midnightblue" d="M698.082,-78.8502C794.91,-72.3772 976.266,-57.8556 1129,-32 1132.1,-31.4745 1135.28,-30.8846 1138.48,-30.2505"/>
<polygon fill="midnightblue" stroke="midnightblue" points="697.588,-75.3751 687.84,-79.5259 698.049,-82.36 697.588,-75.3751"/>
</g>
</g>
</svg>
