<?xml version="1.0" encoding="UTF-8" standalone="no"?>
<!DOCTYPE svg PUBLIC "-//W3C//DTD SVG 1.1//EN"
 "http://www.w3.org/Graphics/SVG/1.1/DTD/svg11.dtd">
<!-- Generated by graphviz version 2.36.0 (20140111.2315)
 -->
<!-- Title: src/unpacker/UnpackerA2Geant.h Pages: 1 -->
<svg width="3087pt" height="252pt"
 viewBox="0.00 0.00 3087.00 252.00" xmlns="http://www.w3.org/2000/svg" xmlns:xlink="http://www.w3.org/1999/xlink">
<g id="graph0" class="graph" transform="scale(1 1) rotate(0) translate(4 248)">
<title>src/unpacker/UnpackerA2Geant.h</title>
<polygon fill="white" stroke="none" points="-4,4 -4,-248 3083,-248 3083,4 -4,4"/>
<!-- Node57 -->
<g id="node1" class="node"><title>Node57</title>
<polygon fill="#bfbfbf" stroke="black" points="1361,-224.5 1361,-243.5 1525,-243.5 1525,-224.5 1361,-224.5"/>
<text text-anchor="middle" x="1443" y="-231.5" font-family="Helvetica,sans-Serif" font-size="10.00">src/unpacker/UnpackerA2Geant.h</text>
</g>
<!-- Node58 -->
<g id="node2" class="node"><title>Node58</title>
<g id="a_node2"><a xlink:href="_setup_8h.html" target="_top" xlink:title="src/expconfig/setups\l/Setup.h">
<polygon fill="white" stroke="black" points="1321.5,-157 1321.5,-187 1428.5,-187 1428.5,-157 1321.5,-157"/>
<text text-anchor="start" x="1329.5" y="-175" font-family="Helvetica,sans-Serif" font-size="10.00">src/expconfig/setups</text>
<text text-anchor="middle" x="1375" y="-164" font-family="Helvetica,sans-Serif" font-size="10.00">/Setup.h</text>
</a>
</g>
</g>
<!-- Node57&#45;&gt;Node58 -->
<g id="edge1" class="edge"><title>Node57&#45;&gt;Node58</title>
<path fill="none" stroke="midnightblue" d="M1425.45,-217.517C1414.82,-208.138 1401.37,-196.266 1391.03,-187.141"/>
<polygon fill="midnightblue" stroke="midnightblue" points="1423.44,-220.412 1433.26,-224.403 1428.07,-215.163 1423.44,-220.412"/>
</g>
<!-- Node65 -->
<g id="node9" class="node"><title>Node65</title>
<g id="a_node9"><a xlink:href="_exp_config_8cc.html" target="_top" xlink:title="src/expconfig/ExpConfig.cc">
<polygon fill="white" stroke="black" points="-0.5,-89.5 -0.5,-108.5 136.5,-108.5 136.5,-89.5 -0.5,-89.5"/>
<text text-anchor="middle" x="68" y="-96.5" font-family="Helvetica,sans-Serif" font-size="10.00">src/expconfig/ExpConfig.cc</text>
</a>
</g>
</g>
<!-- Node57&#45;&gt;Node65 -->
<g id="edge45" class="edge"><title>Node57&#45;&gt;Node65</title>
<path fill="none" stroke="midnightblue" d="M1350.62,-230.153C1137.11,-222.444 593.479,-196.331 146,-120 129.463,-117.179 111.291,-112.608 96.6501,-108.548"/>
<polygon fill="midnightblue" stroke="midnightblue" points="1350.72,-233.659 1360.84,-230.517 1350.97,-226.664 1350.72,-233.659"/>
</g>
<!-- Node99 -->
<g id="node43" class="node"><title>Node99</title>
<g id="a_node43"><a xlink:href="_unpacker_8cc.html" target="_top" xlink:title="src/unpacker/Unpacker.cc">
<polygon fill="white" stroke="black" points="1446.5,-162.5 1446.5,-181.5 1577.5,-181.5 1577.5,-162.5 1446.5,-162.5"/>
<text text-anchor="middle" x="1512" y="-169.5" font-family="Helvetica,sans-Serif" font-size="10.00">src/unpacker/Unpacker.cc</text>
</a>
</g>
</g>
<!-- Node57&#45;&gt;Node99 -->
<g id="edge46" class="edge"><title>Node57&#45;&gt;Node99</title>
<path fill="none" stroke="midnightblue" d="M1460.8,-217.521C1473.96,-206.082 1491.38,-190.93 1502.13,-181.581"/>
<polygon fill="midnightblue" stroke="midnightblue" points="1458.14,-215.201 1452.89,-224.403 1462.73,-220.483 1458.14,-215.201"/>
</g>
<!-- Node100 -->
<g id="node44" class="node"><title>Node100</title>
<g id="a_node44"><a xlink:href="_unpacker_a2_geant_8cc.html" target="_top" xlink:title="src/unpacker/UnpackerA2Geant.cc">
<polygon fill="white" stroke="black" points="1596,-162.5 1596,-181.5 1766,-181.5 1766,-162.5 1596,-162.5"/>
<text text-anchor="middle" x="1681" y="-169.5" font-family="Helvetica,sans-Serif" font-size="10.00">src/unpacker/UnpackerA2Geant.cc</text>
</a>
</g>
</g>
<!-- Node57&#45;&gt;Node100 -->
<g id="edge47" class="edge"><title>Node57&#45;&gt;Node100</title>
<path fill="none" stroke="midnightblue" d="M1486.6,-222.008C1532.91,-210.334 1605.12,-192.129 1647.27,-181.503"/>
<polygon fill="midnightblue" stroke="midnightblue" points="1485.69,-218.629 1476.85,-224.467 1487.4,-225.416 1485.69,-218.629"/>
</g>
<!-- Node59 -->
<g id="node3" class="node"><title>Node59</title>
<g id="a_node3"><a xlink:href="_ant-fake_raw_8cc.html" target="_top" xlink:title="progs/Ant&#45;fakeRaw.cc">
<polygon fill="white" stroke="black" points="155,-89.5 155,-108.5 269,-108.5 269,-89.5 155,-89.5"/>
<text text-anchor="middle" x="212" y="-96.5" font-family="Helvetica,sans-Serif" font-size="10.00">progs/Ant&#45;fakeRaw.cc</text>
</a>
</g>
</g>
<!-- Node58&#45;&gt;Node59 -->
<g id="edge2" class="edge"><title>Node58&#45;&gt;Node59</title>
<path fill="none" stroke="midnightblue" d="M1311.09,-170.068C1108.08,-166.785 479.503,-154.066 279,-120 264.28,-117.499 248.238,-112.784 235.542,-108.561"/>
<polygon fill="midnightblue" stroke="midnightblue" points="1311.23,-173.57 1321.29,-170.23 1311.35,-166.571 1311.23,-173.57"/>
</g>
<!-- Node60 -->
<g id="node4" class="node"><title>Node60</title>
<g id="a_node4"><a xlink:href="_ant-info_8cc.html" target="_top" xlink:title="progs/Ant&#45;info.cc">
<polygon fill="white" stroke="black" points="287.5,-89.5 287.5,-108.5 378.5,-108.5 378.5,-89.5 287.5,-89.5"/>
<text text-anchor="middle" x="333" y="-96.5" font-family="Helvetica,sans-Serif" font-size="10.00">progs/Ant&#45;info.cc</text>
</a>
</g>
</g>
<!-- Node58&#45;&gt;Node60 -->
<g id="edge3" class="edge"><title>Node58&#45;&gt;Node60</title>
<path fill="none" stroke="midnightblue" d="M1311.32,-170.173C1122.13,-167.327 565.605,-156.039 388,-120 375.752,-117.515 362.577,-112.801 352.193,-108.573"/>
<polygon fill="midnightblue" stroke="midnightblue" points="1311.33,-173.674 1321.38,-170.322 1311.43,-166.674 1311.33,-173.674"/>
</g>
<!-- Node61 -->
<g id="node5" class="node"><title>Node61</title>
<g id="a_node5"><a xlink:href="_ant-make_tagg_eff_8cc.html" target="_top" xlink:title="progs/Ant&#45;makeTaggEff.cc">
<polygon fill="white" stroke="black" points="397,-89.5 397,-108.5 531,-108.5 531,-89.5 397,-89.5"/>
<text text-anchor="middle" x="464" y="-96.5" font-family="Helvetica,sans-Serif" font-size="10.00">progs/Ant&#45;makeTaggEff.cc</text>
</a>
</g>
</g>
<!-- Node58&#45;&gt;Node61 -->
<g id="edge4" class="edge"><title>Node58&#45;&gt;Node61</title>
<path fill="none" stroke="midnightblue" d="M1311.3,-171.278C1171.13,-170.98 825.775,-165.256 541,-120 524.359,-117.355 506.091,-112.689 491.527,-108.529"/>
<polygon fill="midnightblue" stroke="midnightblue" points="1311.43,-174.778 1321.43,-171.291 1311.44,-167.778 1311.43,-174.778"/>
</g>
<!-- Node62 -->
<g id="node6" class="node"><title>Node62</title>
<g id="a_node6"><a xlink:href="_ant-rawdump_8cc.html" target="_top" xlink:title="progs/Ant&#45;rawdump.cc">
<polygon fill="white" stroke="black" points="549.5,-89.5 549.5,-108.5 664.5,-108.5 664.5,-89.5 549.5,-89.5"/>
<text text-anchor="middle" x="607" y="-96.5" font-family="Helvetica,sans-Serif" font-size="10.00">progs/Ant&#45;rawdump.cc</text>
</a>
</g>
</g>
<!-- Node58&#45;&gt;Node62 -->
<g id="edge5" class="edge"><title>Node58&#45;&gt;Node62</title>
<path fill="none" stroke="midnightblue" d="M1311.23,-170.977C1187.36,-169.918 906.021,-162.546 674,-120 659.433,-117.329 643.534,-112.661 630.88,-108.507"/>
<polygon fill="midnightblue" stroke="midnightblue" points="1311.27,-174.477 1321.3,-171.052 1311.32,-167.477 1311.27,-174.477"/>
</g>
<!-- Node63 -->
<g id="node7" class="node"><title>Node63</title>
<g id="a_node7"><a xlink:href="_omega_eta_g__fit_8cc.html" target="_top" xlink:title="progs/OmegaEtaG_fit.cc">
<polygon fill="white" stroke="black" points="682.5,-89.5 682.5,-108.5 807.5,-108.5 807.5,-89.5 682.5,-89.5"/>
<text text-anchor="middle" x="745" y="-96.5" font-family="Helvetica,sans-Serif" font-size="10.00">progs/OmegaEtaG_fit.cc</text>
</a>
</g>
</g>
<!-- Node58&#45;&gt;Node63 -->
<g id="edge6" class="edge"><title>Node58&#45;&gt;Node63</title>
<path fill="none" stroke="midnightblue" d="M1311.45,-168.908C1207.35,-164.651 994.339,-152.462 817,-120 801.686,-117.197 784.909,-112.627 771.405,-108.563"/>
<polygon fill="midnightblue" stroke="midnightblue" points="1311.35,-172.406 1321.48,-169.307 1311.63,-165.412 1311.35,-172.406"/>
</g>
<!-- Node64 -->
<g id="node8" class="node"><title>Node64</title>
<g id="a_node8"><a xlink:href="_proton_vertex_test_8cc.html" target="_top" xlink:title="src/analysis/physics\l/scratch/wolfes/ProtonVertex\lTest.cc">
<polygon fill="white" stroke="black" points="825.5,-78.5 825.5,-119.5 968.5,-119.5 968.5,-78.5 825.5,-78.5"/>
<text text-anchor="start" x="833.5" y="-107.5" font-family="Helvetica,sans-Serif" font-size="10.00">src/analysis/physics</text>
<text text-anchor="start" x="833.5" y="-96.5" font-family="Helvetica,sans-Serif" font-size="10.00">/scratch/wolfes/ProtonVertex</text>
<text text-anchor="middle" x="897" y="-85.5" font-family="Helvetica,sans-Serif" font-size="10.00">Test.cc</text>
</a>
</g>
</g>
<!-- Node58&#45;&gt;Node64 -->
<g id="edge7" class="edge"><title>Node58&#45;&gt;Node64</title>
<path fill="none" stroke="midnightblue" d="M1311.16,-165.069C1232.42,-157.233 1094.69,-141.827 978,-120 975.01,-119.441 971.966,-118.839 968.896,-118.204"/>
<polygon fill="midnightblue" stroke="midnightblue" points="1311.1,-168.58 1321.4,-166.078 1311.79,-161.614 1311.1,-168.58"/>
</g>
<!-- Node58&#45;&gt;Node65 -->
<g id="edge8" class="edge"><title>Node58&#45;&gt;Node65</title>
<path fill="none" stroke="midnightblue" d="M1311.29,-170.118C1092.71,-166.819 374.248,-153.619 146,-120 128.988,-117.494 110.318,-112.779 95.5091,-108.557"/>
<polygon fill="midnightblue" stroke="midnightblue" points="1311.26,-173.618 1321.31,-170.268 1311.37,-166.619 1311.26,-173.618"/>
</g>
<!-- Node66 -->
<g id="node10" class="node"><title>Node66</title>
<g id="a_node10"><a xlink:href="_setup_8cc.html" target="_top" xlink:title="src/expconfig/setups\l/Setup.cc">
<polygon fill="white" stroke="black" points="986.5,-84 986.5,-114 1093.5,-114 1093.5,-84 986.5,-84"/>
<text text-anchor="start" x="994.5" y="-102" font-family="Helvetica,sans-Serif" font-size="10.00">src/expconfig/setups</text>
<text text-anchor="middle" x="1040" y="-91" font-family="Helvetica,sans-Serif" font-size="10.00">/Setup.cc</text>
</a>
</g>
</g>
<!-- Node58&#45;&gt;Node66 -->
<g id="edge9" class="edge"><title>Node58&#45;&gt;Node66</title>
<path fill="none" stroke="midnightblue" d="M1311.39,-161.329C1255.96,-152.367 1173.62,-137.76 1103,-120 1096.1,-118.265 1088.85,-116.197 1081.82,-114.059"/>
<polygon fill="midnightblue" stroke="midnightblue" points="1310.99,-164.81 1321.42,-162.937 1312.1,-157.898 1310.99,-164.81"/>
</g>
<!-- Node67 -->
<g id="node11" class="node"><title>Node67</title>
<g id="a_node11"><a xlink:href="_setup__2007___base_8h.html" target="_top" xlink:title="src/expconfig/setups\l/Setup_2007_Base.h">
<polygon fill="white" stroke="black" points="1111.5,-84 1111.5,-114 1218.5,-114 1218.5,-84 1111.5,-84"/>
<text text-anchor="start" x="1119.5" y="-102" font-family="Helvetica,sans-Serif" font-size="10.00">src/expconfig/setups</text>
<text text-anchor="middle" x="1165" y="-91" font-family="Helvetica,sans-Serif" font-size="10.00">/Setup_2007_Base.h</text>
</a>
</g>
</g>
<!-- Node58&#45;&gt;Node67 -->
<g id="edge10" class="edge"><title>Node58&#45;&gt;Node67</title>
<path fill="none" stroke="midnightblue" d="M1323.7,-153.657C1287.78,-141.511 1240.38,-125.485 1206.76,-114.12"/>
<polygon fill="midnightblue" stroke="midnightblue" points="1322.92,-157.085 1333.51,-156.973 1325.16,-150.454 1322.92,-157.085"/>
</g>
<!-- Node70 -->
<g id="node14" class="node"><title>Node70</title>
<g id="a_node14"><a xlink:href="_setup__2007___base_8cc.html" target="_top" xlink:title="src/expconfig/setups\l/Setup_2007_Base.cc">
<polygon fill="white" stroke="black" points="711.5,-6 711.5,-36 824.5,-36 824.5,-6 711.5,-6"/>
<text text-anchor="start" x="719.5" y="-24" font-family="Helvetica,sans-Serif" font-size="10.00">src/expconfig/setups</text>
<text text-anchor="middle" x="768" y="-13" font-family="Helvetica,sans-Serif" font-size="10.00">/Setup_2007_Base.cc</text>
</a>
</g>
</g>
<!-- Node58&#45;&gt;Node70 -->
<g id="edge14" class="edge"><title>Node58&#45;&gt;Node70</title>
<path fill="none" stroke="midnightblue" d="M1321.82,-153.26C1301.61,-145.017 1279.1,-133.919 1261,-120 1241.96,-105.361 1248.18,-89.32 1227,-78 1149.65,-36.6638 920.074,-58.8031 834,-42 826.127,-40.463 817.854,-38.3606 809.93,-36.094"/>
<polygon fill="midnightblue" stroke="midnightblue" points="1320.64,-156.557 1331.23,-156.961 1323.21,-150.043 1320.64,-156.557"/>
</g>
<!-- Node71 -->
<g id="node15" class="node"><title>Node71</title>
<g id="a_node15"><a xlink:href="_setup__2010__03___base_8cc.html" target="_top" xlink:title="src/expconfig/setups\l/Setup_2010_03_Base.cc">
<polygon fill="white" stroke="black" points="843,-6 843,-36 971,-36 971,-6 843,-6"/>
<text text-anchor="start" x="851" y="-24" font-family="Helvetica,sans-Serif" font-size="10.00">src/expconfig/setups</text>
<text text-anchor="middle" x="907" y="-13" font-family="Helvetica,sans-Serif" font-size="10.00">/Setup_2010_03_Base.cc</text>
</a>
</g>
</g>
<!-- Node58&#45;&gt;Node71 -->
<g id="edge15" class="edge"><title>Node58&#45;&gt;Node71</title>
<path fill="none" stroke="midnightblue" d="M1345.78,-151.022C1332.97,-141.932 1317.94,-130.808 1305,-120 1284.25,-102.669 1285.4,-89.6319 1261,-78 1147.34,-23.8259 1103.46,-66.6953 980,-42 971.753,-40.3505 963.067,-38.2757 954.677,-36.0915"/>
<polygon fill="midnightblue" stroke="midnightblue" points="1344.05,-154.08 1354.24,-156.961 1348.07,-148.351 1344.05,-154.08"/>
</g>
<!-- Node72 -->
<g id="node16" class="node"><title>Node72</title>
<g id="a_node16"><a xlink:href="_setup__2010__03___base_8h.html" target="_top" xlink:title="src/expconfig/setups\l/Setup_2010_03_Base.h">
<polygon fill="white" stroke="black" points="1313.5,-84 1313.5,-114 1436.5,-114 1436.5,-84 1313.5,-84"/>
<text text-anchor="start" x="1321.5" y="-102" font-family="Helvetica,sans-Serif" font-size="10.00">src/expconfig/setups</text>
<text text-anchor="middle" x="1375" y="-91" font-family="Helvetica,sans-Serif" font-size="10.00">/Setup_2010_03_Base.h</text>
</a>
</g>
</g>
<!-- Node58&#45;&gt;Node72 -->
<g id="edge16" class="edge"><title>Node58&#45;&gt;Node72</title>
<path fill="none" stroke="midnightblue" d="M1375,-146.898C1375,-136.131 1375,-123.801 1375,-114.486"/>
<polygon fill="midnightblue" stroke="midnightblue" points="1371.5,-146.973 1375,-156.973 1378.5,-146.973 1371.5,-146.973"/>
</g>
<!-- Node74 -->
<g id="node18" class="node"><title>Node74</title>
<g id="a_node18"><a xlink:href="_setup__2012__12___compton_8cc.html" target="_top" xlink:title="src/expconfig/setups\l/Setup_2012_12_Compton.cc">
<polygon fill="white" stroke="black" points="1455,-84 1455,-114 1601,-114 1601,-84 1455,-84"/>
<text text-anchor="start" x="1463" y="-102" font-family="Helvetica,sans-Serif" font-size="10.00">src/expconfig/setups</text>
<text text-anchor="middle" x="1528" y="-91" font-family="Helvetica,sans-Serif" font-size="10.00">/Setup_2012_12_Compton.cc</text>
</a>
</g>
</g>
<!-- Node58&#45;&gt;Node74 -->
<g id="edge19" class="edge"><title>Node58&#45;&gt;Node74</title>
<path fill="none" stroke="midnightblue" d="M1414.4,-152.715C1440.31,-140.692 1473.71,-125.194 1497.57,-114.12"/>
<polygon fill="midnightblue" stroke="midnightblue" points="1412.83,-149.588 1405.23,-156.973 1415.77,-155.938 1412.83,-149.588"/>
</g>
<!-- Node75 -->
<g id="node19" class="node"><title>Node75</title>
<g id="a_node19"><a xlink:href="_setup__2014___e_p_t_8h.html" target="_top" xlink:title="src/expconfig/setups\l/Setup_2014_EPT.h">
<polygon fill="white" stroke="black" points="1619.5,-84 1619.5,-114 1726.5,-114 1726.5,-84 1619.5,-84"/>
<text text-anchor="start" x="1627.5" y="-102" font-family="Helvetica,sans-Serif" font-size="10.00">src/expconfig/setups</text>
<text text-anchor="middle" x="1673" y="-91" font-family="Helvetica,sans-Serif" font-size="10.00">/Setup_2014_EPT.h</text>
</a>
</g>
</g>
<!-- Node58&#45;&gt;Node75 -->
<g id="edge20" class="edge"><title>Node58&#45;&gt;Node75</title>
<path fill="none" stroke="midnightblue" d="M1438.81,-155.873C1515.97,-138.991 1537.56,-139.027 1610,-120 1616.77,-118.222 1623.89,-116.155 1630.81,-114.039"/>
<polygon fill="midnightblue" stroke="midnightblue" points="1437.6,-152.555 1428.59,-158.134 1439.11,-159.389 1437.6,-152.555"/>
</g>
<!-- Node80 -->
<g id="node24" class="node"><title>Node80</title>
<g id="a_node24"><a xlink:href="_setup__2015__01___pion_8cc.html" target="_top" xlink:title="src/expconfig/setups\l/Setup_2015_01_Pion.cc">
<polygon fill="white" stroke="black" points="1789.5,-6 1789.5,-36 1914.5,-36 1914.5,-6 1789.5,-6"/>
<text text-anchor="start" x="1797.5" y="-24" font-family="Helvetica,sans-Serif" font-size="10.00">src/expconfig/setups</text>
<text text-anchor="middle" x="1852" y="-13" font-family="Helvetica,sans-Serif" font-size="10.00">/Setup_2015_01_Pion.cc</text>
</a>
</g>
</g>
<!-- Node58&#45;&gt;Node80 -->
<g id="edge25" class="edge"><title>Node58&#45;&gt;Node80</title>
<path fill="none" stroke="midnightblue" d="M1438.65,-156.098C1571.25,-134.835 1619.44,-178.924 1735,-120 1757.69,-108.429 1754.89,-94.8454 1774,-78 1791.76,-62.3459 1813.81,-46.8281 1829.94,-36.1118"/>
<polygon fill="midnightblue" stroke="midnightblue" points="1437.8,-152.691 1428.53,-157.819 1438.98,-159.592 1437.8,-152.691"/>
</g>
<!-- Node81 -->
<g id="node25" class="node"><title>Node81</title>
<g id="a_node25"><a xlink:href="_setup__2015__01___pion_8h.html" target="_top" xlink:title="src/expconfig/setups\l/Setup_2015_01_Pion.h">
<polygon fill="white" stroke="black" points="1783,-84 1783,-114 1903,-114 1903,-84 1783,-84"/>
<text text-anchor="start" x="1791" y="-102" font-family="Helvetica,sans-Serif" font-size="10.00">src/expconfig/setups</text>
<text text-anchor="middle" x="1843" y="-91" font-family="Helvetica,sans-Serif" font-size="10.00">/Setup_2015_01_Pion.h</text>
</a>
</g>
</g>
<!-- Node58&#45;&gt;Node81 -->
<g id="edge26" class="edge"><title>Node58&#45;&gt;Node81</title>
<path fill="none" stroke="midnightblue" d="M1438.81,-156.022C1585.66,-131.535 1626.84,-146.772 1769,-120 1777.63,-118.374 1786.73,-116.258 1795.48,-114.011"/>
<polygon fill="midnightblue" stroke="midnightblue" points="1437.79,-152.646 1428.52,-157.774 1438.97,-159.546 1437.79,-152.646"/>
</g>
<!-- Node82 -->
<g id="node26" class="node"><title>Node82</title>
<g id="a_node26"><a xlink:href="_setup__2017__03_8h.html" target="_top" xlink:title="src/expconfig/setups\l/Setup_2017_03.h">
<polygon fill="white" stroke="black" points="1921.5,-84 1921.5,-114 2028.5,-114 2028.5,-84 1921.5,-84"/>
<text text-anchor="start" x="1929.5" y="-102" font-family="Helvetica,sans-Serif" font-size="10.00">src/expconfig/setups</text>
<text text-anchor="middle" x="1975" y="-91" font-family="Helvetica,sans-Serif" font-size="10.00">/Setup_2017_03.h</text>
</a>
</g>
</g>
<!-- Node58&#45;&gt;Node82 -->
<g id="edge28" class="edge"><title>Node58&#45;&gt;Node82</title>
<path fill="none" stroke="midnightblue" d="M1438.6,-156.104C1648.14,-124.596 1707.18,-159.078 1911,-120 1918.89,-118.488 1927.17,-116.337 1935.07,-114.003"/>
<polygon fill="midnightblue" stroke="midnightblue" points="1437.85,-152.676 1428.5,-157.655 1438.92,-159.595 1437.85,-152.676"/>
</g>
<!-- Node84 -->
<g id="node28" class="node"><title>Node84</title>
<g id="a_node28"><a xlink:href="_setup__2017__05_8h.html" target="_top" xlink:title="src/expconfig/setups\l/Setup_2017_05.h">
<polygon fill="white" stroke="black" points="2046.5,-84 2046.5,-114 2153.5,-114 2153.5,-84 2046.5,-84"/>
<text text-anchor="start" x="2054.5" y="-102" font-family="Helvetica,sans-Serif" font-size="10.00">src/expconfig/setups</text>
<text text-anchor="middle" x="2100" y="-91" font-family="Helvetica,sans-Serif" font-size="10.00">/Setup_2017_05.h</text>
</a>
</g>
</g>
<!-- Node58&#45;&gt;Node84 -->
<g id="edge30" class="edge"><title>Node58&#45;&gt;Node84</title>
<path fill="none" stroke="midnightblue" d="M1438.75,-156.087C1703.64,-118.215 1777.99,-168.127 2037,-120 2044.9,-118.533 2053.19,-116.372 2061.06,-114.008"/>
<polygon fill="midnightblue" stroke="midnightblue" points="1438.23,-152.626 1428.84,-157.532 1439.24,-159.553 1438.23,-152.626"/>
</g>
<!-- Node86 -->
<g id="node30" class="node"><title>Node86</title>
<g id="a_node30"><a xlink:href="_setup__2017_plus___new_tagger___base_8h.html" target="_top" xlink:title="src/expconfig/setups\l/Setup_2017Plus_NewTagger\l_Base.h">
<polygon fill="white" stroke="black" points="2172,-78.5 2172,-119.5 2318,-119.5 2318,-78.5 2172,-78.5"/>
<text text-anchor="start" x="2180" y="-107.5" font-family="Helvetica,sans-Serif" font-size="10.00">src/expconfig/setups</text>
<text text-anchor="start" x="2180" y="-96.5" font-family="Helvetica,sans-Serif" font-size="10.00">/Setup_2017Plus_NewTagger</text>
<text text-anchor="middle" x="2245" y="-85.5" font-family="Helvetica,sans-Serif" font-size="10.00">_Base.h</text>
</a>
</g>
</g>
<!-- Node58&#45;&gt;Node86 -->
<g id="edge32" class="edge"><title>Node58&#45;&gt;Node86</title>
<path fill="none" stroke="midnightblue" d="M1438.85,-156.081C1758.74,-111.623 1846.39,-165.465 2162,-120 2165.23,-119.535 2168.51,-119.002 2171.82,-118.417"/>
<polygon fill="midnightblue" stroke="midnightblue" points="1438.24,-152.632 1428.83,-157.495 1439.22,-159.563 1438.24,-152.632"/>
</g>
<!-- Node92 -->
<g id="node36" class="node"><title>Node92</title>
<g id="a_node36"><a xlink:href="_setup__2018__11_8h.html" target="_top" xlink:title="src/expconfig/setups\l/Setup_2018_11.h">
<polygon fill="white" stroke="black" points="2336.5,-84 2336.5,-114 2443.5,-114 2443.5,-84 2336.5,-84"/>
<text text-anchor="start" x="2344.5" y="-102" font-family="Helvetica,sans-Serif" font-size="10.00">src/expconfig/setups</text>
<text text-anchor="middle" x="2390" y="-91" font-family="Helvetica,sans-Serif" font-size="10.00">/Setup_2018_11.h</text>
</a>
</g>
</g>
<!-- Node58&#45;&gt;Node92 -->
<g id="edge38" class="edge"><title>Node58&#45;&gt;Node92</title>
<path fill="none" stroke="midnightblue" d="M1438.75,-156.108C1831.53,-103.377 1940.76,-187.866 2327,-120 2335.02,-118.59 2343.44,-116.424 2351.42,-114.029"/>
<polygon fill="midnightblue" stroke="midnightblue" points="1438.26,-152.642 1428.83,-157.461 1439.21,-159.578 1438.26,-152.642"/>
</g>
<!-- Node94 -->
<g id="node38" class="node"><title>Node94</title>
<g id="a_node38"><a xlink:href="_setup__2019__01_8h.html" target="_top" xlink:title="src/expconfig/setups\l/Setup_2019_01.h">
<polygon fill="white" stroke="black" points="2461.5,-84 2461.5,-114 2568.5,-114 2568.5,-84 2461.5,-84"/>
<text text-anchor="start" x="2469.5" y="-102" font-family="Helvetica,sans-Serif" font-size="10.00">src/expconfig/setups</text>
<text text-anchor="middle" x="2515" y="-91" font-family="Helvetica,sans-Serif" font-size="10.00">/Setup_2019_01.h</text>
</a>
</g>
</g>
<!-- Node58&#45;&gt;Node94 -->
<g id="edge40" class="edge"><title>Node58&#45;&gt;Node94</title>
<path fill="none" stroke="midnightblue" d="M1438.79,-156.108C1886.69,-96.9548 2010.91,-196.371 2452,-120 2460.03,-118.61 2468.45,-116.453 2476.43,-114.06"/>
<polygon fill="midnightblue" stroke="midnightblue" points="1438.27,-152.646 1428.82,-157.443 1439.2,-159.584 1438.27,-152.646"/>
</g>
<!-- Node96 -->
<g id="node40" class="node"><title>Node96</title>
<g id="a_node40"><a xlink:href="_setup___c_b_source_calib_8cc.html" target="_top" xlink:title="src/expconfig/setups\l/Setup_CBSourceCalib.cc">
<polygon fill="white" stroke="black" points="2586.5,-84 2586.5,-114 2717.5,-114 2717.5,-84 2586.5,-84"/>
<text text-anchor="start" x="2594.5" y="-102" font-family="Helvetica,sans-Serif" font-size="10.00">src/expconfig/setups</text>
<text text-anchor="middle" x="2652" y="-91" font-family="Helvetica,sans-Serif" font-size="10.00">/Setup_CBSourceCalib.cc</text>
</a>
</g>
</g>
<!-- Node58&#45;&gt;Node96 -->
<g id="edge42" class="edge"><title>Node58&#45;&gt;Node96</title>
<path fill="none" stroke="midnightblue" d="M1438.88,-156.099C1941.83,-90.376 2079.22,-193.247 2577,-120 2586.47,-118.607 2596.45,-116.448 2605.94,-114.056"/>
<polygon fill="midnightblue" stroke="midnightblue" points="1438.28,-152.648 1428.82,-157.429 1439.19,-159.588 1438.28,-152.648"/>
</g>
<!-- Node97 -->
<g id="node41" class="node"><title>Node97</title>
<g id="a_node41"><a xlink:href="_setup_registry_8cc.html" target="_top" xlink:title="src/expconfig/setups\l/SetupRegistry.cc">
<polygon fill="white" stroke="black" points="2735.5,-84 2735.5,-114 2842.5,-114 2842.5,-84 2735.5,-84"/>
<text text-anchor="start" x="2743.5" y="-102" font-family="Helvetica,sans-Serif" font-size="10.00">src/expconfig/setups</text>
<text text-anchor="middle" x="2789" y="-91" font-family="Helvetica,sans-Serif" font-size="10.00">/SetupRegistry.cc</text>
</a>
</g>
</g>
<!-- Node58&#45;&gt;Node97 -->
<g id="edge43" class="edge"><title>Node58&#45;&gt;Node97</title>
<path fill="none" stroke="midnightblue" d="M1438.92,-156.099C2007.61,-82.8497 2164.67,-215.01 2726,-120 2734.15,-118.621 2742.69,-116.436 2750.77,-114.007"/>
<polygon fill="midnightblue" stroke="midnightblue" points="1438.28,-152.653 1428.82,-157.416 1439.19,-159.594 1438.28,-152.653"/>
</g>
<!-- Node98 -->
<g id="node42" class="node"><title>Node98</title>
<g id="a_node42"><a xlink:href="expconfig__helpers_8cc.html" target="_top" xlink:title="test/expconfig_helpers.cc">
<polygon fill="white" stroke="black" points="2861,-89.5 2861,-108.5 2989,-108.5 2989,-89.5 2861,-89.5"/>
<text text-anchor="middle" x="2925" y="-96.5" font-family="Helvetica,sans-Serif" font-size="10.00">test/expconfig_helpers.cc</text>
</a>
</g>
</g>
<!-- Node58&#45;&gt;Node98 -->
<g id="edge44" class="edge"><title>Node58&#45;&gt;Node98</title>
<path fill="none" stroke="midnightblue" d="M1438.96,-156.095C2062.76,-76.2598 2232.7,-210.109 2851,-120 2867.33,-117.62 2885.2,-112.853 2899.29,-108.57"/>
<polygon fill="midnightblue" stroke="midnightblue" points="1438.29,-152.653 1428.82,-157.407 1439.19,-159.596 1438.29,-152.653"/>
</g>
<!-- Node68 -->
<g id="node12" class="node"><title>Node68</title>
<g id="a_node12"><a xlink:href="_setup__2007__06_8cc.html" target="_top" xlink:title="src/expconfig/setups\l/Setup_2007_06.cc">
<polygon fill="white" stroke="black" points="461.5,-6 461.5,-36 568.5,-36 568.5,-6 461.5,-6"/>
<text text-anchor="start" x="469.5" y="-24" font-family="Helvetica,sans-Serif" font-size="10.00">src/expconfig/setups</text>
<text text-anchor="middle" x="515" y="-13" font-family="Helvetica,sans-Serif" font-size="10.00">/Setup_2007_06.cc</text>
</a>
</g>
</g>
<!-- Node67&#45;&gt;Node68 -->
<g id="edge11" class="edge"><title>Node67&#45;&gt;Node68</title>
<path fill="none" stroke="midnightblue" d="M1115.73,-81.1345C1111.12,-79.93 1106.5,-78.8555 1102,-78 872.675,-34.3727 807.325,-85.6273 578,-42 570.221,-40.5202 562.059,-38.3852 554.285,-36.0556"/>
<polygon fill="midnightblue" stroke="midnightblue" points="1115.14,-84.6055 1125.71,-83.9444 1117.04,-77.867 1115.14,-84.6055"/>
</g>
<!-- Node69 -->
<g id="node13" class="node"><title>Node69</title>
<g id="a_node13"><a xlink:href="_setup__2007__07_8cc.html" target="_top" xlink:title="src/expconfig/setups\l/Setup_2007_07.cc">
<polygon fill="white" stroke="black" points="586.5,-6 586.5,-36 693.5,-36 693.5,-6 586.5,-6"/>
<text text-anchor="start" x="594.5" y="-24" font-family="Helvetica,sans-Serif" font-size="10.00">src/expconfig/setups</text>
<text text-anchor="middle" x="640" y="-13" font-family="Helvetica,sans-Serif" font-size="10.00">/Setup_2007_07.cc</text>
</a>
</g>
</g>
<!-- Node67&#45;&gt;Node69 -->
<g id="edge12" class="edge"><title>Node67&#45;&gt;Node69</title>
<path fill="none" stroke="midnightblue" d="M1115.51,-81.184C1110.97,-79.9791 1106.42,-78.8905 1102,-78 927.449,-42.8549 877.551,-77.1451 703,-42 695.35,-40.4597 687.319,-38.3266 679.65,-36.0243"/>
<polygon fill="midnightblue" stroke="midnightblue" points="1114.77,-84.6145 1125.35,-83.9757 1116.68,-77.8801 1114.77,-84.6145"/>
</g>
<!-- Node67&#45;&gt;Node70 -->
<g id="edge13" class="edge"><title>Node67&#45;&gt;Node70</title>
<path fill="none" stroke="midnightblue" d="M1114.51,-81.1298C1110.3,-79.9809 1106.09,-78.9175 1102,-78 984.728,-51.7186 951.443,-67.509 834,-42 826.395,-40.3482 818.397,-38.2458 810.696,-36.0281"/>
<polygon fill="midnightblue" stroke="midnightblue" points="1113.7,-84.5376 1124.28,-83.9373 1115.63,-77.8102 1113.7,-84.5376"/>
</g>
<!-- Node72&#45;&gt;Node71 -->
<g id="edge17" class="edge"><title>Node72&#45;&gt;Node71</title>
<path fill="none" stroke="midnightblue" d="M1315.7,-81.5143C1310.08,-80.2178 1304.45,-79.0188 1299,-78 1158.75,-51.7759 1120.11,-68.9311 980,-42 971.612,-40.3878 962.778,-38.3049 954.264,-36.0943"/>
<polygon fill="midnightblue" stroke="midnightblue" points="1315.23,-84.9996 1325.77,-83.9354 1316.86,-78.1937 1315.23,-84.9996"/>
</g>
<!-- Node73 -->
<g id="node17" class="node"><title>Node73</title>
<g id="a_node17"><a xlink:href="_setup__2010__09___compton_8cc.html" target="_top" xlink:title="src/expconfig/setups\l/Setup_2010_09_Compton.cc">
<polygon fill="white" stroke="black" points="989,-6 989,-36 1135,-36 1135,-6 989,-6"/>
<text text-anchor="start" x="997" y="-24" font-family="Helvetica,sans-Serif" font-size="10.00">src/expconfig/setups</text>
<text text-anchor="middle" x="1062" y="-13" font-family="Helvetica,sans-Serif" font-size="10.00">/Setup_2010_09_Compton.cc</text>
</a>
</g>
</g>
<!-- Node72&#45;&gt;Node73 -->
<g id="edge18" class="edge"><title>Node72&#45;&gt;Node73</title>
<path fill="none" stroke="midnightblue" d="M1312.39,-81.3773C1307.86,-80.2202 1303.36,-79.0839 1299,-78 1230.78,-61.0542 1213.39,-58.2331 1145,-42 1136.92,-40.0831 1128.41,-38.0477 1120.03,-36.0376"/>
<polygon fill="midnightblue" stroke="midnightblue" points="1311.75,-84.8266 1322.31,-83.9318 1313.5,-78.0479 1311.75,-84.8266"/>
</g>
<!-- Node76 -->
<g id="node20" class="node"><title>Node76</title>
<g id="a_node20"><a xlink:href="_setup__2014__07___e_p_t___prod_8cc.html" target="_top" xlink:title="src/expconfig/setups\l/Setup_2014_07_EPT_Prod.cc">
<polygon fill="white" stroke="black" points="1153.5,-6 1153.5,-36 1304.5,-36 1304.5,-6 1153.5,-6"/>
<text text-anchor="start" x="1161.5" y="-24" font-family="Helvetica,sans-Serif" font-size="10.00">src/expconfig/setups</text>
<text text-anchor="middle" x="1229" y="-13" font-family="Helvetica,sans-Serif" font-size="10.00">/Setup_2014_07_EPT_Prod.cc</text>
</a>
</g>
</g>
<!-- Node75&#45;&gt;Node76 -->
<g id="edge21" class="edge"><title>Node75&#45;&gt;Node76</title>
<path fill="none" stroke="midnightblue" d="M1622.72,-81.1259C1618.44,-79.9692 1614.16,-78.9056 1610,-78 1480.5,-49.8281 1444.48,-65.2119 1314,-42 1304.45,-40.3006 1294.36,-38.2009 1284.6,-36.0073"/>
<polygon fill="midnightblue" stroke="midnightblue" points="1622.06,-84.5764 1632.63,-83.9632 1623.98,-77.8466 1622.06,-84.5764"/>
</g>
<!-- Node77 -->
<g id="node21" class="node"><title>Node77</title>
<g id="a_node21"><a xlink:href="_setup__2014__10___e_p_t___prod_8cc.html" target="_top" xlink:title="src/expconfig/setups\l/Setup_2014_10_EPT_Prod.cc">
<polygon fill="white" stroke="black" points="1322.5,-6 1322.5,-36 1473.5,-36 1473.5,-6 1322.5,-6"/>
<text text-anchor="start" x="1330.5" y="-24" font-family="Helvetica,sans-Serif" font-size="10.00">src/expconfig/setups</text>
<text text-anchor="middle" x="1398" y="-13" font-family="Helvetica,sans-Serif" font-size="10.00">/Setup_2014_10_EPT_Prod.cc</text>
</a>
</g>
</g>
<!-- Node75&#45;&gt;Node77 -->
<g id="edge22" class="edge"><title>Node75&#45;&gt;Node77</title>
<path fill="none" stroke="midnightblue" d="M1620.09,-80.9962C1616.68,-79.9646 1613.3,-78.9577 1610,-78 1557.54,-62.7551 1497.28,-47.0053 1454.45,-36.1067"/>
<polygon fill="midnightblue" stroke="midnightblue" points="1619.12,-84.3593 1629.71,-83.948 1621.17,-77.6675 1619.12,-84.3593"/>
</g>
<!-- Node78 -->
<g id="node22" class="node"><title>Node78</title>
<g id="a_node22"><a xlink:href="_setup__2014__12___e_p_t___prod_8cc.html" target="_top" xlink:title="src/expconfig/setups\l/Setup_2014_12_EPT_Prod.cc">
<polygon fill="white" stroke="black" points="1491.5,-6 1491.5,-36 1642.5,-36 1642.5,-6 1491.5,-6"/>
<text text-anchor="start" x="1499.5" y="-24" font-family="Helvetica,sans-Serif" font-size="10.00">src/expconfig/setups</text>
<text text-anchor="middle" x="1567" y="-13" font-family="Helvetica,sans-Serif" font-size="10.00">/Setup_2014_12_EPT_Prod.cc</text>
</a>
</g>
</g>
<!-- Node75&#45;&gt;Node78 -->
<g id="edge23" class="edge"><title>Node75&#45;&gt;Node78</title>
<path fill="none" stroke="midnightblue" d="M1644.56,-77.6108C1626.33,-64.5359 1603.11,-47.8895 1586.85,-36.2309"/>
<polygon fill="midnightblue" stroke="midnightblue" points="1642.9,-80.7225 1653.06,-83.705 1646.97,-75.0336 1642.9,-80.7225"/>
</g>
<!-- Node79 -->
<g id="node23" class="node"><title>Node79</title>
<g id="a_node23"><a xlink:href="_setup__2014___e_p_t_8cc.html" target="_top" xlink:title="src/expconfig/setups\l/Setup_2014_EPT.cc">
<polygon fill="white" stroke="black" points="1661,-6 1661,-36 1771,-36 1771,-6 1661,-6"/>
<text text-anchor="start" x="1669" y="-24" font-family="Helvetica,sans-Serif" font-size="10.00">src/expconfig/setups</text>
<text text-anchor="middle" x="1716" y="-13" font-family="Helvetica,sans-Serif" font-size="10.00">/Setup_2014_EPT.cc</text>
</a>
</g>
</g>
<!-- Node75&#45;&gt;Node79 -->
<g id="edge24" class="edge"><title>Node75&#45;&gt;Node79</title>
<path fill="none" stroke="midnightblue" d="M1686.18,-74.7047C1693.29,-62.141 1701.83,-47.0416 1707.95,-36.2309"/>
<polygon fill="midnightblue" stroke="midnightblue" points="1682.97,-73.2779 1681.09,-83.705 1689.06,-76.725 1682.97,-73.2779"/>
</g>
<!-- Node81&#45;&gt;Node80 -->
<g id="edge27" class="edge"><title>Node81&#45;&gt;Node80</title>
<path fill="none" stroke="midnightblue" d="M1845.89,-73.5898C1847.35,-61.2565 1849.07,-46.7237 1850.31,-36.2309"/>
<polygon fill="midnightblue" stroke="midnightblue" points="1842.39,-73.3627 1844.69,-83.705 1849.34,-74.186 1842.39,-73.3627"/>
</g>
<!-- Node83 -->
<g id="node27" class="node"><title>Node83</title>
<g id="a_node27"><a xlink:href="_setup__2017__03_8cc.html" target="_top" xlink:title="src/expconfig/setups\l/Setup_2017_03.cc">
<polygon fill="white" stroke="black" points="1932.5,-6 1932.5,-36 2039.5,-36 2039.5,-6 1932.5,-6"/>
<text text-anchor="start" x="1940.5" y="-24" font-family="Helvetica,sans-Serif" font-size="10.00">src/expconfig/setups</text>
<text text-anchor="middle" x="1986" y="-13" font-family="Helvetica,sans-Serif" font-size="10.00">/Setup_2017_03.cc</text>
</a>
</g>
</g>
<!-- Node82&#45;&gt;Node83 -->
<g id="edge29" class="edge"><title>Node82&#45;&gt;Node83</title>
<path fill="none" stroke="midnightblue" d="M1978.53,-73.5898C1980.32,-61.2565 1982.42,-46.7237 1983.94,-36.2309"/>
<polygon fill="midnightblue" stroke="midnightblue" points="1975.04,-73.3067 1977.07,-83.705 1981.97,-74.3095 1975.04,-73.3067"/>
</g>
<!-- Node85 -->
<g id="node29" class="node"><title>Node85</title>
<g id="a_node29"><a xlink:href="_setup__2017__05_8cc.html" target="_top" xlink:title="src/expconfig/setups\l/Setup_2017_05.cc">
<polygon fill="white" stroke="black" points="2057.5,-6 2057.5,-36 2164.5,-36 2164.5,-6 2057.5,-6"/>
<text text-anchor="start" x="2065.5" y="-24" font-family="Helvetica,sans-Serif" font-size="10.00">src/expconfig/setups</text>
<text text-anchor="middle" x="2111" y="-13" font-family="Helvetica,sans-Serif" font-size="10.00">/Setup_2017_05.cc</text>
</a>
</g>
</g>
<!-- Node84&#45;&gt;Node85 -->
<g id="edge31" class="edge"><title>Node84&#45;&gt;Node85</title>
<path fill="none" stroke="midnightblue" d="M2103.53,-73.5898C2105.32,-61.2565 2107.42,-46.7237 2108.94,-36.2309"/>
<polygon fill="midnightblue" stroke="midnightblue" points="2100.04,-73.3067 2102.07,-83.705 2106.97,-74.3095 2100.04,-73.3067"/>
</g>
<!-- Node87 -->
<g id="node31" class="node"><title>Node87</title>
<g id="a_node31"><a xlink:href="_setup__2017__12_8cc.html" target="_top" xlink:title="src/expconfig/setups\l/Setup_2017_12.cc">
<polygon fill="white" stroke="black" points="2182.5,-6 2182.5,-36 2289.5,-36 2289.5,-6 2182.5,-6"/>
<text text-anchor="start" x="2190.5" y="-24" font-family="Helvetica,sans-Serif" font-size="10.00">src/expconfig/setups</text>
<text text-anchor="middle" x="2236" y="-13" font-family="Helvetica,sans-Serif" font-size="10.00">/Setup_2017_12.cc</text>
</a>
</g>
</g>
<!-- Node86&#45;&gt;Node87 -->
<g id="edge33" class="edge"><title>Node86&#45;&gt;Node87</title>
<path fill="none" stroke="midnightblue" d="M2241.48,-68.2829C2240.17,-57.2536 2238.75,-45.2457 2237.68,-36.2254"/>
<polygon fill="midnightblue" stroke="midnightblue" points="2238.03,-68.9091 2242.68,-78.4281 2244.98,-68.0859 2238.03,-68.9091"/>
</g>
<!-- Node88 -->
<g id="node32" class="node"><title>Node88</title>
<g id="a_node32"><a xlink:href="_setup__2017_plus___new_tagger___base_8cc.html" target="_top" xlink:title="src/expconfig/setups\l/Setup_2017Plus_NewTagger\l_Base.cc">
<polygon fill="white" stroke="black" points="2308,-0.5 2308,-41.5 2454,-41.5 2454,-0.5 2308,-0.5"/>
<text text-anchor="start" x="2316" y="-29.5" font-family="Helvetica,sans-Serif" font-size="10.00">src/expconfig/setups</text>
<text text-anchor="start" x="2316" y="-18.5" font-family="Helvetica,sans-Serif" font-size="10.00">/Setup_2017Plus_NewTagger</text>
<text text-anchor="middle" x="2381" y="-7.5" font-family="Helvetica,sans-Serif" font-size="10.00">_Base.cc</text>
</a>
</g>
</g>
<!-- Node86&#45;&gt;Node88 -->
<g id="edge34" class="edge"><title>Node86&#45;&gt;Node88</title>
<path fill="none" stroke="midnightblue" d="M2288.87,-73.4856C2307.39,-63.1335 2328.66,-51.2473 2346.1,-41.5056"/>
<polygon fill="midnightblue" stroke="midnightblue" points="2287.05,-70.4945 2280.02,-78.4281 2290.46,-76.6052 2287.05,-70.4945"/>
</g>
<!-- Node89 -->
<g id="node33" class="node"><title>Node89</title>
<g id="a_node33"><a xlink:href="_setup__2018__03_8cc.html" target="_top" xlink:title="src/expconfig/setups\l/Setup_2018_03.cc">
<polygon fill="white" stroke="black" points="2472.5,-6 2472.5,-36 2579.5,-36 2579.5,-6 2472.5,-6"/>
<text text-anchor="start" x="2480.5" y="-24" font-family="Helvetica,sans-Serif" font-size="10.00">src/expconfig/setups</text>
<text text-anchor="middle" x="2526" y="-13" font-family="Helvetica,sans-Serif" font-size="10.00">/Setup_2018_03.cc</text>
</a>
</g>
</g>
<!-- Node86&#45;&gt;Node89 -->
<g id="edge35" class="edge"><title>Node86&#45;&gt;Node89</title>
<path fill="none" stroke="midnightblue" d="M2328.33,-77.7567C2369.08,-67.5622 2418.76,-54.6942 2463,-42 2469.4,-40.1644 2476.13,-38.1339 2482.72,-36.0911"/>
<polygon fill="midnightblue" stroke="midnightblue" points="2327.3,-74.407 2318.44,-80.2222 2328.99,-81.1991 2327.3,-74.407"/>
</g>
<!-- Node90 -->
<g id="node34" class="node"><title>Node90</title>
<g id="a_node34"><a xlink:href="_setup__2018__05_8cc.html" target="_top" xlink:title="src/expconfig/setups\l/Setup_2018_05.cc">
<polygon fill="white" stroke="black" points="2597.5,-6 2597.5,-36 2704.5,-36 2704.5,-6 2597.5,-6"/>
<text text-anchor="start" x="2605.5" y="-24" font-family="Helvetica,sans-Serif" font-size="10.00">src/expconfig/setups</text>
<text text-anchor="middle" x="2651" y="-13" font-family="Helvetica,sans-Serif" font-size="10.00">/Setup_2018_05.cc</text>
</a>
</g>
</g>
<!-- Node86&#45;&gt;Node90 -->
<g id="edge36" class="edge"><title>Node86&#45;&gt;Node90</title>
<path fill="none" stroke="midnightblue" d="M2328.23,-78.0764C2444.41,-56.9068 2477.33,-67.038 2588,-42 2595.28,-40.3541 2602.92,-38.2546 2610.27,-36.038"/>
<polygon fill="midnightblue" stroke="midnightblue" points="2327.43,-74.6667 2318.24,-79.9374 2328.71,-81.5485 2327.43,-74.6667"/>
</g>
<!-- Node91 -->
<g id="node35" class="node"><title>Node91</title>
<g id="a_node35"><a xlink:href="_setup__2018__09_8cc.html" target="_top" xlink:title="src/expconfig/setups\l/Setup_2018_09.cc">
<polygon fill="white" stroke="black" points="2722.5,-6 2722.5,-36 2829.5,-36 2829.5,-6 2722.5,-6"/>
<text text-anchor="start" x="2730.5" y="-24" font-family="Helvetica,sans-Serif" font-size="10.00">src/expconfig/setups</text>
<text text-anchor="middle" x="2776" y="-13" font-family="Helvetica,sans-Serif" font-size="10.00">/Setup_2018_09.cc</text>
</a>
</g>
</g>
<!-- Node86&#45;&gt;Node91 -->
<g id="edge37" class="edge"><title>Node86&#45;&gt;Node91</title>
<path fill="none" stroke="midnightblue" d="M2328.31,-78.1079C2499.36,-50.7816 2547.79,-75.5449 2713,-42 2720.65,-40.4473 2728.68,-38.3083 2736.35,-36.0041"/>
<polygon fill="midnightblue" stroke="midnightblue" points="2327.51,-74.6918 2318.2,-79.759 2328.64,-81.6001 2327.51,-74.6918"/>
</g>
<!-- Node93 -->
<g id="node37" class="node"><title>Node93</title>
<g id="a_node37"><a xlink:href="_setup__2018__11_8cc.html" target="_top" xlink:title="src/expconfig/setups\l/Setup_2018_11.cc">
<polygon fill="white" stroke="black" points="2847.5,-6 2847.5,-36 2954.5,-36 2954.5,-6 2847.5,-6"/>
<text text-anchor="start" x="2855.5" y="-24" font-family="Helvetica,sans-Serif" font-size="10.00">src/expconfig/setups</text>
<text text-anchor="middle" x="2901" y="-13" font-family="Helvetica,sans-Serif" font-size="10.00">/Setup_2018_11.cc</text>
</a>
</g>
</g>
<!-- Node92&#45;&gt;Node93 -->
<g id="edge39" class="edge"><title>Node92&#45;&gt;Node93</title>
<path fill="none" stroke="midnightblue" d="M2439.5,-81.1994C2444.03,-79.9912 2448.58,-78.8977 2453,-78 2621.42,-43.8039 2669.58,-76.1961 2838,-42 2845.65,-40.4473 2853.68,-38.3083 2861.35,-36.0041"/>
<polygon fill="midnightblue" stroke="midnightblue" points="2438.32,-77.8962 2429.65,-83.9959 2440.23,-84.6297 2438.32,-77.8962"/>
</g>
<!-- Node95 -->
<g id="node39" class="node"><title>Node95</title>
<g id="a_node39"><a xlink:href="_setup__2019__01_8cc.html" target="_top" xlink:title="src/expconfig/setups\l/Setup_2019_01.cc">
<polygon fill="white" stroke="black" points="2972.5,-6 2972.5,-36 3079.5,-36 3079.5,-6 2972.5,-6"/>
<text text-anchor="start" x="2980.5" y="-24" font-family="Helvetica,sans-Serif" font-size="10.00">src/expconfig/setups</text>
<text text-anchor="middle" x="3026" y="-13" font-family="Helvetica,sans-Serif" font-size="10.00">/Setup_2019_01.cc</text>
</a>
</g>
</g>
<!-- Node94&#45;&gt;Node95 -->
<g id="edge41" class="edge"><title>Node94&#45;&gt;Node95</title>
<path fill="none" stroke="midnightblue" d="M2564.5,-81.1994C2569.03,-79.9912 2573.58,-78.8977 2578,-78 2746.42,-43.8039 2794.58,-76.1961 2963,-42 2970.65,-40.4473 2978.68,-38.3083 2986.35,-36.0041"/>
<polygon fill="midnightblue" stroke="midnightblue" points="2563.32,-77.8962 2554.65,-83.9959 2565.23,-84.6297 2563.32,-77.8962"/>
</g>
</g>
</svg>
