<?xml version="1.0" encoding="UTF-8" standalone="no"?>
<!DOCTYPE svg PUBLIC "-//W3C//DTD SVG 1.1//EN"
 "http://www.w3.org/Graphics/SVG/1.1/DTD/svg11.dtd">
<!-- Generated by graphviz version 2.36.0 (20140111.2315)
 -->
<!-- Title: src/calibration/modules/TAPS_ShortEnergy.h Pages: 1 -->
<svg width="1487pt" height="118pt"
 viewBox="0.00 0.00 1487.00 118.00" xmlns="http://www.w3.org/2000/svg" xmlns:xlink="http://www.w3.org/1999/xlink">
<g id="graph0" class="graph" transform="scale(1 1) rotate(0) translate(4 114)">
<title>src/calibration/modules/TAPS_ShortEnergy.h</title>
<polygon fill="white" stroke="none" points="-4,4 -4,-114 1483,-114 1483,4 -4,4"/>
<!-- Node52 -->
<g id="node1" class="node"><title>Node52</title>
<polygon fill="#bfbfbf" stroke="black" points="680.5,-79 680.5,-109 797.5,-109 797.5,-79 680.5,-79"/>
<text text-anchor="start" x="688.5" y="-97" font-family="Helvetica,sans-Serif" font-size="10.00">src/calibration/modules</text>
<text text-anchor="middle" x="739" y="-86" font-family="Helvetica,sans-Serif" font-size="10.00">/TAPS_ShortEnergy.h</text>
</g>
<!-- Node53 -->
<g id="node2" class="node"><title>Node53</title>
<g id="a_node2"><a xlink:href="calibration_2modules_2_t_a_p_s___short_energy_8cc.html" target="_top" xlink:title="src/calibration/modules\l/TAPS_ShortEnergy.cc">
<polygon fill="white" stroke="black" points="-0.5,-6 -0.5,-36 118.5,-36 118.5,-6 -0.5,-6"/>
<text text-anchor="start" x="7.5" y="-24" font-family="Helvetica,sans-Serif" font-size="10.00">src/calibration/modules</text>
<text text-anchor="middle" x="59" y="-13" font-family="Helvetica,sans-Serif" font-size="10.00">/TAPS_ShortEnergy.cc</text>
</a>
</g>
</g>
<!-- Node52&#45;&gt;Node53 -->
<g id="edge1" class="edge"><title>Node52&#45;&gt;Node53</title>
<path fill="none" stroke="midnightblue" d="M669.929,-91.7961C555.928,-88.7952 321.629,-78.3416 127,-42 118.774,-40.4641 110.121,-38.333 101.847,-36.0313"/>
<polygon fill="midnightblue" stroke="midnightblue" points="670.164,-95.303 680.249,-92.0559 670.341,-88.3052 670.164,-95.303"/>
</g>
<!-- Node54 -->
<g id="node3" class="node"><title>Node54</title>
<g id="a_node3"><a xlink:href="_setup__2007___base_8cc.html" target="_top" xlink:title="src/expconfig/setups\l/Setup_2007_Base.cc">
<polygon fill="white" stroke="black" points="136.5,-6 136.5,-36 249.5,-36 249.5,-6 136.5,-6"/>
<text text-anchor="start" x="144.5" y="-24" font-family="Helvetica,sans-Serif" font-size="10.00">src/expconfig/setups</text>
<text text-anchor="middle" x="193" y="-13" font-family="Helvetica,sans-Serif" font-size="10.00">/Setup_2007_Base.cc</text>
</a>
</g>
</g>
<!-- Node52&#45;&gt;Node54 -->
<g id="edge2" class="edge"><title>Node52&#45;&gt;Node54</title>
<path fill="none" stroke="midnightblue" d="M670.255,-89.7712C576.507,-84.4451 403.671,-71.3329 259,-42 251.138,-40.406 242.871,-38.2764 234.948,-36.0007"/>
<polygon fill="midnightblue" stroke="midnightblue" points="670.281,-93.2779 680.459,-90.3378 670.669,-86.2887 670.281,-93.2779"/>
</g>
<!-- Node55 -->
<g id="node4" class="node"><title>Node55</title>
<g id="a_node4"><a xlink:href="_setup__2010__03___base_8cc.html" target="_top" xlink:title="src/expconfig/setups\l/Setup_2010_03_Base.cc">
<polygon fill="white" stroke="black" points="268,-6 268,-36 396,-36 396,-6 268,-6"/>
<text text-anchor="start" x="276" y="-24" font-family="Helvetica,sans-Serif" font-size="10.00">src/expconfig/setups</text>
<text text-anchor="middle" x="332" y="-13" font-family="Helvetica,sans-Serif" font-size="10.00">/Setup_2010_03_Base.cc</text>
</a>
</g>
</g>
<!-- Node52&#45;&gt;Node55 -->
<g id="edge3" class="edge"><title>Node52&#45;&gt;Node55</title>
<path fill="none" stroke="midnightblue" d="M670.272,-84.8722C602.45,-76.2966 496.003,-61.3459 405,-42 396.902,-40.2786 388.369,-38.1931 380.105,-36.0272"/>
<polygon fill="midnightblue" stroke="midnightblue" points="670.047,-88.3712 680.404,-86.1422 670.917,-81.4255 670.047,-88.3712"/>
</g>
<!-- Node56 -->
<g id="node5" class="node"><title>Node56</title>
<g id="a_node5"><a xlink:href="_setup__2014___e_p_t_8cc.html" target="_top" xlink:title="src/expconfig/setups\l/Setup_2014_EPT.cc">
<polygon fill="white" stroke="black" points="414,-6 414,-36 524,-36 524,-6 414,-6"/>
<text text-anchor="start" x="422" y="-24" font-family="Helvetica,sans-Serif" font-size="10.00">src/expconfig/setups</text>
<text text-anchor="middle" x="469" y="-13" font-family="Helvetica,sans-Serif" font-size="10.00">/Setup_2014_EPT.cc</text>
</a>
</g>
</g>
<!-- Node52&#45;&gt;Node56 -->
<g id="edge4" class="edge"><title>Node52&#45;&gt;Node56</title>
<path fill="none" stroke="midnightblue" d="M670.194,-77.0608C630.029,-67.4837 578.466,-54.7197 533,-42 526.386,-40.1496 519.421,-38.0898 512.618,-36.0154"/>
<polygon fill="midnightblue" stroke="midnightblue" points="669.611,-80.5197 680.15,-79.4251 671.229,-73.7091 669.611,-80.5197"/>
</g>
<!-- Node57 -->
<g id="node6" class="node"><title>Node57</title>
<g id="a_node6"><a xlink:href="_setup__2015__01___pion_8cc.html" target="_top" xlink:title="src/expconfig/setups\l/Setup_2015_01_Pion.cc">
<polygon fill="white" stroke="black" points="542.5,-6 542.5,-36 667.5,-36 667.5,-6 542.5,-6"/>
<text text-anchor="start" x="550.5" y="-24" font-family="Helvetica,sans-Serif" font-size="10.00">src/expconfig/setups</text>
<text text-anchor="middle" x="605" y="-13" font-family="Helvetica,sans-Serif" font-size="10.00">/Setup_2015_01_Pion.cc</text>
</a>
</g>
</g>
<!-- Node52&#45;&gt;Node57 -->
<g id="edge5" class="edge"><title>Node52&#45;&gt;Node57</title>
<path fill="none" stroke="midnightblue" d="M703.622,-74.2549C681.141,-62.3433 652.497,-47.1661 631.878,-36.2412"/>
<polygon fill="midnightblue" stroke="midnightblue" points="702.051,-77.3834 712.526,-78.9727 705.328,-71.198 702.051,-77.3834"/>
</g>
<!-- Node58 -->
<g id="node7" class="node"><title>Node58</title>
<g id="a_node7"><a xlink:href="_setup__2017__03_8cc.html" target="_top" xlink:title="src/expconfig/setups\l/Setup_2017_03.cc">
<polygon fill="white" stroke="black" points="685.5,-6 685.5,-36 792.5,-36 792.5,-6 685.5,-6"/>
<text text-anchor="start" x="693.5" y="-24" font-family="Helvetica,sans-Serif" font-size="10.00">src/expconfig/setups</text>
<text text-anchor="middle" x="739" y="-13" font-family="Helvetica,sans-Serif" font-size="10.00">/Setup_2017_03.cc</text>
</a>
</g>
</g>
<!-- Node52&#45;&gt;Node58 -->
<g id="edge6" class="edge"><title>Node52&#45;&gt;Node58</title>
<path fill="none" stroke="midnightblue" d="M739,-68.8976C739,-58.1314 739,-45.8005 739,-36.4856"/>
<polygon fill="midnightblue" stroke="midnightblue" points="735.5,-68.9727 739,-78.9727 742.5,-68.9727 735.5,-68.9727"/>
</g>
<!-- Node59 -->
<g id="node8" class="node"><title>Node59</title>
<g id="a_node8"><a xlink:href="_setup__2017__05_8cc.html" target="_top" xlink:title="src/expconfig/setups\l/Setup_2017_05.cc">
<polygon fill="white" stroke="black" points="810.5,-6 810.5,-36 917.5,-36 917.5,-6 810.5,-6"/>
<text text-anchor="start" x="818.5" y="-24" font-family="Helvetica,sans-Serif" font-size="10.00">src/expconfig/setups</text>
<text text-anchor="middle" x="864" y="-13" font-family="Helvetica,sans-Serif" font-size="10.00">/Setup_2017_05.cc</text>
</a>
</g>
</g>
<!-- Node52&#45;&gt;Node59 -->
<g id="edge7" class="edge"><title>Node52&#45;&gt;Node59</title>
<path fill="none" stroke="midnightblue" d="M772.563,-73.9365C793.447,-62.0739 819.864,-47.069 838.927,-36.2412"/>
<polygon fill="midnightblue" stroke="midnightblue" points="770.663,-70.9904 763.696,-78.9727 774.12,-77.0771 770.663,-70.9904"/>
</g>
<!-- Node60 -->
<g id="node9" class="node"><title>Node60</title>
<g id="a_node9"><a xlink:href="_setup__2017_plus___new_tagger___base_8cc.html" target="_top" xlink:title="src/expconfig/setups\l/Setup_2017Plus_NewTagger\l_Base.cc">
<polygon fill="white" stroke="black" points="936,-0.5 936,-41.5 1082,-41.5 1082,-0.5 936,-0.5"/>
<text text-anchor="start" x="944" y="-29.5" font-family="Helvetica,sans-Serif" font-size="10.00">src/expconfig/setups</text>
<text text-anchor="start" x="944" y="-18.5" font-family="Helvetica,sans-Serif" font-size="10.00">/Setup_2017Plus_NewTagger</text>
<text text-anchor="middle" x="1009" y="-7.5" font-family="Helvetica,sans-Serif" font-size="10.00">_Base.cc</text>
</a>
</g>
</g>
<!-- Node52&#45;&gt;Node60 -->
<g id="edge8" class="edge"><title>Node52&#45;&gt;Node60</title>
<path fill="none" stroke="midnightblue" d="M802.242,-76.3696C842.235,-65.853 894.072,-52.2218 935.837,-41.2392"/>
<polygon fill="midnightblue" stroke="midnightblue" points="801.124,-73.0445 792.343,-78.9727 802.905,-79.8144 801.124,-73.0445"/>
</g>
<!-- Node61 -->
<g id="node10" class="node"><title>Node61</title>
<g id="a_node10"><a xlink:href="_setup__2018__11_8cc.html" target="_top" xlink:title="src/expconfig/setups\l/Setup_2018_11.cc">
<polygon fill="white" stroke="black" points="1100.5,-6 1100.5,-36 1207.5,-36 1207.5,-6 1100.5,-6"/>
<text text-anchor="start" x="1108.5" y="-24" font-family="Helvetica,sans-Serif" font-size="10.00">src/expconfig/setups</text>
<text text-anchor="middle" x="1154" y="-13" font-family="Helvetica,sans-Serif" font-size="10.00">/Setup_2018_11.cc</text>
</a>
</g>
</g>
<!-- Node52&#45;&gt;Node61 -->
<g id="edge9" class="edge"><title>Node52&#45;&gt;Node61</title>
<path fill="none" stroke="midnightblue" d="M807.994,-86.377C879.412,-78.7365 993.913,-64.2862 1091,-42 1098.16,-40.3569 1105.67,-38.2853 1112.92,-36.1022"/>
<polygon fill="midnightblue" stroke="midnightblue" points="807.354,-82.925 797.777,-87.455 808.089,-89.8863 807.354,-82.925"/>
</g>
<!-- Node62 -->
<g id="node11" class="node"><title>Node62</title>
<g id="a_node11"><a xlink:href="_setup__2019__01_8cc.html" target="_top" xlink:title="src/expconfig/setups\l/Setup_2019_01.cc">
<polygon fill="white" stroke="black" points="1225.5,-6 1225.5,-36 1332.5,-36 1332.5,-6 1225.5,-6"/>
<text text-anchor="start" x="1233.5" y="-24" font-family="Helvetica,sans-Serif" font-size="10.00">src/expconfig/setups</text>
<text text-anchor="middle" x="1279" y="-13" font-family="Helvetica,sans-Serif" font-size="10.00">/Setup_2019_01.cc</text>
</a>
</g>
</g>
<!-- Node52&#45;&gt;Node62 -->
<g id="edge10" class="edge"><title>Node52&#45;&gt;Node62</title>
<path fill="none" stroke="midnightblue" d="M807.755,-89.9873C901.069,-84.9165 1072.62,-72.1035 1216,-42 1223.52,-40.4202 1231.43,-38.2973 1238.99,-36.0239"/>
<polygon fill="midnightblue" stroke="midnightblue" points="807.397,-86.5013 797.596,-90.5255 807.767,-93.4915 807.397,-86.5013"/>
</g>
<!-- Node63 -->
<g id="node12" class="node"><title>Node63</title>
<g id="a_node12"><a xlink:href="expconfig__helpers_8cc.html" target="_top" xlink:title="test/expconfig_helpers.cc">
<polygon fill="white" stroke="black" points="1351,-11.5 1351,-30.5 1479,-30.5 1479,-11.5 1351,-11.5"/>
<text text-anchor="middle" x="1415" y="-18.5" font-family="Helvetica,sans-Serif" font-size="10.00">test/expconfig_helpers.cc</text>
</a>
</g>
</g>
<!-- Node52&#45;&gt;Node63 -->
<g id="edge11" class="edge"><title>Node52&#45;&gt;Node63</title>
<path fill="none" stroke="midnightblue" d="M807.736,-91.1835C920.073,-87.3205 1149.67,-75.6788 1341,-42 1356.73,-39.2315 1373.97,-34.6639 1387.85,-30.5922"/>
<polygon fill="midnightblue" stroke="midnightblue" points="807.44,-87.6913 797.562,-91.523 807.673,-94.6874 807.44,-87.6913"/>
</g>
</g>
</svg>
