<?xml version="1.0" encoding="UTF-8" standalone="no"?>
<!DOCTYPE svg PUBLIC "-//W3C//DTD SVG 1.1//EN"
 "http://www.w3.org/Graphics/SVG/1.1/DTD/svg11.dtd">
<!-- Generated by graphviz version 2.36.0 (20140111.2315)
 -->
<!-- Title: src/calibration/modules/TaggEff.h Pages: 1 -->
<svg width="1546pt" height="108pt"
 viewBox="0.00 0.00 1546.00 108.00" xmlns="http://www.w3.org/2000/svg" xmlns:xlink="http://www.w3.org/1999/xlink">
<g id="graph0" class="graph" transform="scale(1 1) rotate(0) translate(4 104)">
<title>src/calibration/modules/TaggEff.h</title>
<polygon fill="white" stroke="none" points="-4,4 -4,-104 1542,-104 1542,4 -4,4"/>
<!-- Node49 -->
<g id="node1" class="node"><title>Node49</title>
<polygon fill="#bfbfbf" stroke="black" points="738.5,-69 738.5,-99 855.5,-99 855.5,-69 738.5,-69"/>
<text text-anchor="start" x="746.5" y="-87" font-family="Helvetica,sans-Serif" font-size="10.00">src/calibration/modules</text>
<text text-anchor="middle" x="797" y="-76" font-family="Helvetica,sans-Serif" font-size="10.00">/TaggEff.h</text>
</g>
<!-- Node50 -->
<g id="node2" class="node"><title>Node50</title>
<g id="a_node2"><a xlink:href="_ant-make_tagg_eff_8cc.html" target="_top" xlink:title="progs/Ant&#45;makeTaggEff.cc">
<polygon fill="white" stroke="black" points="0,-6.5 0,-25.5 134,-25.5 134,-6.5 0,-6.5"/>
<text text-anchor="middle" x="67" y="-13.5" font-family="Helvetica,sans-Serif" font-size="10.00">progs/Ant&#45;makeTaggEff.cc</text>
</a>
</g>
</g>
<!-- Node49&#45;&gt;Node50 -->
<g id="edge1" class="edge"><title>Node49&#45;&gt;Node50</title>
<path fill="none" stroke="midnightblue" d="M728.019,-80.2781C608.449,-74.9679 355.142,-61.1049 143,-32 130.742,-30.3182 117.479,-27.908 105.516,-25.51"/>
<polygon fill="midnightblue" stroke="midnightblue" points="727.986,-83.7799 738.129,-80.7208 728.292,-76.7866 727.986,-83.7799"/>
</g>
<!-- Node51 -->
<g id="node3" class="node"><title>Node51</title>
<g id="a_node3"><a xlink:href="analysis_2slowcontrol_2processors_2_tagg_eff_8cc.html" target="_top" xlink:title="src/analysis/slowcontrol\l/processors/TaggEff.cc">
<polygon fill="white" stroke="black" points="152,-1 152,-31 274,-31 274,-1 152,-1"/>
<text text-anchor="start" x="160" y="-19" font-family="Helvetica,sans-Serif" font-size="10.00">src/analysis/slowcontrol</text>
<text text-anchor="middle" x="213" y="-8" font-family="Helvetica,sans-Serif" font-size="10.00">/processors/TaggEff.cc</text>
</a>
</g>
</g>
<!-- Node49&#45;&gt;Node51 -->
<g id="edge2" class="edge"><title>Node49&#45;&gt;Node51</title>
<path fill="none" stroke="midnightblue" d="M727.977,-78.6222C629.022,-71.7865 441.306,-56.7352 283,-32 280.053,-31.5395 277.043,-31.0335 274.008,-30.4946"/>
<polygon fill="midnightblue" stroke="midnightblue" points="727.928,-82.127 738.144,-79.3171 728.406,-75.1433 727.928,-82.127"/>
</g>
<!-- Node52 -->
<g id="node4" class="node"><title>Node52</title>
<g id="a_node4"><a xlink:href="calibration_2modules_2_tagg_eff_8cc.html" target="_top" xlink:title="src/calibration/modules\l/TaggEff.cc">
<polygon fill="white" stroke="black" points="292.5,-1 292.5,-31 409.5,-31 409.5,-1 292.5,-1"/>
<text text-anchor="start" x="300.5" y="-19" font-family="Helvetica,sans-Serif" font-size="10.00">src/calibration/modules</text>
<text text-anchor="middle" x="351" y="-8" font-family="Helvetica,sans-Serif" font-size="10.00">/TaggEff.cc</text>
</a>
</g>
</g>
<!-- Node49&#45;&gt;Node52 -->
<g id="edge3" class="edge"><title>Node49&#45;&gt;Node52</title>
<path fill="none" stroke="midnightblue" d="M728.104,-75.4453C652.133,-66.7104 526.42,-51.0604 419,-32 415.905,-31.4508 412.737,-30.8585 409.544,-30.2374"/>
<polygon fill="midnightblue" stroke="midnightblue" points="728.154,-78.9737 738.487,-76.6316 728.949,-72.019 728.154,-78.9737"/>
</g>
<!-- Node53 -->
<g id="node5" class="node"><title>Node53</title>
<g id="a_node5"><a xlink:href="_setup__2014___e_p_t_8cc.html" target="_top" xlink:title="src/expconfig/setups\l/Setup_2014_EPT.cc">
<polygon fill="white" stroke="black" points="428,-1 428,-31 538,-31 538,-1 428,-1"/>
<text text-anchor="start" x="436" y="-19" font-family="Helvetica,sans-Serif" font-size="10.00">src/expconfig/setups</text>
<text text-anchor="middle" x="483" y="-8" font-family="Helvetica,sans-Serif" font-size="10.00">/Setup_2014_EPT.cc</text>
</a>
</g>
</g>
<!-- Node49&#45;&gt;Node53 -->
<g id="edge4" class="edge"><title>Node49&#45;&gt;Node53</title>
<path fill="none" stroke="midnightblue" d="M728.199,-69.5222C677.919,-59.5369 608.126,-45.3952 547,-32 544.102,-31.3648 541.132,-30.704 538.135,-30.0292"/>
<polygon fill="midnightblue" stroke="midnightblue" points="727.814,-73.0139 738.304,-71.5252 729.175,-66.1475 727.814,-73.0139"/>
</g>
<!-- Node54 -->
<g id="node6" class="node"><title>Node54</title>
<g id="a_node6"><a xlink:href="_setup__2017__03_8cc.html" target="_top" xlink:title="src/expconfig/setups\l/Setup_2017_03.cc">
<polygon fill="white" stroke="black" points="556.5,-1 556.5,-31 663.5,-31 663.5,-1 556.5,-1"/>
<text text-anchor="start" x="564.5" y="-19" font-family="Helvetica,sans-Serif" font-size="10.00">src/expconfig/setups</text>
<text text-anchor="middle" x="610" y="-8" font-family="Helvetica,sans-Serif" font-size="10.00">/Setup_2017_03.cc</text>
</a>
</g>
</g>
<!-- Node49&#45;&gt;Node54 -->
<g id="edge5" class="edge"><title>Node49&#45;&gt;Node54</title>
<path fill="none" stroke="midnightblue" d="M747.28,-65.4519C716.761,-54.6805 678.205,-41.0722 649.728,-31.0218"/>
<polygon fill="midnightblue" stroke="midnightblue" points="746.289,-68.8135 756.884,-68.8413 748.619,-62.2126 746.289,-68.8135"/>
</g>
<!-- Node55 -->
<g id="node7" class="node"><title>Node55</title>
<g id="a_node7"><a xlink:href="_setup__2017__05_8cc.html" target="_top" xlink:title="src/expconfig/setups\l/Setup_2017_05.cc">
<polygon fill="white" stroke="black" points="681.5,-1 681.5,-31 788.5,-31 788.5,-1 681.5,-1"/>
<text text-anchor="start" x="689.5" y="-19" font-family="Helvetica,sans-Serif" font-size="10.00">src/expconfig/setups</text>
<text text-anchor="middle" x="735" y="-8" font-family="Helvetica,sans-Serif" font-size="10.00">/Setup_2017_05.cc</text>
</a>
</g>
</g>
<!-- Node49&#45;&gt;Node55 -->
<g id="edge6" class="edge"><title>Node49&#45;&gt;Node55</title>
<path fill="none" stroke="midnightblue" d="M776.515,-61.1939C767.278,-51.3605 756.627,-40.0228 748.427,-31.2931"/>
<polygon fill="midnightblue" stroke="midnightblue" points="774.149,-63.7869 783.547,-68.679 779.251,-58.9941 774.149,-63.7869"/>
</g>
<!-- Node56 -->
<g id="node8" class="node"><title>Node56</title>
<g id="a_node8"><a xlink:href="_setup__2017__12_8cc.html" target="_top" xlink:title="src/expconfig/setups\l/Setup_2017_12.cc">
<polygon fill="white" stroke="black" points="806.5,-1 806.5,-31 913.5,-31 913.5,-1 806.5,-1"/>
<text text-anchor="start" x="814.5" y="-19" font-family="Helvetica,sans-Serif" font-size="10.00">src/expconfig/setups</text>
<text text-anchor="middle" x="860" y="-8" font-family="Helvetica,sans-Serif" font-size="10.00">/Setup_2017_12.cc</text>
</a>
</g>
</g>
<!-- Node49&#45;&gt;Node56 -->
<g id="edge7" class="edge"><title>Node49&#45;&gt;Node56</title>
<path fill="none" stroke="midnightblue" d="M817.815,-61.1939C827.201,-51.3605 838.024,-40.0228 846.357,-31.2931"/>
<polygon fill="midnightblue" stroke="midnightblue" points="815.043,-59.0287 810.67,-68.679 820.107,-63.8621 815.043,-59.0287"/>
</g>
<!-- Node57 -->
<g id="node9" class="node"><title>Node57</title>
<g id="a_node9"><a xlink:href="_setup__2018__03_8cc.html" target="_top" xlink:title="src/expconfig/setups\l/Setup_2018_03.cc">
<polygon fill="white" stroke="black" points="931.5,-1 931.5,-31 1038.5,-31 1038.5,-1 931.5,-1"/>
<text text-anchor="start" x="939.5" y="-19" font-family="Helvetica,sans-Serif" font-size="10.00">src/expconfig/setups</text>
<text text-anchor="middle" x="985" y="-8" font-family="Helvetica,sans-Serif" font-size="10.00">/Setup_2018_03.cc</text>
</a>
</g>
</g>
<!-- Node49&#45;&gt;Node57 -->
<g id="edge8" class="edge"><title>Node49&#45;&gt;Node57</title>
<path fill="none" stroke="midnightblue" d="M846.985,-65.4519C877.668,-54.6805 916.431,-41.0722 945.059,-31.0218"/>
<polygon fill="midnightblue" stroke="midnightblue" points="845.607,-62.2264 837.331,-68.8413 847.926,-68.8312 845.607,-62.2264"/>
</g>
<!-- Node58 -->
<g id="node10" class="node"><title>Node58</title>
<g id="a_node10"><a xlink:href="_setup__2018__05_8cc.html" target="_top" xlink:title="src/expconfig/setups\l/Setup_2018_05.cc">
<polygon fill="white" stroke="black" points="1056.5,-1 1056.5,-31 1163.5,-31 1163.5,-1 1056.5,-1"/>
<text text-anchor="start" x="1064.5" y="-19" font-family="Helvetica,sans-Serif" font-size="10.00">src/expconfig/setups</text>
<text text-anchor="middle" x="1110" y="-8" font-family="Helvetica,sans-Serif" font-size="10.00">/Setup_2018_05.cc</text>
</a>
</g>
</g>
<!-- Node49&#45;&gt;Node58 -->
<g id="edge9" class="edge"><title>Node49&#45;&gt;Node58</title>
<path fill="none" stroke="midnightblue" d="M865.816,-69.5871C916.103,-59.6334 985.897,-45.5029 1047,-32 1050.07,-31.3207 1053.23,-30.6106 1056.41,-29.8844"/>
<polygon fill="midnightblue" stroke="midnightblue" points="864.841,-66.2118 855.709,-71.5832 866.198,-73.0791 864.841,-66.2118"/>
</g>
<!-- Node59 -->
<g id="node11" class="node"><title>Node59</title>
<g id="a_node11"><a xlink:href="_setup__2018__09_8cc.html" target="_top" xlink:title="src/expconfig/setups\l/Setup_2018_09.cc">
<polygon fill="white" stroke="black" points="1181.5,-1 1181.5,-31 1288.5,-31 1288.5,-1 1181.5,-1"/>
<text text-anchor="start" x="1189.5" y="-19" font-family="Helvetica,sans-Serif" font-size="10.00">src/expconfig/setups</text>
<text text-anchor="middle" x="1235" y="-8" font-family="Helvetica,sans-Serif" font-size="10.00">/Setup_2018_09.cc</text>
</a>
</g>
</g>
<!-- Node49&#45;&gt;Node59 -->
<g id="edge10" class="edge"><title>Node49&#45;&gt;Node59</title>
<path fill="none" stroke="midnightblue" d="M866.066,-75.674C941.552,-67.1866 1065.9,-51.7964 1172,-32 1175.09,-31.4226 1178.27,-30.7921 1181.46,-30.1269"/>
<polygon fill="midnightblue" stroke="midnightblue" points="865.296,-72.2381 855.746,-76.8255 866.072,-79.1949 865.296,-72.2381"/>
</g>
<!-- Node60 -->
<g id="node12" class="node"><title>Node60</title>
<g id="a_node12"><a xlink:href="_setup__2018__11_8cc.html" target="_top" xlink:title="src/expconfig/setups\l/Setup_2018_11.cc">
<polygon fill="white" stroke="black" points="1306.5,-1 1306.5,-31 1413.5,-31 1413.5,-1 1306.5,-1"/>
<text text-anchor="start" x="1314.5" y="-19" font-family="Helvetica,sans-Serif" font-size="10.00">src/expconfig/setups</text>
<text text-anchor="middle" x="1360" y="-8" font-family="Helvetica,sans-Serif" font-size="10.00">/Setup_2018_11.cc</text>
</a>
</g>
</g>
<!-- Node49&#45;&gt;Node60 -->
<g id="edge11" class="edge"><title>Node49&#45;&gt;Node60</title>
<path fill="none" stroke="midnightblue" d="M866.082,-78.8502C962.91,-72.3772 1144.27,-57.8556 1297,-32 1300.1,-31.4745 1303.28,-30.8846 1306.48,-30.2505"/>
<polygon fill="midnightblue" stroke="midnightblue" points="865.588,-75.3751 855.84,-79.5259 866.049,-82.36 865.588,-75.3751"/>
</g>
<!-- Node61 -->
<g id="node13" class="node"><title>Node61</title>
<g id="a_node13"><a xlink:href="_setup__2019__01_8cc.html" target="_top" xlink:title="src/expconfig/setups\l/Setup_2019_01.cc">
<polygon fill="white" stroke="black" points="1431.5,-1 1431.5,-31 1538.5,-31 1538.5,-1 1431.5,-1"/>
<text text-anchor="start" x="1439.5" y="-19" font-family="Helvetica,sans-Serif" font-size="10.00">src/expconfig/setups</text>
<text text-anchor="middle" x="1485" y="-8" font-family="Helvetica,sans-Serif" font-size="10.00">/Setup_2019_01.cc</text>
</a>
</g>
</g>
<!-- Node49&#45;&gt;Node61 -->
<g id="edge12" class="edge"><title>Node49&#45;&gt;Node61</title>
<path fill="none" stroke="midnightblue" d="M865.626,-80.8179C981.11,-76.3837 1221.35,-63.8829 1422,-32 1425.11,-31.506 1428.29,-30.9406 1431.49,-30.3253"/>
<polygon fill="midnightblue" stroke="midnightblue" points="865.377,-77.3247 855.516,-81.1977 865.64,-84.3198 865.377,-77.3247"/>
</g>
</g>
</svg>
