<?xml version="1.0" encoding="UTF-8" standalone="no"?>
<!DOCTYPE svg PUBLIC "-//W3C//DTD SVG 1.1//EN"
 "http://www.w3.org/Graphics/SVG/1.1/DTD/svg11.dtd">
<!-- Generated by graphviz version 2.36.0 (20140111.2315)
 -->
<!-- Title: src/calibration/modules/Time.h Pages: 1 -->
<svg width="2256pt" height="186pt"
 viewBox="0.00 0.00 2256.00 186.00" xmlns="http://www.w3.org/2000/svg" xmlns:xlink="http://www.w3.org/1999/xlink">
<g id="graph0" class="graph" transform="scale(1 1) rotate(0) translate(4 182)">
<title>src/calibration/modules/Time.h</title>
<polygon fill="white" stroke="none" points="-4,4 -4,-182 2252,-182 2252,4 -4,4"/>
<!-- Node53 -->
<g id="node1" class="node"><title>Node53</title>
<polygon fill="#bfbfbf" stroke="black" points="1421.5,-147 1421.5,-177 1538.5,-177 1538.5,-147 1421.5,-147"/>
<text text-anchor="start" x="1429.5" y="-165" font-family="Helvetica,sans-Serif" font-size="10.00">src/calibration/modules</text>
<text text-anchor="middle" x="1480" y="-154" font-family="Helvetica,sans-Serif" font-size="10.00">/Time.h</text>
</g>
<!-- Node54 -->
<g id="node2" class="node"><title>Node54</title>
<g id="a_node2"><a xlink:href="_new_tagger___time_8h.html" target="_top" xlink:title="src/calibration/modules\l/NewTagger_Time.h">
<polygon fill="white" stroke="black" points="434.5,-79 434.5,-109 551.5,-109 551.5,-79 434.5,-79"/>
<text text-anchor="start" x="442.5" y="-97" font-family="Helvetica,sans-Serif" font-size="10.00">src/calibration/modules</text>
<text text-anchor="middle" x="493" y="-86" font-family="Helvetica,sans-Serif" font-size="10.00">/NewTagger_Time.h</text>
</a>
</g>
</g>
<!-- Node53&#45;&gt;Node54 -->
<g id="edge1" class="edge"><title>Node53&#45;&gt;Node54</title>
<path fill="none" stroke="midnightblue" d="M1411.1,-156.393C1226.65,-144.058 723.98,-110.445 551.788,-98.9311"/>
<polygon fill="midnightblue" stroke="midnightblue" points="1411,-159.894 1421.21,-157.069 1411.47,-152.91 1411,-159.894"/>
</g>
<!-- Node60 -->
<g id="node8" class="node"><title>Node60</title>
<g id="a_node8"><a xlink:href="_setup__2018__11_8cc.html" target="_top" xlink:title="src/expconfig/setups\l/Setup_2018_11.cc">
<polygon fill="white" stroke="black" points="634.5,-6 634.5,-36 741.5,-36 741.5,-6 634.5,-6"/>
<text text-anchor="start" x="642.5" y="-24" font-family="Helvetica,sans-Serif" font-size="10.00">src/expconfig/setups</text>
<text text-anchor="middle" x="688" y="-13" font-family="Helvetica,sans-Serif" font-size="10.00">/Setup_2018_11.cc</text>
</a>
</g>
</g>
<!-- Node53&#45;&gt;Node60 -->
<g id="edge41" class="edge"><title>Node53&#45;&gt;Node60</title>
<path fill="none" stroke="midnightblue" d="M1411.26,-156.861C1318.79,-150.549 1149.47,-136.372 1007,-110 890.821,-88.4944 863.375,-75.2596 750,-42 743.705,-40.1534 737.081,-38.117 730.598,-36.0715"/>
<polygon fill="midnightblue" stroke="midnightblue" points="1411.12,-160.359 1421.33,-157.538 1411.59,-153.375 1411.12,-160.359"/>
</g>
<!-- Node61 -->
<g id="node9" class="node"><title>Node61</title>
<g id="a_node9"><a xlink:href="_setup__2019__01_8cc.html" target="_top" xlink:title="src/expconfig/setups\l/Setup_2019_01.cc">
<polygon fill="white" stroke="black" points="759.5,-6 759.5,-36 866.5,-36 866.5,-6 759.5,-6"/>
<text text-anchor="start" x="767.5" y="-24" font-family="Helvetica,sans-Serif" font-size="10.00">src/expconfig/setups</text>
<text text-anchor="middle" x="813" y="-13" font-family="Helvetica,sans-Serif" font-size="10.00">/Setup_2019_01.cc</text>
</a>
</g>
</g>
<!-- Node53&#45;&gt;Node61 -->
<g id="edge42" class="edge"><title>Node53&#45;&gt;Node61</title>
<path fill="none" stroke="midnightblue" d="M1411.19,-151.763C1345.6,-142.575 1244.2,-127.369 1157,-110 1030.56,-84.8149 999.105,-76.9262 875,-42 868.577,-40.1923 861.821,-38.1555 855.227,-36.0912"/>
<polygon fill="midnightblue" stroke="midnightblue" points="1411.01,-155.272 1421.4,-153.185 1411.98,-148.339 1411.01,-155.272"/>
</g>
<!-- Node62 -->
<g id="node10" class="node"><title>Node62</title>
<g id="a_node10"><a xlink:href="_t_a_p_s___time_8h.html" target="_top" xlink:title="src/calibration/modules\l/TAPS_Time.h">
<polygon fill="white" stroke="black" points="1421.5,-79 1421.5,-109 1538.5,-109 1538.5,-79 1421.5,-79"/>
<text text-anchor="start" x="1429.5" y="-97" font-family="Helvetica,sans-Serif" font-size="10.00">src/calibration/modules</text>
<text text-anchor="middle" x="1480" y="-86" font-family="Helvetica,sans-Serif" font-size="10.00">/TAPS_Time.h</text>
</a>
</g>
</g>
<!-- Node53&#45;&gt;Node62 -->
<g id="edge9" class="edge"><title>Node53&#45;&gt;Node62</title>
<path fill="none" stroke="midnightblue" d="M1480,-136.532C1480,-127.361 1480,-117.245 1480,-109.293"/>
<polygon fill="midnightblue" stroke="midnightblue" points="1476.5,-136.679 1480,-146.679 1483.5,-136.679 1476.5,-136.679"/>
</g>
<!-- Node64 -->
<g id="node12" class="node"><title>Node64</title>
<g id="a_node12"><a xlink:href="_setup__2007___base_8cc.html" target="_top" xlink:title="src/expconfig/setups\l/Setup_2007_Base.cc">
<polygon fill="white" stroke="black" points="1166.5,-6 1166.5,-36 1279.5,-36 1279.5,-6 1166.5,-6"/>
<text text-anchor="start" x="1174.5" y="-24" font-family="Helvetica,sans-Serif" font-size="10.00">src/expconfig/setups</text>
<text text-anchor="middle" x="1223" y="-13" font-family="Helvetica,sans-Serif" font-size="10.00">/Setup_2007_Base.cc</text>
</a>
</g>
</g>
<!-- Node53&#45;&gt;Node64 -->
<g id="edge34" class="edge"><title>Node53&#45;&gt;Node64</title>
<path fill="none" stroke="midnightblue" d="M1411.05,-155.043C1348.14,-148.136 1261.51,-134.44 1238,-110 1218.98,-90.2295 1219.09,-55.7302 1220.97,-36.3203"/>
<polygon fill="midnightblue" stroke="midnightblue" points="1411,-158.558 1421.32,-156.134 1411.74,-151.597 1411,-158.558"/>
</g>
<!-- Node65 -->
<g id="node13" class="node"><title>Node65</title>
<g id="a_node13"><a xlink:href="_setup__2010__03___base_8cc.html" target="_top" xlink:title="src/expconfig/setups\l/Setup_2010_03_Base.cc">
<polygon fill="white" stroke="black" points="1020,-6 1020,-36 1148,-36 1148,-6 1020,-6"/>
<text text-anchor="start" x="1028" y="-24" font-family="Helvetica,sans-Serif" font-size="10.00">src/expconfig/setups</text>
<text text-anchor="middle" x="1084" y="-13" font-family="Helvetica,sans-Serif" font-size="10.00">/Setup_2010_03_Base.cc</text>
</a>
</g>
</g>
<!-- Node53&#45;&gt;Node65 -->
<g id="edge35" class="edge"><title>Node53&#45;&gt;Node65</title>
<path fill="none" stroke="midnightblue" d="M1411.28,-154.857C1357.42,-148.334 1281.4,-135.31 1219,-110 1172.85,-91.2824 1125.61,-56.0495 1101.11,-36.3171"/>
<polygon fill="midnightblue" stroke="midnightblue" points="1411.07,-158.356 1421.41,-156.038 1411.88,-151.403 1411.07,-158.356"/>
</g>
<!-- Node66 -->
<g id="node14" class="node"><title>Node66</title>
<g id="a_node14"><a xlink:href="_setup__2014___e_p_t_8cc.html" target="_top" xlink:title="src/expconfig/setups\l/Setup_2014_EPT.cc">
<polygon fill="white" stroke="black" points="1298,-6 1298,-36 1408,-36 1408,-6 1298,-6"/>
<text text-anchor="start" x="1306" y="-24" font-family="Helvetica,sans-Serif" font-size="10.00">src/expconfig/setups</text>
<text text-anchor="middle" x="1353" y="-13" font-family="Helvetica,sans-Serif" font-size="10.00">/Setup_2014_EPT.cc</text>
</a>
</g>
</g>
<!-- Node53&#45;&gt;Node66 -->
<g id="edge36" class="edge"><title>Node53&#45;&gt;Node66</title>
<path fill="none" stroke="midnightblue" d="M1448.76,-140.93C1436.53,-132.25 1422.87,-121.459 1412,-110 1389.98,-86.7785 1370.63,-54.4699 1360.5,-36.1548"/>
<polygon fill="midnightblue" stroke="midnightblue" points="1447.13,-144.056 1457.35,-146.855 1451.1,-138.295 1447.13,-144.056"/>
</g>
<!-- Node67 -->
<g id="node15" class="node"><title>Node67</title>
<g id="a_node15"><a xlink:href="_setup__2015__01___pion_8cc.html" target="_top" xlink:title="src/expconfig/setups\l/Setup_2015_01_Pion.cc">
<polygon fill="white" stroke="black" points="1551.5,-6 1551.5,-36 1676.5,-36 1676.5,-6 1551.5,-6"/>
<text text-anchor="start" x="1559.5" y="-24" font-family="Helvetica,sans-Serif" font-size="10.00">src/expconfig/setups</text>
<text text-anchor="middle" x="1614" y="-13" font-family="Helvetica,sans-Serif" font-size="10.00">/Setup_2015_01_Pion.cc</text>
</a>
</g>
</g>
<!-- Node53&#45;&gt;Node67 -->
<g id="edge37" class="edge"><title>Node53&#45;&gt;Node67</title>
<path fill="none" stroke="midnightblue" d="M1520.45,-141.955C1535.35,-133.601 1551.6,-122.769 1564,-110 1585.43,-87.9436 1600.92,-54.92 1608.59,-36.2304"/>
<polygon fill="midnightblue" stroke="midnightblue" points="1518.54,-139.008 1511.4,-146.831 1521.86,-145.171 1518.54,-139.008"/>
</g>
<!-- Node68 -->
<g id="node16" class="node"><title>Node68</title>
<g id="a_node16"><a xlink:href="_setup__2017__03_8cc.html" target="_top" xlink:title="src/expconfig/setups\l/Setup_2017_03.cc">
<polygon fill="white" stroke="black" points="1859.5,-6 1859.5,-36 1966.5,-36 1966.5,-6 1859.5,-6"/>
<text text-anchor="start" x="1867.5" y="-24" font-family="Helvetica,sans-Serif" font-size="10.00">src/expconfig/setups</text>
<text text-anchor="middle" x="1913" y="-13" font-family="Helvetica,sans-Serif" font-size="10.00">/Setup_2017_03.cc</text>
</a>
</g>
</g>
<!-- Node53&#45;&gt;Node68 -->
<g id="edge38" class="edge"><title>Node53&#45;&gt;Node68</title>
<path fill="none" stroke="midnightblue" d="M1537.75,-143.912C1567.41,-134.684 1603.96,-122.615 1636,-110 1667.45,-97.6151 1673.12,-89.235 1705,-78 1767.63,-55.9313 1786.1,-60.055 1850,-42 1856.52,-40.159 1863.37,-38.1043 1870.07,-36.0322"/>
<polygon fill="midnightblue" stroke="midnightblue" points="1536.49,-140.637 1527.97,-146.929 1538.55,-147.325 1536.49,-140.637"/>
</g>
<!-- Node69 -->
<g id="node17" class="node"><title>Node69</title>
<g id="a_node17"><a xlink:href="_setup__2017__05_8cc.html" target="_top" xlink:title="src/expconfig/setups\l/Setup_2017_05.cc">
<polygon fill="white" stroke="black" points="1426.5,-6 1426.5,-36 1533.5,-36 1533.5,-6 1426.5,-6"/>
<text text-anchor="start" x="1434.5" y="-24" font-family="Helvetica,sans-Serif" font-size="10.00">src/expconfig/setups</text>
<text text-anchor="middle" x="1480" y="-13" font-family="Helvetica,sans-Serif" font-size="10.00">/Setup_2017_05.cc</text>
</a>
</g>
</g>
<!-- Node53&#45;&gt;Node69 -->
<g id="edge39" class="edge"><title>Node53&#45;&gt;Node69</title>
<path fill="none" stroke="midnightblue" d="M1518.07,-141.175C1529.51,-133.151 1540.69,-122.734 1547,-110 1553.32,-97.2567 1553.02,-90.8839 1547,-78 1538.59,-60.0093 1521.24,-45.767 1506.31,-36.1478"/>
<polygon fill="midnightblue" stroke="midnightblue" points="1515.82,-138.46 1509.34,-146.843 1519.64,-144.33 1515.82,-138.46"/>
</g>
<!-- Node70 -->
<g id="node18" class="node"><title>Node70</title>
<g id="a_node18"><a xlink:href="_setup__2017_plus___new_tagger___base_8cc.html" target="_top" xlink:title="src/expconfig/setups\l/Setup_2017Plus_NewTagger\l_Base.cc">
<polygon fill="white" stroke="black" points="1695,-0.5 1695,-41.5 1841,-41.5 1841,-0.5 1695,-0.5"/>
<text text-anchor="start" x="1703" y="-29.5" font-family="Helvetica,sans-Serif" font-size="10.00">src/expconfig/setups</text>
<text text-anchor="start" x="1703" y="-18.5" font-family="Helvetica,sans-Serif" font-size="10.00">/Setup_2017Plus_NewTagger</text>
<text text-anchor="middle" x="1768" y="-7.5" font-family="Helvetica,sans-Serif" font-size="10.00">_Base.cc</text>
</a>
</g>
</g>
<!-- Node53&#45;&gt;Node70 -->
<g id="edge40" class="edge"><title>Node53&#45;&gt;Node70</title>
<path fill="none" stroke="midnightblue" d="M1520.13,-142.685C1541.02,-133.077 1566.95,-121.039 1590,-110 1638.19,-86.9202 1693.28,-59.5285 1729.25,-41.5072"/>
<polygon fill="midnightblue" stroke="midnightblue" points="1518.54,-139.563 1510.92,-146.916 1521.46,-145.925 1518.54,-139.563"/>
</g>
<!-- Node71 -->
<g id="node19" class="node"><title>Node71</title>
<g id="a_node19"><a xlink:href="expconfig__helpers_8cc.html" target="_top" xlink:title="test/expconfig_helpers.cc">
<polygon fill="white" stroke="black" points="1985,-11.5 1985,-30.5 2113,-30.5 2113,-11.5 1985,-11.5"/>
<text text-anchor="middle" x="2049" y="-18.5" font-family="Helvetica,sans-Serif" font-size="10.00">test/expconfig_helpers.cc</text>
</a>
</g>
</g>
<!-- Node53&#45;&gt;Node71 -->
<g id="edge44" class="edge"><title>Node53&#45;&gt;Node71</title>
<path fill="none" stroke="midnightblue" d="M1548.92,-149.072C1589.47,-140.783 1641.21,-127.969 1685,-110 1710.81,-99.4094 1712.73,-87.3867 1739,-78 1838.92,-42.2998 1871.18,-63.8762 1975,-42 1990.11,-38.8171 2006.72,-34.4123 2020.37,-30.5464"/>
<polygon fill="midnightblue" stroke="midnightblue" points="1547.99,-145.689 1538.87,-151.082 1549.36,-152.553 1547.99,-145.689"/>
</g>
<!-- Node72 -->
<g id="node20" class="node"><title>Node72</title>
<g id="a_node20"><a xlink:href="_t_a_p_s_veto___time_8h.html" target="_top" xlink:title="src/calibration/modules\l/TAPSVeto_Time.h">
<polygon fill="white" stroke="black" points="1247.5,-79 1247.5,-109 1364.5,-109 1364.5,-79 1247.5,-79"/>
<text text-anchor="start" x="1255.5" y="-97" font-family="Helvetica,sans-Serif" font-size="10.00">src/calibration/modules</text>
<text text-anchor="middle" x="1306" y="-86" font-family="Helvetica,sans-Serif" font-size="10.00">/TAPSVeto_Time.h</text>
</a>
</g>
</g>
<!-- Node53&#45;&gt;Node72 -->
<g id="edge21" class="edge"><title>Node53&#45;&gt;Node72</title>
<path fill="none" stroke="midnightblue" d="M1433,-143.171C1404.72,-132.445 1369.23,-118.985 1342.97,-109.022"/>
<polygon fill="midnightblue" stroke="midnightblue" points="1432.08,-146.567 1442.67,-146.841 1434.56,-140.022 1432.08,-146.567"/>
</g>
<!-- Node74 -->
<g id="node22" class="node"><title>Node74</title>
<g id="a_node22"><a xlink:href="calibration_2modules_2_time_8cc.html" target="_top" xlink:title="src/calibration/modules\l/Time.cc">
<polygon fill="white" stroke="black" points="1747.5,-79 1747.5,-109 1864.5,-109 1864.5,-79 1747.5,-79"/>
<text text-anchor="start" x="1755.5" y="-97" font-family="Helvetica,sans-Serif" font-size="10.00">src/calibration/modules</text>
<text text-anchor="middle" x="1806" y="-86" font-family="Helvetica,sans-Serif" font-size="10.00">/Time.cc</text>
</a>
</g>
</g>
<!-- Node53&#45;&gt;Node74 -->
<g id="edge33" class="edge"><title>Node53&#45;&gt;Node74</title>
<path fill="none" stroke="midnightblue" d="M1548.45,-147.273C1599.36,-137.047 1670.54,-122.713 1733,-110 1737.69,-109.045 1742.55,-108.053 1747.43,-107.054"/>
<polygon fill="midnightblue" stroke="midnightblue" points="1547.66,-143.862 1538.55,-149.262 1549.04,-150.725 1547.66,-143.862"/>
</g>
<!-- Node75 -->
<g id="node23" class="node"><title>Node75</title>
<g id="a_node23"><a xlink:href="_setup___c_b_source_calib_8cc.html" target="_top" xlink:title="src/expconfig/setups\l/Setup_CBSourceCalib.cc">
<polygon fill="white" stroke="black" points="1882.5,-79 1882.5,-109 2013.5,-109 2013.5,-79 1882.5,-79"/>
<text text-anchor="start" x="1890.5" y="-97" font-family="Helvetica,sans-Serif" font-size="10.00">src/expconfig/setups</text>
<text text-anchor="middle" x="1948" y="-86" font-family="Helvetica,sans-Serif" font-size="10.00">/Setup_CBSourceCalib.cc</text>
</a>
</g>
</g>
<!-- Node53&#45;&gt;Node75 -->
<g id="edge43" class="edge"><title>Node53&#45;&gt;Node75</title>
<path fill="none" stroke="midnightblue" d="M1549.04,-153.487C1627.69,-144.594 1759.95,-128.618 1873,-110 1876.01,-109.504 1879.09,-108.976 1882.2,-108.425"/>
<polygon fill="midnightblue" stroke="midnightblue" points="1548.32,-150.046 1538.78,-154.642 1549.1,-157.002 1548.32,-150.046"/>
</g>
<!-- Node55 -->
<g id="node3" class="node"><title>Node55</title>
<g id="a_node3"><a xlink:href="_new_tagger___time_8cc.html" target="_top" xlink:title="src/calibration/modules\l/NewTagger_Time.cc">
<polygon fill="white" stroke="black" points="499.5,-6 499.5,-36 616.5,-36 616.5,-6 499.5,-6"/>
<text text-anchor="start" x="507.5" y="-24" font-family="Helvetica,sans-Serif" font-size="10.00">src/calibration/modules</text>
<text text-anchor="middle" x="558" y="-13" font-family="Helvetica,sans-Serif" font-size="10.00">/NewTagger_Time.cc</text>
</a>
</g>
</g>
<!-- Node54&#45;&gt;Node55 -->
<g id="edge2" class="edge"><title>Node54&#45;&gt;Node55</title>
<path fill="none" stroke="midnightblue" d="M512.634,-71.5539C523.021,-60.2075 535.5,-46.5768 544.739,-36.4856"/>
<polygon fill="midnightblue" stroke="midnightblue" points="510.013,-69.2334 505.842,-78.9727 515.176,-73.9602 510.013,-69.2334"/>
</g>
<!-- Node56 -->
<g id="node4" class="node"><title>Node56</title>
<g id="a_node4"><a xlink:href="_setup__2017__12_8cc.html" target="_top" xlink:title="src/expconfig/setups\l/Setup_2017_12.cc">
<polygon fill="white" stroke="black" points="-0.5,-6 -0.5,-36 106.5,-36 106.5,-6 -0.5,-6"/>
<text text-anchor="start" x="7.5" y="-24" font-family="Helvetica,sans-Serif" font-size="10.00">src/expconfig/setups</text>
<text text-anchor="middle" x="53" y="-13" font-family="Helvetica,sans-Serif" font-size="10.00">/Setup_2017_12.cc</text>
</a>
</g>
</g>
<!-- Node54&#45;&gt;Node56 -->
<g id="edge3" class="edge"><title>Node54&#45;&gt;Node56</title>
<path fill="none" stroke="midnightblue" d="M424.045,-87.4104C347.767,-80.3696 221.548,-66.1707 115,-42 107.831,-40.3736 100.305,-38.2838 93.066,-36.0706"/>
<polygon fill="midnightblue" stroke="midnightblue" points="424.194,-90.9383 434.469,-88.3567 424.827,-83.9669 424.194,-90.9383"/>
</g>
<!-- Node57 -->
<g id="node5" class="node"><title>Node57</title>
<g id="a_node5"><a xlink:href="_setup__2018__03_8cc.html" target="_top" xlink:title="src/expconfig/setups\l/Setup_2018_03.cc">
<polygon fill="white" stroke="black" points="124.5,-6 124.5,-36 231.5,-36 231.5,-6 124.5,-6"/>
<text text-anchor="start" x="132.5" y="-24" font-family="Helvetica,sans-Serif" font-size="10.00">src/expconfig/setups</text>
<text text-anchor="middle" x="178" y="-13" font-family="Helvetica,sans-Serif" font-size="10.00">/Setup_2018_03.cc</text>
</a>
</g>
</g>
<!-- Node54&#45;&gt;Node57 -->
<g id="edge4" class="edge"><title>Node54&#45;&gt;Node57</title>
<path fill="none" stroke="midnightblue" d="M424.334,-81.3296C373.171,-72.1099 301.778,-58.1355 240,-42 233.325,-40.2565 226.31,-38.2084 219.498,-36.0997"/>
<polygon fill="midnightblue" stroke="midnightblue" points="423.828,-84.7946 434.288,-83.1094 425.06,-77.9038 423.828,-84.7946"/>
</g>
<!-- Node58 -->
<g id="node6" class="node"><title>Node58</title>
<g id="a_node6"><a xlink:href="_setup__2018__05_8cc.html" target="_top" xlink:title="src/expconfig/setups\l/Setup_2018_05.cc">
<polygon fill="white" stroke="black" points="249.5,-6 249.5,-36 356.5,-36 356.5,-6 249.5,-6"/>
<text text-anchor="start" x="257.5" y="-24" font-family="Helvetica,sans-Serif" font-size="10.00">src/expconfig/setups</text>
<text text-anchor="middle" x="303" y="-13" font-family="Helvetica,sans-Serif" font-size="10.00">/Setup_2018_05.cc</text>
</a>
</g>
</g>
<!-- Node54&#45;&gt;Node58 -->
<g id="edge5" class="edge"><title>Node54&#45;&gt;Node58</title>
<path fill="none" stroke="midnightblue" d="M445.753,-75.3447C413.354,-63.2376 370.941,-47.3883 340.785,-36.1195"/>
<polygon fill="midnightblue" stroke="midnightblue" points="444.87,-78.7508 455.462,-78.9727 447.32,-72.1936 444.87,-78.7508"/>
</g>
<!-- Node59 -->
<g id="node7" class="node"><title>Node59</title>
<g id="a_node7"><a xlink:href="_setup__2018__09_8cc.html" target="_top" xlink:title="src/expconfig/setups\l/Setup_2018_09.cc">
<polygon fill="white" stroke="black" points="374.5,-6 374.5,-36 481.5,-36 481.5,-6 374.5,-6"/>
<text text-anchor="start" x="382.5" y="-24" font-family="Helvetica,sans-Serif" font-size="10.00">src/expconfig/setups</text>
<text text-anchor="middle" x="428" y="-13" font-family="Helvetica,sans-Serif" font-size="10.00">/Setup_2018_09.cc</text>
</a>
</g>
</g>
<!-- Node54&#45;&gt;Node59 -->
<g id="edge6" class="edge"><title>Node54&#45;&gt;Node59</title>
<path fill="none" stroke="midnightblue" d="M473.366,-71.5539C462.979,-60.2075 450.5,-46.5768 441.261,-36.4856"/>
<polygon fill="midnightblue" stroke="midnightblue" points="470.824,-73.9602 480.158,-78.9727 475.987,-69.2334 470.824,-73.9602"/>
</g>
<!-- Node54&#45;&gt;Node60 -->
<g id="edge7" class="edge"><title>Node54&#45;&gt;Node60</title>
<path fill="none" stroke="midnightblue" d="M541.061,-75.501C574.366,-63.3743 618.138,-47.4369 649.221,-36.1195"/>
<polygon fill="midnightblue" stroke="midnightblue" points="539.725,-72.2625 531.526,-78.9727 542.12,-78.8401 539.725,-72.2625"/>
</g>
<!-- Node54&#45;&gt;Node61 -->
<g id="edge8" class="edge"><title>Node54&#45;&gt;Node61</title>
<path fill="none" stroke="midnightblue" d="M561.715,-81.5138C613.747,-72.298 686.808,-58.2465 750,-42 756.78,-40.257 763.905,-38.2091 770.827,-36.1005"/>
<polygon fill="midnightblue" stroke="midnightblue" points="560.841,-78.1136 551.598,-83.2917 562.053,-85.008 560.841,-78.1136"/>
</g>
<!-- Node62&#45;&gt;Node60 -->
<g id="edge18" class="edge"><title>Node62&#45;&gt;Node60</title>
<path fill="none" stroke="midnightblue" d="M1411.19,-82.5104C1398.51,-80.8177 1385.37,-79.2227 1373,-78 1096.99,-50.7251 1022.62,-92.9854 750,-42 742.218,-40.5446 734.056,-38.3898 726.304,-36.0268"/>
<polygon fill="midnightblue" stroke="midnightblue" points="1410.85,-85.9969 1421.24,-83.8836 1411.8,-79.0614 1410.85,-85.9969"/>
</g>
<!-- Node62&#45;&gt;Node61 -->
<g id="edge19" class="edge"><title>Node62&#45;&gt;Node61</title>
<path fill="none" stroke="midnightblue" d="M1411.4,-82.6881C1398.65,-80.9696 1385.44,-79.3198 1373,-78 1152.33,-54.5829 1092.83,-84.368 875,-42 867.34,-40.51 859.305,-38.3703 851.653,-36.0393"/>
<polygon fill="midnightblue" stroke="midnightblue" points="1411.12,-86.1817 1421.5,-84.0759 1412.07,-79.2469 1411.12,-86.1817"/>
</g>
<!-- Node63 -->
<g id="node11" class="node"><title>Node63</title>
<g id="a_node11"><a xlink:href="_t_a_p_s___time_8cc.html" target="_top" xlink:title="src/calibration/modules\l/TAPS_Time.cc">
<polygon fill="white" stroke="black" points="2131.5,-6 2131.5,-36 2248.5,-36 2248.5,-6 2131.5,-6"/>
<text text-anchor="start" x="2139.5" y="-24" font-family="Helvetica,sans-Serif" font-size="10.00">src/calibration/modules</text>
<text text-anchor="middle" x="2190" y="-13" font-family="Helvetica,sans-Serif" font-size="10.00">/TAPS_Time.cc</text>
</a>
</g>
</g>
<!-- Node62&#45;&gt;Node63 -->
<g id="edge10" class="edge"><title>Node62&#45;&gt;Node63</title>
<path fill="none" stroke="midnightblue" d="M1548.91,-89.3325C1691.28,-81.4598 2013.6,-62.0246 2122,-42 2130.23,-40.48 2138.88,-38.3564 2147.16,-36.057"/>
<polygon fill="midnightblue" stroke="midnightblue" points="1548.36,-85.8575 1538.57,-89.9017 1548.75,-92.8469 1548.36,-85.8575"/>
</g>
<!-- Node62&#45;&gt;Node64 -->
<g id="edge11" class="edge"><title>Node62&#45;&gt;Node64</title>
<path fill="none" stroke="midnightblue" d="M1415.84,-76.437C1378.7,-66.7084 1331.12,-54.0007 1289,-42 1282.44,-40.1299 1275.52,-38.101 1268.74,-36.0768"/>
<polygon fill="midnightblue" stroke="midnightblue" points="1414.97,-79.8282 1425.53,-78.9711 1416.74,-73.0557 1414.97,-79.8282"/>
</g>
<!-- Node62&#45;&gt;Node65 -->
<g id="edge12" class="edge"><title>Node62&#45;&gt;Node65</title>
<path fill="none" stroke="midnightblue" d="M1411.42,-83.0835C1331.46,-71.3617 1204.24,-52.1671 1157,-42 1149.04,-40.2857 1140.65,-38.2286 1132.51,-36.0954"/>
<polygon fill="midnightblue" stroke="midnightblue" points="1411.01,-86.5605 1421.41,-84.5453 1412.02,-79.6343 1411.01,-86.5605"/>
</g>
<!-- Node62&#45;&gt;Node66 -->
<g id="edge13" class="edge"><title>Node62&#45;&gt;Node66</title>
<path fill="none" stroke="midnightblue" d="M1445.9,-73.9365C1424.68,-62.0739 1397.84,-47.069 1378.47,-36.2412"/>
<polygon fill="midnightblue" stroke="midnightblue" points="1444.47,-77.1479 1454.91,-78.9727 1447.89,-71.0379 1444.47,-77.1479"/>
</g>
<!-- Node62&#45;&gt;Node67 -->
<g id="edge14" class="edge"><title>Node62&#45;&gt;Node67</title>
<path fill="none" stroke="midnightblue" d="M1515.38,-74.2549C1537.86,-62.3433 1566.5,-47.1661 1587.12,-36.2412"/>
<polygon fill="midnightblue" stroke="midnightblue" points="1513.67,-71.198 1506.47,-78.9727 1516.95,-77.3834 1513.67,-71.198"/>
</g>
<!-- Node62&#45;&gt;Node68 -->
<g id="edge15" class="edge"><title>Node62&#45;&gt;Node68</title>
<path fill="none" stroke="midnightblue" d="M1548.77,-87.0583C1623.54,-79.7797 1746.25,-65.439 1850,-42 1857.28,-40.3563 1864.92,-38.2579 1872.27,-36.0417"/>
<polygon fill="midnightblue" stroke="midnightblue" points="1548.17,-83.6002 1538.55,-88.0387 1548.84,-90.5683 1548.17,-83.6002"/>
</g>
<!-- Node62&#45;&gt;Node69 -->
<g id="edge16" class="edge"><title>Node62&#45;&gt;Node69</title>
<path fill="none" stroke="midnightblue" d="M1480,-68.8976C1480,-58.1314 1480,-45.8005 1480,-36.4856"/>
<polygon fill="midnightblue" stroke="midnightblue" points="1476.5,-68.9727 1480,-78.9727 1483.5,-68.9727 1476.5,-68.9727"/>
</g>
<!-- Node62&#45;&gt;Node70 -->
<g id="edge17" class="edge"><title>Node62&#45;&gt;Node70</title>
<path fill="none" stroke="midnightblue" d="M1546.7,-76.5555C1591.02,-65.6308 1649.21,-51.2844 1694.8,-40.0454"/>
<polygon fill="midnightblue" stroke="midnightblue" points="1545.77,-73.1807 1536.9,-78.9727 1547.45,-79.9773 1545.77,-73.1807"/>
</g>
<!-- Node62&#45;&gt;Node71 -->
<g id="edge20" class="edge"><title>Node62&#45;&gt;Node71</title>
<path fill="none" stroke="midnightblue" d="M1548.9,-89.4194C1644.99,-83.6291 1824.4,-69.9206 1975,-42 1990.57,-39.1131 2007.66,-34.5885 2021.48,-30.5726"/>
<polygon fill="midnightblue" stroke="midnightblue" points="1548.51,-85.9363 1538.73,-90.0211 1548.92,-92.9241 1548.51,-85.9363"/>
</g>
<!-- Node72&#45;&gt;Node60 -->
<g id="edge30" class="edge"><title>Node72&#45;&gt;Node60</title>
<path fill="none" stroke="midnightblue" d="M1237.13,-91.5513C1131.36,-88.2371 923.014,-77.3881 750,-42 742.465,-40.4588 734.559,-38.3253 727.01,-36.0228"/>
<polygon fill="midnightblue" stroke="midnightblue" points="1237.25,-95.0563 1247.35,-91.8579 1237.46,-88.0595 1237.25,-95.0563"/>
</g>
<!-- Node72&#45;&gt;Node61 -->
<g id="edge31" class="edge"><title>Node72&#45;&gt;Node61</title>
<path fill="none" stroke="midnightblue" d="M1237.07,-88.984C1151.4,-83.0477 1001.09,-69.524 875,-42 867.707,-40.4081 860.054,-38.3076 852.71,-36.0667"/>
<polygon fill="midnightblue" stroke="midnightblue" points="1236.98,-92.4857 1247.19,-89.6708 1237.45,-85.5017 1236.98,-92.4857"/>
</g>
<!-- Node72&#45;&gt;Node64 -->
<g id="edge23" class="edge"><title>Node72&#45;&gt;Node64</title>
<path fill="none" stroke="midnightblue" d="M1281.64,-72.159C1268.13,-60.6037 1251.68,-46.5349 1239.65,-36.2412"/>
<polygon fill="midnightblue" stroke="midnightblue" points="1279.73,-75.1319 1289.6,-78.9727 1284.28,-69.8126 1279.73,-75.1319"/>
</g>
<!-- Node72&#45;&gt;Node65 -->
<g id="edge24" class="edge"><title>Node72&#45;&gt;Node65</title>
<path fill="none" stroke="midnightblue" d="M1252.26,-75.8125C1214.22,-63.6483 1163.84,-47.534 1128.15,-36.1195"/>
<polygon fill="midnightblue" stroke="midnightblue" points="1251.55,-79.2601 1262.14,-78.9727 1253.68,-72.5928 1251.55,-79.2601"/>
</g>
<!-- Node72&#45;&gt;Node66 -->
<g id="edge25" class="edge"><title>Node72&#45;&gt;Node66</title>
<path fill="none" stroke="midnightblue" d="M1320.85,-70.5665C1328.23,-59.424 1336.92,-46.2857 1343.41,-36.4856"/>
<polygon fill="midnightblue" stroke="midnightblue" points="1317.89,-68.7022 1315.29,-78.9727 1323.72,-72.5661 1317.89,-68.7022"/>
</g>
<!-- Node72&#45;&gt;Node67 -->
<g id="edge26" class="edge"><title>Node72&#45;&gt;Node67</title>
<path fill="none" stroke="midnightblue" d="M1374.71,-79.2518C1421.92,-69.5352 1485.96,-55.8268 1542,-42 1549.43,-40.1665 1557.26,-38.1159 1564.91,-36.0455"/>
<polygon fill="midnightblue" stroke="midnightblue" points="1373.99,-75.826 1364.89,-81.2632 1375.39,-82.6834 1373.99,-75.826"/>
</g>
<!-- Node72&#45;&gt;Node68 -->
<g id="edge27" class="edge"><title>Node72&#45;&gt;Node68</title>
<path fill="none" stroke="midnightblue" d="M1374.79,-82.6689C1387.16,-80.9809 1399.95,-79.3466 1412,-78 1606.11,-56.307 1658.37,-79.7901 1850,-42 1857.66,-40.4903 1865.69,-38.3714 1873.36,-36.0736"/>
<polygon fill="midnightblue" stroke="midnightblue" points="1373.94,-79.2526 1364.52,-84.0942 1374.9,-86.1861 1373.94,-79.2526"/>
</g>
<!-- Node72&#45;&gt;Node69 -->
<g id="edge28" class="edge"><title>Node72&#45;&gt;Node69</title>
<path fill="none" stroke="midnightblue" d="M1349.65,-75.1879C1379.27,-63.1011 1417.9,-47.3397 1445.4,-36.1195"/>
<polygon fill="midnightblue" stroke="midnightblue" points="1348.31,-71.954 1340.38,-78.9727 1350.96,-78.4352 1348.31,-71.954"/>
</g>
<!-- Node72&#45;&gt;Node70 -->
<g id="edge29" class="edge"><title>Node72&#45;&gt;Node70</title>
<path fill="none" stroke="midnightblue" d="M1374.85,-83.161C1387.21,-81.4212 1399.99,-79.642 1412,-78 1533.26,-61.426 1564.68,-64.3658 1685,-42 1688.21,-41.4041 1691.47,-40.7629 1694.77,-40.0886"/>
<polygon fill="midnightblue" stroke="midnightblue" points="1373.99,-79.7466 1364.58,-84.6093 1374.97,-86.678 1373.99,-79.7466"/>
</g>
<!-- Node72&#45;&gt;Node71 -->
<g id="edge32" class="edge"><title>Node72&#45;&gt;Node71</title>
<path fill="none" stroke="midnightblue" d="M1374.99,-82.4566C1387.29,-80.7989 1400.01,-79.2298 1412,-78 1661.42,-52.4156 1727.63,-82.9139 1975,-42 1991.02,-39.3507 2008.58,-34.6842 2022.57,-30.525"/>
<polygon fill="midnightblue" stroke="midnightblue" points="1374.2,-79.0319 1364.77,-83.8644 1375.16,-85.9664 1374.2,-79.0319"/>
</g>
<!-- Node73 -->
<g id="node21" class="node"><title>Node73</title>
<g id="a_node21"><a xlink:href="_t_a_p_s_veto___time_8cc.html" target="_top" xlink:title="src/calibration/modules\l/TAPSVeto_Time.cc">
<polygon fill="white" stroke="black" points="884.5,-6 884.5,-36 1001.5,-36 1001.5,-6 884.5,-6"/>
<text text-anchor="start" x="892.5" y="-24" font-family="Helvetica,sans-Serif" font-size="10.00">src/calibration/modules</text>
<text text-anchor="middle" x="943" y="-13" font-family="Helvetica,sans-Serif" font-size="10.00">/TAPSVeto_Time.cc</text>
</a>
</g>
</g>
<!-- Node72&#45;&gt;Node73 -->
<g id="edge22" class="edge"><title>Node72&#45;&gt;Node73</title>
<path fill="none" stroke="midnightblue" d="M1237.27,-83.4038C1177.19,-74.4736 1087.81,-59.8719 1011,-42 1003.57,-40.2709 995.749,-38.2062 988.164,-36.07"/>
<polygon fill="midnightblue" stroke="midnightblue" points="1236.99,-86.9003 1247.39,-84.8962 1238.01,-79.9751 1236.99,-86.9003"/>
</g>
</g>
</svg>
