<?xml version="1.0" encoding="UTF-8" standalone="no"?>
<!DOCTYPE svg PUBLIC "-//W3C//DTD SVG 1.1//EN"
 "http://www.w3.org/Graphics/SVG/1.1/DTD/svg11.dtd">
<!-- Generated by graphviz version 2.36.0 (20140111.2315)
 -->
<!-- Title: ant::UnpackerA2GeantConfig Pages: 1 -->
<svg width="690pt" height="616pt"
 viewBox="0.00 0.00 690.00 616.00" xmlns="http://www.w3.org/2000/svg" xmlns:xlink="http://www.w3.org/1999/xlink">
<g id="graph0" class="graph" transform="scale(1 1) rotate(0) translate(4 612)">
<title>ant::UnpackerA2GeantConfig</title>
<polygon fill="white" stroke="none" points="-4,4 -4,-612 686,-612 686,4 -4,4"/>
<!-- Node0 -->
<g id="node1" class="node"><title>Node0</title>
<polygon fill="#bfbfbf" stroke="black" points="0.5,-264.5 0.5,-283.5 145.5,-283.5 145.5,-264.5 0.5,-264.5"/>
<text text-anchor="middle" x="73" y="-271.5" font-family="Helvetica,sans-Serif" font-size="10.00">ant::UnpackerA2GeantConfig</text>
</g>
<!-- Node1 -->
<g id="node2" class="node"><title>Node1</title>
<g id="a_node2"><a xlink:href="classant_1_1expconfig_1_1_setup.html" target="_top" xlink:title="The Setup class serves as a base class for all known beamtime setup configurations. ">
<polygon fill="white" stroke="black" points="182,-264.5 182,-283.5 292,-283.5 292,-264.5 182,-264.5"/>
<text text-anchor="middle" x="237" y="-271.5" font-family="Helvetica,sans-Serif" font-size="10.00">ant::expconfig::Setup</text>
</a>
</g>
</g>
<!-- Node0&#45;&gt;Node1 -->
<g id="edge1" class="edge"><title>Node0&#45;&gt;Node1</title>
<path fill="none" stroke="midnightblue" d="M155.582,-274C164.504,-274 173.417,-274 181.887,-274"/>
<polygon fill="midnightblue" stroke="midnightblue" points="155.527,-270.5 145.527,-274 155.527,-277.5 155.527,-270.5"/>
</g>
<!-- Node2 -->
<g id="node3" class="node"><title>Node2</title>
<g id="a_node3"><a xlink:href="classant_1_1expconfig_1_1setup_1_1_setup__2007___base.html" target="_top" xlink:title="Common base class for all Setups of the 2014 Ent Point Tagger beam times. ">
<polygon fill="white" stroke="black" points="363,-529 363,-559 471,-559 471,-529 363,-529"/>
<text text-anchor="start" x="371" y="-547" font-family="Helvetica,sans-Serif" font-size="10.00">ant::expconfig::setup</text>
<text text-anchor="middle" x="417" y="-536" font-family="Helvetica,sans-Serif" font-size="10.00">::Setup_2007_Base</text>
</a>
</g>
</g>
<!-- Node1&#45;&gt;Node2 -->
<g id="edge2" class="edge"><title>Node1&#45;&gt;Node2</title>
<path fill="none" stroke="midnightblue" d="M239.373,-293.871C243.67,-340.325 260.923,-456.79 328,-519 337.665,-527.964 350.314,-533.743 362.995,-537.461"/>
<polygon fill="midnightblue" stroke="midnightblue" points="242.84,-293.327 238.537,-283.645 235.863,-293.897 242.84,-293.327"/>
</g>
<!-- Node5 -->
<g id="node6" class="node"><title>Node5</title>
<g id="a_node6"><a xlink:href="classant_1_1expconfig_1_1setup_1_1_setup__2010__03___base.html" target="_top" xlink:title="ant::expconfig::setup\l::Setup_2010_03_Base">
<polygon fill="white" stroke="black" points="358,-480 358,-510 476,-510 476,-480 358,-480"/>
<text text-anchor="start" x="366" y="-498" font-family="Helvetica,sans-Serif" font-size="10.00">ant::expconfig::setup</text>
<text text-anchor="middle" x="417" y="-487" font-family="Helvetica,sans-Serif" font-size="10.00">::Setup_2010_03_Base</text>
</a>
</g>
</g>
<!-- Node1&#45;&gt;Node5 -->
<g id="edge5" class="edge"><title>Node1&#45;&gt;Node5</title>
<path fill="none" stroke="midnightblue" d="M241.428,-293.872C249.314,-333.46 272.505,-422.439 328,-470 336.562,-477.338 347.144,-482.529 357.966,-486.199"/>
<polygon fill="midnightblue" stroke="midnightblue" points="244.839,-293.071 239.56,-283.885 237.959,-294.358 244.839,-293.071"/>
</g>
<!-- Node7 -->
<g id="node8" class="node"><title>Node7</title>
<g id="a_node8"><a xlink:href="classant_1_1expconfig_1_1setup_1_1_setup__2012__12___compton.html" target="_top" xlink:title="ant::expconfig::setup\l::Setup_2012_12_Compton">
<polygon fill="white" stroke="black" points="349.5,-431 349.5,-461 484.5,-461 484.5,-431 349.5,-431"/>
<text text-anchor="start" x="357.5" y="-449" font-family="Helvetica,sans-Serif" font-size="10.00">ant::expconfig::setup</text>
<text text-anchor="middle" x="417" y="-438" font-family="Helvetica,sans-Serif" font-size="10.00">::Setup_2012_12_Compton</text>
</a>
</g>
</g>
<!-- Node1&#45;&gt;Node7 -->
<g id="edge7" class="edge"><title>Node1&#45;&gt;Node7</title>
<path fill="none" stroke="midnightblue" d="M244.55,-293.384C256.223,-324.958 283.646,-387.344 328,-421 334.453,-425.896 341.827,-429.834 349.499,-433"/>
<polygon fill="midnightblue" stroke="midnightblue" points="247.72,-291.851 241.076,-283.598 241.123,-294.192 247.72,-291.851"/>
</g>
<!-- Node8 -->
<g id="node9" class="node"><title>Node8</title>
<g id="a_node9"><a xlink:href="classant_1_1expconfig_1_1setup_1_1_setup__2014___e_p_t.html" target="_top" xlink:title="Common base class for all Setups of the 2014 Ent Point Tagger beam times. ">
<polygon fill="white" stroke="black" points="363,-382 363,-412 471,-412 471,-382 363,-382"/>
<text text-anchor="start" x="371" y="-400" font-family="Helvetica,sans-Serif" font-size="10.00">ant::expconfig::setup</text>
<text text-anchor="middle" x="417" y="-389" font-family="Helvetica,sans-Serif" font-size="10.00">::Setup_2014_EPT</text>
</a>
</g>
</g>
<!-- Node1&#45;&gt;Node8 -->
<g id="edge8" class="edge"><title>Node1&#45;&gt;Node8</title>
<path fill="none" stroke="midnightblue" d="M249.92,-292.189C265.345,-314.296 294.275,-351.213 328,-372 338.546,-378.5 350.835,-383.36 362.826,-386.976"/>
<polygon fill="midnightblue" stroke="midnightblue" points="252.676,-290.017 244.162,-283.712 246.886,-293.95 252.676,-290.017"/>
</g>
<!-- Node12 -->
<g id="node13" class="node"><title>Node12</title>
<g id="a_node13"><a xlink:href="classant_1_1expconfig_1_1setup_1_1_setup__2015__01___pion.html" target="_top" xlink:title="Ant Setup for Rare Pion Test Beamtime in January 2015 &amp; MC studies. ">
<polygon fill="white" stroke="black" points="359.5,-333 359.5,-363 474.5,-363 474.5,-333 359.5,-333"/>
<text text-anchor="start" x="367.5" y="-351" font-family="Helvetica,sans-Serif" font-size="10.00">ant::expconfig::setup</text>
<text text-anchor="middle" x="417" y="-340" font-family="Helvetica,sans-Serif" font-size="10.00">::Setup_2015_01_Pion</text>
</a>
</g>
</g>
<!-- Node1&#45;&gt;Node12 -->
<g id="edge12" class="edge"><title>Node1&#45;&gt;Node12</title>
<path fill="none" stroke="midnightblue" d="M261.654,-288.768C279.404,-299.376 304.577,-313.435 328,-323 337.851,-327.023 348.574,-330.652 359.037,-333.819"/>
<polygon fill="midnightblue" stroke="midnightblue" points="263.462,-285.771 253.097,-283.577 259.831,-291.756 263.462,-285.771"/>
</g>
<!-- Node13 -->
<g id="node14" class="node"><title>Node13</title>
<g id="a_node14"><a xlink:href="classant_1_1expconfig_1_1setup_1_1_setup__2017__03.html" target="_top" xlink:title="Common base class for all Setups of the 2014 Ent Point Tagger beam times. ">
<polygon fill="white" stroke="black" points="363,-284 363,-314 471,-314 471,-284 363,-284"/>
<text text-anchor="start" x="371" y="-302" font-family="Helvetica,sans-Serif" font-size="10.00">ant::expconfig::setup</text>
<text text-anchor="middle" x="417" y="-291" font-family="Helvetica,sans-Serif" font-size="10.00">::Setup_2017_03</text>
</a>
</g>
</g>
<!-- Node1&#45;&gt;Node13 -->
<g id="edge13" class="edge"><title>Node1&#45;&gt;Node13</title>
<path fill="none" stroke="midnightblue" d="M302.277,-283.028C322.162,-285.82 343.835,-288.864 362.877,-291.539"/>
<polygon fill="midnightblue" stroke="midnightblue" points="302.763,-279.562 292.373,-281.637 301.789,-286.494 302.763,-279.562"/>
</g>
<!-- Node14 -->
<g id="node15" class="node"><title>Node14</title>
<g id="a_node15"><a xlink:href="classant_1_1expconfig_1_1setup_1_1_setup__2017__05.html" target="_top" xlink:title="Common base class for all Setups of the 2014 Ent Point Tagger beam times. ">
<polygon fill="white" stroke="black" points="363,-235 363,-265 471,-265 471,-235 363,-235"/>
<text text-anchor="start" x="371" y="-253" font-family="Helvetica,sans-Serif" font-size="10.00">ant::expconfig::setup</text>
<text text-anchor="middle" x="417" y="-242" font-family="Helvetica,sans-Serif" font-size="10.00">::Setup_2017_05</text>
</a>
</g>
</g>
<!-- Node1&#45;&gt;Node14 -->
<g id="edge14" class="edge"><title>Node1&#45;&gt;Node14</title>
<path fill="none" stroke="midnightblue" d="M302.55,-265.297C322.36,-262.626 343.922,-259.718 362.877,-257.163"/>
<polygon fill="midnightblue" stroke="midnightblue" points="301.816,-261.864 292.373,-266.669 302.751,-268.801 301.816,-261.864"/>
</g>
<!-- Node15 -->
<g id="node16" class="node"><title>Node15</title>
<g id="a_node16"><a xlink:href="classant_1_1expconfig_1_1setup_1_1_setup__2017_plus___new_tagger___base.html" target="_top" xlink:title="Common base class for all Setups starting end of 2017 using the new Tagger. ">
<polygon fill="white" stroke="black" points="328.5,-186 328.5,-216 505.5,-216 505.5,-186 328.5,-186"/>
<text text-anchor="start" x="336.5" y="-204" font-family="Helvetica,sans-Serif" font-size="10.00">ant::expconfig::setup</text>
<text text-anchor="middle" x="417" y="-193" font-family="Helvetica,sans-Serif" font-size="10.00">::Setup_2017Plus_NewTagger_Base</text>
</a>
</g>
</g>
<!-- Node1&#45;&gt;Node15 -->
<g id="edge15" class="edge"><title>Node1&#45;&gt;Node15</title>
<path fill="none" stroke="midnightblue" d="M262.504,-259.091C280.225,-248.772 304.998,-235.278 328,-226 336.985,-222.376 346.684,-219.06 356.248,-216.11"/>
<polygon fill="midnightblue" stroke="midnightblue" points="260.267,-256.348 253.441,-264.451 263.83,-262.373 260.267,-256.348"/>
</g>
<!-- Node20 -->
<g id="node21" class="node"><title>Node20</title>
<g id="a_node21"><a xlink:href="classant_1_1expconfig_1_1setup_1_1_setup__2018__11.html" target="_top" xlink:title="ant::expconfig::setup\l::Setup_2018_11">
<polygon fill="white" stroke="black" points="363,-137 363,-167 471,-167 471,-137 363,-137"/>
<text text-anchor="start" x="371" y="-155" font-family="Helvetica,sans-Serif" font-size="10.00">ant::expconfig::setup</text>
<text text-anchor="middle" x="417" y="-144" font-family="Helvetica,sans-Serif" font-size="10.00">::Setup_2018_11</text>
</a>
</g>
</g>
<!-- Node1&#45;&gt;Node20 -->
<g id="edge20" class="edge"><title>Node1&#45;&gt;Node20</title>
<path fill="none" stroke="midnightblue" d="M249.964,-256.001C265.433,-234.123 294.408,-197.586 328,-177 338.563,-170.527 350.858,-165.677 362.85,-162.063"/>
<polygon fill="midnightblue" stroke="midnightblue" points="246.976,-254.168 244.188,-264.39 252.742,-258.138 246.976,-254.168"/>
</g>
<!-- Node21 -->
<g id="node22" class="node"><title>Node21</title>
<g id="a_node22"><a xlink:href="classant_1_1expconfig_1_1setup_1_1_setup__2019__01.html" target="_top" xlink:title="ant::expconfig::setup\l::Setup_2019_01">
<polygon fill="white" stroke="black" points="363,-88 363,-118 471,-118 471,-88 363,-88"/>
<text text-anchor="start" x="371" y="-106" font-family="Helvetica,sans-Serif" font-size="10.00">ant::expconfig::setup</text>
<text text-anchor="middle" x="417" y="-95" font-family="Helvetica,sans-Serif" font-size="10.00">::Setup_2019_01</text>
</a>
</g>
</g>
<!-- Node1&#45;&gt;Node21 -->
<g id="edge21" class="edge"><title>Node1&#45;&gt;Node21</title>
<path fill="none" stroke="midnightblue" d="M244.588,-254.747C256.315,-223.386 283.814,-161.422 328,-128 338.133,-120.335 350.527,-115.019 362.779,-111.333"/>
<polygon fill="midnightblue" stroke="midnightblue" points="241.183,-253.873 241.096,-264.467 247.771,-256.239 241.183,-253.873"/>
</g>
<!-- Node22 -->
<g id="node23" class="node"><title>Node22</title>
<g id="a_node23"><a xlink:href="classant_1_1expconfig_1_1setup_1_1_setup___c_b_source_calib.html" target="_top" xlink:title="ant::expconfig::setup\l::Setup_CBSourceCalib">
<polygon fill="white" stroke="black" points="356.5,-39 356.5,-69 477.5,-69 477.5,-39 356.5,-39"/>
<text text-anchor="start" x="364.5" y="-57" font-family="Helvetica,sans-Serif" font-size="10.00">ant::expconfig::setup</text>
<text text-anchor="middle" x="417" y="-46" font-family="Helvetica,sans-Serif" font-size="10.00">::Setup_CBSourceCalib</text>
</a>
</g>
</g>
<!-- Node1&#45;&gt;Node22 -->
<g id="edge22" class="edge"><title>Node1&#45;&gt;Node22</title>
<path fill="none" stroke="midnightblue" d="M241.46,-254.227C249.404,-214.838 272.693,-126.307 328,-79 336.087,-72.0832 345.968,-67.0745 356.151,-63.4488"/>
<polygon fill="midnightblue" stroke="midnightblue" points="238,-253.687 239.576,-264.164 244.878,-254.991 238,-253.687"/>
</g>
<!-- Node23 -->
<g id="node24" class="node"><title>Node23</title>
<g id="a_node24"><a xlink:href="struct_fake_setup.html" target="_top" xlink:title="Empty fake setup that always matches. Used in case no real setup exists. ">
<polygon fill="white" stroke="black" points="385,-0.5 385,-19.5 449,-19.5 449,-0.5 385,-0.5"/>
<text text-anchor="middle" x="417" y="-7.5" font-family="Helvetica,sans-Serif" font-size="10.00">FakeSetup</text>
</a>
</g>
</g>
<!-- Node1&#45;&gt;Node23 -->
<g id="edge23" class="edge"><title>Node1&#45;&gt;Node23</title>
<path fill="none" stroke="midnightblue" d="M239.061,-254.454C242.7,-207.79 258.658,-89.2915 328,-29 343.451,-15.5654 366.132,-10.905 384.598,-9.5569"/>
<polygon fill="midnightblue" stroke="midnightblue" points="235.567,-254.247 238.389,-264.459 242.552,-254.716 235.567,-254.247"/>
</g>
<!-- Node3 -->
<g id="node4" class="node"><title>Node3</title>
<g id="a_node4"><a xlink:href="classant_1_1expconfig_1_1setup_1_1_setup__2007__06.html" target="_top" xlink:title="Ant Setup for the Juni 2007 beam time. ">
<polygon fill="white" stroke="black" points="558,-578 558,-608 666,-608 666,-578 558,-578"/>
<text text-anchor="start" x="566" y="-596" font-family="Helvetica,sans-Serif" font-size="10.00">ant::expconfig::setup</text>
<text text-anchor="middle" x="612" y="-585" font-family="Helvetica,sans-Serif" font-size="10.00">::Setup_2007_06</text>
</a>
</g>
</g>
<!-- Node2&#45;&gt;Node3 -->
<g id="edge3" class="edge"><title>Node2&#45;&gt;Node3</title>
<path fill="none" stroke="midnightblue" d="M480.958,-559.984C505.835,-566.3 534.109,-573.479 557.925,-579.525"/>
<polygon fill="midnightblue" stroke="midnightblue" points="481.803,-556.588 471.249,-557.519 480.08,-563.372 481.803,-556.588"/>
</g>
<!-- Node4 -->
<g id="node5" class="node"><title>Node4</title>
<g id="a_node5"><a xlink:href="classant_1_1expconfig_1_1setup_1_1_setup__2007__07.html" target="_top" xlink:title="Ant Setup for the July 2007 beam time. ">
<polygon fill="white" stroke="black" points="558,-529 558,-559 666,-559 666,-529 558,-529"/>
<text text-anchor="start" x="566" y="-547" font-family="Helvetica,sans-Serif" font-size="10.00">ant::expconfig::setup</text>
<text text-anchor="middle" x="612" y="-536" font-family="Helvetica,sans-Serif" font-size="10.00">::Setup_2007_07</text>
</a>
</g>
</g>
<!-- Node2&#45;&gt;Node4 -->
<g id="edge4" class="edge"><title>Node2&#45;&gt;Node4</title>
<path fill="none" stroke="midnightblue" d="M481.288,-544C506.085,-544 534.215,-544 557.925,-544"/>
<polygon fill="midnightblue" stroke="midnightblue" points="481.249,-540.5 471.249,-544 481.249,-547.5 481.249,-540.5"/>
</g>
<!-- Node6 -->
<g id="node7" class="node"><title>Node6</title>
<g id="a_node7"><a xlink:href="classant_1_1expconfig_1_1setup_1_1_setup__2010__09___compton.html" target="_top" xlink:title="Ant Setup for the September 2010 beam time. ">
<polygon fill="white" stroke="black" points="544.5,-480 544.5,-510 679.5,-510 679.5,-480 544.5,-480"/>
<text text-anchor="start" x="552.5" y="-498" font-family="Helvetica,sans-Serif" font-size="10.00">ant::expconfig::setup</text>
<text text-anchor="middle" x="612" y="-487" font-family="Helvetica,sans-Serif" font-size="10.00">::Setup_2010_09_Compton</text>
</a>
</g>
</g>
<!-- Node5&#45;&gt;Node6 -->
<g id="edge6" class="edge"><title>Node5&#45;&gt;Node6</title>
<path fill="none" stroke="midnightblue" d="M486.202,-495C505.133,-495 525.658,-495 544.491,-495"/>
<polygon fill="midnightblue" stroke="midnightblue" points="486.168,-491.5 476.168,-495 486.168,-498.5 486.168,-491.5"/>
</g>
<!-- Node9 -->
<g id="node10" class="node"><title>Node9</title>
<g id="a_node10"><a xlink:href="classant_1_1expconfig_1_1setup_1_1_setup__2014__07___e_p_t___prod.html" target="_top" xlink:title="Ant Setup for the July 2014 End Point Tagger beam time. ">
<polygon fill="white" stroke="black" points="542,-431 542,-461 682,-461 682,-431 542,-431"/>
<text text-anchor="start" x="550" y="-449" font-family="Helvetica,sans-Serif" font-size="10.00">ant::expconfig::setup</text>
<text text-anchor="middle" x="612" y="-438" font-family="Helvetica,sans-Serif" font-size="10.00">::Setup_2014_07_EPT_Prod</text>
</a>
</g>
</g>
<!-- Node8&#45;&gt;Node9 -->
<g id="edge9" class="edge"><title>Node8&#45;&gt;Node9</title>
<path fill="none" stroke="midnightblue" d="M481.138,-413.03C503.874,-418.802 529.428,-425.29 551.815,-430.974"/>
<polygon fill="midnightblue" stroke="midnightblue" points="481.803,-409.588 471.249,-410.519 480.08,-416.372 481.803,-409.588"/>
</g>
<!-- Node10 -->
<g id="node11" class="node"><title>Node10</title>
<g id="a_node11"><a xlink:href="classant_1_1expconfig_1_1setup_1_1_setup__2014__10___e_p_t___prod.html" target="_top" xlink:title="Ant Setup for the October 2014 End Point Tagger beam time. ">
<polygon fill="white" stroke="black" points="542,-382 542,-412 682,-412 682,-382 542,-382"/>
<text text-anchor="start" x="550" y="-400" font-family="Helvetica,sans-Serif" font-size="10.00">ant::expconfig::setup</text>
<text text-anchor="middle" x="612" y="-389" font-family="Helvetica,sans-Serif" font-size="10.00">::Setup_2014_10_EPT_Prod</text>
</a>
</g>
</g>
<!-- Node8&#45;&gt;Node10 -->
<g id="edge10" class="edge"><title>Node8&#45;&gt;Node10</title>
<path fill="none" stroke="midnightblue" d="M481.482,-397C500.865,-397 522.269,-397 542,-397"/>
<polygon fill="midnightblue" stroke="midnightblue" points="481.249,-393.5 471.249,-397 481.249,-400.5 481.249,-393.5"/>
</g>
<!-- Node11 -->
<g id="node12" class="node"><title>Node11</title>
<g id="a_node12"><a xlink:href="classant_1_1expconfig_1_1setup_1_1_setup__2014__12___e_p_t___prod.html" target="_top" xlink:title="Ant Setup for the December 2014 End Point Tagger beam time. ">
<polygon fill="white" stroke="black" points="542,-333 542,-363 682,-363 682,-333 542,-333"/>
<text text-anchor="start" x="550" y="-351" font-family="Helvetica,sans-Serif" font-size="10.00">ant::expconfig::setup</text>
<text text-anchor="middle" x="612" y="-340" font-family="Helvetica,sans-Serif" font-size="10.00">::Setup_2014_12_EPT_Prod</text>
</a>
</g>
</g>
<!-- Node8&#45;&gt;Node11 -->
<g id="edge11" class="edge"><title>Node8&#45;&gt;Node11</title>
<path fill="none" stroke="midnightblue" d="M481.138,-380.97C503.874,-375.198 529.428,-368.71 551.815,-363.026"/>
<polygon fill="midnightblue" stroke="midnightblue" points="480.08,-377.628 471.249,-383.481 481.803,-384.412 480.08,-377.628"/>
</g>
<!-- Node16 -->
<g id="node17" class="node"><title>Node16</title>
<g id="a_node17"><a xlink:href="classant_1_1expconfig_1_1setup_1_1_setup__2017__12.html" target="_top" xlink:title="Ant Setup for the December 2017 beamtime using the new Tagger. ">
<polygon fill="white" stroke="black" points="558,-259 558,-289 666,-289 666,-259 558,-259"/>
<text text-anchor="start" x="566" y="-277" font-family="Helvetica,sans-Serif" font-size="10.00">ant::expconfig::setup</text>
<text text-anchor="middle" x="612" y="-266" font-family="Helvetica,sans-Serif" font-size="10.00">::Setup_2017_12</text>
</a>
</g>
</g>
<!-- Node15&#45;&gt;Node16 -->
<g id="edge16" class="edge"><title>Node15&#45;&gt;Node16</title>
<path fill="none" stroke="midnightblue" d="M489.476,-219.373C495.14,-221.412 500.711,-223.621 506,-226 523.316,-233.788 524.971,-240.604 542,-249 549.314,-252.606 557.283,-255.971 565.123,-258.991"/>
<polygon fill="midnightblue" stroke="midnightblue" points="490.482,-216.019 479.888,-216.102 488.222,-222.644 490.482,-216.019"/>
</g>
<!-- Node17 -->
<g id="node18" class="node"><title>Node17</title>
<g id="a_node18"><a xlink:href="classant_1_1expconfig_1_1setup_1_1_setup__2018__03.html" target="_top" xlink:title="Ant Setup for the March 2018 beamtime using the new Tagger. ">
<polygon fill="white" stroke="black" points="558,-210 558,-240 666,-240 666,-210 558,-210"/>
<text text-anchor="start" x="566" y="-228" font-family="Helvetica,sans-Serif" font-size="10.00">ant::expconfig::setup</text>
<text text-anchor="middle" x="612" y="-217" font-family="Helvetica,sans-Serif" font-size="10.00">::Setup_2018_03</text>
</a>
</g>
</g>
<!-- Node15&#45;&gt;Node17 -->
<g id="edge17" class="edge"><title>Node15&#45;&gt;Node17</title>
<path fill="none" stroke="midnightblue" d="M515.799,-213.162C530.333,-214.969 544.829,-216.771 557.965,-218.405"/>
<polygon fill="midnightblue" stroke="midnightblue" points="516.102,-209.672 505.747,-211.911 515.238,-216.619 516.102,-209.672"/>
</g>
<!-- Node18 -->
<g id="node19" class="node"><title>Node18</title>
<g id="a_node19"><a xlink:href="classant_1_1expconfig_1_1setup_1_1_setup__2018__05.html" target="_top" xlink:title="Ant Setup for the May 2018 beamtime using the new Tagger. ">
<polygon fill="white" stroke="black" points="558,-161 558,-191 666,-191 666,-161 558,-161"/>
<text text-anchor="start" x="566" y="-179" font-family="Helvetica,sans-Serif" font-size="10.00">ant::expconfig::setup</text>
<text text-anchor="middle" x="612" y="-168" font-family="Helvetica,sans-Serif" font-size="10.00">::Setup_2018_05</text>
</a>
</g>
</g>
<!-- Node15&#45;&gt;Node18 -->
<g id="edge18" class="edge"><title>Node15&#45;&gt;Node18</title>
<path fill="none" stroke="midnightblue" d="M515.799,-188.332C530.333,-186.449 544.829,-184.571 557.965,-182.87"/>
<polygon fill="midnightblue" stroke="midnightblue" points="515.214,-184.878 505.747,-189.634 516.113,-191.82 515.214,-184.878"/>
</g>
<!-- Node19 -->
<g id="node20" class="node"><title>Node19</title>
<g id="a_node20"><a xlink:href="classant_1_1expconfig_1_1setup_1_1_setup__2018__09.html" target="_top" xlink:title="Ant Setup for the Septmeber 2018 beamtime using the new Tagger. ">
<polygon fill="white" stroke="black" points="558,-112 558,-142 666,-142 666,-112 558,-112"/>
<text text-anchor="start" x="566" y="-130" font-family="Helvetica,sans-Serif" font-size="10.00">ant::expconfig::setup</text>
<text text-anchor="middle" x="612" y="-119" font-family="Helvetica,sans-Serif" font-size="10.00">::Setup_2018_09</text>
</a>
</g>
</g>
<!-- Node15&#45;&gt;Node19 -->
<g id="edge19" class="edge"><title>Node15&#45;&gt;Node19</title>
<path fill="none" stroke="midnightblue" d="M490.231,-182.482C495.641,-180.489 500.953,-178.329 506,-176 523.46,-167.942 524.836,-160.671 542,-152 549.165,-148.38 556.982,-145.028 564.696,-142.031"/>
<polygon fill="midnightblue" stroke="midnightblue" points="488.72,-179.302 480.423,-185.89 491.018,-185.914 488.72,-179.302"/>
</g>
</g>
</svg>
