<?xml version="1.0" encoding="UTF-8" standalone="no"?>
<!DOCTYPE svg PUBLIC "-//W3C//DTD SVG 1.1//EN"
 "http://www.w3.org/Graphics/SVG/1.1/DTD/svg11.dtd">
<!-- Generated by graphviz version 2.36.0 (20140111.2315)
 -->
<!-- Title: ant::expconfig::Setup Pages: 1 -->
<svg width="690pt" height="617pt"
 viewBox="0.00 0.00 690.00 617.00" xmlns="http://www.w3.org/2000/svg" xmlns:xlink="http://www.w3.org/1999/xlink">
<g id="graph0" class="graph" transform="scale(1 1) rotate(0) translate(4 613)">
<title>ant::expconfig::Setup</title>
<polygon fill="white" stroke="none" points="-4,4 -4,-613 686,-613 686,4 -4,4"/>
<!-- Node0 -->
<g id="node1" class="node"><title>Node0</title>
<polygon fill="#bfbfbf" stroke="black" points="182,-264.5 182,-283.5 292,-283.5 292,-264.5 182,-264.5"/>
<text text-anchor="middle" x="237" y="-271.5" font-family="Helvetica,sans-Serif" font-size="10.00">ant::expconfig::Setup</text>
</g>
<!-- Node4 -->
<g id="node5" class="node"><title>Node4</title>
<g id="a_node5"><a xlink:href="classant_1_1expconfig_1_1setup_1_1_setup__2007___base.html" target="_top" xlink:title="Common base class for all Setups of the 2014 Ent Point Tagger beam times. ">
<polygon fill="white" stroke="black" points="363,-529 363,-559 471,-559 471,-529 363,-529"/>
<text text-anchor="start" x="371" y="-547" font-family="Helvetica,sans-Serif" font-size="10.00">ant::expconfig::setup</text>
<text text-anchor="middle" x="417" y="-536" font-family="Helvetica,sans-Serif" font-size="10.00">::Setup_2007_Base</text>
</a>
</g>
</g>
<!-- Node0&#45;&gt;Node4 -->
<g id="edge4" class="edge"><title>Node0&#45;&gt;Node4</title>
<path fill="none" stroke="midnightblue" d="M239.373,-293.871C243.67,-340.325 260.923,-456.79 328,-519 337.665,-527.964 350.314,-533.743 362.995,-537.461"/>
<polygon fill="midnightblue" stroke="midnightblue" points="242.84,-293.327 238.537,-283.645 235.863,-293.897 242.84,-293.327"/>
</g>
<!-- Node7 -->
<g id="node8" class="node"><title>Node7</title>
<g id="a_node8"><a xlink:href="classant_1_1expconfig_1_1setup_1_1_setup__2010__03___base.html" target="_top" xlink:title="ant::expconfig::setup\l::Setup_2010_03_Base">
<polygon fill="white" stroke="black" points="358,-480 358,-510 476,-510 476,-480 358,-480"/>
<text text-anchor="start" x="366" y="-498" font-family="Helvetica,sans-Serif" font-size="10.00">ant::expconfig::setup</text>
<text text-anchor="middle" x="417" y="-487" font-family="Helvetica,sans-Serif" font-size="10.00">::Setup_2010_03_Base</text>
</a>
</g>
</g>
<!-- Node0&#45;&gt;Node7 -->
<g id="edge7" class="edge"><title>Node0&#45;&gt;Node7</title>
<path fill="none" stroke="midnightblue" d="M241.428,-293.872C249.314,-333.46 272.505,-422.439 328,-470 336.562,-477.338 347.144,-482.529 357.966,-486.199"/>
<polygon fill="midnightblue" stroke="midnightblue" points="244.839,-293.071 239.56,-283.885 237.959,-294.358 244.839,-293.071"/>
</g>
<!-- Node9 -->
<g id="node10" class="node"><title>Node9</title>
<g id="a_node10"><a xlink:href="classant_1_1expconfig_1_1setup_1_1_setup__2012__12___compton.html" target="_top" xlink:title="ant::expconfig::setup\l::Setup_2012_12_Compton">
<polygon fill="white" stroke="black" points="349.5,-431 349.5,-461 484.5,-461 484.5,-431 349.5,-431"/>
<text text-anchor="start" x="357.5" y="-449" font-family="Helvetica,sans-Serif" font-size="10.00">ant::expconfig::setup</text>
<text text-anchor="middle" x="417" y="-438" font-family="Helvetica,sans-Serif" font-size="10.00">::Setup_2012_12_Compton</text>
</a>
</g>
</g>
<!-- Node0&#45;&gt;Node9 -->
<g id="edge9" class="edge"><title>Node0&#45;&gt;Node9</title>
<path fill="none" stroke="midnightblue" d="M244.55,-293.384C256.223,-324.958 283.646,-387.344 328,-421 334.453,-425.896 341.827,-429.834 349.499,-433"/>
<polygon fill="midnightblue" stroke="midnightblue" points="247.72,-291.851 241.076,-283.598 241.123,-294.192 247.72,-291.851"/>
</g>
<!-- Node10 -->
<g id="node11" class="node"><title>Node10</title>
<g id="a_node11"><a xlink:href="classant_1_1expconfig_1_1setup_1_1_setup__2014___e_p_t.html" target="_top" xlink:title="Common base class for all Setups of the 2014 Ent Point Tagger beam times. ">
<polygon fill="white" stroke="black" points="363,-382 363,-412 471,-412 471,-382 363,-382"/>
<text text-anchor="start" x="371" y="-400" font-family="Helvetica,sans-Serif" font-size="10.00">ant::expconfig::setup</text>
<text text-anchor="middle" x="417" y="-389" font-family="Helvetica,sans-Serif" font-size="10.00">::Setup_2014_EPT</text>
</a>
</g>
</g>
<!-- Node0&#45;&gt;Node10 -->
<g id="edge10" class="edge"><title>Node0&#45;&gt;Node10</title>
<path fill="none" stroke="midnightblue" d="M249.92,-292.189C265.345,-314.296 294.275,-351.213 328,-372 338.546,-378.5 350.835,-383.36 362.826,-386.976"/>
<polygon fill="midnightblue" stroke="midnightblue" points="252.676,-290.017 244.162,-283.712 246.886,-293.95 252.676,-290.017"/>
</g>
<!-- Node14 -->
<g id="node15" class="node"><title>Node14</title>
<g id="a_node15"><a xlink:href="classant_1_1expconfig_1_1setup_1_1_setup__2015__01___pion.html" target="_top" xlink:title="Ant Setup for Rare Pion Test Beamtime in January 2015 &amp; MC studies. ">
<polygon fill="white" stroke="black" points="359.5,-333 359.5,-363 474.5,-363 474.5,-333 359.5,-333"/>
<text text-anchor="start" x="367.5" y="-351" font-family="Helvetica,sans-Serif" font-size="10.00">ant::expconfig::setup</text>
<text text-anchor="middle" x="417" y="-340" font-family="Helvetica,sans-Serif" font-size="10.00">::Setup_2015_01_Pion</text>
</a>
</g>
</g>
<!-- Node0&#45;&gt;Node14 -->
<g id="edge14" class="edge"><title>Node0&#45;&gt;Node14</title>
<path fill="none" stroke="midnightblue" d="M261.654,-288.768C279.404,-299.376 304.577,-313.435 328,-323 337.851,-327.023 348.574,-330.652 359.037,-333.819"/>
<polygon fill="midnightblue" stroke="midnightblue" points="263.462,-285.771 253.097,-283.577 259.831,-291.756 263.462,-285.771"/>
</g>
<!-- Node15 -->
<g id="node16" class="node"><title>Node15</title>
<g id="a_node16"><a xlink:href="classant_1_1expconfig_1_1setup_1_1_setup__2017__03.html" target="_top" xlink:title="Common base class for all Setups of the 2014 Ent Point Tagger beam times. ">
<polygon fill="white" stroke="black" points="363,-284 363,-314 471,-314 471,-284 363,-284"/>
<text text-anchor="start" x="371" y="-302" font-family="Helvetica,sans-Serif" font-size="10.00">ant::expconfig::setup</text>
<text text-anchor="middle" x="417" y="-291" font-family="Helvetica,sans-Serif" font-size="10.00">::Setup_2017_03</text>
</a>
</g>
</g>
<!-- Node0&#45;&gt;Node15 -->
<g id="edge15" class="edge"><title>Node0&#45;&gt;Node15</title>
<path fill="none" stroke="midnightblue" d="M302.277,-283.028C322.162,-285.82 343.835,-288.864 362.877,-291.539"/>
<polygon fill="midnightblue" stroke="midnightblue" points="302.763,-279.562 292.373,-281.637 301.789,-286.494 302.763,-279.562"/>
</g>
<!-- Node16 -->
<g id="node17" class="node"><title>Node16</title>
<g id="a_node17"><a xlink:href="classant_1_1expconfig_1_1setup_1_1_setup__2017__05.html" target="_top" xlink:title="Common base class for all Setups of the 2014 Ent Point Tagger beam times. ">
<polygon fill="white" stroke="black" points="363,-235 363,-265 471,-265 471,-235 363,-235"/>
<text text-anchor="start" x="371" y="-253" font-family="Helvetica,sans-Serif" font-size="10.00">ant::expconfig::setup</text>
<text text-anchor="middle" x="417" y="-242" font-family="Helvetica,sans-Serif" font-size="10.00">::Setup_2017_05</text>
</a>
</g>
</g>
<!-- Node0&#45;&gt;Node16 -->
<g id="edge16" class="edge"><title>Node0&#45;&gt;Node16</title>
<path fill="none" stroke="midnightblue" d="M302.55,-265.297C322.36,-262.626 343.922,-259.718 362.877,-257.163"/>
<polygon fill="midnightblue" stroke="midnightblue" points="301.816,-261.864 292.373,-266.669 302.751,-268.801 301.816,-261.864"/>
</g>
<!-- Node17 -->
<g id="node18" class="node"><title>Node17</title>
<g id="a_node18"><a xlink:href="classant_1_1expconfig_1_1setup_1_1_setup__2017_plus___new_tagger___base.html" target="_top" xlink:title="Common base class for all Setups starting end of 2017 using the new Tagger. ">
<polygon fill="white" stroke="black" points="328.5,-186 328.5,-216 505.5,-216 505.5,-186 328.5,-186"/>
<text text-anchor="start" x="336.5" y="-204" font-family="Helvetica,sans-Serif" font-size="10.00">ant::expconfig::setup</text>
<text text-anchor="middle" x="417" y="-193" font-family="Helvetica,sans-Serif" font-size="10.00">::Setup_2017Plus_NewTagger_Base</text>
</a>
</g>
</g>
<!-- Node0&#45;&gt;Node17 -->
<g id="edge17" class="edge"><title>Node0&#45;&gt;Node17</title>
<path fill="none" stroke="midnightblue" d="M261.624,-259.159C279.36,-248.514 304.527,-234.441 328,-225 336.081,-221.75 344.751,-218.789 353.385,-216.142"/>
<polygon fill="midnightblue" stroke="midnightblue" points="259.792,-256.177 253.075,-264.371 263.436,-262.154 259.792,-256.177"/>
</g>
<!-- Node22 -->
<g id="node23" class="node"><title>Node22</title>
<g id="a_node23"><a xlink:href="classant_1_1expconfig_1_1setup_1_1_setup__2018__11.html" target="_top" xlink:title="ant::expconfig::setup\l::Setup_2018_11">
<polygon fill="white" stroke="black" points="363,-137 363,-167 471,-167 471,-137 363,-137"/>
<text text-anchor="start" x="371" y="-155" font-family="Helvetica,sans-Serif" font-size="10.00">ant::expconfig::setup</text>
<text text-anchor="middle" x="417" y="-144" font-family="Helvetica,sans-Serif" font-size="10.00">::Setup_2018_11</text>
</a>
</g>
</g>
<!-- Node0&#45;&gt;Node22 -->
<g id="edge22" class="edge"><title>Node0&#45;&gt;Node22</title>
<path fill="none" stroke="midnightblue" d="M249.885,-255.753C265.273,-233.587 294.166,-196.609 328,-176 338.549,-169.575 350.839,-164.837 362.83,-161.354"/>
<polygon fill="midnightblue" stroke="midnightblue" points="246.839,-254.009 244.142,-264.255 252.64,-257.927 246.839,-254.009"/>
</g>
<!-- Node23 -->
<g id="node24" class="node"><title>Node23</title>
<g id="a_node24"><a xlink:href="classant_1_1expconfig_1_1setup_1_1_setup__2019__01.html" target="_top" xlink:title="ant::expconfig::setup\l::Setup_2019_01">
<polygon fill="white" stroke="black" points="363,-88 363,-118 471,-118 471,-88 363,-88"/>
<text text-anchor="start" x="371" y="-106" font-family="Helvetica,sans-Serif" font-size="10.00">ant::expconfig::setup</text>
<text text-anchor="middle" x="417" y="-95" font-family="Helvetica,sans-Serif" font-size="10.00">::Setup_2019_01</text>
</a>
</g>
</g>
<!-- Node0&#45;&gt;Node23 -->
<g id="edge23" class="edge"><title>Node0&#45;&gt;Node23</title>
<path fill="none" stroke="midnightblue" d="M244.511,-254.564C256.127,-222.914 283.469,-160.422 328,-127 338.132,-119.395 350.526,-114.2 362.777,-110.651"/>
<polygon fill="midnightblue" stroke="midnightblue" points="241.076,-253.78 241.055,-264.375 247.679,-256.105 241.076,-253.78"/>
</g>
<!-- Node24 -->
<g id="node25" class="node"><title>Node24</title>
<g id="a_node25"><a xlink:href="classant_1_1expconfig_1_1setup_1_1_setup___c_b_source_calib.html" target="_top" xlink:title="ant::expconfig::setup\l::Setup_CBSourceCalib">
<polygon fill="white" stroke="black" points="356.5,-39 356.5,-69 477.5,-69 477.5,-39 356.5,-39"/>
<text text-anchor="start" x="364.5" y="-57" font-family="Helvetica,sans-Serif" font-size="10.00">ant::expconfig::setup</text>
<text text-anchor="middle" x="417" y="-46" font-family="Helvetica,sans-Serif" font-size="10.00">::Setup_CBSourceCalib</text>
</a>
</g>
</g>
<!-- Node0&#45;&gt;Node24 -->
<g id="edge24" class="edge"><title>Node0&#45;&gt;Node24</title>
<path fill="none" stroke="midnightblue" d="M241.386,-254.078C249.196,-214.401 272.255,-125.268 328,-78 336.092,-71.1382 345.977,-66.2242 356.161,-62.7085"/>
<polygon fill="midnightblue" stroke="midnightblue" points="237.912,-253.619 239.537,-264.089 244.795,-254.891 237.912,-253.619"/>
</g>
<!-- Node25 -->
<g id="node26" class="node"><title>Node25</title>
<g id="a_node26"><a xlink:href="struct_fake_setup.html" target="_top" xlink:title="Empty fake setup that always matches. Used in case no real setup exists. ">
<polygon fill="white" stroke="black" points="385,-0.5 385,-19.5 449,-19.5 449,-0.5 385,-0.5"/>
<text text-anchor="middle" x="417" y="-7.5" font-family="Helvetica,sans-Serif" font-size="10.00">FakeSetup</text>
</a>
</g>
</g>
<!-- Node0&#45;&gt;Node25 -->
<g id="edge25" class="edge"><title>Node0&#45;&gt;Node25</title>
<path fill="none" stroke="midnightblue" d="M239.061,-254.454C242.7,-207.79 258.658,-89.2915 328,-29 343.451,-15.5654 366.132,-10.905 384.598,-9.5569"/>
<polygon fill="midnightblue" stroke="midnightblue" points="235.567,-254.247 238.389,-264.459 242.552,-254.716 235.567,-254.247"/>
</g>
<!-- Node1 -->
<g id="node2" class="node"><title>Node1</title>
<g id="a_node2"><a xlink:href="classant_1_1expconfig_1_1_setup__traits.html" target="_top" xlink:title="The Setup_traits class is the interface to the &quot;static&quot; experimental information. ...">
<polygon fill="white" stroke="black" points="18,-303 18,-333 128,-333 128,-303 18,-303"/>
<text text-anchor="start" x="26" y="-321" font-family="Helvetica,sans-Serif" font-size="10.00">ant::expconfig::Setup</text>
<text text-anchor="middle" x="73" y="-310" font-family="Helvetica,sans-Serif" font-size="10.00">_traits</text>
</a>
</g>
</g>
<!-- Node1&#45;&gt;Node0 -->
<g id="edge1" class="edge"><title>Node1&#45;&gt;Node0</title>
<path fill="none" stroke="midnightblue" d="M138.078,-300.596C159.455,-294.79 182.479,-288.537 200.827,-283.553"/>
<polygon fill="midnightblue" stroke="midnightblue" points="137.127,-297.227 128.394,-303.226 138.962,-303.983 137.127,-297.227"/>
</g>
<!-- Node2 -->
<g id="node3" class="node"><title>Node2</title>
<g id="a_node3"><a xlink:href="classant_1_1_unpacker_acqu_config.html" target="_top" xlink:title="ant::UnpackerAcquConfig">
<polygon fill="white" stroke="black" points="8.5,-264.5 8.5,-283.5 137.5,-283.5 137.5,-264.5 8.5,-264.5"/>
<text text-anchor="middle" x="73" y="-271.5" font-family="Helvetica,sans-Serif" font-size="10.00">ant::UnpackerAcquConfig</text>
</a>
</g>
</g>
<!-- Node2&#45;&gt;Node0 -->
<g id="edge2" class="edge"><title>Node2&#45;&gt;Node0</title>
<path fill="none" stroke="midnightblue" d="M147.602,-274C159.113,-274 170.824,-274 181.797,-274"/>
<polygon fill="midnightblue" stroke="midnightblue" points="147.562,-270.5 137.562,-274 147.562,-277.5 147.562,-270.5"/>
</g>
<!-- Node3 -->
<g id="node4" class="node"><title>Node3</title>
<g id="a_node4"><a xlink:href="classant_1_1_unpacker_a2_geant_config.html" target="_top" xlink:title="The UnpackerA2GeantConfig class provides stuff the A2Geant unpacker needs. ">
<polygon fill="white" stroke="black" points="0.5,-226.5 0.5,-245.5 145.5,-245.5 145.5,-226.5 0.5,-226.5"/>
<text text-anchor="middle" x="73" y="-233.5" font-family="Helvetica,sans-Serif" font-size="10.00">ant::UnpackerA2GeantConfig</text>
</a>
</g>
</g>
<!-- Node3&#45;&gt;Node0 -->
<g id="edge3" class="edge"><title>Node3&#45;&gt;Node0</title>
<path fill="none" stroke="midnightblue" d="M124.715,-247.896C147.486,-253.237 173.987,-259.454 195.415,-264.48"/>
<polygon fill="midnightblue" stroke="midnightblue" points="125.415,-244.465 114.879,-245.589 123.816,-251.28 125.415,-244.465"/>
</g>
<!-- Node5 -->
<g id="node6" class="node"><title>Node5</title>
<g id="a_node6"><a xlink:href="classant_1_1expconfig_1_1setup_1_1_setup__2007__06.html" target="_top" xlink:title="Ant Setup for the Juni 2007 beam time. ">
<polygon fill="white" stroke="black" points="558,-578 558,-608 666,-608 666,-578 558,-578"/>
<text text-anchor="start" x="566" y="-596" font-family="Helvetica,sans-Serif" font-size="10.00">ant::expconfig::setup</text>
<text text-anchor="middle" x="612" y="-585" font-family="Helvetica,sans-Serif" font-size="10.00">::Setup_2007_06</text>
</a>
</g>
</g>
<!-- Node4&#45;&gt;Node5 -->
<g id="edge5" class="edge"><title>Node4&#45;&gt;Node5</title>
<path fill="none" stroke="midnightblue" d="M480.958,-559.984C505.835,-566.3 534.109,-573.479 557.925,-579.525"/>
<polygon fill="midnightblue" stroke="midnightblue" points="481.803,-556.588 471.249,-557.519 480.08,-563.372 481.803,-556.588"/>
</g>
<!-- Node6 -->
<g id="node7" class="node"><title>Node6</title>
<g id="a_node7"><a xlink:href="classant_1_1expconfig_1_1setup_1_1_setup__2007__07.html" target="_top" xlink:title="Ant Setup for the July 2007 beam time. ">
<polygon fill="white" stroke="black" points="558,-529 558,-559 666,-559 666,-529 558,-529"/>
<text text-anchor="start" x="566" y="-547" font-family="Helvetica,sans-Serif" font-size="10.00">ant::expconfig::setup</text>
<text text-anchor="middle" x="612" y="-536" font-family="Helvetica,sans-Serif" font-size="10.00">::Setup_2007_07</text>
</a>
</g>
</g>
<!-- Node4&#45;&gt;Node6 -->
<g id="edge6" class="edge"><title>Node4&#45;&gt;Node6</title>
<path fill="none" stroke="midnightblue" d="M481.288,-544C506.085,-544 534.215,-544 557.925,-544"/>
<polygon fill="midnightblue" stroke="midnightblue" points="481.249,-540.5 471.249,-544 481.249,-547.5 481.249,-540.5"/>
</g>
<!-- Node8 -->
<g id="node9" class="node"><title>Node8</title>
<g id="a_node9"><a xlink:href="classant_1_1expconfig_1_1setup_1_1_setup__2010__09___compton.html" target="_top" xlink:title="Ant Setup for the September 2010 beam time. ">
<polygon fill="white" stroke="black" points="544.5,-480 544.5,-510 679.5,-510 679.5,-480 544.5,-480"/>
<text text-anchor="start" x="552.5" y="-498" font-family="Helvetica,sans-Serif" font-size="10.00">ant::expconfig::setup</text>
<text text-anchor="middle" x="612" y="-487" font-family="Helvetica,sans-Serif" font-size="10.00">::Setup_2010_09_Compton</text>
</a>
</g>
</g>
<!-- Node7&#45;&gt;Node8 -->
<g id="edge8" class="edge"><title>Node7&#45;&gt;Node8</title>
<path fill="none" stroke="midnightblue" d="M486.202,-495C505.133,-495 525.658,-495 544.491,-495"/>
<polygon fill="midnightblue" stroke="midnightblue" points="486.168,-491.5 476.168,-495 486.168,-498.5 486.168,-491.5"/>
</g>
<!-- Node11 -->
<g id="node12" class="node"><title>Node11</title>
<g id="a_node12"><a xlink:href="classant_1_1expconfig_1_1setup_1_1_setup__2014__07___e_p_t___prod.html" target="_top" xlink:title="Ant Setup for the July 2014 End Point Tagger beam time. ">
<polygon fill="white" stroke="black" points="542,-431 542,-461 682,-461 682,-431 542,-431"/>
<text text-anchor="start" x="550" y="-449" font-family="Helvetica,sans-Serif" font-size="10.00">ant::expconfig::setup</text>
<text text-anchor="middle" x="612" y="-438" font-family="Helvetica,sans-Serif" font-size="10.00">::Setup_2014_07_EPT_Prod</text>
</a>
</g>
</g>
<!-- Node10&#45;&gt;Node11 -->
<g id="edge11" class="edge"><title>Node10&#45;&gt;Node11</title>
<path fill="none" stroke="midnightblue" d="M481.138,-413.03C503.874,-418.802 529.428,-425.29 551.815,-430.974"/>
<polygon fill="midnightblue" stroke="midnightblue" points="481.803,-409.588 471.249,-410.519 480.08,-416.372 481.803,-409.588"/>
</g>
<!-- Node12 -->
<g id="node13" class="node"><title>Node12</title>
<g id="a_node13"><a xlink:href="classant_1_1expconfig_1_1setup_1_1_setup__2014__10___e_p_t___prod.html" target="_top" xlink:title="Ant Setup for the October 2014 End Point Tagger beam time. ">
<polygon fill="white" stroke="black" points="542,-382 542,-412 682,-412 682,-382 542,-382"/>
<text text-anchor="start" x="550" y="-400" font-family="Helvetica,sans-Serif" font-size="10.00">ant::expconfig::setup</text>
<text text-anchor="middle" x="612" y="-389" font-family="Helvetica,sans-Serif" font-size="10.00">::Setup_2014_10_EPT_Prod</text>
</a>
</g>
</g>
<!-- Node10&#45;&gt;Node12 -->
<g id="edge12" class="edge"><title>Node10&#45;&gt;Node12</title>
<path fill="none" stroke="midnightblue" d="M481.482,-397C500.865,-397 522.269,-397 542,-397"/>
<polygon fill="midnightblue" stroke="midnightblue" points="481.249,-393.5 471.249,-397 481.249,-400.5 481.249,-393.5"/>
</g>
<!-- Node13 -->
<g id="node14" class="node"><title>Node13</title>
<g id="a_node14"><a xlink:href="classant_1_1expconfig_1_1setup_1_1_setup__2014__12___e_p_t___prod.html" target="_top" xlink:title="Ant Setup for the December 2014 End Point Tagger beam time. ">
<polygon fill="white" stroke="black" points="542,-333 542,-363 682,-363 682,-333 542,-333"/>
<text text-anchor="start" x="550" y="-351" font-family="Helvetica,sans-Serif" font-size="10.00">ant::expconfig::setup</text>
<text text-anchor="middle" x="612" y="-340" font-family="Helvetica,sans-Serif" font-size="10.00">::Setup_2014_12_EPT_Prod</text>
</a>
</g>
</g>
<!-- Node10&#45;&gt;Node13 -->
<g id="edge13" class="edge"><title>Node10&#45;&gt;Node13</title>
<path fill="none" stroke="midnightblue" d="M481.138,-380.97C503.874,-375.198 529.428,-368.71 551.815,-363.026"/>
<polygon fill="midnightblue" stroke="midnightblue" points="480.08,-377.628 471.249,-383.481 481.803,-384.412 480.08,-377.628"/>
</g>
<!-- Node18 -->
<g id="node19" class="node"><title>Node18</title>
<g id="a_node19"><a xlink:href="classant_1_1expconfig_1_1setup_1_1_setup__2017__12.html" target="_top" xlink:title="Ant Setup for the December 2017 beamtime using the new Tagger. ">
<polygon fill="white" stroke="black" points="558,-260 558,-290 666,-290 666,-260 558,-260"/>
<text text-anchor="start" x="566" y="-278" font-family="Helvetica,sans-Serif" font-size="10.00">ant::expconfig::setup</text>
<text text-anchor="middle" x="612" y="-267" font-family="Helvetica,sans-Serif" font-size="10.00">::Setup_2017_12</text>
</a>
</g>
</g>
<!-- Node17&#45;&gt;Node18 -->
<g id="edge18" class="edge"><title>Node17&#45;&gt;Node18</title>
<path fill="none" stroke="midnightblue" d="M492.736,-219.445C497.284,-221.162 501.74,-223.012 506,-225 523.652,-233.238 524.697,-241.051 542,-250 549.017,-253.629 556.682,-256.966 564.27,-259.941"/>
<polygon fill="midnightblue" stroke="midnightblue" points="493.897,-216.144 483.302,-216.107 491.562,-222.743 493.897,-216.144"/>
</g>
<!-- Node19 -->
<g id="node20" class="node"><title>Node19</title>
<g id="a_node20"><a xlink:href="classant_1_1expconfig_1_1setup_1_1_setup__2018__03.html" target="_top" xlink:title="Ant Setup for the March 2018 beamtime using the new Tagger. ">
<polygon fill="white" stroke="black" points="558,-211 558,-241 666,-241 666,-211 558,-211"/>
<text text-anchor="start" x="566" y="-229" font-family="Helvetica,sans-Serif" font-size="10.00">ant::expconfig::setup</text>
<text text-anchor="middle" x="612" y="-218" font-family="Helvetica,sans-Serif" font-size="10.00">::Setup_2018_03</text>
</a>
</g>
</g>
<!-- Node17&#45;&gt;Node19 -->
<g id="edge19" class="edge"><title>Node17&#45;&gt;Node19</title>
<path fill="none" stroke="midnightblue" d="M515.799,-213.668C530.333,-215.551 544.829,-217.429 557.965,-219.13"/>
<polygon fill="midnightblue" stroke="midnightblue" points="516.113,-210.18 505.747,-212.366 515.214,-217.122 516.113,-210.18"/>
</g>
<!-- Node20 -->
<g id="node21" class="node"><title>Node20</title>
<g id="a_node21"><a xlink:href="classant_1_1expconfig_1_1setup_1_1_setup__2018__05.html" target="_top" xlink:title="Ant Setup for the May 2018 beamtime using the new Tagger. ">
<polygon fill="white" stroke="black" points="558,-162 558,-192 666,-192 666,-162 558,-162"/>
<text text-anchor="start" x="566" y="-180" font-family="Helvetica,sans-Serif" font-size="10.00">ant::expconfig::setup</text>
<text text-anchor="middle" x="612" y="-169" font-family="Helvetica,sans-Serif" font-size="10.00">::Setup_2018_05</text>
</a>
</g>
</g>
<!-- Node17&#45;&gt;Node20 -->
<g id="edge20" class="edge"><title>Node17&#45;&gt;Node20</title>
<path fill="none" stroke="midnightblue" d="M515.799,-188.838C530.333,-187.031 544.829,-185.229 557.965,-183.595"/>
<polygon fill="midnightblue" stroke="midnightblue" points="515.238,-185.381 505.747,-190.089 516.102,-192.328 515.238,-185.381"/>
</g>
<!-- Node21 -->
<g id="node22" class="node"><title>Node21</title>
<g id="a_node22"><a xlink:href="classant_1_1expconfig_1_1setup_1_1_setup__2018__09.html" target="_top" xlink:title="Ant Setup for the Septmeber 2018 beamtime using the new Tagger. ">
<polygon fill="white" stroke="black" points="558,-113 558,-143 666,-143 666,-113 558,-113"/>
<text text-anchor="start" x="566" y="-131" font-family="Helvetica,sans-Serif" font-size="10.00">ant::expconfig::setup</text>
<text text-anchor="middle" x="612" y="-120" font-family="Helvetica,sans-Serif" font-size="10.00">::Setup_2018_09</text>
</a>
</g>
</g>
<!-- Node17&#45;&gt;Node21 -->
<g id="edge21" class="edge"><title>Node17&#45;&gt;Node21</title>
<path fill="none" stroke="midnightblue" d="M490.231,-182.482C495.641,-180.489 500.953,-178.329 506,-176 523.46,-167.942 524.781,-160.561 542,-152 548.474,-148.782 555.485,-145.807 562.474,-143.126"/>
<polygon fill="midnightblue" stroke="midnightblue" points="488.72,-179.302 480.423,-185.89 491.018,-185.914 488.72,-179.302"/>
</g>
</g>
</svg>
