<?xml version="1.0" encoding="UTF-8" standalone="no"?>
<!DOCTYPE svg PUBLIC "-//W3C//DTD SVG 1.1//EN"
 "http://www.w3.org/Graphics/SVG/1.1/DTD/svg11.dtd">
<!-- Generated by graphviz version 2.36.0 (20140111.2315)
 -->
<!-- Title: ant::expconfig::Setup_traits Pages: 1 -->
<svg width="654pt" height="616pt"
 viewBox="0.00 0.00 654.00 616.00" xmlns="http://www.w3.org/2000/svg" xmlns:xlink="http://www.w3.org/1999/xlink">
<g id="graph0" class="graph" transform="scale(1 1) rotate(0) translate(4 612)">
<title>ant::expconfig::Setup_traits</title>
<polygon fill="white" stroke="none" points="-4,4 -4,-612 650,-612 650,4 -4,4"/>
<!-- Node0 -->
<g id="node1" class="node"><title>Node0</title>
<polygon fill="#bfbfbf" stroke="black" points="0,-259 0,-289 110,-289 110,-259 0,-259"/>
<text text-anchor="start" x="8" y="-277" font-family="Helvetica,sans-Serif" font-size="10.00">ant::expconfig::Setup</text>
<text text-anchor="middle" x="55" y="-266" font-family="Helvetica,sans-Serif" font-size="10.00">_traits</text>
</g>
<!-- Node1 -->
<g id="node2" class="node"><title>Node1</title>
<g id="a_node2"><a xlink:href="classant_1_1expconfig_1_1_setup.html" target="_top" xlink:title="The Setup class serves as a base class for all known beamtime setup configurations. ">
<polygon fill="white" stroke="black" points="146,-264.5 146,-283.5 256,-283.5 256,-264.5 146,-264.5"/>
<text text-anchor="middle" x="201" y="-271.5" font-family="Helvetica,sans-Serif" font-size="10.00">ant::expconfig::Setup</text>
</a>
</g>
</g>
<!-- Node0&#45;&gt;Node1 -->
<g id="edge1" class="edge"><title>Node0&#45;&gt;Node1</title>
<path fill="none" stroke="midnightblue" d="M120.27,-274C128.75,-274 137.375,-274 145.667,-274"/>
<polygon fill="midnightblue" stroke="midnightblue" points="120.03,-270.5 110.03,-274 120.03,-277.5 120.03,-270.5"/>
</g>
<!-- Node2 -->
<g id="node3" class="node"><title>Node2</title>
<g id="a_node3"><a xlink:href="classant_1_1expconfig_1_1setup_1_1_setup__2007___base.html" target="_top" xlink:title="Common base class for all Setups of the 2014 Ent Point Tagger beam times. ">
<polygon fill="white" stroke="black" points="327,-529 327,-559 435,-559 435,-529 327,-529"/>
<text text-anchor="start" x="335" y="-547" font-family="Helvetica,sans-Serif" font-size="10.00">ant::expconfig::setup</text>
<text text-anchor="middle" x="381" y="-536" font-family="Helvetica,sans-Serif" font-size="10.00">::Setup_2007_Base</text>
</a>
</g>
</g>
<!-- Node1&#45;&gt;Node2 -->
<g id="edge2" class="edge"><title>Node1&#45;&gt;Node2</title>
<path fill="none" stroke="midnightblue" d="M203.373,-293.871C207.67,-340.325 224.923,-456.79 292,-519 301.665,-527.964 314.314,-533.743 326.995,-537.461"/>
<polygon fill="midnightblue" stroke="midnightblue" points="206.84,-293.327 202.537,-283.645 199.863,-293.897 206.84,-293.327"/>
</g>
<!-- Node5 -->
<g id="node6" class="node"><title>Node5</title>
<g id="a_node6"><a xlink:href="classant_1_1expconfig_1_1setup_1_1_setup__2010__03___base.html" target="_top" xlink:title="ant::expconfig::setup\l::Setup_2010_03_Base">
<polygon fill="white" stroke="black" points="322,-480 322,-510 440,-510 440,-480 322,-480"/>
<text text-anchor="start" x="330" y="-498" font-family="Helvetica,sans-Serif" font-size="10.00">ant::expconfig::setup</text>
<text text-anchor="middle" x="381" y="-487" font-family="Helvetica,sans-Serif" font-size="10.00">::Setup_2010_03_Base</text>
</a>
</g>
</g>
<!-- Node1&#45;&gt;Node5 -->
<g id="edge5" class="edge"><title>Node1&#45;&gt;Node5</title>
<path fill="none" stroke="midnightblue" d="M205.428,-293.872C213.314,-333.46 236.505,-422.439 292,-470 300.562,-477.338 311.144,-482.529 321.966,-486.199"/>
<polygon fill="midnightblue" stroke="midnightblue" points="208.839,-293.071 203.56,-283.885 201.959,-294.358 208.839,-293.071"/>
</g>
<!-- Node7 -->
<g id="node8" class="node"><title>Node7</title>
<g id="a_node8"><a xlink:href="classant_1_1expconfig_1_1setup_1_1_setup__2012__12___compton.html" target="_top" xlink:title="ant::expconfig::setup\l::Setup_2012_12_Compton">
<polygon fill="white" stroke="black" points="313.5,-431 313.5,-461 448.5,-461 448.5,-431 313.5,-431"/>
<text text-anchor="start" x="321.5" y="-449" font-family="Helvetica,sans-Serif" font-size="10.00">ant::expconfig::setup</text>
<text text-anchor="middle" x="381" y="-438" font-family="Helvetica,sans-Serif" font-size="10.00">::Setup_2012_12_Compton</text>
</a>
</g>
</g>
<!-- Node1&#45;&gt;Node7 -->
<g id="edge7" class="edge"><title>Node1&#45;&gt;Node7</title>
<path fill="none" stroke="midnightblue" d="M208.55,-293.384C220.223,-324.958 247.646,-387.344 292,-421 298.453,-425.896 305.827,-429.834 313.499,-433"/>
<polygon fill="midnightblue" stroke="midnightblue" points="211.72,-291.851 205.076,-283.598 205.123,-294.192 211.72,-291.851"/>
</g>
<!-- Node8 -->
<g id="node9" class="node"><title>Node8</title>
<g id="a_node9"><a xlink:href="classant_1_1expconfig_1_1setup_1_1_setup__2014___e_p_t.html" target="_top" xlink:title="Common base class for all Setups of the 2014 Ent Point Tagger beam times. ">
<polygon fill="white" stroke="black" points="327,-382 327,-412 435,-412 435,-382 327,-382"/>
<text text-anchor="start" x="335" y="-400" font-family="Helvetica,sans-Serif" font-size="10.00">ant::expconfig::setup</text>
<text text-anchor="middle" x="381" y="-389" font-family="Helvetica,sans-Serif" font-size="10.00">::Setup_2014_EPT</text>
</a>
</g>
</g>
<!-- Node1&#45;&gt;Node8 -->
<g id="edge8" class="edge"><title>Node1&#45;&gt;Node8</title>
<path fill="none" stroke="midnightblue" d="M213.92,-292.189C229.345,-314.296 258.275,-351.213 292,-372 302.546,-378.5 314.835,-383.36 326.826,-386.976"/>
<polygon fill="midnightblue" stroke="midnightblue" points="216.676,-290.017 208.162,-283.712 210.886,-293.95 216.676,-290.017"/>
</g>
<!-- Node12 -->
<g id="node13" class="node"><title>Node12</title>
<g id="a_node13"><a xlink:href="classant_1_1expconfig_1_1setup_1_1_setup__2015__01___pion.html" target="_top" xlink:title="Ant Setup for Rare Pion Test Beamtime in January 2015 &amp; MC studies. ">
<polygon fill="white" stroke="black" points="323.5,-333 323.5,-363 438.5,-363 438.5,-333 323.5,-333"/>
<text text-anchor="start" x="331.5" y="-351" font-family="Helvetica,sans-Serif" font-size="10.00">ant::expconfig::setup</text>
<text text-anchor="middle" x="381" y="-340" font-family="Helvetica,sans-Serif" font-size="10.00">::Setup_2015_01_Pion</text>
</a>
</g>
</g>
<!-- Node1&#45;&gt;Node12 -->
<g id="edge12" class="edge"><title>Node1&#45;&gt;Node12</title>
<path fill="none" stroke="midnightblue" d="M225.654,-288.768C243.404,-299.376 268.577,-313.435 292,-323 301.851,-327.023 312.574,-330.652 323.037,-333.819"/>
<polygon fill="midnightblue" stroke="midnightblue" points="227.462,-285.771 217.097,-283.577 223.831,-291.756 227.462,-285.771"/>
</g>
<!-- Node13 -->
<g id="node14" class="node"><title>Node13</title>
<g id="a_node14"><a xlink:href="classant_1_1expconfig_1_1setup_1_1_setup__2017__03.html" target="_top" xlink:title="Common base class for all Setups of the 2014 Ent Point Tagger beam times. ">
<polygon fill="white" stroke="black" points="327,-284 327,-314 435,-314 435,-284 327,-284"/>
<text text-anchor="start" x="335" y="-302" font-family="Helvetica,sans-Serif" font-size="10.00">ant::expconfig::setup</text>
<text text-anchor="middle" x="381" y="-291" font-family="Helvetica,sans-Serif" font-size="10.00">::Setup_2017_03</text>
</a>
</g>
</g>
<!-- Node1&#45;&gt;Node13 -->
<g id="edge13" class="edge"><title>Node1&#45;&gt;Node13</title>
<path fill="none" stroke="midnightblue" d="M266.277,-283.028C286.162,-285.82 307.835,-288.864 326.877,-291.539"/>
<polygon fill="midnightblue" stroke="midnightblue" points="266.763,-279.562 256.373,-281.637 265.789,-286.494 266.763,-279.562"/>
</g>
<!-- Node14 -->
<g id="node15" class="node"><title>Node14</title>
<g id="a_node15"><a xlink:href="classant_1_1expconfig_1_1setup_1_1_setup__2017__05.html" target="_top" xlink:title="Common base class for all Setups of the 2014 Ent Point Tagger beam times. ">
<polygon fill="white" stroke="black" points="327,-235 327,-265 435,-265 435,-235 327,-235"/>
<text text-anchor="start" x="335" y="-253" font-family="Helvetica,sans-Serif" font-size="10.00">ant::expconfig::setup</text>
<text text-anchor="middle" x="381" y="-242" font-family="Helvetica,sans-Serif" font-size="10.00">::Setup_2017_05</text>
</a>
</g>
</g>
<!-- Node1&#45;&gt;Node14 -->
<g id="edge14" class="edge"><title>Node1&#45;&gt;Node14</title>
<path fill="none" stroke="midnightblue" d="M266.55,-265.297C286.36,-262.626 307.922,-259.718 326.877,-257.163"/>
<polygon fill="midnightblue" stroke="midnightblue" points="265.816,-261.864 256.373,-266.669 266.751,-268.801 265.816,-261.864"/>
</g>
<!-- Node15 -->
<g id="node16" class="node"><title>Node15</title>
<g id="a_node16"><a xlink:href="classant_1_1expconfig_1_1setup_1_1_setup__2017_plus___new_tagger___base.html" target="_top" xlink:title="Common base class for all Setups starting end of 2017 using the new Tagger. ">
<polygon fill="white" stroke="black" points="292.5,-186 292.5,-216 469.5,-216 469.5,-186 292.5,-186"/>
<text text-anchor="start" x="300.5" y="-204" font-family="Helvetica,sans-Serif" font-size="10.00">ant::expconfig::setup</text>
<text text-anchor="middle" x="381" y="-193" font-family="Helvetica,sans-Serif" font-size="10.00">::Setup_2017Plus_NewTagger_Base</text>
</a>
</g>
</g>
<!-- Node1&#45;&gt;Node15 -->
<g id="edge15" class="edge"><title>Node1&#45;&gt;Node15</title>
<path fill="none" stroke="midnightblue" d="M226.504,-259.091C244.225,-248.772 268.998,-235.278 292,-226 300.985,-222.376 310.684,-219.06 320.248,-216.11"/>
<polygon fill="midnightblue" stroke="midnightblue" points="224.267,-256.348 217.441,-264.451 227.83,-262.373 224.267,-256.348"/>
</g>
<!-- Node20 -->
<g id="node21" class="node"><title>Node20</title>
<g id="a_node21"><a xlink:href="classant_1_1expconfig_1_1setup_1_1_setup__2018__11.html" target="_top" xlink:title="ant::expconfig::setup\l::Setup_2018_11">
<polygon fill="white" stroke="black" points="327,-137 327,-167 435,-167 435,-137 327,-137"/>
<text text-anchor="start" x="335" y="-155" font-family="Helvetica,sans-Serif" font-size="10.00">ant::expconfig::setup</text>
<text text-anchor="middle" x="381" y="-144" font-family="Helvetica,sans-Serif" font-size="10.00">::Setup_2018_11</text>
</a>
</g>
</g>
<!-- Node1&#45;&gt;Node20 -->
<g id="edge20" class="edge"><title>Node1&#45;&gt;Node20</title>
<path fill="none" stroke="midnightblue" d="M213.964,-256.001C229.433,-234.123 258.408,-197.586 292,-177 302.563,-170.527 314.858,-165.677 326.85,-162.063"/>
<polygon fill="midnightblue" stroke="midnightblue" points="210.976,-254.168 208.188,-264.39 216.742,-258.138 210.976,-254.168"/>
</g>
<!-- Node21 -->
<g id="node22" class="node"><title>Node21</title>
<g id="a_node22"><a xlink:href="classant_1_1expconfig_1_1setup_1_1_setup__2019__01.html" target="_top" xlink:title="ant::expconfig::setup\l::Setup_2019_01">
<polygon fill="white" stroke="black" points="327,-88 327,-118 435,-118 435,-88 327,-88"/>
<text text-anchor="start" x="335" y="-106" font-family="Helvetica,sans-Serif" font-size="10.00">ant::expconfig::setup</text>
<text text-anchor="middle" x="381" y="-95" font-family="Helvetica,sans-Serif" font-size="10.00">::Setup_2019_01</text>
</a>
</g>
</g>
<!-- Node1&#45;&gt;Node21 -->
<g id="edge21" class="edge"><title>Node1&#45;&gt;Node21</title>
<path fill="none" stroke="midnightblue" d="M208.588,-254.747C220.315,-223.386 247.814,-161.422 292,-128 302.133,-120.335 314.527,-115.019 326.779,-111.333"/>
<polygon fill="midnightblue" stroke="midnightblue" points="205.183,-253.873 205.096,-264.467 211.771,-256.239 205.183,-253.873"/>
</g>
<!-- Node22 -->
<g id="node23" class="node"><title>Node22</title>
<g id="a_node23"><a xlink:href="classant_1_1expconfig_1_1setup_1_1_setup___c_b_source_calib.html" target="_top" xlink:title="ant::expconfig::setup\l::Setup_CBSourceCalib">
<polygon fill="white" stroke="black" points="320.5,-39 320.5,-69 441.5,-69 441.5,-39 320.5,-39"/>
<text text-anchor="start" x="328.5" y="-57" font-family="Helvetica,sans-Serif" font-size="10.00">ant::expconfig::setup</text>
<text text-anchor="middle" x="381" y="-46" font-family="Helvetica,sans-Serif" font-size="10.00">::Setup_CBSourceCalib</text>
</a>
</g>
</g>
<!-- Node1&#45;&gt;Node22 -->
<g id="edge22" class="edge"><title>Node1&#45;&gt;Node22</title>
<path fill="none" stroke="midnightblue" d="M205.46,-254.227C213.404,-214.838 236.693,-126.307 292,-79 300.087,-72.0832 309.968,-67.0745 320.151,-63.4488"/>
<polygon fill="midnightblue" stroke="midnightblue" points="202,-253.687 203.576,-264.164 208.878,-254.991 202,-253.687"/>
</g>
<!-- Node23 -->
<g id="node24" class="node"><title>Node23</title>
<g id="a_node24"><a xlink:href="struct_fake_setup.html" target="_top" xlink:title="Empty fake setup that always matches. Used in case no real setup exists. ">
<polygon fill="white" stroke="black" points="349,-0.5 349,-19.5 413,-19.5 413,-0.5 349,-0.5"/>
<text text-anchor="middle" x="381" y="-7.5" font-family="Helvetica,sans-Serif" font-size="10.00">FakeSetup</text>
</a>
</g>
</g>
<!-- Node1&#45;&gt;Node23 -->
<g id="edge23" class="edge"><title>Node1&#45;&gt;Node23</title>
<path fill="none" stroke="midnightblue" d="M203.061,-254.454C206.7,-207.79 222.658,-89.2915 292,-29 307.451,-15.5654 330.132,-10.905 348.598,-9.5569"/>
<polygon fill="midnightblue" stroke="midnightblue" points="199.567,-254.247 202.389,-264.459 206.552,-254.716 199.567,-254.247"/>
</g>
<!-- Node3 -->
<g id="node4" class="node"><title>Node3</title>
<g id="a_node4"><a xlink:href="classant_1_1expconfig_1_1setup_1_1_setup__2007__06.html" target="_top" xlink:title="Ant Setup for the Juni 2007 beam time. ">
<polygon fill="white" stroke="black" points="522,-578 522,-608 630,-608 630,-578 522,-578"/>
<text text-anchor="start" x="530" y="-596" font-family="Helvetica,sans-Serif" font-size="10.00">ant::expconfig::setup</text>
<text text-anchor="middle" x="576" y="-585" font-family="Helvetica,sans-Serif" font-size="10.00">::Setup_2007_06</text>
</a>
</g>
</g>
<!-- Node2&#45;&gt;Node3 -->
<g id="edge3" class="edge"><title>Node2&#45;&gt;Node3</title>
<path fill="none" stroke="midnightblue" d="M444.958,-559.984C469.835,-566.3 498.109,-573.479 521.925,-579.525"/>
<polygon fill="midnightblue" stroke="midnightblue" points="445.803,-556.588 435.249,-557.519 444.08,-563.372 445.803,-556.588"/>
</g>
<!-- Node4 -->
<g id="node5" class="node"><title>Node4</title>
<g id="a_node5"><a xlink:href="classant_1_1expconfig_1_1setup_1_1_setup__2007__07.html" target="_top" xlink:title="Ant Setup for the July 2007 beam time. ">
<polygon fill="white" stroke="black" points="522,-529 522,-559 630,-559 630,-529 522,-529"/>
<text text-anchor="start" x="530" y="-547" font-family="Helvetica,sans-Serif" font-size="10.00">ant::expconfig::setup</text>
<text text-anchor="middle" x="576" y="-536" font-family="Helvetica,sans-Serif" font-size="10.00">::Setup_2007_07</text>
</a>
</g>
</g>
<!-- Node2&#45;&gt;Node4 -->
<g id="edge4" class="edge"><title>Node2&#45;&gt;Node4</title>
<path fill="none" stroke="midnightblue" d="M445.288,-544C470.085,-544 498.215,-544 521.925,-544"/>
<polygon fill="midnightblue" stroke="midnightblue" points="445.249,-540.5 435.249,-544 445.249,-547.5 445.249,-540.5"/>
</g>
<!-- Node6 -->
<g id="node7" class="node"><title>Node6</title>
<g id="a_node7"><a xlink:href="classant_1_1expconfig_1_1setup_1_1_setup__2010__09___compton.html" target="_top" xlink:title="Ant Setup for the September 2010 beam time. ">
<polygon fill="white" stroke="black" points="508.5,-480 508.5,-510 643.5,-510 643.5,-480 508.5,-480"/>
<text text-anchor="start" x="516.5" y="-498" font-family="Helvetica,sans-Serif" font-size="10.00">ant::expconfig::setup</text>
<text text-anchor="middle" x="576" y="-487" font-family="Helvetica,sans-Serif" font-size="10.00">::Setup_2010_09_Compton</text>
</a>
</g>
</g>
<!-- Node5&#45;&gt;Node6 -->
<g id="edge6" class="edge"><title>Node5&#45;&gt;Node6</title>
<path fill="none" stroke="midnightblue" d="M450.202,-495C469.133,-495 489.658,-495 508.491,-495"/>
<polygon fill="midnightblue" stroke="midnightblue" points="450.168,-491.5 440.168,-495 450.168,-498.5 450.168,-491.5"/>
</g>
<!-- Node9 -->
<g id="node10" class="node"><title>Node9</title>
<g id="a_node10"><a xlink:href="classant_1_1expconfig_1_1setup_1_1_setup__2014__07___e_p_t___prod.html" target="_top" xlink:title="Ant Setup for the July 2014 End Point Tagger beam time. ">
<polygon fill="white" stroke="black" points="506,-431 506,-461 646,-461 646,-431 506,-431"/>
<text text-anchor="start" x="514" y="-449" font-family="Helvetica,sans-Serif" font-size="10.00">ant::expconfig::setup</text>
<text text-anchor="middle" x="576" y="-438" font-family="Helvetica,sans-Serif" font-size="10.00">::Setup_2014_07_EPT_Prod</text>
</a>
</g>
</g>
<!-- Node8&#45;&gt;Node9 -->
<g id="edge9" class="edge"><title>Node8&#45;&gt;Node9</title>
<path fill="none" stroke="midnightblue" d="M445.138,-413.03C467.874,-418.802 493.428,-425.29 515.815,-430.974"/>
<polygon fill="midnightblue" stroke="midnightblue" points="445.803,-409.588 435.249,-410.519 444.08,-416.372 445.803,-409.588"/>
</g>
<!-- Node10 -->
<g id="node11" class="node"><title>Node10</title>
<g id="a_node11"><a xlink:href="classant_1_1expconfig_1_1setup_1_1_setup__2014__10___e_p_t___prod.html" target="_top" xlink:title="Ant Setup for the October 2014 End Point Tagger beam time. ">
<polygon fill="white" stroke="black" points="506,-382 506,-412 646,-412 646,-382 506,-382"/>
<text text-anchor="start" x="514" y="-400" font-family="Helvetica,sans-Serif" font-size="10.00">ant::expconfig::setup</text>
<text text-anchor="middle" x="576" y="-389" font-family="Helvetica,sans-Serif" font-size="10.00">::Setup_2014_10_EPT_Prod</text>
</a>
</g>
</g>
<!-- Node8&#45;&gt;Node10 -->
<g id="edge10" class="edge"><title>Node8&#45;&gt;Node10</title>
<path fill="none" stroke="midnightblue" d="M445.482,-397C464.865,-397 486.269,-397 506,-397"/>
<polygon fill="midnightblue" stroke="midnightblue" points="445.249,-393.5 435.249,-397 445.249,-400.5 445.249,-393.5"/>
</g>
<!-- Node11 -->
<g id="node12" class="node"><title>Node11</title>
<g id="a_node12"><a xlink:href="classant_1_1expconfig_1_1setup_1_1_setup__2014__12___e_p_t___prod.html" target="_top" xlink:title="Ant Setup for the December 2014 End Point Tagger beam time. ">
<polygon fill="white" stroke="black" points="506,-333 506,-363 646,-363 646,-333 506,-333"/>
<text text-anchor="start" x="514" y="-351" font-family="Helvetica,sans-Serif" font-size="10.00">ant::expconfig::setup</text>
<text text-anchor="middle" x="576" y="-340" font-family="Helvetica,sans-Serif" font-size="10.00">::Setup_2014_12_EPT_Prod</text>
</a>
</g>
</g>
<!-- Node8&#45;&gt;Node11 -->
<g id="edge11" class="edge"><title>Node8&#45;&gt;Node11</title>
<path fill="none" stroke="midnightblue" d="M445.138,-380.97C467.874,-375.198 493.428,-368.71 515.815,-363.026"/>
<polygon fill="midnightblue" stroke="midnightblue" points="444.08,-377.628 435.249,-383.481 445.803,-384.412 444.08,-377.628"/>
</g>
<!-- Node16 -->
<g id="node17" class="node"><title>Node16</title>
<g id="a_node17"><a xlink:href="classant_1_1expconfig_1_1setup_1_1_setup__2017__12.html" target="_top" xlink:title="Ant Setup for the December 2017 beamtime using the new Tagger. ">
<polygon fill="white" stroke="black" points="522,-259 522,-289 630,-289 630,-259 522,-259"/>
<text text-anchor="start" x="530" y="-277" font-family="Helvetica,sans-Serif" font-size="10.00">ant::expconfig::setup</text>
<text text-anchor="middle" x="576" y="-266" font-family="Helvetica,sans-Serif" font-size="10.00">::Setup_2017_12</text>
</a>
</g>
</g>
<!-- Node15&#45;&gt;Node16 -->
<g id="edge16" class="edge"><title>Node15&#45;&gt;Node16</title>
<path fill="none" stroke="midnightblue" d="M453.476,-219.373C459.14,-221.412 464.711,-223.621 470,-226 487.316,-233.788 488.971,-240.604 506,-249 513.314,-252.606 521.283,-255.971 529.123,-258.991"/>
<polygon fill="midnightblue" stroke="midnightblue" points="454.482,-216.019 443.888,-216.102 452.222,-222.644 454.482,-216.019"/>
</g>
<!-- Node17 -->
<g id="node18" class="node"><title>Node17</title>
<g id="a_node18"><a xlink:href="classant_1_1expconfig_1_1setup_1_1_setup__2018__03.html" target="_top" xlink:title="Ant Setup for the March 2018 beamtime using the new Tagger. ">
<polygon fill="white" stroke="black" points="522,-210 522,-240 630,-240 630,-210 522,-210"/>
<text text-anchor="start" x="530" y="-228" font-family="Helvetica,sans-Serif" font-size="10.00">ant::expconfig::setup</text>
<text text-anchor="middle" x="576" y="-217" font-family="Helvetica,sans-Serif" font-size="10.00">::Setup_2018_03</text>
</a>
</g>
</g>
<!-- Node15&#45;&gt;Node17 -->
<g id="edge17" class="edge"><title>Node15&#45;&gt;Node17</title>
<path fill="none" stroke="midnightblue" d="M479.799,-213.162C494.333,-214.969 508.829,-216.771 521.965,-218.405"/>
<polygon fill="midnightblue" stroke="midnightblue" points="480.102,-209.672 469.747,-211.911 479.238,-216.619 480.102,-209.672"/>
</g>
<!-- Node18 -->
<g id="node19" class="node"><title>Node18</title>
<g id="a_node19"><a xlink:href="classant_1_1expconfig_1_1setup_1_1_setup__2018__05.html" target="_top" xlink:title="Ant Setup for the May 2018 beamtime using the new Tagger. ">
<polygon fill="white" stroke="black" points="522,-161 522,-191 630,-191 630,-161 522,-161"/>
<text text-anchor="start" x="530" y="-179" font-family="Helvetica,sans-Serif" font-size="10.00">ant::expconfig::setup</text>
<text text-anchor="middle" x="576" y="-168" font-family="Helvetica,sans-Serif" font-size="10.00">::Setup_2018_05</text>
</a>
</g>
</g>
<!-- Node15&#45;&gt;Node18 -->
<g id="edge18" class="edge"><title>Node15&#45;&gt;Node18</title>
<path fill="none" stroke="midnightblue" d="M479.799,-188.332C494.333,-186.449 508.829,-184.571 521.965,-182.87"/>
<polygon fill="midnightblue" stroke="midnightblue" points="479.214,-184.878 469.747,-189.634 480.113,-191.82 479.214,-184.878"/>
</g>
<!-- Node19 -->
<g id="node20" class="node"><title>Node19</title>
<g id="a_node20"><a xlink:href="classant_1_1expconfig_1_1setup_1_1_setup__2018__09.html" target="_top" xlink:title="Ant Setup for the Septmeber 2018 beamtime using the new Tagger. ">
<polygon fill="white" stroke="black" points="522,-112 522,-142 630,-142 630,-112 522,-112"/>
<text text-anchor="start" x="530" y="-130" font-family="Helvetica,sans-Serif" font-size="10.00">ant::expconfig::setup</text>
<text text-anchor="middle" x="576" y="-119" font-family="Helvetica,sans-Serif" font-size="10.00">::Setup_2018_09</text>
</a>
</g>
</g>
<!-- Node15&#45;&gt;Node19 -->
<g id="edge19" class="edge"><title>Node15&#45;&gt;Node19</title>
<path fill="none" stroke="midnightblue" d="M454.231,-182.482C459.641,-180.489 464.953,-178.329 470,-176 487.46,-167.942 488.836,-160.671 506,-152 513.165,-148.38 520.982,-145.028 528.696,-142.031"/>
<polygon fill="midnightblue" stroke="midnightblue" points="452.72,-179.302 444.423,-185.89 455.018,-185.914 452.72,-179.302"/>
</g>
</g>
</svg>
